<svg width="322" height="52" viewBox="0 0 322 52" fill="none" xmlns="http://www.w3.org/2000/svg">
<rect x="0.293256" y="0.293256" width="321.413" height="50.5887" rx="9.09093" fill="url(#paint0_linear_2630_2525)"/>
<rect x="0.293256" y="0.293256" width="321.413" height="50.5887" rx="9.09093" stroke="url(#paint1_linear_2630_2525)" stroke-width="0.586511"/>
<path d="M118.217 24.9436C118.232 23.8221 118.545 22.7225 119.128 21.7471C119.711 20.7716 120.544 19.9521 121.55 19.3647C120.911 18.4978 120.068 17.7844 119.088 17.2811C118.108 16.7779 117.018 16.4986 115.904 16.4655C113.529 16.2287 111.226 17.8157 110.016 17.8157C108.782 17.8157 106.918 16.489 104.911 16.5282C103.613 16.5681 102.348 16.9266 101.239 17.569C100.131 18.2113 99.2158 19.1156 98.5842 20.1936C95.8486 24.6927 97.8891 31.3049 100.51 34.9417C101.821 36.7225 103.353 38.7117 105.358 38.6412C107.32 38.5639 108.053 37.4527 110.421 37.4527C112.768 37.4527 113.455 38.6412 115.501 38.5963C117.606 38.5639 118.933 36.8076 120.198 35.0099C121.14 33.741 121.865 32.3386 122.346 30.8546C121.123 30.3632 120.079 29.5406 119.345 28.4895C118.61 27.4384 118.218 26.2051 118.217 24.9436Z" fill="white"/>
<path d="M114.352 14.074C115.5 12.765 116.066 11.0825 115.929 9.38379C114.175 9.55876 112.555 10.355 111.391 11.6137C110.823 12.2287 110.387 12.9441 110.109 13.7191C109.832 14.4941 109.718 15.3134 109.774 16.1303C110.651 16.1389 111.519 15.9583 112.312 15.6021C113.105 15.2459 113.802 14.7234 114.352 14.074Z" fill="white"/>
<path d="M138.957 9.75463C139.415 9.71938 139.875 9.7936 140.304 9.97194C140.732 10.1503 141.118 10.4283 141.434 10.786C141.75 11.1436 141.988 11.572 142.131 12.0401C142.273 12.5083 142.318 13.0046 142.26 13.4933C142.26 15.8971 141.048 17.2788 138.957 17.2788H136.422V9.75463H138.957ZM137.512 16.2147H138.835C139.163 16.2357 139.491 16.1781 139.795 16.0462C140.099 15.9143 140.372 15.7114 140.593 15.4521C140.815 15.1929 140.98 14.884 141.076 14.5478C141.173 14.2116 141.198 13.8566 141.15 13.5086C141.194 13.1621 141.167 12.8093 141.069 12.4755C140.971 12.1418 140.806 11.8354 140.585 11.5782C140.363 11.321 140.092 11.1195 139.789 10.9881C139.487 10.8566 139.161 10.7985 138.835 10.8179H137.512V16.2147Z" fill="white"/>
<path d="M143.49 14.4374C143.457 14.0642 143.497 13.6877 143.607 13.332C143.718 12.9764 143.896 12.6493 144.131 12.3719C144.367 12.0945 144.653 11.8729 144.973 11.7212C145.293 11.5696 145.639 11.4912 145.988 11.4912C146.338 11.4912 146.684 11.5696 147.004 11.7212C147.323 11.8729 147.61 12.0945 147.845 12.3719C148.08 12.6493 148.259 12.9764 148.369 13.332C148.48 13.6877 148.52 14.0642 148.486 14.4374C148.52 14.8109 148.481 15.1879 148.371 15.5442C148.261 15.9005 148.082 16.2281 147.847 16.506C147.612 16.784 147.325 17.0061 147.005 17.1581C146.685 17.3101 146.338 17.3886 145.988 17.3886C145.638 17.3886 145.292 17.3101 144.972 17.1581C144.652 17.0061 144.365 16.784 144.13 16.506C143.894 16.2281 143.716 15.9005 143.606 15.5442C143.496 15.1879 143.456 14.8109 143.49 14.4374ZM147.411 14.4374C147.411 13.2066 146.895 12.4868 145.99 12.4868C145.081 12.4868 144.57 13.2066 144.57 14.4374C144.57 15.6781 145.081 16.3923 145.99 16.3923C146.895 16.3923 147.411 15.6731 147.411 14.4374H147.411Z" fill="white"/>
<path d="M155.126 17.2788H154.042L152.947 13.0968H152.865L151.774 17.2788H150.7L149.24 11.6006H150.301L151.249 15.9334H151.328L152.417 11.6006H153.419L154.508 15.9334H154.591L155.535 11.6006H156.581L155.126 17.2788Z" fill="white"/>
<path d="M157.811 11.6005H158.817V12.5026H158.895C159.027 12.1786 159.251 11.907 159.534 11.7257C159.818 11.5443 160.147 11.4623 160.476 11.4909C160.733 11.4702 160.992 11.5118 161.233 11.6128C161.474 11.7138 161.69 11.8716 161.866 12.0744C162.042 12.2772 162.173 12.5199 162.25 12.7845C162.327 13.0491 162.347 13.3288 162.309 13.6029V17.2787H161.264V13.8843C161.264 12.9718 160.894 12.518 160.121 12.518C159.946 12.5092 159.771 12.5412 159.609 12.6116C159.446 12.682 159.3 12.7892 159.18 12.9259C159.06 13.0625 158.969 13.2254 158.913 13.4034C158.857 13.5814 158.837 13.7702 158.856 13.9569V17.2787H157.811L157.811 11.6005Z" fill="white"/>
<path d="M163.973 9.38379H165.018V17.2786H163.973V9.38379Z" fill="white"/>
<path d="M166.473 14.4375C166.439 14.0643 166.479 13.6878 166.59 13.3321C166.7 12.9764 166.879 12.6493 167.114 12.3719C167.349 12.0945 167.636 11.8729 167.956 11.7212C168.275 11.5696 168.621 11.4912 168.971 11.4912C169.321 11.4912 169.667 11.5696 169.986 11.7212C170.306 11.8729 170.593 12.0945 170.828 12.3719C171.063 12.6493 171.242 12.9764 171.352 13.3321C171.463 13.6878 171.502 14.0643 171.469 14.4375C171.503 14.811 171.464 15.1881 171.354 15.5443C171.243 15.9006 171.065 16.2282 170.83 16.5061C170.594 16.7841 170.308 17.0062 169.987 17.1582C169.667 17.3101 169.321 17.3887 168.971 17.3887C168.621 17.3887 168.275 17.3101 167.955 17.1582C167.634 17.0062 167.347 16.7841 167.112 16.5061C166.877 16.2282 166.698 15.9006 166.588 15.5443C166.478 15.1881 166.439 14.811 166.473 14.4375ZM170.393 14.4375C170.393 13.2067 169.878 12.4869 168.972 12.4869C168.064 12.4869 167.553 13.2067 167.553 14.4375C167.553 15.6782 168.064 16.3924 168.972 16.3924C169.878 16.3924 170.393 15.6732 170.393 14.4375H170.393Z" fill="white"/>
<path d="M172.572 15.6732C172.572 14.6511 173.282 14.0618 174.542 13.9781L175.977 13.8894V13.3993C175.977 12.7996 175.607 12.461 174.893 12.461C174.309 12.461 173.905 12.6906 173.789 13.0921H172.777C172.884 12.1168 173.739 11.4912 174.941 11.4912C176.269 11.4912 177.018 12.1999 177.018 13.3993V17.279H176.012V16.481H175.929C175.761 16.7673 175.525 17.0006 175.246 17.1572C174.966 17.3139 174.653 17.3882 174.338 17.3725C174.116 17.3973 173.891 17.3719 173.678 17.2979C173.466 17.2239 173.27 17.1029 173.103 16.9428C172.937 16.7827 172.804 16.587 172.712 16.3683C172.621 16.1496 172.573 15.9128 172.572 15.6732ZM175.977 15.188V14.7133L174.684 14.8019C173.954 14.8543 173.623 15.1203 173.623 15.6208C173.623 16.1319 174.037 16.4293 174.606 16.4293C174.772 16.4474 174.941 16.4293 175.1 16.3763C175.26 16.3232 175.409 16.2361 175.537 16.1203C175.665 16.0045 175.77 15.8623 175.845 15.7021C175.921 15.542 175.966 15.3671 175.977 15.188Z" fill="white"/>
<path d="M178.391 14.437C178.391 12.6428 179.251 11.5062 180.589 11.5062C180.92 11.4898 181.249 11.5748 181.537 11.7513C181.824 11.9277 182.059 12.1882 182.214 12.5024H182.292V9.38379H183.337V17.2786H182.335V16.3815H182.253C182.086 16.6935 181.843 16.9508 181.55 17.1255C181.257 17.3001 180.925 17.3854 180.589 17.3721C179.242 17.3722 178.391 16.2356 178.391 14.437ZM179.47 14.437C179.47 15.6414 180 16.3661 180.886 16.3661C181.767 16.3661 182.311 15.6309 182.311 14.442C182.311 13.2585 181.761 12.5129 180.886 12.5129C180.006 12.5129 179.47 13.2425 179.47 14.437H179.47Z" fill="white"/>
<path d="M187.662 14.4374C187.629 14.0642 187.669 13.6877 187.779 13.332C187.889 12.9764 188.068 12.6493 188.303 12.3719C188.538 12.0945 188.825 11.8729 189.145 11.7212C189.465 11.5696 189.81 11.4912 190.16 11.4912C190.51 11.4912 190.856 11.5696 191.175 11.7212C191.495 11.8729 191.782 12.0945 192.017 12.3719C192.252 12.6493 192.431 12.9764 192.541 13.332C192.652 13.6877 192.691 14.0642 192.658 14.4374C192.692 14.8109 192.653 15.1879 192.543 15.5442C192.433 15.9005 192.254 16.2281 192.019 16.506C191.784 16.784 191.497 17.0061 191.177 17.1581C190.856 17.3101 190.51 17.3886 190.16 17.3886C189.81 17.3886 189.464 17.3101 189.144 17.1581C188.824 17.0061 188.537 16.784 188.301 16.506C188.066 16.2281 187.888 15.9005 187.778 15.5442C187.668 15.1879 187.628 14.8109 187.662 14.4374ZM191.583 14.4374C191.583 13.2066 191.067 12.4868 190.162 12.4868C189.253 12.4868 188.742 13.2066 188.742 14.4374C188.742 15.6781 189.253 16.3923 190.162 16.3923C191.067 16.3923 191.583 15.6731 191.583 14.4374Z" fill="white"/>
<path d="M194.059 11.6005H195.065V12.5026H195.143C195.276 12.1786 195.499 11.907 195.782 11.7257C196.066 11.5443 196.395 11.4623 196.724 11.4909C196.981 11.4702 197.24 11.5118 197.481 11.6128C197.722 11.7138 197.938 11.8716 198.114 12.0744C198.29 12.2772 198.421 12.5199 198.498 12.7845C198.575 13.0491 198.595 13.3288 198.557 13.6029V17.2787H197.512V13.8843C197.512 12.9718 197.142 12.518 196.369 12.518C196.194 12.5092 196.019 12.5412 195.857 12.6116C195.694 12.682 195.548 12.7892 195.428 12.9259C195.308 13.0625 195.217 13.2254 195.161 13.4034C195.105 13.5814 195.085 13.7702 195.104 13.9569V17.2787H194.059V11.6005Z" fill="white"/>
<path d="M204.464 10.1865V11.6261H205.611V12.57H204.464V15.4897C204.464 16.0845 204.692 16.345 205.213 16.345C205.346 16.3445 205.479 16.3359 205.611 16.3191V17.2525C205.423 17.2885 205.233 17.3077 205.043 17.3098C203.88 17.3098 203.417 16.8714 203.417 15.7767V12.5699H202.576V11.626H203.417V10.1865H204.464Z" fill="white"/>
<path d="M207.039 9.38379H208.075V12.5129H208.158C208.297 12.1859 208.527 11.9128 208.816 11.7307C209.105 11.5487 209.439 11.4667 209.773 11.4957C210.029 11.4808 210.286 11.5267 210.524 11.6301C210.762 11.7336 210.975 11.892 211.15 12.0942C211.324 12.2964 211.454 12.5373 211.532 12.7998C211.609 13.0622 211.631 13.3398 211.597 13.6126V17.2786H210.551V13.889C210.551 12.9821 210.157 12.5227 209.418 12.5227C209.238 12.5069 209.058 12.5334 208.889 12.6003C208.72 12.6672 208.566 12.7729 208.439 12.91C208.312 13.0472 208.214 13.2124 208.153 13.3941C208.092 13.5759 208.068 13.7698 208.084 13.9623V17.2786H207.039L207.039 9.38379Z" fill="white"/>
<path d="M217.694 15.745C217.552 16.2639 217.245 16.7128 216.825 17.0131C216.405 17.3134 215.901 17.446 215.399 17.3877C215.05 17.3976 214.703 17.3259 214.383 17.1777C214.062 17.0295 213.776 16.8083 213.543 16.5295C213.31 16.2506 213.137 15.9208 213.035 15.5629C212.933 15.205 212.905 14.8276 212.952 14.4569C212.906 14.085 212.934 13.7068 213.036 13.3478C213.138 12.9889 213.31 12.6575 213.542 12.3762C213.774 12.0949 214.059 11.8703 214.378 11.7174C214.698 11.5646 215.045 11.4871 215.395 11.4903C216.868 11.4903 217.757 12.5697 217.757 14.3528V14.7438H214.017V14.8066C214.001 15.015 214.025 15.2247 214.089 15.4224C214.153 15.6201 214.254 15.8013 214.387 15.9544C214.52 16.1076 214.681 16.2293 214.86 16.3118C215.039 16.3942 215.233 16.4356 215.428 16.4333C215.678 16.4655 215.931 16.4172 216.156 16.2946C216.38 16.1721 216.565 15.9807 216.688 15.7449L217.694 15.745ZM214.017 13.915H216.693C216.706 13.7245 216.682 13.533 216.622 13.3531C216.562 13.1731 216.467 13.0086 216.345 12.87C216.222 12.7315 216.073 12.6221 215.909 12.5487C215.744 12.4753 215.567 12.4397 215.389 12.4441C215.208 12.4417 215.029 12.478 214.861 12.5511C214.694 12.6242 214.541 12.7324 214.414 12.8695C214.286 13.0066 214.185 13.1698 214.117 13.3493C214.049 13.5289 214.015 13.7212 214.017 13.915H214.017Z" fill="white"/>
<path d="M145.685 33.7811H140.117L138.78 38.0136H136.422L141.696 22.3545H144.146L149.42 38.0136H147.021L145.685 33.7811ZM140.694 31.828H145.108L142.932 24.959H142.871L140.694 31.828Z" fill="white"/>
<path d="M160.809 32.3061C160.809 35.8539 159.038 38.1333 156.365 38.1333C155.688 38.1713 155.014 38.0041 154.422 37.6508C153.829 37.2976 153.341 36.7725 153.014 36.1359H152.963V41.7907H150.777V26.5971H152.893V28.496H152.934C153.276 27.8624 153.772 27.3401 154.369 26.9847C154.966 26.6293 155.642 26.4541 156.325 26.4777C159.028 26.4777 160.809 28.7682 160.809 32.3061ZM158.562 32.3061C158.562 29.9947 157.448 28.4751 155.748 28.4751C154.078 28.4751 152.954 30.0267 152.954 32.3061C152.954 34.6065 154.078 36.147 155.748 36.147C157.448 36.147 158.562 34.6385 158.562 32.3061H158.562Z" fill="white"/>
<path d="M172.533 32.3061C172.533 35.8539 170.761 38.1333 168.088 38.1333C167.41 38.1713 166.737 38.0041 166.144 37.6508C165.552 37.2976 165.064 36.7726 164.737 36.1359H164.686V41.7907H162.5V26.5971H164.616V28.496H164.656C164.998 27.8624 165.495 27.3401 166.092 26.9847C166.689 26.6293 167.365 26.4541 168.047 26.4777C170.75 26.4777 172.533 28.7682 172.533 32.3061ZM170.285 32.3061C170.285 29.9947 169.171 28.4751 167.471 28.4751C165.8 28.4751 164.677 30.0267 164.677 32.3061C164.677 34.6065 165.8 36.147 167.471 36.147C169.171 36.147 170.285 34.6385 170.285 32.3061Z" fill="white"/>
<path d="M180.279 33.6509C180.441 35.2038 181.848 36.2233 183.771 36.2233C185.614 36.2233 186.939 35.2037 186.939 33.8036C186.939 32.5881 186.14 31.8604 184.247 31.3616L182.353 30.8727C179.671 30.1782 178.426 28.8334 178.426 26.6513C178.426 23.9495 180.622 22.0938 183.74 22.0938C186.828 22.0938 188.944 23.9495 189.015 26.6513H186.808C186.676 25.0886 185.471 24.1453 183.71 24.1453C181.949 24.1453 180.744 25.0997 180.744 26.4888C180.744 27.5958 181.514 28.2473 183.397 28.746L185.006 29.1696C188.003 29.9294 189.247 31.22 189.247 33.5104C189.247 36.44 187.071 38.2749 183.609 38.2749C180.37 38.2749 178.182 36.4831 178.041 33.6508L180.279 33.6509Z" fill="white"/>
<path d="M193.968 23.8955V26.5973H195.993V28.4531H193.968V34.747C193.968 35.7248 194.373 36.1804 195.263 36.1804C195.504 36.1759 195.744 36.1578 195.982 36.1262V37.9709C195.582 38.051 195.175 38.0874 194.768 38.0792C192.612 38.0792 191.771 37.2111 191.771 34.9969V28.4531H190.223V26.5973H191.771V23.8955H193.968Z" fill="white"/>
<path d="M197.164 32.3064C197.164 28.7143 199.138 26.457 202.215 26.457C205.303 26.457 207.267 28.7142 207.267 32.3064C207.267 35.9084 205.313 38.1557 202.215 38.1557C199.118 38.1557 197.164 35.9083 197.164 32.3064ZM205.04 32.3064C205.04 29.8423 203.986 28.3879 202.215 28.3879C200.444 28.3879 199.39 29.8534 199.39 32.3064C199.39 34.7803 200.444 36.2236 202.215 36.2236C203.986 36.2236 205.04 34.7803 205.04 32.3064H205.04Z" fill="white"/>
<path d="M209.07 26.597H211.155V28.5402H211.206C211.347 27.9333 211.679 27.397 212.145 27.0214C212.612 26.6457 213.185 26.4537 213.768 26.4776C214.02 26.4766 214.271 26.506 214.517 26.565V28.757C214.199 28.6528 213.867 28.605 213.534 28.6154C213.217 28.6016 212.9 28.6616 212.606 28.7913C212.312 28.9211 212.048 29.1174 211.832 29.367C211.615 29.6165 211.452 29.9133 211.353 30.237C211.253 30.5606 211.22 30.9035 211.256 31.242V38.0137H209.07L209.07 26.597Z" fill="white"/>
<path d="M224.595 34.6609C224.301 36.7334 222.418 38.1557 220.009 38.1557C216.911 38.1557 214.988 35.9305 214.988 32.3606C214.988 28.7795 216.922 26.457 219.918 26.457C222.864 26.457 224.717 28.6268 224.717 32.0884V32.8913H217.195V33.0329C217.16 33.4531 217.209 33.8764 217.339 34.2746C217.469 34.6729 217.676 35.0371 217.947 35.3429C218.218 35.6488 218.546 35.8893 218.911 36.0486C219.275 36.2079 219.667 36.2822 220.06 36.2667C220.577 36.3186 221.095 36.1903 221.538 35.901C221.981 35.6117 222.325 35.1767 222.519 34.6609L224.595 34.6609ZM217.205 31.2535H222.53C222.549 30.8757 222.496 30.4977 222.373 30.143C222.25 29.7884 222.06 29.4649 221.814 29.1929C221.569 28.9208 221.274 28.706 220.947 28.562C220.621 28.4179 220.27 28.3478 219.918 28.3559C219.562 28.3536 219.209 28.427 218.879 28.5717C218.55 28.7163 218.25 28.9295 217.998 29.1989C217.746 29.4683 217.546 29.7886 217.41 30.1412C217.274 30.4939 217.204 30.8719 217.205 31.2535V31.2535Z" fill="white"/>
<defs>
<linearGradient id="paint0_linear_2630_2525" x1="-48.3348" y1="-18.6617" x2="262.076" y2="197.546" gradientUnits="userSpaceOnUse">
<stop stop-color="#090C0F"/>
<stop offset="0.694999" stop-color="#1A1F25"/>
<stop offset="1" stop-color="#090C0F"/>
</linearGradient>
<linearGradient id="paint1_linear_2630_2525" x1="-1.21639e-09" y1="6.63383" x2="263.027" y2="143.355" gradientUnits="userSpaceOnUse">
<stop stop-color="#727272"/>
<stop offset="0.865222" stop-color="#121212"/>
<stop offset="1" stop-color="#4C4C4C"/>
</linearGradient>
</defs>
</svg>
