<svg width="20" height="20" viewBox="0 0 20 20" fill="none" xmlns="http://www.w3.org/2000/svg">
<path id="Vector" d="M3.93947 0.675901C3.03827 -0.2253 1.5771 -0.2253 0.6759 0.675901C-0.2253 1.57713 -0.2253 3.03827 0.6759 3.93944L6.73639 10.0001L0.675961 16.0607C-0.225238 16.9616 -0.225238 18.4228 0.675961 19.3241C1.57716 20.2253 3.03833 20.2253 3.93947 19.3241L10.0001 13.2638L16.0604 19.3241C16.9616 20.2253 18.4228 20.2253 19.3241 19.3241C20.2253 18.4228 20.2253 16.9616 19.3241 16.0604L13.2635 10.0001L19.3241 3.93944C20.2253 3.03833 20.2253 1.57719 19.3241 0.675992C18.4228 -0.22524 16.9616 -0.22524 16.0604 0.675992L10.0001 6.73637L3.93947 0.675901Z" fill="white"/>
</svg>
