<svg width="16" height="16" viewBox="0 0 16 16" fill="none" xmlns="http://www.w3.org/2000/svg">
<g id="mingcute:down-fill" clip-path="url(#clip0_2630_2049)">
<g id="Group">
<path id="Vector" fill-rule="evenodd" clip-rule="evenodd" d="M8.7066 10.7072C8.5191 10.8945 8.26493 10.9997 7.99993 10.9997C7.73493 10.9997 7.48077 10.8945 7.29327 10.7072L3.52127 6.93658C3.33376 6.74898 3.22845 6.49458 3.22852 6.22934C3.22858 5.9641 3.334 5.70975 3.5216 5.52224C3.7092 5.33474 3.9636 5.22943 4.22884 5.22949C4.49408 5.22955 4.74843 5.33498 4.93593 5.52258L7.99993 8.58658L11.0639 5.52258C11.2525 5.34033 11.505 5.23941 11.7672 5.24157C12.0294 5.24372 12.2803 5.34877 12.4658 5.53409C12.6513 5.71941 12.7565 5.97018 12.7589 6.23238C12.7613 6.49457 12.6607 6.74722 12.4786 6.93591L8.70727 10.7079L8.7066 10.7072Z" fill="white"/>
</g>
</g>
<defs>
<clipPath id="clip0_2630_2049">
<rect width="16" height="16" fill="white"/>
</clipPath>
</defs>
</svg>
