<svg width="322" height="53" viewBox="0 0 322 53" fill="none" xmlns="http://www.w3.org/2000/svg">
<rect x="0.293256" y="0.46806" width="321.413" height="52.1644" rx="9.09093" fill="url(#paint0_linear_2630_2555)"/>
<rect x="0.293256" y="0.46806" width="321.413" height="52.1644" rx="9.09093" stroke="url(#paint1_linear_2630_2555)" stroke-width="0.586511"/>
<path fill-rule="evenodd" clip-rule="evenodd" d="M91.744 10.0439C91.4074 10.4324 91.2129 11.026 91.2129 11.803V39.3623C91.2129 40.1393 91.4074 40.7329 91.7556 41.1059L91.8456 41.1898L106.265 25.7489V25.4039L91.834 9.95996L91.744 10.0439Z" fill="url(#paint2_linear_2630_2555)"/>
<path fill-rule="evenodd" clip-rule="evenodd" d="M111.063 30.9117L106.254 25.7616V25.401L111.063 20.251L111.168 20.3194L116.857 23.7817C118.485 24.7639 118.485 26.3863 116.857 27.3809L111.168 30.8433L111.063 30.9117Z" fill="url(#paint3_linear_2630_2555)"/>
<path fill-rule="evenodd" clip-rule="evenodd" d="M111.169 30.843L106.255 25.5811L91.7461 41.1183C92.2772 41.7275 93.1683 41.7958 94.1638 41.2022L111.169 30.843Z" fill="url(#paint4_linear_2630_2555)"/>
<path fill-rule="evenodd" clip-rule="evenodd" d="M111.169 20.3193L94.1638 9.97568C93.1683 9.3665 92.2743 9.45042 91.7461 10.0596L106.255 25.5813L111.169 20.3193Z" fill="url(#paint5_linear_2630_2555)"/>
<path d="M167.252 17.6178C166.198 17.6178 165.31 17.2231 164.607 16.4461C163.911 15.6908 163.522 14.6496 163.539 13.5867C163.539 12.4522 163.899 11.4918 164.607 10.7303C165.307 9.95332 166.195 9.55859 167.249 9.55859C168.291 9.55859 169.179 9.95332 169.893 10.7303C170.601 11.5167 170.961 12.4771 170.961 13.5867C170.949 14.7242 170.589 15.6846 169.893 16.443C169.193 17.2262 168.305 17.6178 167.252 17.6178ZM135.902 17.6178C134.872 17.6178 133.978 17.2293 133.247 16.4616C132.521 15.697 132.152 14.7304 132.152 13.5898C132.152 12.4491 132.521 11.4825 133.247 10.7179C133.963 9.95021 134.857 9.5617 135.902 9.5617C136.413 9.5617 136.909 9.67048 137.385 9.89116C137.853 10.1056 138.233 10.3978 138.514 10.7552L138.584 10.8453L137.798 11.6721L137.716 11.5695C137.272 11.0038 136.677 10.7272 135.891 10.7272C135.188 10.7272 134.576 10.9945 134.071 11.5229C133.563 12.0544 133.305 12.7506 133.305 13.5929C133.305 14.4352 133.563 15.1314 134.071 15.6628C134.576 16.1912 135.188 16.4585 135.891 16.4585C136.64 16.4585 137.269 16.1912 137.76 15.6628C138.05 15.352 138.23 14.9169 138.294 14.3668H135.772V13.2044H139.377L139.391 13.31C139.417 13.5058 139.443 13.7079 139.443 13.8943C139.443 14.9666 139.141 15.8338 138.544 16.474C137.864 17.2324 136.976 17.6178 135.902 17.6178ZM177.584 17.4531H176.473L173.068 11.6192L173.097 12.6698V17.45H171.985V9.72643H173.254L173.289 9.78548L176.49 15.2805L176.461 14.2331V9.72643H177.584V17.4531ZM158.898 17.4531H157.772V10.8888H155.819V9.72643H160.849V10.8888H158.895V17.4531H158.898ZM154.902 17.4531H153.778V9.72643H154.902V17.4531ZM148.589 17.4531H147.466V10.8888H145.512V9.72643H150.542V10.8888H148.589V17.4531ZM144.801 17.4407H140.494V9.72643H144.801V10.8888H141.62V13.0085H144.491V14.1585H141.62V16.2782H144.801V17.4407ZM165.432 15.6473C165.934 16.185 166.543 16.4554 167.252 16.4554C167.98 16.4554 168.575 16.1912 169.071 15.6473C169.565 15.1189 169.814 14.4258 169.814 13.5898C169.814 12.7537 169.565 12.0575 169.074 11.5322C168.572 10.9945 167.96 10.7241 167.254 10.7241C166.526 10.7241 165.931 10.9883 165.438 11.5322C164.944 12.0606 164.694 12.7537 164.694 13.5898C164.694 14.4258 164.941 15.122 165.432 15.6473Z" fill="white"/>
<path fill-rule="evenodd" clip-rule="evenodd" d="M163.656 28.1963C160.913 28.1963 158.69 30.4247 158.69 33.4986C158.69 36.5445 160.927 38.801 163.656 38.801C166.398 38.801 168.622 36.557 168.622 33.4986C168.622 30.4247 166.398 28.1963 163.656 28.1963ZM163.656 36.6999C162.155 36.6999 160.863 35.3697 160.863 33.4862C160.863 31.5747 162.158 30.2724 163.656 30.2724C165.156 30.2724 166.448 31.5747 166.448 33.4862C166.451 35.3821 165.156 36.6999 163.656 36.6999ZM152.821 28.1963C150.078 28.1963 147.855 30.4247 147.855 33.4986C147.855 36.5445 150.092 38.801 152.821 38.801C155.564 38.801 157.787 36.557 157.787 33.4986C157.787 30.4247 155.561 28.1963 152.821 28.1963ZM152.821 36.6999C151.32 36.6999 150.029 35.3697 150.029 33.4862C150.029 31.5747 151.323 30.2724 152.821 30.2724C154.321 30.2724 155.613 31.5747 155.613 33.4862C155.613 35.3821 154.321 36.6999 152.821 36.6999ZM139.928 29.8156V32.0596H144.958C144.804 33.3183 144.415 34.2477 143.82 34.8848C143.083 35.6743 141.945 36.5321 139.94 36.5321C136.849 36.5321 134.431 33.8591 134.431 30.5491C134.431 27.239 136.849 24.566 139.94 24.566C141.609 24.566 142.825 25.2716 143.727 26.1729L145.213 24.5816C143.96 23.2948 142.291 22.3096 139.951 22.3096C135.711 22.3096 132.152 26.0082 132.152 30.5366C132.152 35.0775 135.708 38.7637 139.951 38.7637C142.241 38.7637 143.96 37.9618 145.318 36.4513C146.702 34.9687 147.141 32.877 147.141 31.1893C147.141 30.6641 147.103 30.1916 147.025 29.7907H139.925C139.928 29.7876 139.928 29.8156 139.928 29.8156ZM192.663 31.5623C192.248 30.3719 190.994 28.1838 188.422 28.1838C185.874 28.1838 183.755 30.3315 183.755 33.4862C183.755 36.4637 185.851 38.7885 188.669 38.7885C190.933 38.7885 192.251 37.306 192.793 36.4357L191.113 35.2298C190.556 36.1156 189.781 36.6968 188.681 36.6968C187.569 36.6968 186.791 36.156 186.275 35.0899L192.895 32.1528C192.895 32.1559 192.663 31.5623 192.663 31.5623ZM185.912 33.3339C185.859 31.2857 187.398 30.2445 188.498 30.2445C189.366 30.2445 190.088 30.7014 190.335 31.3665L185.912 33.3339ZM180.533 38.4715H182.707V22.8939H180.533V38.4715ZM176.963 29.3742H176.885C176.395 28.7495 175.463 28.1838 174.273 28.1838C171.803 28.1838 169.527 30.5118 169.527 33.5017C169.527 36.4793 171.791 38.7792 174.273 38.7792C175.448 38.7792 176.395 38.2104 176.885 37.5733H176.963V38.3348C176.963 40.3581 175.953 41.4491 174.325 41.4491C172.993 41.4491 172.166 40.4234 171.829 39.5656L169.939 40.411C170.482 41.8096 171.931 43.5408 174.322 43.5408C176.871 43.5408 179.03 41.9339 179.03 38.0146V28.5008H176.975V29.3742C176.978 29.3742 176.963 29.3742 176.963 29.3742ZM174.467 36.6999C172.967 36.6999 171.713 35.3572 171.713 33.5017C171.713 31.6307 172.967 30.2755 174.467 30.2755C175.953 30.2755 177.106 31.6462 177.106 33.5017C177.12 35.3572 175.956 36.6999 174.467 36.6999ZM202.842 22.8939H197.643V38.4715H199.817V32.5724H202.845C205.251 32.5724 207.616 30.7045 207.616 27.7394C207.616 24.7743 205.26 22.8939 202.842 22.8939ZM202.906 30.3968H199.814V25.0509H202.906C204.534 25.0509 205.454 26.4899 205.454 27.7238C205.454 28.9453 204.522 30.3968 202.906 30.3968ZM216.329 28.1683C214.751 28.1683 213.122 28.9173 212.449 30.5491L214.376 31.4069C214.791 30.5491 215.552 30.2569 216.356 30.2569C217.482 30.2569 218.62 30.978 218.646 32.2647V32.4294C218.257 32.1932 217.403 31.8327 216.382 31.8327C214.301 31.8327 212.191 33.0511 212.191 35.3355C212.191 37.4272 213.897 38.7699 215.798 38.7699C217.258 38.7699 218.062 38.0644 218.564 37.2469H218.643V38.4529H220.738V32.4854C220.738 29.7068 218.811 28.1683 216.329 28.1683ZM216.057 36.6999C215.346 36.6999 214.35 36.327 214.35 35.3697C214.35 34.1637 215.592 33.7069 216.652 33.7069C217.609 33.7069 218.062 33.9275 218.631 34.2321C218.474 35.6307 217.371 36.6875 216.057 36.6999ZM228.383 28.5008L225.887 35.2578H225.809L223.223 28.5008H220.883L224.764 37.9463L222.552 43.1958H224.816L230.787 28.5008H228.383ZM208.815 38.4715H210.989V22.8939H208.815V38.4715Z" fill="white"/>
<defs>
<linearGradient id="paint0_linear_2630_2555" x1="-48.3348" y1="-19.0614" x2="268.16" y2="194.799" gradientUnits="userSpaceOnUse">
<stop stop-color="#090C0F"/>
<stop offset="0.694999" stop-color="#1A1F25"/>
<stop offset="1" stop-color="#090C0F"/>
</linearGradient>
<linearGradient id="paint1_linear_2630_2555" x1="-1.21639e-09" y1="7.01288" x2="266.361" y2="141.332" gradientUnits="userSpaceOnUse">
<stop stop-color="#727272"/>
<stop offset="0.865222" stop-color="#121212"/>
<stop offset="1" stop-color="#4C4C4C"/>
</linearGradient>
<linearGradient id="paint2_linear_2630_2555" x1="104.972" y1="11.5057" x2="81.6767" y2="17.3021" gradientUnits="userSpaceOnUse">
<stop stop-color="#00A0FF"/>
<stop offset="0.00657" stop-color="#00A1FF"/>
<stop offset="0.2601" stop-color="#00BEFF"/>
<stop offset="0.5122" stop-color="#00D2FF"/>
<stop offset="0.7604" stop-color="#00DFFF"/>
<stop offset="1" stop-color="#00E3FF"/>
</linearGradient>
<linearGradient id="paint3_linear_2630_2555" x1="118.98" y1="25.5814" x2="90.8175" y2="25.5814" gradientUnits="userSpaceOnUse">
<stop stop-color="#FFE000"/>
<stop offset="0.4087" stop-color="#FFBD00"/>
<stop offset="0.7754" stop-color="#FFA500"/>
<stop offset="1" stop-color="#FF9C00"/>
</linearGradient>
<linearGradient id="paint4_linear_2630_2555" x1="108.497" y1="28.4443" x2="88.0186" y2="60.6317" gradientUnits="userSpaceOnUse">
<stop stop-color="#FF3A44"/>
<stop offset="1" stop-color="#C31162"/>
</linearGradient>
<linearGradient id="paint5_linear_2630_2555" x1="88.0925" y1="0.877418" x2="97.2294" y2="15.2536" gradientUnits="userSpaceOnUse">
<stop stop-color="#32A071"/>
<stop offset="0.0685" stop-color="#2DA771"/>
<stop offset="0.4762" stop-color="#15CF74"/>
<stop offset="0.8009" stop-color="#06E775"/>
<stop offset="1" stop-color="#00F076"/>
</linearGradient>
</defs>
</svg>
