<svg width="126" height="95" viewBox="0 0 126 95" fill="none" xmlns="http://www.w3.org/2000/svg">
<path d="M96.0282 53.398C96.4762 53.1897 96.9733 53.0742 97.5 53.0742H111.5C112.428 53.0742 113.318 53.443 113.975 54.0993C114.631 54.7557 115 55.646 115 56.5742V72.3242M115 79.3242V81.0742C115 82.0025 114.631 82.8927 113.975 83.5491C113.318 84.2055 112.428 84.5742 111.5 84.5742H97.5C96.5717 84.5742 95.6815 84.2055 95.0251 83.5491C94.3687 82.8927 94 82.0025 94 81.0742V58.3242M102.75 54.8242H106.25M88.75 53.0742L120.25 84.5742M104.5 77.5742V77.5917" stroke="#00ECFF" stroke-width="2" stroke-linecap="round" stroke-linejoin="round"/>
<path d="M72.7031 12.8291H22.2956C19.6987 12.8291 17.2081 13.8607 15.3718 15.697C13.5355 17.5333 12.5039 20.0239 12.5039 22.6208V57.3616C12.5039 59.9585 13.5355 62.4491 15.3718 64.2854C17.2081 66.1217 19.6987 67.1533 22.2956 67.1533H33.6931L32.2439 78.9033H27.916C27.3966 78.9033 26.8985 79.1096 26.5312 79.4769C26.164 79.8441 25.9577 80.3422 25.9577 80.8616C25.9577 81.381 26.164 81.8791 26.5312 82.2464C26.8985 82.6136 27.3966 82.82 27.916 82.82H67.1218C67.6412 82.82 68.1393 82.6136 68.5066 82.2464C68.8738 81.8791 69.0802 81.381 69.0802 80.8616C69.0802 80.3422 68.8738 79.8441 68.5066 79.4769C68.1393 79.1096 67.6412 78.9033 67.1218 78.9033H62.7743L61.3252 67.1533H72.7227C75.3196 67.1533 77.8101 66.1217 79.6464 64.2854C81.4827 62.4491 82.5143 59.9585 82.5143 57.3616V22.6208C82.5143 21.3333 82.2604 20.0584 81.7671 18.8692C81.2738 17.6799 80.5508 16.5996 79.6395 15.6901C78.7282 14.7806 77.6464 14.0598 76.4562 13.5688C75.266 13.0779 73.9906 12.8265 72.7031 12.8291ZM36.1606 78.9033L37.6489 67.1533H57.3497L58.7989 78.9033H36.1606ZM78.5781 57.3616C78.5781 58.9198 77.9591 60.4141 76.8573 61.5159C75.7556 62.6176 74.2612 63.2366 72.7031 63.2366H22.2956C20.7374 63.2366 19.2431 62.6176 18.1413 61.5159C17.0395 60.4141 16.4206 58.9198 16.4206 57.3616V55.4033H78.5781V57.3616ZM78.5781 51.4866H16.4206V22.6208C16.4206 21.0626 17.0395 19.5683 18.1413 18.4665C19.2431 17.3648 20.7374 16.7458 22.2956 16.7458H72.7031C74.2612 16.7458 75.7556 17.3648 76.8573 18.4665C77.9591 19.5683 78.5781 21.0626 78.5781 22.6208V51.4866Z" fill="#00ECFF"/>
</svg>
