<svg width="23" height="38" viewBox="0 0 23 38" fill="none" xmlns="http://www.w3.org/2000/svg">
<path d="M19 21.5C17.6193 21.5 16.5 20.3807 16.5 19C16.5 17.6193 17.6193 16.5 19 16.5V21.5ZM21.7678 17.2322C22.7441 18.2085 22.7441 19.7915 21.7678 20.7678L5.85786 36.6777C4.88155 37.654 3.29864 37.654 2.32233 36.6777C1.34602 35.7014 1.34602 34.1184 2.32233 33.1421L16.4645 19L2.32233 4.85786C1.34602 3.88155 1.34602 2.29864 2.32233 1.32233C3.29864 0.34602 4.88155 0.34602 5.85786 1.32233L21.7678 17.2322ZM19 16.5H20V21.5H19V16.5Z" fill="#00ECFF"/>
<path d="M11 20.5C10.1716 20.5 9.5 19.8284 9.5 19C9.5 18.1716 10.1716 17.5 11 17.5V20.5ZM13.0607 17.9393C13.6464 18.5251 13.6464 19.4749 13.0607 20.0607L3.51472 29.6066C2.92893 30.1924 1.97919 30.1924 1.3934 29.6066C0.807611 29.0208 0.807611 28.0711 1.3934 27.4853L9.87868 19L1.3934 10.5147C0.807611 9.92893 0.807611 8.97919 1.3934 8.3934C1.97919 7.80761 2.92893 7.80761 3.51472 8.3934L13.0607 17.9393ZM11 17.5H12V20.5H11V17.5Z" fill="#00ECFF"/>
</svg>
