<svg width="99" height="100" viewBox="0 0 99 100" fill="none" xmlns="http://www.w3.org/2000/svg">
<g clip-path="url(#clip0_87_956)">
<mask id="mask0_87_956" style="mask-type:luminance" maskUnits="userSpaceOnUse" x="0" y="0" width="99" height="100">
<path d="M99 0.5H0V99.5H99V0.5Z" fill="white"/>
</mask>
<g mask="url(#mask0_87_956)">
<path d="M49.4992 98.9984C22.4345 98.9984 0.5 77.1978 0.5 50.3107C0.5 23.4236 22.4345 1.62262 49.4992 1.62262C76.5639 1.62262 98.5 23.4236 98.5 50.3107C98.5 77.1977 76.5639 98.9984 49.4992 98.9984Z" fill="#0C0C4F" stroke="white"/>
<path fill-rule="evenodd" clip-rule="evenodd" d="M27.6657 38.72L28.8876 34.9686C29.1361 34.2058 29.742 33.612 30.5126 33.3779L34.3061 32.2186C34.8312 32.0592 34.8355 31.3231 34.3146 31.1552L30.5381 29.941C29.7719 29.6943 29.1743 29.092 28.9373 28.3263L27.7721 24.5566C27.6119 24.0363 26.871 24.0305 26.7021 24.5497L25.4802 28.3008C25.2317 29.0625 24.6259 29.6561 23.8552 29.8917L20.0618 31.0496C19.5366 31.2102 19.5309 31.945 20.0532 32.1129L23.8297 33.327C24.596 33.5739 25.1935 34.1774 25.4305 34.9433L26.5958 38.7114C26.7559 39.2334 27.4969 39.2389 27.6657 38.72Z" fill="#FAFAFA"/>
<path fill-rule="evenodd" clip-rule="evenodd" d="M87.6277 36.5366C86.0639 34.7987 83.6233 33.8204 81.2505 33.4191C78.8586 33.0338 76.3506 33.0696 73.9896 33.4864C69.2119 34.2895 64.8715 36.2552 61.0858 38.6803C59.1198 39.8705 57.4434 41.2478 55.7065 42.6502C54.8696 43.3597 54.1067 44.115 53.3121 44.8595L51.1408 47.0062C48.7815 49.4569 46.4561 51.6889 44.2063 53.5388C41.9473 55.3804 39.8352 56.7791 37.7538 57.7558C35.6737 58.7375 33.4481 59.3149 30.547 59.4074C27.6715 59.5081 24.2695 58.9925 20.6304 58.1411C16.9717 57.2937 13.1298 56.0857 8.83652 55.0464C10.3345 59.1761 12.5904 62.8254 15.4866 66.1615C18.4169 69.4396 22.0758 72.4278 26.7761 74.3928C31.4087 76.4015 37.2303 77.1218 42.6738 76.034C48.1314 74.9905 52.9208 72.4807 56.7923 69.5786C60.6737 66.6464 63.8138 63.306 66.4611 59.834C67.1917 58.8745 67.5784 58.3376 68.1072 57.5877L69.5691 55.4363C70.5846 54.1055 71.5095 52.5902 72.5145 51.2715C74.4858 48.51 76.4294 45.7517 78.6876 43.2104C79.8243 41.9216 81.023 40.6886 82.4377 39.5038C83.1434 38.9254 83.9059 38.3596 84.7505 37.8497C85.6077 37.2999 86.5131 36.8694 87.6277 36.5366Z" fill="url(#paint0_linear_87_956)"/>
<path fill-rule="evenodd" clip-rule="evenodd" d="M87.6277 36.539C85.9478 32.3263 82.8244 28.7801 78.6319 26.1634C74.4652 23.5753 68.6781 22.2545 62.9428 23.3805C60.11 23.9248 57.3652 24.9732 54.9565 26.3691C52.5587 27.7597 50.41 29.4334 48.5498 31.229C47.6212 32.1299 46.7783 33.0694 45.9409 34.0145L43.7707 36.7643L40.4185 41.1906C36.1449 46.8855 31.543 53.5595 23.9911 55.5371C16.5771 57.4785 13.3615 55.7592 8.83652 55.0488C9.66392 57.1716 10.6888 59.2329 12.0781 61.0462C13.4416 62.8965 15.0522 64.6344 17.0545 66.1237C18.0664 66.8391 19.1347 67.5452 20.3211 68.1441C21.5024 68.7227 22.7761 69.2319 24.1356 69.6155C26.8401 70.352 29.8845 70.6098 32.8326 70.2138C35.7818 69.8228 38.6007 68.8938 41.0648 67.6604C43.5471 66.4388 45.7095 64.9506 47.6402 63.3803C51.4784 60.2128 54.4639 56.7132 56.9856 53.1755C58.254 51.4068 59.4055 49.6048 60.4704 47.8024L61.7237 45.6563C62.1069 45.029 62.4943 44.3978 62.8878 43.8099C64.4761 41.4484 66.0294 39.5547 67.9162 38.1335C69.7764 36.6752 72.3674 35.5981 75.8292 35.3476C79.2766 35.0944 83.2566 35.5622 87.6277 36.539Z" fill="#FAFAFA"/>
<path fill-rule="evenodd" clip-rule="evenodd" d="M68.9751 71.5404C68.9751 74.6344 71.501 77.1442 74.6143 77.1442C77.7285 77.1442 80.2506 74.6344 80.2506 71.5404C80.2506 68.4459 77.7285 65.9366 74.6143 65.9366C71.501 65.9366 68.9751 68.4459 68.9751 71.5404Z" fill="url(#paint1_linear_87_956)"/>
</g>
</g>
<defs>
<linearGradient id="paint0_linear_87_956" x1="87.2067" y1="35.0583" x2="18.0662" y2="73.7184" gradientUnits="userSpaceOnUse">
<stop stop-color="#EC796B"/>
<stop offset="1" stop-color="#E175B1"/>
</linearGradient>
<linearGradient id="paint1_linear_87_956" x1="80.2468" y1="67.6092" x2="68.9691" y2="68.8094" gradientUnits="userSpaceOnUse">
<stop stop-color="#EC796B"/>
<stop offset="1" stop-color="#E175B1"/>
</linearGradient>
<clipPath id="clip0_87_956">
<rect width="99" height="99" fill="white" transform="translate(0 0.5)"/>
</clipPath>
</defs>
</svg>
