<svg width="67" height="65" viewBox="0 0 67 65" fill="none" xmlns="http://www.w3.org/2000/svg">
<g filter="url(#filter0_d_499_1426)">
<path d="M48.1218 38.2098L37.9414 20.5675C37.024 18.9789 35.3291 18 33.4944 18C31.6596 18 29.9648 18.9789 29.0474 20.5675L18.688 38.5119C17.7707 40.1005 17.7707 42.0583 18.688 43.6469C19.6054 45.2355 21.3003 46.2144 23.135 46.2144H43.8538C43.8595 46.2144 43.865 46.2144 43.865 46.2144C46.701 46.2144 49 43.9153 49 41.0794C49 40.0166 48.6756 39.0265 48.1218 38.2098ZM35.6927 39.927C35.6927 41.1409 34.7586 42.0694 33.5 42.0694C32.2414 42.0694 31.3073 41.1409 31.3073 39.927V39.8768C31.3073 38.6685 32.2414 37.7343 33.5 37.7343C34.7586 37.7343 35.6927 38.6629 35.6927 39.8768V39.927ZM35.7431 25.4843L34.6579 34.9599C34.5852 35.6424 34.1321 36.0675 33.5 36.0675C32.8679 36.0675 32.4148 35.6368 32.3421 34.9599L31.2569 25.4787C31.1842 24.7459 31.5814 24.1922 32.2638 24.1922H34.7306C35.413 24.1978 35.8158 24.7515 35.7431 25.4843Z" fill="#FF0F0F"/>
</g>
<defs>
<filter id="filter0_d_499_1426" x="0" y="0" width="67" height="64.2144" filterUnits="userSpaceOnUse" color-interpolation-filters="sRGB">
<feFlood flood-opacity="0" result="BackgroundImageFix"/>
<feColorMatrix in="SourceAlpha" type="matrix" values="0 0 0 0 0 0 0 0 0 0 0 0 0 0 0 0 0 0 127 0" result="hardAlpha"/>
<feOffset/>
<feGaussianBlur stdDeviation="9"/>
<feComposite in2="hardAlpha" operator="out"/>
<feColorMatrix type="matrix" values="0 0 0 0 1 0 0 0 0 0.0291667 0 0 0 0 0.0291667 0 0 0 0.47 0"/>
<feBlend mode="normal" in2="BackgroundImageFix" result="effect1_dropShadow_499_1426"/>
<feBlend mode="normal" in="SourceGraphic" in2="effect1_dropShadow_499_1426" result="shape"/>
</filter>
</defs>
</svg>
