<svg width="240" height="86" viewBox="0 0 240 86" fill="none" xmlns="http://www.w3.org/2000/svg">
<g clip-path="url(#clip0_599_2503)">
<path d="M220.888 0.00015743H19.1229C18.3874 0.00015743 17.6608 0.00015743 16.9273 0.00445743C16.3133 0.00875743 15.7041 0.0212489 15.0842 0.0317624C13.7375 0.0487513 12.3939 0.175761 11.0652 0.411689C9.73831 0.652753 8.45301 1.10723 7.25274 1.75974C6.05395 2.41777 4.95857 3.27282 4.00636 4.29386C3.04914 5.31203 2.25123 6.48889 1.6433 7.7792C1.03369 9.06694 0.610991 10.4469 0.389791 11.8713C0.166488 13.294 0.0463264 14.7331 0.0303851 16.1756C0.011773 16.8348 0.00980746 17.4962 0 18.1555V67.8512C0.00980746 68.5187 0.011773 69.1654 0.0303851 69.8332C0.0463313 71.2757 0.166493 72.7147 0.389791 74.1373C0.610381 75.5626 1.03311 76.9433 1.6433 78.2316C2.25095 79.5177 3.04898 80.6898 4.00636 81.7023C4.95496 82.7279 6.05104 83.5835 7.25274 84.2365C8.453 84.8908 9.73816 85.348 11.0652 85.5927C12.3941 85.8268 13.7376 85.9538 15.0842 85.9729C15.7041 85.9875 16.3133 85.9959 16.9273 85.9959C17.6608 86.0002 18.3875 86.0002 19.1229 86.0002H220.888C221.609 86.0002 222.341 86.0002 223.062 85.9959C223.673 85.9959 224.3 85.9875 224.911 85.9729C226.255 85.9548 227.596 85.8278 228.922 85.5927C230.253 85.3462 231.543 84.8892 232.749 84.2365C233.95 83.5831 235.045 82.7275 235.993 81.7023C236.948 80.6858 237.747 79.5146 238.363 78.2316C238.968 76.9424 239.387 75.5618 239.604 74.1373C239.828 72.7145 239.952 71.2758 239.977 69.8332C239.984 69.1654 239.984 68.5187 239.984 67.8512C240 67.0701 240 66.2933 240 65.4995V20.5028C240 19.7155 240 18.9344 239.984 18.1555C239.984 17.4962 239.984 16.8348 239.977 16.1756C239.952 14.7329 239.828 13.2941 239.604 11.8713C239.386 10.4476 238.968 9.06779 238.363 7.77912C237.125 5.19283 235.161 3.08761 232.749 1.75955C231.543 1.10863 230.253 0.654274 228.922 0.411495C227.596 0.174528 226.255 0.0474741 224.911 0.0314614C224.3 0.0209694 223.673 0.00837043 223.062 0.00417793C222.341 -0.00012207 221.609 -0.00012207 220.888 -0.00012207V0.00015743Z" fill="black"/>
<path d="M16.9371 84.1187C16.3261 84.1187 15.7297 84.1103 15.1235 84.0957C13.8675 84.0782 12.6145 83.961 11.3747 83.7451C10.2186 83.5316 9.09873 83.1346 8.05192 82.5671C7.0147 82.0043 6.06867 81.2663 5.25007 80.3814C4.41963 79.5069 3.72825 78.4927 3.20332 77.3789C2.67262 76.2579 2.30533 75.0563 2.11427 73.8159C1.90794 72.4832 1.79631 71.1356 1.78034 69.7847C1.76762 69.3312 1.75098 67.8215 1.75098 67.8215V18.1553C1.75098 18.1553 1.76871 16.6688 1.78044 16.232C1.79573 14.8833 1.90672 13.5378 2.11243 12.2071C2.30384 10.9634 2.67141 9.75829 3.2024 8.63358C3.72539 7.52055 4.41294 6.50558 5.23838 5.62799C6.06289 4.74206 7.01195 4.00027 8.05093 3.42968C9.09535 2.86398 10.2131 2.46975 11.3669 2.26021C12.6107 2.04212 13.8681 1.92422 15.1284 1.90748L16.9381 1.88123H223.052L224.884 1.90853C226.132 1.92444 227.378 2.04129 228.611 2.2581C229.776 2.47027 230.906 2.86725 231.962 3.43598C234.043 4.5859 235.737 6.40518 236.806 8.63883C237.328 9.75577 237.69 10.951 237.879 12.184C238.087 13.5256 238.204 14.8817 238.227 16.2415C238.233 16.8504 238.233 17.5044 238.233 18.1553C238.249 18.9616 238.249 19.729 238.249 20.5027V65.4993C238.249 66.2804 238.249 67.0426 238.233 67.811C238.233 68.5102 238.233 69.1506 238.225 69.8098C238.202 71.1454 238.088 72.4773 237.883 73.7949C237.696 75.0441 237.33 76.2551 236.8 77.3854C236.271 78.4871 235.584 79.4925 234.763 80.3646C233.943 81.2542 232.996 81.9966 231.956 82.563C230.903 83.1349 229.775 83.5334 228.611 83.7451C227.371 83.9621 226.118 84.0793 224.862 84.0957C224.274 84.1103 223.659 84.1187 223.062 84.1187L220.888 84.123L16.9371 84.1187Z" fill="white"/>
<path d="M50.1337 42.7621C50.1561 40.896 50.6185 39.0663 51.4778 37.4432C52.3372 35.8202 53.5655 34.4565 55.0486 33.4791C54.1064 32.0366 52.8635 30.8496 51.4185 30.0121C49.9736 29.1747 48.3663 28.71 46.7245 28.655C43.2222 28.2609 39.8269 30.9015 38.0422 30.9015C36.223 30.9015 33.4752 28.6941 30.5162 28.7593C28.6023 28.8256 26.737 29.4223 25.1021 30.4911C23.4672 31.5599 22.1185 33.0645 21.1873 34.8583C17.1538 42.3446 20.1625 53.3469 24.0263 59.3984C25.9595 62.3615 28.2188 65.6715 31.1751 65.5541C34.068 65.4255 35.1484 63.5766 38.6404 63.5766C42.1 63.5766 43.1136 65.5541 46.1299 65.4795C49.2341 65.4255 51.1899 62.5031 53.0553 59.5119C54.4443 57.4005 55.5131 55.067 56.2221 52.5977C54.4187 51.78 52.8796 50.4113 51.7969 48.6623C50.7142 46.9132 50.1358 44.8612 50.1337 42.7621Z" fill="black"/>
<path d="M44.4366 24.6751C46.1292 22.497 46.963 19.6974 46.7611 16.8708C44.1753 17.162 41.7867 18.4868 40.0713 20.5814C39.2326 21.6046 38.5902 22.795 38.1809 24.0845C37.7716 25.3741 37.6034 26.7374 37.6859 28.0967C38.9793 28.111 40.2589 27.8104 41.4282 27.2178C42.5975 26.6251 43.6261 25.7557 44.4366 24.6751Z" fill="black"/>
<path d="M84.8411 58.3503H75.3477L73.0679 65.5666H69.0469L78.0388 38.8679H82.2165L91.2085 65.5666H87.1189L84.8411 58.3503ZM76.3309 55.0203H83.856L80.1464 43.3086H80.0425L76.3309 55.0203Z" fill="black"/>
<path d="M110.628 55.8349C110.628 61.8838 107.608 65.7702 103.05 65.7702C101.896 65.8349 100.747 65.5498 99.737 64.9475C98.7266 64.3453 97.8948 63.4501 97.3369 62.3646H97.2507V72.006H93.5234V46.1011H97.1312V49.3387H97.1997C97.7833 48.2584 98.6291 47.3678 99.6472 46.7619C100.665 46.1559 101.818 45.8572 102.982 45.8974C107.59 45.8974 110.628 49.8027 110.628 55.8349ZM106.797 55.8349C106.797 51.8939 104.897 49.303 101.998 49.303C99.1506 49.303 97.235 51.9485 97.235 55.8349C97.235 59.7569 99.1506 62.3835 101.998 62.3835C104.897 62.3835 106.797 59.8115 106.797 55.8349H106.797Z" fill="black"/>
<path d="M130.615 55.8349C130.615 61.8838 127.594 65.7702 123.036 65.7702C121.881 65.8349 120.733 65.5498 119.723 64.9475C118.712 64.3453 117.881 63.4501 117.323 62.3646H117.237V72.006H113.509V46.1011H117.117V49.3387H117.186C117.769 48.2584 118.615 47.3678 119.633 46.7619C120.651 46.1559 121.803 45.8572 122.967 45.8974C127.576 45.8974 130.615 49.8027 130.615 55.8349ZM126.783 55.8349C126.783 51.8939 124.883 49.303 121.984 49.303C119.136 49.303 117.221 51.9485 117.221 55.8349C117.221 59.7569 119.136 62.3835 121.984 62.3835C124.883 62.3835 126.783 59.8115 126.783 55.8349Z" fill="black"/>
<path d="M143.822 58.1277C144.098 60.7753 146.497 62.5137 149.776 62.5137C152.918 62.5137 155.178 60.7752 155.178 58.3879C155.178 56.3156 153.815 55.0748 150.587 54.2244L147.359 53.3909C142.786 52.2067 140.663 49.9139 140.663 46.1934C140.663 41.5868 144.407 38.4227 149.723 38.4227C154.988 38.4227 158.596 41.5868 158.717 46.1934H154.955C154.729 43.529 152.675 41.9207 149.672 41.9207C146.67 41.9207 144.615 43.5479 144.615 45.9163C144.615 47.8038 145.927 48.9145 149.137 49.7648L151.881 50.487C156.991 51.7825 159.113 53.9829 159.113 57.8881C159.113 62.8831 155.403 66.0115 149.5 66.0115C143.976 66.0115 140.247 62.9566 140.006 58.1275L143.822 58.1277Z" fill="black"/>
<path d="M167.16 41.4945V46.1011H170.613V49.2652H167.16V59.9963C167.16 61.6634 167.852 62.4402 169.37 62.4402C169.78 62.4326 170.189 62.4017 170.596 62.3478V65.493C169.913 65.6297 169.22 65.6916 168.526 65.6777C164.849 65.6777 163.416 64.1975 163.416 60.4224V49.2652H160.775V46.1011H163.416V41.4945H167.16Z" fill="black"/>
<path d="M172.611 55.835C172.611 49.7104 175.976 45.8618 181.223 45.8618C186.488 45.8618 189.837 49.7103 189.837 55.835C189.837 61.9763 186.506 65.8081 181.223 65.8081C175.943 65.8081 172.611 61.9763 172.611 55.835ZM186.04 55.835C186.04 51.6336 184.243 49.154 181.223 49.154C178.203 49.154 176.407 51.6525 176.407 55.835C176.407 60.0531 178.203 62.5138 181.223 62.5138C184.243 62.5138 186.04 60.0531 186.04 55.835H186.04Z" fill="black"/>
<path d="M192.91 46.1011H196.465V49.4143H196.551C196.792 48.3795 197.357 47.465 198.153 46.8246C198.948 46.1841 199.925 45.8567 200.919 45.8974C201.349 45.8958 201.777 45.9458 202.196 46.0465V49.7838C201.654 49.6062 201.088 49.5246 200.521 49.5424C199.98 49.5188 199.44 49.6212 198.939 49.8424C198.438 50.0636 197.987 50.3984 197.618 50.8239C197.249 51.2493 196.971 51.7554 196.801 52.3072C196.632 52.859 196.576 53.4436 196.637 54.0208V65.5666H192.91L192.91 46.1011Z" fill="black"/>
<path d="M219.381 59.8493C218.879 63.3829 215.669 65.808 211.562 65.808C206.28 65.808 203.001 62.014 203.001 55.9272C203.001 49.8216 206.297 45.8617 211.405 45.8617C216.429 45.8617 219.588 49.5612 219.588 55.4632V56.8322H206.763V57.0736C206.704 57.79 206.788 58.5117 207.009 59.1907C207.23 59.8698 207.583 60.4907 208.045 61.0121C208.507 61.5336 209.067 61.9438 209.689 62.2153C210.31 62.4869 210.978 62.6136 211.648 62.5872C212.529 62.6756 213.413 62.457 214.168 61.9637C214.924 61.4704 215.511 60.7288 215.842 59.8493L219.381 59.8493ZM206.781 54.0397H215.859C215.893 53.3955 215.802 52.7509 215.592 52.1463C215.382 51.5417 215.057 50.9902 214.639 50.5263C214.221 50.0624 213.718 49.6962 213.161 49.4506C212.605 49.205 212.007 49.0854 211.405 49.0993C210.798 49.0954 210.197 49.2204 209.635 49.4671C209.073 49.7138 208.563 50.0773 208.133 50.5366C207.703 50.9959 207.362 51.542 207.13 52.1432C206.898 52.7445 206.78 53.389 206.781 54.0397V54.0397Z" fill="black"/>
<path d="M75.8646 18.7716C76.646 18.7115 77.4302 18.8381 78.1604 19.1422C78.8907 19.4462 79.5489 19.9203 80.0876 20.5301C80.6263 21.1399 81.032 21.8702 81.2755 22.6684C81.519 23.4667 81.5942 24.3129 81.4956 25.146C81.4956 29.2445 79.4293 31.6003 75.8646 31.6003H71.542V18.7716H75.8646ZM73.4007 29.7861H75.657C76.2154 29.8219 76.7742 29.7237 77.2927 29.4988C77.8112 29.2739 78.2765 28.9278 78.6545 28.4859C79.0325 28.0439 79.3139 27.5171 79.4781 26.9439C79.6423 26.3707 79.6851 25.7654 79.6036 25.1722C79.6792 24.5813 79.632 23.9798 79.4653 23.4108C79.2986 22.8417 79.0165 22.3193 78.6394 21.8808C78.2622 21.4424 77.7992 21.0988 77.2836 20.8747C76.768 20.6506 76.2125 20.5515 75.657 20.5845H73.4007V29.7861Z" fill="black"/>
<path d="M83.5953 26.7553C83.5386 26.119 83.6065 25.4771 83.7947 24.8707C83.9829 24.2642 84.2872 23.7066 84.6882 23.2337C85.0893 22.7607 85.5781 22.3828 86.1233 22.1242C86.6685 21.8656 87.2581 21.7321 87.8543 21.7321C88.4505 21.7321 89.0402 21.8656 89.5854 22.1242C90.1306 22.3828 90.6194 22.7607 91.0204 23.2337C91.4214 23.7066 91.7258 24.2642 91.914 24.8707C92.1022 25.4771 92.1701 26.119 92.1133 26.7553C92.1712 27.3921 92.1041 28.035 91.9164 28.6424C91.7287 29.2498 91.4245 29.8084 91.0234 30.2823C90.6223 30.7562 90.1331 31.1349 89.5873 31.394C89.0416 31.6532 88.4513 31.7871 87.8543 31.7871C87.2574 31.7871 86.6671 31.6532 86.1213 31.394C85.5756 31.1349 85.0864 30.7562 84.6853 30.2823C84.2842 29.8084 83.98 29.2498 83.7923 28.6424C83.6046 28.035 83.5375 27.3921 83.5953 26.7553ZM90.2801 26.7553C90.2801 24.6567 89.4006 23.4295 87.8573 23.4295C86.308 23.4295 85.4365 24.6567 85.4365 26.7553C85.4365 28.8707 86.3081 30.0884 87.8573 30.0884C89.4007 30.0884 90.2801 28.8622 90.2801 26.7553H90.2801Z" fill="black"/>
<path d="M103.436 31.6001H101.587L99.7203 24.4698H99.5793L97.7206 31.6001H95.8893L93.3999 21.9188H95.2077L96.8255 29.3062H96.9587L98.8155 21.9188H100.525L102.382 29.3062H102.523L104.133 21.9188H105.915L103.436 31.6001Z" fill="black"/>
<path d="M108.009 21.9188H109.725V23.4568H109.858C110.084 22.9044 110.465 22.4414 110.948 22.1322C111.431 21.823 111.992 21.6831 112.553 21.7319C112.993 21.6965 113.434 21.7676 113.844 21.9398C114.255 22.112 114.624 22.3809 114.924 22.7268C115.224 23.0726 115.448 23.4864 115.579 23.9375C115.709 24.3886 115.744 24.8655 115.679 25.3328V31.6H113.897V25.8126C113.897 24.2568 113.266 23.483 111.948 23.483C111.65 23.4681 111.352 23.5226 111.075 23.6426C110.798 23.7626 110.549 23.9454 110.344 24.1785C110.139 24.4115 109.984 24.6892 109.888 24.9927C109.793 25.2961 109.76 25.618 109.792 25.9364V31.6001H108.009L108.009 21.9188Z" fill="black"/>
<path d="M118.519 18.1395H120.301V31.6001H118.519V18.1395Z" fill="black"/>
<path d="M122.779 26.7553C122.723 26.1191 122.791 25.4771 122.979 24.8706C123.167 24.2642 123.471 23.7066 123.873 23.2336C124.274 22.7606 124.762 22.3827 125.308 22.1241C125.853 21.8655 126.443 21.7319 127.039 21.7319C127.635 21.7319 128.225 21.8655 128.77 22.1241C129.315 22.3827 129.804 22.7606 130.205 23.2336C130.606 23.7066 130.911 24.2642 131.099 24.8706C131.287 25.4771 131.355 26.1191 131.298 26.7553C131.356 27.3922 131.289 28.035 131.101 28.6425C130.913 29.2499 130.609 29.8085 130.208 30.2824C129.807 30.7562 129.318 31.1349 128.772 31.3941C128.226 31.6532 127.636 31.7871 127.039 31.7871C126.442 31.7871 125.852 31.6532 125.306 31.3941C124.76 31.1349 124.271 30.7562 123.87 30.2824C123.469 29.8085 123.164 29.2499 122.977 28.6425C122.789 28.035 122.722 27.3922 122.779 26.7553ZM129.464 26.7553C129.464 24.6568 128.585 23.4296 127.041 23.4296C125.492 23.4296 124.621 24.6568 124.621 26.7553C124.621 28.8707 125.492 30.0885 127.041 30.0885C128.585 30.0885 129.464 28.8623 129.464 26.7553H129.464Z" fill="black"/>
<path d="M133.174 28.8623C133.174 27.1196 134.385 26.115 136.533 25.9722L138.98 25.821V24.9854C138.98 23.9629 138.349 23.3855 137.131 23.3855C136.136 23.3855 135.446 23.7771 135.248 24.4615H133.523C133.705 22.7986 135.164 21.7321 137.213 21.7321C139.477 21.7321 140.754 22.9404 140.754 24.9854V31.6002H139.038V30.2397H138.897C138.611 30.7277 138.209 31.1256 137.733 31.3926C137.256 31.6597 136.722 31.7863 136.185 31.7597C135.806 31.802 135.422 31.7586 135.06 31.6324C134.697 31.5062 134.363 31.3 134.08 31.027C133.796 30.754 133.569 30.4204 133.413 30.0475C133.257 29.6747 133.176 29.2709 133.174 28.8623ZM138.98 28.0351V27.2257L136.774 27.3768C135.531 27.4661 134.966 27.9196 134.966 28.7731C134.966 29.6444 135.672 30.1515 136.641 30.1515C136.925 30.1823 137.212 30.1515 137.485 30.061C137.758 29.9705 138.011 29.8222 138.229 29.6247C138.447 29.4272 138.626 29.1847 138.755 28.9117C138.884 28.6386 138.96 28.3405 138.98 28.0351Z" fill="black"/>
<path d="M143.097 26.7553C143.097 23.6962 144.564 21.7582 146.845 21.7582C147.41 21.7304 147.97 21.8753 148.46 22.176C148.951 22.4768 149.351 22.921 149.615 23.4567H149.748V18.1395H151.53V31.6001H149.823V30.0705H149.682C149.398 30.6026 148.983 31.0413 148.483 31.3391C147.983 31.6368 147.417 31.7822 146.845 31.7597C144.548 31.7598 143.097 29.8218 143.097 26.7553ZM144.938 26.7553C144.938 28.8087 145.841 30.0444 147.351 30.0444C148.853 30.0444 149.781 28.7909 149.781 26.7637C149.781 24.746 148.843 23.4747 147.351 23.4747C145.85 23.4747 144.938 24.7187 144.938 26.7553H144.938Z" fill="black"/>
<path d="M158.905 26.7553C158.848 26.119 158.916 25.4771 159.104 24.8707C159.292 24.2642 159.597 23.7066 159.998 23.2337C160.399 22.7607 160.888 22.3828 161.433 22.1242C161.978 21.8656 162.568 21.7321 163.164 21.7321C163.76 21.7321 164.35 21.8656 164.895 22.1242C165.44 22.3828 165.929 22.7607 166.33 23.2337C166.731 23.7066 167.035 24.2642 167.224 24.8707C167.412 25.4771 167.48 26.119 167.423 26.7553C167.481 27.3921 167.414 28.035 167.226 28.6424C167.038 29.2498 166.734 29.8084 166.333 30.2823C165.932 30.7562 165.443 31.1349 164.897 31.394C164.351 31.6532 163.761 31.7871 163.164 31.7871C162.567 31.7871 161.977 31.6532 161.431 31.394C160.885 31.1349 160.396 30.7562 159.995 30.2823C159.594 29.8084 159.29 29.2498 159.102 28.6424C158.914 28.035 158.847 27.3921 158.905 26.7553ZM165.59 26.7553C165.59 24.6567 164.71 23.4295 163.167 23.4295C161.618 23.4295 160.746 24.6567 160.746 26.7553C160.746 28.8707 161.618 30.0884 163.167 30.0884C164.71 30.0884 165.59 28.8622 165.59 26.7553Z" fill="black"/>
<path d="M169.814 21.9188H171.53V23.4568H171.663C171.889 22.9044 172.27 22.4414 172.753 22.1322C173.236 21.823 173.797 21.6831 174.358 21.7319C174.797 21.6965 175.239 21.7676 175.649 21.9398C176.059 22.112 176.428 22.3809 176.728 22.7268C177.029 23.0726 177.252 23.4864 177.383 23.9375C177.514 24.3886 177.548 24.8655 177.484 25.3328V31.6H175.702V25.8126C175.702 24.2568 175.071 23.483 173.753 23.483C173.454 23.4681 173.157 23.5226 172.88 23.6426C172.603 23.7626 172.353 23.9454 172.149 24.1785C171.944 24.4115 171.788 24.6892 171.693 24.9927C171.598 25.2961 171.565 25.618 171.596 25.9364V31.6001H169.814V21.9188Z" fill="black"/>
<path d="M187.555 19.5085V21.963H189.512V23.5723H187.555V28.5505C187.555 29.5646 187.945 30.0087 188.832 30.0087C189.06 30.0079 189.286 29.9932 189.512 29.9646V31.5561C189.192 31.6175 188.868 31.6501 188.543 31.6537C186.56 31.6537 185.771 30.9063 185.771 29.0397V23.5723H184.337V21.9629H185.771V19.5085H187.555Z" fill="black"/>
<path d="M191.946 18.1395H193.713V23.4746H193.854C194.091 22.9171 194.482 22.4514 194.975 22.1411C195.468 21.8307 196.038 21.6908 196.608 21.7404C197.045 21.7149 197.482 21.7931 197.888 21.9695C198.293 22.1459 198.658 22.4161 198.955 22.7608C199.252 23.1055 199.474 23.5163 199.606 23.9638C199.738 24.4113 199.776 24.8845 199.718 25.3496V31.6001H197.934V25.8209C197.934 24.2746 197.262 23.4914 196.003 23.4914C195.696 23.4645 195.388 23.5096 195.1 23.6237C194.811 23.7378 194.55 23.918 194.333 24.1518C194.117 24.3856 193.95 24.6673 193.846 24.9771C193.741 25.287 193.701 25.6177 193.729 25.9459V31.6001H191.946L191.946 18.1395Z" fill="black"/>
<path d="M210.11 28.9861C209.868 29.8709 209.344 30.6363 208.628 31.1483C207.913 31.6603 207.052 31.8864 206.197 31.787C205.602 31.8038 205.011 31.6817 204.464 31.429C203.918 31.1763 203.429 30.7991 203.032 30.3237C202.635 29.8482 202.34 29.2859 202.166 28.6757C201.992 28.0655 201.944 27.422 202.025 26.7899C201.946 26.1559 201.995 25.5111 202.168 24.899C202.342 24.287 202.636 23.722 203.031 23.2424C203.426 22.7628 203.912 22.3798 204.457 22.1192C205.002 21.8586 205.593 21.7265 206.189 21.732C208.702 21.732 210.218 23.5724 210.218 26.6125V27.2792H203.841V27.3862C203.813 27.7415 203.855 28.0991 203.963 28.4361C204.072 28.7732 204.245 29.0821 204.471 29.3433C204.698 29.6044 204.973 29.8119 205.278 29.9525C205.584 30.0931 205.914 30.1637 206.246 30.1597C206.672 30.2146 207.104 30.1323 207.487 29.9233C207.87 29.7143 208.186 29.3881 208.395 28.9861L210.11 28.9861ZM203.841 25.8661H208.402C208.425 25.5412 208.384 25.2148 208.282 24.908C208.179 24.6011 208.018 24.3206 207.809 24.0844C207.6 23.8482 207.347 23.6616 207.066 23.5365C206.785 23.4114 206.483 23.3507 206.179 23.3581C205.871 23.354 205.565 23.416 205.28 23.5406C204.994 23.6652 204.735 23.8498 204.517 24.0835C204.299 24.3172 204.127 24.5954 204.011 24.9015C203.895 25.2077 203.837 25.5357 203.841 25.8661H203.841Z" fill="black"/>
</g>
<defs>
<clipPath id="clip0_599_2503">
<rect width="240" height="86" fill="white"/>
</clipPath>
</defs>
</svg>
