<svg width="23" height="38" viewBox="0 0 23 38" fill="none" xmlns="http://www.w3.org/2000/svg">
<g id="Group 2">
<path id="Arrow 2" d="M4 21.5C5.38071 21.5 6.5 20.3807 6.5 19C6.5 17.6193 5.38071 16.5 4 16.5L4 21.5ZM1.23223 17.2322C0.255922 18.2085 0.255922 19.7915 1.23223 20.7678L17.1421 36.6777C18.1184 37.654 19.7014 37.654 20.6777 36.6777C21.654 35.7014 21.654 34.1184 20.6777 33.1421L6.53553 19L20.6777 4.85786C21.654 3.88155 21.654 2.29864 20.6777 1.32233C19.7014 0.34602 18.1184 0.34602 17.1421 1.32233L1.23223 17.2322ZM4 16.5H3L3 21.5H4L4 16.5Z" fill="#00ECFF"/>
<path id="Arrow 1" d="M12 20.5C12.8284 20.5 13.5 19.8284 13.5 19C13.5 18.1716 12.8284 17.5 12 17.5V20.5ZM9.93934 17.9393C9.35355 18.5251 9.35355 19.4749 9.93934 20.0607L19.4853 29.6066C20.0711 30.1924 21.0208 30.1924 21.6066 29.6066C22.1924 29.0208 22.1924 28.0711 21.6066 27.4853L13.1213 19L21.6066 10.5147C22.1924 9.92893 22.1924 8.97919 21.6066 8.3934C21.0208 7.80761 20.0711 7.80761 19.4853 8.3934L9.93934 17.9393ZM12 17.5H11V20.5H12V17.5Z" fill="#00ECFF"/>
</g>
</svg>
