<svg width="16" height="16" viewBox="0 0 16 16" fill="none" xmlns="http://www.w3.org/2000/svg">
<rect width="16" height="16" fill="#1D1D1D"/>
<path d="M-140 -504C-140 -505.105 -139.105 -506 -138 -506H21228C21229.1 -506 21230 -505.105 21230 -504V7214C21230 7215.1 21229.1 7216 21228 7216H-138C-139.105 7216 -140 7215.1 -140 7214V-504Z" fill="white"/>
<path d="M-138 -505H21228V-507H-138V-505ZM21229 -504V7214H21231V-504H21229ZM21228 7215H-138V7217H21228V7215ZM-139 7214V-504H-141V7214H-139ZM-138 7215C-138.552 7215 -139 7214.55 -139 7214H-141C-141 7215.66 -139.657 7217 -138 7217V7215ZM21229 7214C21229 7214.55 21228.6 7215 21228 7215V7217C21229.7 7217 21231 7215.66 21231 7214H21229ZM21228 -505C21228.6 -505 21229 -504.552 21229 -504H21231C21231 -505.657 21229.7 -507 21228 -507V-505ZM-138 -507C-139.657 -507 -141 -505.657 -141 -504H-139C-139 -504.552 -138.552 -505 -138 -505V-507Z" fill="white" fill-opacity="0.1"/>
<rect x="-39.5" y="-358.5" width="323" height="414" rx="11.5" fill="#171C20"/>
<rect x="-39.5" y="-358.5" width="323" height="414" rx="11.5" stroke="#5C5C5C"/>
<rect x="-24" y="-188" width="292" height="228" rx="8" fill="#21262B"/>
<rect x="-12" y="-12" width="268" height="40" rx="8" fill="#2E353C"/>
<path d="M6 14H3.33333C2.97971 14 2.64057 13.8595 2.39052 13.6095C2.14048 13.3594 2 13.0203 2 12.6667V3.33333C2 2.97971 2.14048 2.64057 2.39052 2.39052C2.64057 2.14048 2.97971 2 3.33333 2H6M10.6667 11.3333L14 8M14 8L10.6667 4.66667M14 8H6" stroke="white" stroke-linecap="round" stroke-linejoin="round"/>
</svg>
