<svg width="40" height="40" viewBox="0 0 40 40" fill="none" xmlns="http://www.w3.org/2000/svg">
<path d="M16.3637 14.4055C15.823 13.8648 14.9463 13.8648 14.4055 14.4055C13.8648 14.9463 13.8648 15.823 14.4055 16.3637L18.0418 20L14.4056 23.6364C13.8649 24.177 13.8649 25.0537 14.4056 25.5944C14.9463 26.1352 15.823 26.1352 16.3637 25.5944L20 21.9583L23.6362 25.5944C24.177 26.1352 25.0537 26.1352 25.5944 25.5944C26.1352 25.0537 26.1352 24.177 25.5944 23.6362L21.9581 20L25.5944 16.3637C26.1352 15.823 26.1352 14.9463 25.5944 14.4056C25.0537 13.8649 24.177 13.8649 23.6362 14.4056L20 18.0418L16.3637 14.4055Z" fill="white"/>
<path fill-rule="evenodd" clip-rule="evenodd" d="M20 0C8.95431 0 0 8.95431 0 20C0 31.0458 8.95431 40 20 40C31.0458 40 40 31.0458 40 20C40 8.95431 31.0458 0 20 0ZM2.7907 20C2.7907 10.4956 10.4956 2.7907 20 2.7907C29.5044 2.7907 37.2093 10.4956 37.2093 20C37.2093 29.5044 29.5044 37.2093 20 37.2093C10.4956 37.2093 2.7907 29.5044 2.7907 20Z" fill="white"/>
</svg>
