<svg width="14" height="15" viewBox="0 0 14 15" fill="none" xmlns="http://www.w3.org/2000/svg">
<rect width="14" height="15" fill="#F5F5F5"/>
<g id="marquis account setting">
<path id="Rectangle 6566" d="M-33.5 -74C-33.5 -90.2924 -20.2924 -103.5 -4 -103.5H291C307.292 -103.5 320.5 -90.2924 320.5 -74V384C320.5 400.292 307.292 413.5 291 413.5H-4C-20.2924 413.5 -33.5 400.292 -33.5 384V-74Z" fill="#171C20" stroke="#5C5C5C"/>
<g id="Group 1171276160">
<rect id="Rectangle 621" x="-12" y="-18" width="308" height="52" rx="8" fill="#21262B"/>
</g>
<g id="Frame 1171276069">
<g id="copy 1" clip-path="url(#clip0_0_1)">
<g id="Group">
<path id="Vector" d="M12.0908 5.59088H6.36355C5.66064 5.59088 5.09082 6.1607 5.09082 6.86361V12.5909C5.09082 13.2938 5.66064 13.8636 6.36355 13.8636H12.0908C12.7937 13.8636 13.3635 13.2938 13.3635 12.5909V6.86361C13.3635 6.1607 12.7937 5.59088 12.0908 5.59088Z" stroke="white" stroke-linecap="round" stroke-linejoin="round"/>
<path id="Vector_2" d="M2.54532 9.40908H1.90896C1.57141 9.40908 1.24769 9.27499 1.009 9.03631C0.770321 8.79762 0.63623 8.4739 0.63623 8.13635V2.40908C0.63623 2.07153 0.770321 1.74781 1.009 1.50913C1.24769 1.27044 1.57141 1.13635 1.90896 1.13635H7.63623C7.97378 1.13635 8.2975 1.27044 8.53618 1.50913C8.77487 1.74781 8.90896 2.07153 8.90896 2.40908V3.04544" stroke="white" stroke-linecap="round" stroke-linejoin="round"/>
</g>
</g>
</g>
</g>
<defs>
<clipPath id="clip0_0_1">
<rect width="14" height="14" fill="white" transform="translate(0 0.5)"/>
</clipPath>
</defs>
</svg>
