<svg width="44" height="44" viewBox="0 0 44 44" fill="none" xmlns="http://www.w3.org/2000/svg">
<circle cx="22" cy="22" r="22" fill="#46464D"/>
<path fill-rule="evenodd" clip-rule="evenodd" d="M21.253 24.5187C21.3695 24.4023 21.4619 24.264 21.5249 24.1119C21.588 23.9597 21.6204 23.7966 21.6204 23.6319C21.6204 23.4672 21.588 23.3041 21.5249 23.152C21.4619 22.9998 21.3695 22.8616 21.253 22.7451C20.9258 22.4179 20.6663 22.0295 20.4892 21.602C20.3121 21.1746 20.221 20.7164 20.221 20.2537C20.221 19.791 20.3121 19.3328 20.4892 18.9053C20.6663 18.4779 20.9258 18.0895 21.253 17.7623L25.4765 13.5402C25.8037 13.2131 26.1921 12.9535 26.6196 12.7765C27.0471 12.5994 27.5053 12.5083 27.968 12.5083C28.4307 12.5083 28.8889 12.5994 29.3164 12.7765C29.7439 12.9535 30.1324 13.2131 30.4596 13.5402C30.7868 13.8674 31.0463 14.2558 31.2234 14.6833C31.4005 15.1108 31.4916 15.569 31.4916 16.0317C31.4916 16.4944 31.4005 16.9525 31.2234 17.38C31.0463 17.8075 30.7868 18.1959 30.4596 18.5231L29.1541 19.8273C29.0376 19.9438 28.9452 20.082 28.8822 20.2342C28.8192 20.3863 28.7867 20.5494 28.7867 20.7141C28.7867 20.8788 28.8192 21.0419 28.8822 21.1941C28.9452 21.3462 29.0376 21.4845 29.1541 21.6009C29.3893 21.8361 29.7083 21.9682 30.0409 21.9682C30.2056 21.9682 30.3687 21.9358 30.5209 21.8728C30.6731 21.8098 30.8113 21.7174 30.9278 21.6009L32.2333 20.2967C33.3645 19.1655 34 17.6314 34 16.0317C34 14.432 33.3645 12.8978 32.2333 11.7666C31.1021 10.6355 29.5678 10 27.968 10C26.3682 10 24.834 10.6355 23.7028 11.7666L19.4793 15.9887C18.9192 16.5487 18.4749 17.2137 18.1717 17.9455C17.8686 18.6773 17.7125 19.4616 17.7125 20.2537C17.7125 21.0458 17.8686 21.8301 18.1717 22.5619C18.4749 23.2937 18.9192 23.9586 19.4793 24.5187C19.969 25.0084 20.7633 25.0084 21.253 24.5187ZM23.7016 18.5231C23.5851 18.6395 23.4927 18.7778 23.4297 18.9299C23.3667 19.0821 23.3342 19.2452 23.3342 19.4099C23.3342 19.5746 23.3667 19.7377 23.4297 19.8898C23.4927 20.042 23.5851 20.1802 23.7016 20.2967C24.0288 20.6239 24.2883 21.0123 24.4654 21.4398C24.6425 21.8672 24.7336 22.3254 24.7336 22.7881C24.7336 23.2508 24.6425 23.709 24.4654 24.1365C24.2883 24.5639 24.0288 24.9524 23.7016 25.2795L19.5211 29.4598C19.1957 29.7946 18.8069 30.0614 18.3774 30.2447C17.9479 30.428 17.4862 30.5241 17.0193 30.5274C16.5523 30.5306 16.0894 30.4411 15.6573 30.2639C15.2253 30.0867 14.8328 29.8254 14.5026 29.4952C14.1724 29.165 13.9112 28.7724 13.7341 28.3403C13.557 27.9083 13.4676 27.4453 13.471 26.9784C13.4744 26.5115 13.5706 26.0499 13.754 25.6204C13.9374 25.191 14.2043 24.8023 14.5392 24.4769L15.7635 23.2527C15.9987 23.0175 16.1309 22.6985 16.1309 22.3659C16.1309 22.0333 15.9987 21.7143 15.7635 21.4791C15.5283 21.2439 15.2093 21.1118 14.8767 21.1118C14.544 21.1118 14.225 21.2439 13.9898 21.4791L12.7667 22.7033C11.6355 23.8345 11 25.3686 11 26.9683C11 28.568 11.6355 30.1022 12.7667 31.2334C13.8979 32.3645 15.4322 33 17.032 33C18.6318 33 20.166 32.3645 21.2972 31.2334L25.4777 27.0531C26.0378 26.4931 26.4821 25.8281 26.7853 25.0963C27.0884 24.3645 27.2445 23.5802 27.2445 22.7881C27.2445 21.996 27.0884 21.2117 26.7853 20.4799C26.4821 19.7481 26.0378 19.0832 25.4777 18.5231C25.3612 18.4066 25.223 18.3142 25.0708 18.2512C24.9186 18.1882 24.7555 18.1557 24.5908 18.1557C24.4261 18.1557 24.263 18.1882 24.1109 18.2512C23.9587 18.3142 23.8204 18.4066 23.704 18.5231H23.7016Z" fill="white"/>
</svg>
