<svg xmlns="http://www.w3.org/2000/svg" width="20" height="20" viewBox="0 0 20 20" fill="none">
  <g clip-path="url(#clip0_565_4057)">
    <path d="M17.2725 7.27295H9.09064C8.08649 7.27295 7.27246 8.08698 7.27246 9.09113V17.273C7.27246 18.2771 8.08649 19.0911 9.09064 19.0911H17.2725C18.2766 19.0911 19.0906 18.2771 19.0906 17.273V9.09113C19.0906 8.08698 18.2766 7.27295 17.2725 7.27295Z" stroke="#00ECFF" stroke-width="2" stroke-linecap="round" stroke-linejoin="round"/>
    <path d="M3.63645 12.7274H2.72736C2.24515 12.7274 1.78269 12.5358 1.44171 12.1948C1.10074 11.8539 0.90918 11.3914 0.90918 10.9092V2.72736C0.90918 2.24515 1.10074 1.78269 1.44171 1.44171C1.78269 1.10074 2.24515 0.90918 2.72736 0.90918L10.9092 0.90918C11.3914 0.90918 11.8539 1.10074 12.1948 1.44171C12.5358 1.78269 12.7274 2.24515 12.7274 2.72736V3.63645" stroke="#00ECFF" stroke-width="2" stroke-linecap="round" stroke-linejoin="round"/>
  </g>
  <defs>
    <clipPath id="clip0_565_4057">
      <rect width="20" height="20" fill="white"/>
    </clipPath>
  </defs>
</svg>