<svg xmlns="http://www.w3.org/2000/svg" width="13" height="13" viewBox="0 0 13 13" fill="none">
  <path d="M4.66663 4.66667V2.95568C4.66663 2.27117 4.66663 1.92866 4.79984 1.66721C4.91701 1.43723 5.10385 1.25039 5.33383 1.13322C5.59526 1 5.93778 1 6.62228 1H10.0445C10.729 1 11.0711 1 11.3325 1.13322C11.5624 1.25039 11.7496 1.43723 11.8668 1.66721C12 1.92866 12 2.27091 12 2.95542V6.37766C12 7.06216 12 7.40444 11.8668 7.66588C11.7496 7.89584 11.5623 8.08308 11.3323 8.20023C11.0711 8.33333 10.7294 8.33333 10.0462 8.33333H8.33325M4.66663 4.66667H2.95566C2.27115 4.66667 1.92865 4.66667 1.6672 4.79988C1.43723 4.91706 1.25039 5.1039 1.13321 5.33388C1 5.59531 1 5.93784 1 6.62234V10.0446C1 10.7291 1 11.0712 1.13321 11.3326C1.25039 11.5626 1.43723 11.7497 1.6672 11.8669C1.92839 12 2.27048 12 2.95365 12H6.37992C7.06307 12 7.40468 12 7.66586 11.8669C7.89582 11.7497 8.083 11.5624 8.20015 11.3324C8.33325 11.0712 8.33325 10.7295 8.33325 10.0463V8.33333M4.66663 4.66667H6.37784C7.06234 4.66667 7.40443 4.66667 7.66586 4.79988C7.89582 4.91706 8.083 5.1039 8.20015 5.33388C8.33325 5.59507 8.33325 5.93717 8.33325 6.62033V8.33333" stroke="white" stroke-linecap="round" stroke-linejoin="round"/>
</svg>