<svg xmlns="http://www.w3.org/2000/svg" width="25" height="25" viewBox="0 0 25 25" fill="none">
<g filter="url(#filter0_d_3490_3827)">
<rect x="7.5918" y="7.33325" width="10.3828" height="10.2628" transform="rotate(1.39297 7.5918 7.33325)" fill="black"/>
<g filter="url(#filter1_d_3490_3827)">
<path d="M17.9001 18.0796C16.3747 17.4483 16.3375 18.5272 16.077 19.3715C13.1742 18.4037 10.3435 17.2861 7.33401 17.7798C6.93551 17.3137 7.51332 16.7116 6.91791 16.4608C6.51775 16.2886 6.09051 16.1787 5.62772 16.0296C5.99752 14.8602 6.297 13.6928 6.73846 12.5799C7.31398 11.1335 7.40516 9.63603 7.38732 8.11768C7.382 7.81086 7.4022 7.50558 7.41185 7.10877C8.80417 7.54424 8.61672 6.35674 8.97797 5.61433C11.9136 6.50719 14.772 7.83631 18.116 7.24857C17.6755 8.58692 18.5366 8.71922 19.4694 8.90984C18.3369 11.8269 17.4334 14.7495 17.9001 18.0796ZM7.37199 17.4941L17.5688 17.742L17.8163 7.56349L7.61949 7.31554L7.37199 17.4941Z" fill="url(#paint0_linear_3490_3827)"/>
<path d="M4.35071 12.2269L5.63054 11.0578C6.15506 12.0088 6.49181 12.9499 5.75635 13.9917C5.31063 13.4405 4.8582 12.8654 4.35071 12.2269Z" fill="url(#paint1_linear_3490_3827)"/>
<path d="M12.2936 20.6643L11.1397 19.32C12.0433 18.8308 12.9956 18.4816 14.0798 19.2382L12.2936 20.6643Z" fill="url(#paint2_linear_3490_3827)"/>
<path d="M19.2386 10.9297L20.6524 12.6235L19.3303 13.7296C18.7174 12.8439 18.6716 12.212 19.2386 10.9297Z" fill="url(#paint3_linear_3490_3827)"/>
<path d="M13.8525 5.65534C12.9854 6.13993 12.0363 6.47374 11.0247 5.76913L12.7381 4.33669L13.8525 5.65534Z" fill="url(#paint4_linear_3490_3827)"/>
<path d="M15.582 14.1375C15.4416 13.9807 15.3046 13.835 15.1612 13.6873C14.8611 13.3967 14.5799 13.0871 14.3194 12.7605C14.0266 12.6 13.8054 12.6494 13.6515 13.05C13.4798 13.5022 13.0745 13.695 12.5868 13.6694C12.099 13.6439 11.8285 13.3954 11.5991 12.9955C11.4844 12.7965 11.2595 12.6596 11.0845 12.4993L11.059 12.7223C10.6967 13.0202 10.3313 13.296 9.98072 13.5988C9.8875 13.6787 9.76841 13.8464 9.79665 13.9238C9.86 14.0735 9.97398 14.1961 10.1186 14.2703C10.6595 14.5509 10.9316 15.0695 10.7885 15.6265C10.741 15.8078 10.6492 15.9745 10.5212 16.1116C10.3933 16.2486 10.2333 16.3517 10.0557 16.4115C9.87802 16.4714 9.68827 16.4861 9.50351 16.4544C9.31875 16.4226 9.14477 16.3455 8.99724 16.2298C8.84971 16.1142 8.73326 15.9636 8.65837 15.7918C8.58347 15.6199 8.55249 15.4321 8.5682 15.2453C8.58391 15.0585 8.64583 14.8786 8.74838 14.7216C8.85092 14.5647 8.99089 14.4357 9.15566 14.3463C9.30884 14.278 9.46274 14.2178 9.61647 14.164L9.62867 13.6623L9.37091 13.5648C9.14119 13.4928 8.94183 13.3466 8.80409 13.1492C8.66634 12.9518 8.59798 12.7142 8.60973 12.4738C8.62184 11.9757 8.89041 11.629 9.36009 11.4195C9.49663 11.3599 9.67177 11.2144 9.68373 11.0979C9.69569 10.9814 9.53749 10.8059 9.40955 10.7371C8.83378 10.4292 8.57615 9.95101 8.72271 9.40418C8.78238 9.15472 8.9257 8.93323 9.1288 8.77658C9.33189 8.61993 9.58252 8.53756 9.83895 8.5432C10.0972 8.54674 10.3467 8.63704 10.5474 8.79957C10.7461 8.96542 10.8823 9.19414 10.9333 9.44789C11.0383 10.0063 10.7559 10.4713 10.1715 10.7447C10.0984 10.7798 10.033 10.8291 9.97905 10.8897C9.92491 10.9501 9.88346 11.0208 9.85716 11.0975C9.83797 11.1738 10.0347 11.3045 10.1307 11.4109C10.362 11.6557 10.5934 11.8986 10.8295 12.1371C10.9363 12.2501 11.0579 12.4293 11.1801 12.435C11.2585 12.4233 11.3331 12.3933 11.3977 12.3472C11.4623 12.3012 11.515 12.2405 11.5516 12.1702C11.7786 11.6965 12.1105 11.407 12.6543 11.4157C13.1981 11.4243 13.565 11.7272 13.756 12.2439C13.7858 12.3113 13.8317 12.3704 13.8896 12.416C13.9477 12.4617 14.0163 12.4923 14.0892 12.5048C14.2273 12.4945 14.3666 12.3582 14.4815 12.2496C14.7437 12.015 14.9961 11.7702 15.2485 11.5253C15.3849 11.3953 15.5124 11.2579 15.7164 11.0493C15.4135 10.9333 15.264 10.8849 15.1096 10.8154C14.9393 10.7292 14.7935 10.6015 14.6857 10.4439C14.5778 10.2864 14.5115 10.1043 14.4927 9.9143C14.4739 9.72434 14.5034 9.5327 14.5783 9.35713C14.6532 9.18156 14.7712 9.02772 14.9214 8.90984C15.0715 8.79196 15.2489 8.71385 15.4373 8.68273C15.6256 8.65161 15.8188 8.66849 15.9988 8.7318C16.1789 8.79512 16.3401 8.90282 16.4676 9.04496C16.595 9.1871 16.6845 9.35907 16.7278 9.54498C16.7891 9.78585 16.7679 10.0403 16.6675 10.2677C16.5672 10.4951 16.3935 10.6823 16.1743 10.7993C15.5533 11.1493 15.5894 11.2415 16.1346 11.681C16.4242 11.9421 16.6146 12.2954 16.6735 12.6808C16.7308 13.1386 16.4075 13.484 15.9724 13.697C15.8992 13.7326 15.8348 13.7842 15.784 13.8478C15.7332 13.9115 15.6972 13.9857 15.6787 14.065C15.6924 14.1444 15.7236 14.2197 15.7701 14.2854C15.8172 14.3515 15.8781 14.4066 15.9487 14.4467C16.5181 14.7901 16.7503 15.2631 16.5745 15.8119C16.4964 16.0612 16.335 16.276 16.1172 16.4203C15.8995 16.5646 15.6387 16.6296 15.3787 16.6043C15.1182 16.5781 14.8744 16.464 14.6874 16.2808C14.5016 16.0966 14.385 15.8539 14.3573 15.5937C14.3034 15.0292 14.6312 14.5772 15.2467 14.3776C15.3111 14.3564 15.3817 14.3407 15.4479 14.3241L15.582 14.1375Z" fill="url(#paint5_linear_3490_3827)"/>
</g>
</g>
<defs>
<filter id="filter0_d_3490_3827" x="4.35059" y="4.33667" width="16.8018" height="17.3276" filterUnits="userSpaceOnUse" color-interpolation-filters="sRGB">
<feFlood flood-opacity="0" result="BackgroundImageFix"/>
<feColorMatrix in="SourceAlpha" type="matrix" values="0 0 0 0 0 0 0 0 0 0 0 0 0 0 0 0 0 0 127 0" result="hardAlpha"/>
<feOffset dx="0.5" dy="1"/>
<feComposite in2="hardAlpha" operator="out"/>
<feColorMatrix type="matrix" values="0 0 0 0 0 0 0 0 0 0 0 0 0 0 0 0 0 0 1 0"/>
<feBlend mode="normal" in2="BackgroundImageFix" result="effect1_dropShadow_3490_3827"/>
<feBlend mode="normal" in="SourceGraphic" in2="effect1_dropShadow_3490_3827" result="shape"/>
</filter>
<filter id="filter1_d_3490_3827" x="0.350586" y="0.33667" width="24.3018" height="24.3276" filterUnits="userSpaceOnUse" color-interpolation-filters="sRGB">
<feFlood flood-opacity="0" result="BackgroundImageFix"/>
<feColorMatrix in="SourceAlpha" type="matrix" values="0 0 0 0 0 0 0 0 0 0 0 0 0 0 0 0 0 0 127 0" result="hardAlpha"/>
<feOffset/>
<feGaussianBlur stdDeviation="2"/>
<feComposite in2="hardAlpha" operator="out"/>
<feColorMatrix type="matrix" values="0 0 0 0 1 0 0 0 0 1 0 0 0 0 1 0 0 0 0.25 0"/>
<feBlend mode="normal" in2="BackgroundImageFix" result="effect1_dropShadow_3490_3827"/>
<feBlend mode="normal" in="SourceGraphic" in2="effect1_dropShadow_3490_3827" result="shape"/>
</filter>
<linearGradient id="paint0_linear_3490_3827" x1="23.1565" y1="-10.7417" x2="10.7479" y2="16.8341" gradientUnits="userSpaceOnUse">
<stop offset="0.36" stop-color="#00ECFF"/>
<stop offset="1" stop-color="#FFEB81"/>
</linearGradient>
<linearGradient id="paint1_linear_3490_3827" x1="17.0294" y1="-13.4656" x2="4.62499" y2="14.123" gradientUnits="userSpaceOnUse">
<stop offset="0.36" stop-color="#00ECFF"/>
<stop offset="1" stop-color="#FFEB81"/>
</linearGradient>
<linearGradient id="paint2_linear_3490_3827" x1="25.5849" y1="-9.61736" x2="13.2105" y2="17.941" gradientUnits="userSpaceOnUse">
<stop offset="0.36" stop-color="#00ECFF"/>
<stop offset="1" stop-color="#FFEB81"/>
</linearGradient>
<linearGradient id="paint3_linear_3490_3827" x1="28.9189" y1="-8.15983" x2="16.5047" y2="19.4194" gradientUnits="userSpaceOnUse">
<stop offset="0.36" stop-color="#00ECFF"/>
<stop offset="1" stop-color="#FFEB81"/>
</linearGradient>
<linearGradient id="paint4_linear_3490_3827" x1="20.3894" y1="-11.9772" x2="7.99536" y2="15.5998" gradientUnits="userSpaceOnUse">
<stop offset="0.36" stop-color="#00ECFF"/>
<stop offset="1" stop-color="#FFEB81"/>
</linearGradient>
<linearGradient id="paint5_linear_3490_3827" x1="16.9592" y1="9.82626" x2="9.46041" y2="14.6139" gradientUnits="userSpaceOnUse">
<stop offset="0.36" stop-color="#00ECFF"/>
<stop offset="1" stop-color="#FFEB81"/>
</linearGradient>
</defs>
</svg>