<svg width="33" height="33" viewBox="0 0 33 33" fill="none" xmlns="http://www.w3.org/2000/svg">
<path d="M16.0569 2.03396C14.2152 2.02254 12.3896 2.37686 10.6859 3.07639C8.98214 3.77591 7.43426 4.80671 6.13196 6.10901C4.82966 7.41131 3.79886 8.9592 3.09934 10.6629C2.39981 12.3666 2.04549 14.1923 2.05691 16.034C2.04549 17.8757 2.39981 19.7013 3.09934 21.405C3.79886 23.1087 4.82966 24.6566 6.13196 25.9589C7.43426 27.2612 8.98214 28.292 10.6859 28.9915C12.3896 29.6911 14.2152 30.0454 16.0569 30.034C17.8986 30.0454 19.7242 29.6911 21.428 28.9915C23.1317 28.292 24.6796 27.2612 25.9819 25.9589C27.2842 24.6566 28.315 23.1087 29.0145 21.405C29.714 19.7013 30.0683 17.8757 30.0569 16.034C30.0683 14.1923 29.714 12.3666 29.0145 10.6629C28.315 8.9592 27.2842 7.41131 25.9819 6.10901C24.6796 4.80671 23.1317 3.77591 21.428 3.07639C19.7242 2.37686 17.8986 2.02254 16.0569 2.03396ZM21.5019 23.034L9.05691 10.59L10.6129 9.03396L23.0569 21.479L21.5019 23.034Z" fill="#D95972"/>
</svg>
