<svg xmlns="http://www.w3.org/2000/svg" width="55" height="52" viewBox="0 0 55 52" fill="none">
  <g filter="url(#filter0_d_610_631)">
    <path d="M35.6809 29.3072L29.9851 19.4365C29.4718 18.5477 28.5236 18 27.497 18C26.4705 18 25.5223 18.5477 25.009 19.4365L19.2131 29.4762C18.6998 30.365 18.6998 31.4604 19.2131 32.3492C19.7263 33.238 20.6746 33.7856 21.7011 33.7856H33.2931C33.2962 33.7856 33.2993 33.7856 33.2993 33.7856C34.886 33.7856 36.1723 32.4993 36.1723 30.9127C36.1723 30.3181 35.9908 29.7641 35.6809 29.3072ZM28.727 30.2679C28.727 30.9471 28.2044 31.4666 27.5002 31.4666C26.7961 31.4666 26.2734 30.9471 26.2734 30.2679V30.2398C26.2734 29.5638 26.7961 29.0412 27.5002 29.0412C28.2044 29.0412 28.727 29.5607 28.727 30.2398V30.2679ZM28.7552 22.1874L28.148 27.4889C28.1073 27.8707 27.8539 28.1086 27.5002 28.1086C27.1466 28.1086 26.8931 27.8676 26.8524 27.4889L26.2452 22.1843C26.2046 21.7743 26.4268 21.4645 26.8086 21.4645H28.1887C28.5705 21.4676 28.7959 21.7774 28.7552 22.1874Z" fill="#FF0F0F"/>
  </g>
  <defs>
    <filter id="filter0_d_610_631" x="0.828125" y="0" width="53.3438" height="51.7856" filterUnits="userSpaceOnUse" color-interpolation-filters="sRGB">
      <feFlood flood-opacity="0" result="BackgroundImageFix"/>
      <feColorMatrix in="SourceAlpha" type="matrix" values="0 0 0 0 0 0 0 0 0 0 0 0 0 0 0 0 0 0 127 0" result="hardAlpha"/>
      <feOffset/>
      <feGaussianBlur stdDeviation="9"/>
      <feComposite in2="hardAlpha" operator="out"/>
      <feColorMatrix type="matrix" values="0 0 0 0 1 0 0 0 0 0.0291667 0 0 0 0 0.0291667 0 0 0 0.47 0"/>
      <feBlend mode="normal" in2="BackgroundImageFix" result="effect1_dropShadow_610_631"/>
      <feBlend mode="normal" in="SourceGraphic" in2="effect1_dropShadow_610_631" result="shape"/>
    </filter>
  </defs>
</svg>