<svg width="269" height="85" viewBox="0 0 269 85" fill="none" xmlns="http://www.w3.org/2000/svg">
<g clip-path="url(#clip0_599_2502)">
<path fill-rule="evenodd" clip-rule="evenodd" d="M259.033 85H9.96663C4.4736 85 0 80.2095 0 74.375V10.625C0 4.76933 4.4736 0 9.96663 0H259.033C264.521 0 269 4.76933 269 10.625V74.375C269 80.2095 264.521 85 259.033 85Z" fill="black"/>
<path fill-rule="evenodd" clip-rule="evenodd" d="M259.033 1.70106C263.641 1.70106 267.411 5.71259 267.411 10.625V74.375C267.411 79.2874 263.665 83.2989 259.033 83.2989H9.96663C5.35941 83.2989 1.58852 79.2874 1.58852 74.375V10.625C1.58852 5.71259 5.33467 1.70106 9.96663 1.70106H259.033ZM259.033 0H9.96663C4.4736 0 0 4.79052 0 10.625V74.375C0 80.2307 4.4736 85 9.96663 85H259.033C264.521 85 269 80.2307 269 74.375V10.625C269 4.79052 264.521 0 259.033 0Z" fill="#A6A6A6"/>
<path d="M141.71 28.1177C139.913 28.1177 138.399 27.4447 137.201 26.1199C136.014 24.8321 135.351 23.0569 135.38 21.2445C135.38 19.3103 135.994 17.6728 137.201 16.3745C138.394 15.0497 139.908 14.3767 141.705 14.3767C143.481 14.3767 144.996 15.0497 146.213 16.3745C147.42 17.7152 148.034 19.3527 148.034 21.2445C148.014 23.1841 147.401 24.8215 146.213 26.1146C145.02 27.45 143.506 28.1177 141.71 28.1177ZM88.2594 28.1177C86.5026 28.1177 84.9784 27.4553 83.7314 26.1463C82.4942 24.8427 81.8657 23.1947 81.8657 21.2498C81.8657 19.305 82.4942 17.6569 83.7314 16.3533C84.9537 15.0444 86.4779 14.382 88.2594 14.382C89.1303 14.382 89.9765 14.5675 90.7881 14.9437C91.5849 15.3094 92.2331 15.8075 92.7131 16.4169L92.8319 16.5706L91.4908 17.9802L91.3523 17.8053C90.5951 16.8409 89.5807 16.3692 88.2396 16.3692C87.042 16.3692 85.9978 16.825 85.1368 17.7258C84.2708 18.632 83.8303 19.819 83.8303 21.2551C83.8303 22.6912 84.2708 23.8783 85.1368 24.7844C85.9978 25.6853 87.042 26.141 88.2396 26.141C89.5163 26.141 90.5902 25.6853 91.4265 24.7844C91.9214 24.2545 92.2282 23.5126 92.3371 22.5747H88.0367V20.5927H94.1829L94.2076 20.7729C94.2522 21.1068 94.2967 21.4512 94.2967 21.7692C94.2967 23.5974 93.7821 25.0759 92.7626 26.1675C91.6047 27.4606 90.0904 28.1177 88.2594 28.1177ZM159.327 27.8368H157.432L151.627 17.8901L151.676 19.6813V27.8315H149.781V14.6629H151.943L152.003 14.7636L157.461 24.1326L157.412 22.3468V14.6629H159.327V27.8368ZM127.467 27.8368H125.547V16.6448H122.217V14.6629H130.793V16.6448H127.463V27.8368H127.467ZM120.653 27.8368H118.738V14.6629H120.653V27.8368ZM109.89 27.8368H107.975V16.6448H104.644V14.6629H113.22V16.6448H109.89V27.8368ZM103.432 27.8156H96.0881V14.6629H103.432V16.6448H98.0082V20.2589H102.902V22.2196H98.0082V25.8337H103.432V27.8156ZM138.607 24.7579C139.463 25.6747 140.502 26.1357 141.71 26.1357C142.952 26.1357 143.966 25.6853 144.812 24.7579C145.654 23.8571 146.079 22.6753 146.079 21.2498C146.079 19.8243 145.654 18.6373 144.817 17.7417C143.961 16.825 142.917 16.3639 141.715 16.3639C140.472 16.3639 139.458 16.8144 138.617 17.7417C137.775 18.6426 137.35 19.8243 137.35 21.2498C137.35 22.6753 137.771 23.8624 138.607 24.7579Z" fill="white"/>
<path fill-rule="evenodd" clip-rule="evenodd" d="M135.203 46.2306C130.526 46.2306 126.736 50.0302 126.736 55.2712C126.736 60.4644 130.551 64.3117 135.203 64.3117C139.879 64.3117 143.67 60.4856 143.67 55.2712C143.67 50.0302 139.879 46.2306 135.203 46.2306ZM135.203 60.7294C132.644 60.7294 130.442 58.4613 130.442 55.25C130.442 51.9909 132.649 49.7705 135.203 49.7705C137.761 49.7705 139.963 51.9909 139.963 55.25C139.968 58.4825 137.761 60.7294 135.203 60.7294ZM116.729 46.2306C112.053 46.2306 108.262 50.0302 108.262 55.2712C108.262 60.4644 112.078 64.3117 116.729 64.3117C121.406 64.3117 125.196 60.4856 125.196 55.2712C125.196 50.0302 121.401 46.2306 116.729 46.2306ZM116.729 60.7294C114.171 60.7294 111.969 58.4613 111.969 55.25C111.969 51.9909 114.176 49.7705 116.729 49.7705C119.288 49.7705 121.49 51.9909 121.49 55.25C121.49 58.4825 119.288 60.7294 116.729 60.7294ZM94.7473 48.9915V52.8176H103.323C103.061 54.9638 102.398 56.5483 101.383 57.6346C100.126 58.9806 98.1866 60.4432 94.7671 60.4432C89.4967 60.4432 85.3745 55.8859 85.3745 50.2422C85.3745 44.5985 89.4967 40.0411 94.7671 40.0411C97.6125 40.0411 99.686 41.244 101.225 42.7808L103.759 40.0676C101.621 37.8737 98.7755 36.1938 94.7869 36.1938C87.5568 36.1938 81.4897 42.5 81.4897 50.221C81.4897 57.9632 87.5519 64.2481 94.7869 64.2481C98.6914 64.2481 101.621 62.8809 103.937 60.3054C106.297 57.7777 107.045 54.2113 107.045 51.3338C107.045 50.4382 106.98 49.6327 106.847 48.9491H94.7423C94.7473 48.9438 94.7473 48.9915 94.7473 48.9915ZM184.66 51.9697C183.952 49.9401 181.814 46.2094 177.43 46.2094C173.085 46.2094 169.472 49.8712 169.472 55.25C169.472 60.3266 173.045 64.2905 177.85 64.2905C181.71 64.2905 183.957 61.7627 184.883 60.2789L182.017 58.2228C181.067 59.7331 179.746 60.7241 177.87 60.7241C175.975 60.7241 174.649 59.802 173.768 57.9844L185.056 52.9766C185.056 52.9819 184.66 51.9697 184.66 51.9697ZM173.149 54.9903C173.06 51.4981 175.683 49.7228 177.558 49.7228C179.038 49.7228 180.27 50.5018 180.691 51.6359L173.149 54.9903ZM163.979 63.75H167.686V37.1901H163.979V63.75ZM157.892 48.239H157.759C156.922 47.1739 155.334 46.2094 153.305 46.2094C149.094 46.2094 145.214 50.1786 145.214 55.2764C145.214 60.3531 149.074 64.2746 153.305 64.2746C155.309 64.2746 156.922 63.3048 157.759 62.2185H157.892V63.5168C157.892 66.9666 156.17 68.8266 153.394 68.8266C151.123 68.8266 149.712 67.0779 149.138 65.6153L145.917 67.0567C146.842 69.4413 149.311 72.393 153.389 72.393C157.734 72.393 161.416 69.6533 161.416 62.971V46.75H157.912V48.239C157.917 48.239 157.892 48.239 157.892 48.239ZM153.637 60.7294C151.078 60.7294 148.94 58.4401 148.94 55.2764C148.94 52.0863 151.078 49.7758 153.637 49.7758C156.17 49.7758 158.135 52.1128 158.135 55.2764C158.16 58.4401 156.175 60.7294 153.637 60.7294ZM202.015 37.1901H193.152V63.75H196.858V53.692H202.02C206.122 53.692 210.155 50.5071 210.155 45.4516C210.155 40.3962 206.137 37.1901 202.015 37.1901ZM202.124 49.9825H196.853V40.8678H202.124C204.9 40.8678 206.469 43.3213 206.469 45.4251C206.469 47.5077 204.88 49.9825 202.124 49.9825ZM225.011 46.1829C222.319 46.1829 219.543 47.4601 218.395 50.2422L221.681 51.7048C222.389 50.2422 223.685 49.744 225.056 49.744C226.976 49.744 228.916 50.9735 228.96 53.1673V53.4482C228.297 53.0455 226.842 52.4308 225.1 52.4308C221.552 52.4308 217.955 54.5081 217.955 58.403C217.955 61.9694 220.864 64.2587 224.106 64.2587C226.595 64.2587 227.966 63.0557 228.822 61.662H228.955V63.7182H232.528V53.5436C232.528 48.8061 229.242 46.1829 225.011 46.1829ZM224.546 60.7294C223.334 60.7294 221.636 60.0935 221.636 58.4613C221.636 56.4052 223.754 55.6262 225.561 55.6262C227.194 55.6262 227.966 56.0024 228.936 56.5218C228.668 58.9064 226.788 60.7082 224.546 60.7294ZM245.563 46.75L241.307 58.2705H241.174L236.764 46.75H232.776L239.392 62.8544L235.621 71.8048H239.481L249.661 46.75H245.563ZM212.199 63.75H215.906V37.1901H212.199V63.75Z" fill="white"/>
<path fill-rule="evenodd" clip-rule="evenodd" d="M20.7054 16.0089C20.1314 16.6713 19.7998 17.6835 19.7998 19.0083V65.9968C19.7998 67.3216 20.1314 68.3337 20.7252 68.9696L20.8786 69.1127L45.4636 42.786V42.1978L20.8588 15.8658L20.7054 16.0089Z" fill="url(#paint0_linear_599_2502)"/>
<path fill-rule="evenodd" clip-rule="evenodd" d="M53.6434 51.5882L45.4434 42.8073V42.1926L53.6434 33.4117L53.8215 33.5283L63.521 39.4317C66.2972 41.1063 66.2972 43.8725 63.521 45.5682L53.8215 51.4716L53.6434 51.5882Z" fill="url(#paint1_linear_599_2502)"/>
<path fill-rule="evenodd" clip-rule="evenodd" d="M53.8216 51.4716L45.4435 42.5L20.7051 68.991C21.6107 70.0296 23.1299 70.1462 24.8273 69.134L53.8216 51.4716Z" fill="url(#paint2_linear_599_2502)"/>
<path fill-rule="evenodd" clip-rule="evenodd" d="M53.8216 33.5283L24.8273 15.8924C23.1299 14.8538 21.6057 14.9968 20.7051 16.0355L45.4435 42.5L53.8216 33.5283Z" fill="url(#paint3_linear_599_2502)"/>
<path opacity="0.2" fill-rule="evenodd" clip-rule="evenodd" d="M53.6438 51.281L24.8474 68.8003C23.239 69.7912 21.8039 69.7223 20.8785 68.8215L20.7251 68.9857L20.8785 69.1288C21.8039 70.0244 23.239 70.0986 24.8474 69.1076L53.8418 51.4718L53.6438 51.281Z" fill="black"/>
<path opacity="0.12" fill-rule="evenodd" clip-rule="evenodd" d="M63.5209 45.2609L53.6187 51.2809L53.7968 51.4716L63.4962 45.5683C64.8868 44.7204 65.5697 43.6075 65.5697 42.5C65.4856 43.5175 64.7779 44.4819 63.5209 45.2609Z" fill="black"/>
<path opacity="0.25" fill-rule="evenodd" clip-rule="evenodd" d="M24.8277 16.1999L63.5213 39.7391C64.7783 40.4969 65.486 41.4879 65.5948 42.5001C65.5948 41.3925 64.9119 40.2797 63.5213 39.4318L24.8277 15.8925C22.0515 14.1914 19.7998 15.6116 19.7998 19.0085V19.3158C19.7998 15.9137 22.0515 14.52 24.8277 16.1999Z" fill="white"/>
</g>
<defs>
<linearGradient id="paint0_linear_599_2502" x1="43.2584" y1="18.5013" x2="3.54061" y2="28.3841" gradientUnits="userSpaceOnUse">
<stop stop-color="#00A0FF"/>
<stop offset="0.00657" stop-color="#00A1FF"/>
<stop offset="0.2601" stop-color="#00BEFF"/>
<stop offset="0.5122" stop-color="#00D2FF"/>
<stop offset="0.7604" stop-color="#00DFFF"/>
<stop offset="1" stop-color="#00E3FF"/>
</linearGradient>
<linearGradient id="paint1_linear_599_2502" x1="67.1414" y1="42.5" x2="19.1244" y2="42.5" gradientUnits="userSpaceOnUse">
<stop stop-color="#FFE000"/>
<stop offset="0.4087" stop-color="#FFBD00"/>
<stop offset="0.7754" stop-color="#FFA500"/>
<stop offset="1" stop-color="#FF9C00"/>
</linearGradient>
<linearGradient id="paint2_linear_599_2502" x1="49.2659" y1="47.3819" x2="14.3495" y2="102.261" gradientUnits="userSpaceOnUse">
<stop stop-color="#FF3A44"/>
<stop offset="1" stop-color="#C31162"/>
</linearGradient>
<linearGradient id="paint3_linear_599_2502" x1="14.4757" y1="0.379884" x2="30.0542" y2="24.8913" gradientUnits="userSpaceOnUse">
<stop stop-color="#32A071"/>
<stop offset="0.0685" stop-color="#2DA771"/>
<stop offset="0.4762" stop-color="#15CF74"/>
<stop offset="0.8009" stop-color="#06E775"/>
<stop offset="1" stop-color="#00F076"/>
</linearGradient>
<clipPath id="clip0_599_2502">
<rect width="269" height="85" fill="white"/>
</clipPath>
</defs>
</svg>
