<svg width="18" height="18" viewBox="0 0 18 18" fill="none" xmlns="http://www.w3.org/2000/svg">
<path fill-rule="evenodd" clip-rule="evenodd" d="M11.333 8.937C11.1866 8.41255 10.9067 7.91755 10.4944 7.506C9.21632 6.228 7.14379 6.22718 5.86575 7.506L1.77633 11.5953C0.49829 12.8741 0.497472 14.9457 1.77633 16.2237C3.05438 17.5025 5.12772 17.5009 6.40413 16.2237L9.54769 13.0811L9.82015 13.0885C10.1507 13.0885 10.4764 13.0557 10.793 12.9927L6.9826 16.8022C6.18485 17.6007 5.13754 18 4.09023 18C3.04292 18 1.99561 17.6007 1.19786 16.8022C-0.399286 15.2059 -0.399286 12.6131 1.19786 11.0168L5.28727 6.92755C6.08503 6.129 7.13315 5.72973 8.18046 5.72973C9.22695 5.72973 10.2751 6.129 11.0728 6.92755C11.4762 7.33091 11.7773 7.79727 11.977 8.29555L11.333 8.937ZM6.66677 9.05727C6.81241 9.58336 7.09306 10.08 7.50626 10.494C8.7843 11.7728 10.8576 11.7712 12.1341 10.494L16.2243 6.40473C17.5031 5.12673 17.5031 3.05427 16.2243 1.77627C14.9462 0.498273 12.8737 0.497455 11.5957 1.77627L8.45293 4.91891L8.18046 4.91155C7.8499 4.91155 7.52426 4.94427 7.20761 5.00727L11.0172 1.19782C11.8149 0.399273 12.8631 0 13.9104 0C14.9569 0 16.005 0.399273 16.8028 1.19782C18.3991 2.79409 18.3991 5.38609 16.8028 6.98318L12.7125 11.0725C11.9148 11.871 10.8675 12.2703 9.82015 12.2703C8.77285 12.2703 7.72554 11.871 6.92778 11.0725C6.52359 10.6675 6.22167 10.1995 6.02202 9.69954L6.66677 9.05727Z" fill="#00ECFF"/>
</svg>