<svg xmlns="http://www.w3.org/2000/svg" width="22" height="20" viewBox="0 0 22 20" fill="none">
<path fill-rule="evenodd" clip-rule="evenodd" d="M16.5 0C18.2575 0 19.694 1.38769 19.7944 3.13748L19.8 3.33333V8.16678L20.4533 7.87356C21.1284 7.57048 21.9079 8.04077 21.9925 8.75957L22 8.88889V17.7778C22 18.9493 21.1026 19.9091 19.9642 19.9939L19.8 20H2.2C1.0402 20 0.0900184 19.0935 0.00603435 17.9436L0 17.7778V8.88889C0 8.14267 0.7421 7.61409 1.4267 7.82799L1.54675 7.87356L2.2 8.16678V3.33333C2.2 1.55814 3.57382 0.107044 5.3061 0.00565847L5.5 0H16.5ZM19.8 10.5987L11.8935 14.1481C11.3246 14.4034 10.6754 14.4034 10.1065 14.1481L2.2 10.5987V17.7778H19.8V10.5987ZM16.5 2.22222H5.5C4.89249 2.22222 4.4 2.71969 4.4 3.33333V9.15444L11 12.1174L17.6 9.15444V3.33333C17.6 2.71969 17.1075 2.22222 16.5 2.22222ZM11 5.55556C11.6075 5.55556 12.1 6.05302 12.1 6.66667C12.1 7.23648 11.6754 7.70612 11.1283 7.7703L11 7.77778H8.8C8.19249 7.77778 7.7 7.28031 7.7 6.66667C7.7 6.09685 8.12465 5.62722 8.67172 5.56303L8.8 5.55556H11Z" fill="#00ECFF" />
</svg>