<svg width="14" height="15" viewBox="0 0 14 15" fill="none" xmlns="http://www.w3.org/2000/svg">
<path d="M14 8.08347V10.7085H11.375V9.83347H12.4209C12.234 9.55091 11.988 9.33444 11.6826 9.18405C11.3773 9.03366 11.056 8.95847 10.7188 8.95847C10.4727 8.95847 10.2311 8.99948 9.99414 9.08151C9.75716 9.16354 9.54753 9.28203 9.36523 9.43698C9.18294 9.59193 9.03483 9.7765 8.9209 9.99069C8.80697 10.2049 8.75 10.4441 8.75 10.7085H7.875C7.875 10.3211 7.95247 9.96791 8.10742 9.6489C8.26237 9.32988 8.47428 9.05189 8.74316 8.81491C9.01204 8.57793 9.3151 8.39792 9.65234 8.27487C9.98958 8.15182 10.3451 8.08802 10.7188 8.08347C10.9557 8.08347 11.1882 8.10853 11.416 8.15866C11.6439 8.20879 11.8626 8.28854 12.0723 8.39792C12.2819 8.50729 12.4756 8.6349 12.6533 8.78073C12.8311 8.92656 12.9883 9.10202 13.125 9.3071V8.08347H14ZM11.1562 13.3335C11.4023 13.3335 11.6416 13.2924 11.874 13.2104C12.1064 13.1284 12.3161 13.0099 12.5029 12.8549C12.6898 12.7 12.8402 12.5154 12.9541 12.3012C13.068 12.087 13.125 11.8478 13.125 11.5835H14C14 11.9708 13.9225 12.324 13.7676 12.643C13.6126 12.962 13.4007 13.24 13.1318 13.477C12.863 13.714 12.5599 13.894 12.2227 14.0171C11.8854 14.1401 11.5299 14.2039 11.1562 14.2085C10.9193 14.2085 10.6868 14.1834 10.459 14.1333C10.2311 14.0831 10.0124 14.0034 9.80273 13.894C9.5931 13.7846 9.39941 13.657 9.22168 13.5112C9.04395 13.3654 8.88672 13.1899 8.75 12.9848V14.2085H7.875V11.5835H10.5V12.4585H9.4541C9.64095 12.741 9.88704 12.9575 10.1924 13.1079C10.4977 13.2583 10.819 13.3335 11.1562 13.3335ZM9.625 5.45847C9.26497 5.45847 8.92546 5.52682 8.60645 5.66354C8.28744 5.80026 8.00944 5.98711 7.77246 6.22409C7.53548 6.46107 7.34863 6.73906 7.21191 7.05807C7.0752 7.37709 7.00456 7.7166 7 8.07663C7 8.50046 6.90658 8.89694 6.71973 9.26608C6.53288 9.63522 6.26628 9.9474 5.91992 10.2026C6.125 10.3074 6.31869 10.4305 6.50098 10.5717C6.68327 10.713 6.84961 10.8702 7 11.0434L6.30273 11.5835C6.05664 11.3055 5.76725 11.0913 5.43457 10.9409C5.10189 10.7905 4.7487 10.713 4.375 10.7085C4.01042 10.7085 3.6709 10.7768 3.35645 10.9135C3.04199 11.0503 2.764 11.2371 2.52246 11.4741C2.28092 11.7111 2.0918 11.9913 1.95508 12.3149C1.81836 12.6385 1.75 12.978 1.75 13.3335H0.875C0.875 13.0008 0.920573 12.6795 1.01172 12.3696C1.10286 12.0597 1.23275 11.7658 1.40137 11.4878C1.56999 11.2098 1.77507 10.9637 2.0166 10.7495C2.25814 10.5353 2.52702 10.3507 2.82324 10.1958C2.486 9.94968 2.22396 9.64206 2.03711 9.27292C1.85026 8.90378 1.75456 8.50729 1.75 8.08347C1.75 7.72344 1.81836 7.38392 1.95508 7.06491C2.0918 6.7459 2.27865 6.46791 2.51562 6.23093C2.7526 5.99395 3.0306 5.80482 3.34961 5.66354C3.66862 5.52227 4.01042 5.45391 4.375 5.45847C4.79427 5.45847 5.18848 5.55189 5.55762 5.73874C5.92676 5.92559 6.23665 6.18991 6.4873 6.53171C6.66048 6.18991 6.88151 5.88457 7.15039 5.61569C7.41927 5.34681 7.72689 5.1235 8.07324 4.94577C7.736 4.69968 7.47396 4.39206 7.28711 4.02292C7.10026 3.65378 7.00456 3.25729 7 2.83347C7 2.47344 7.06836 2.13392 7.20508 1.81491C7.3418 1.4959 7.52865 1.21791 7.76562 0.980927C8.0026 0.743947 8.2806 0.55482 8.59961 0.413544C8.91862 0.272268 9.26042 0.203908 9.625 0.208466C9.98503 0.208466 10.3245 0.276825 10.6436 0.413544C10.9626 0.550262 11.2406 0.737111 11.4775 0.974091C11.7145 1.21107 11.9036 1.49134 12.0449 1.81491C12.1862 2.13848 12.2546 2.478 12.25 2.83347C12.25 3.25274 12.1566 3.64694 11.9697 4.01608C11.7829 4.38522 11.5186 4.69512 11.1768 4.94577C11.6325 5.17364 12.0176 5.48353 12.332 5.87546C12.6465 6.26739 12.8698 6.71172 13.002 7.20847H12.0859C11.9948 6.9487 11.8672 6.71172 11.7031 6.49753C11.5391 6.28334 11.3499 6.09876 11.1357 5.94382C10.9215 5.78887 10.6868 5.67038 10.4316 5.58835C10.1764 5.50632 9.90755 5.46302 9.625 5.45847ZM9.625 1.08347C9.38346 1.08347 9.15788 1.12904 8.94824 1.22018C8.73861 1.31133 8.55176 1.43666 8.3877 1.59616C8.22363 1.75567 8.09831 1.94024 8.01172 2.14987C7.92513 2.35951 7.87956 2.58737 7.875 2.83347C7.875 3.075 7.92057 3.30059 8.01172 3.51022C8.10286 3.71986 8.22819 3.90671 8.3877 4.07077C8.5472 4.23483 8.73177 4.36016 8.94141 4.44675C9.15104 4.53334 9.37891 4.57891 9.625 4.58347C9.86654 4.58347 10.0921 4.53789 10.3018 4.44675C10.5114 4.3556 10.6982 4.23028 10.8623 4.07077C11.0264 3.91127 11.1517 3.72669 11.2383 3.51706C11.3249 3.30742 11.3704 3.07956 11.375 2.83347C11.375 2.59193 11.3294 2.36634 11.2383 2.15671C11.1471 1.94707 11.0218 1.76022 10.8623 1.59616C10.7028 1.4321 10.5182 1.30677 10.3086 1.22018C10.099 1.1336 9.87109 1.08802 9.625 1.08347ZM4.375 9.83347C4.61654 9.83347 4.84212 9.78789 5.05176 9.69675C5.26139 9.6056 5.44824 9.48028 5.6123 9.32077C5.77637 9.16127 5.90169 8.9767 5.98828 8.76706C6.07487 8.55742 6.12044 8.32956 6.125 8.08347C6.125 7.84193 6.07943 7.61406 5.98828 7.39987C5.89714 7.18568 5.77409 7.00111 5.61914 6.84616C5.46419 6.69121 5.27734 6.56589 5.05859 6.47018C4.83984 6.37448 4.61198 6.32891 4.375 6.33347C4.13346 6.33347 3.90788 6.37904 3.69824 6.47018C3.48861 6.56133 3.30176 6.68666 3.1377 6.84616C2.97363 7.00567 2.84831 7.19024 2.76172 7.39987C2.67513 7.60951 2.62956 7.83737 2.625 8.08347C2.625 8.325 2.67057 8.55059 2.76172 8.76022C2.85286 8.96986 2.97819 9.15671 3.1377 9.32077C3.2972 9.48483 3.48177 9.61016 3.69141 9.69675C3.90104 9.78334 4.12891 9.82891 4.375 9.83347Z" fill="white"/>
</svg>
