<svg width="14" height="20" viewBox="0 0 14 20" fill="none" xmlns="http://www.w3.org/2000/svg">
<path d="M6.65153 19.087C10.3192 19.087 13.3031 16.1031 13.3031 12.4355C13.3031 10.7135 12.6452 9.14232 11.5679 7.95991V4.91635C11.5679 2.20547 9.3624 0 6.65153 0C3.94065 0 1.73524 2.20547 1.73524 4.91635V7.9598C0.657807 9.14232 0 10.7135 0 12.4355C0 16.1031 2.98387 19.087 6.65153 19.087ZM7.51912 12.7238V13.8814C7.51912 14.3606 7.13067 14.749 6.65153 14.749C6.17239 14.749 5.78394 14.3606 5.78394 13.8814V12.7238C5.43297 12.4598 5.20554 12.04 5.20554 11.5679C5.20554 10.7706 5.85421 10.1219 6.65153 10.1219C7.44884 10.1219 8.09751 10.7706 8.09751 11.5679C8.09751 12.04 7.87009 12.4598 7.51912 12.7238ZM3.47042 4.91635C3.47042 3.16225 4.89749 1.73518 6.65153 1.73518C8.40562 1.73518 9.83269 3.16225 9.83269 4.91635V6.59536C8.88713 6.07822 7.80311 5.78394 6.65153 5.78394C5.5 5.78394 4.41598 6.07822 3.47042 6.59531V4.91635Z" fill="#A9A9A9"/>
</svg>
