<svg width="22" height="24" viewBox="0 0 22 24" fill="none" xmlns="http://www.w3.org/2000/svg">
<path d="M8.27273 8.33333V3.75C8.27273 3.02065 8.56006 2.32118 9.07153 1.80546C9.58299 1.28973 10.2767 1 11 1H18.2727C18.996 1 19.6897 1.28973 20.2012 1.80546C20.7127 2.32118 21 3.02065 21 3.75V20.25C21 20.9793 20.7127 21.6788 20.2012 22.1945C19.6897 22.7103 18.996 23 18.2727 23H11C10.2767 23 9.58299 22.7103 9.07153 22.1945C8.56006 21.6788 8.27273 20.9793 8.27273 20.25V15.6667M12.8182 8.33333L16.4545 12M16.4545 12L12.8182 15.6667M16.4545 12H0.999999" stroke="#00ECFF" stroke-width="2" stroke-linecap="round" stroke-linejoin="round"/>
</svg>
