<svg width="114" height="115" viewBox="0 0 114 115" fill="none" xmlns="http://www.w3.org/2000/svg">
<path d="M95.8064 95.3441C85.1043 91.2167 85.0282 98.717 83.3607 104.626C63.0343 98.3937 43.1834 91.1089 22.3625 95.0461C19.5158 91.876 23.4276 87.5965 19.2495 85.9544C16.4408 84.8258 13.4546 84.1348 10.2148 83.1774C12.586 74.9923 14.4691 66.8326 17.3475 59.0279C21.1008 48.8837 21.4812 38.4669 21.1008 27.9233C21.0121 25.793 21.1008 23.6691 21.1008 20.9112C30.8456 23.7008 29.343 15.484 31.7268 10.2661C52.2688 15.9722 72.348 24.7216 95.4767 20.0743C92.6427 29.445 98.6467 30.2184 105.158 31.385C97.7845 51.8382 92.0023 72.2914 95.8064 95.3441ZM22.5781 93.0553H93.4479V22.3123H22.5781V93.0553Z" fill="url(#paint0_linear_472_796)"/>
<path d="M0.703125 56.9798L9.39542 48.6426C13.1995 55.1602 15.6975 61.6398 10.7649 69.0007C7.57581 65.2473 4.33601 61.3291 0.703125 56.9798Z" fill="url(#paint1_linear_472_796)"/>
<path d="M57.3007 114.244L49.0586 105.101C55.2529 101.551 61.8086 98.964 69.4674 104.036L57.3007 114.244Z" fill="url(#paint2_linear_472_796)"/>
<path d="M103.895 45.4536L114.002 56.9799L105.005 64.8861C100.599 58.8376 100.174 54.4566 103.895 45.4536Z" fill="url(#paint3_linear_472_796)"/>
<path d="M65.5914 9.72712C59.6507 13.2395 53.1141 15.7185 45.9688 10.9951L57.6282 0.755859L65.5914 9.72712Z" fill="url(#paint4_linear_472_796)"/>
<path d="M79.0337 68.3541C78.0319 67.289 77.0556 66.3 76.0348 65.2982C73.9008 63.3303 71.8953 61.2274 70.0307 59.0025C67.9702 57.9373 66.4422 58.3177 65.4405 61.1264C64.3246 64.2965 61.5413 65.704 58.1493 65.6089C54.7574 65.5138 52.8363 63.8336 51.1752 61.0947C50.3447 59.7316 48.7596 58.8186 47.517 57.7345L47.3775 59.2878C44.9112 61.4181 42.4195 63.3962 40.0356 65.5582C39.4016 66.1288 38.6028 67.3144 38.812 67.8469C39.2773 68.876 40.0897 69.7087 41.1071 70.1991C44.9112 72.0568 46.8893 75.6136 45.989 79.5064C45.6898 80.7741 45.08 81.9475 44.2146 82.921C43.3492 83.8944 42.2553 84.6374 41.0314 85.0831C39.8075 85.5288 38.4919 85.6631 37.2032 85.474C35.9145 85.2849 34.693 84.7783 33.6487 83.9998C32.6044 83.2213 31.7701 82.1953 31.2209 81.0143C30.6716 79.8332 30.4247 78.5341 30.5022 77.2339C30.5798 75.9337 30.9795 74.6732 31.6653 73.5658C32.3511 72.4584 33.3015 71.539 34.431 70.8902C35.4834 70.3893 36.5422 69.9455 37.601 69.5461V66.059L35.7941 65.425C34.1863 64.9638 32.7768 63.9823 31.7867 62.6342C30.7965 61.2861 30.2816 59.6475 30.3226 57.9754C30.3226 54.5137 32.1295 52.0601 35.3566 50.5257C36.295 50.0883 37.4869 49.0485 37.5503 48.237C37.6137 47.4254 36.4852 46.2335 35.5849 45.777C31.5335 43.7355 29.6632 40.4576 30.5889 36.6346C30.9612 34.8917 31.9193 33.329 33.3036 32.2066C34.6879 31.0842 36.4148 30.4698 38.197 30.4656C39.9913 30.4465 41.7398 31.0316 43.1613 32.1267C44.5696 33.2451 45.5538 34.8109 45.951 36.5648C46.7752 40.4259 44.8922 43.7038 40.8789 45.7009C40.3771 45.9576 39.9311 46.311 39.5665 46.7407C39.2006 47.1696 38.9247 47.6677 38.7549 48.2053C38.6345 48.7378 40.023 49.6128 40.7077 50.3355C42.3561 51.9967 44.0045 53.6451 45.6847 55.2618C46.4455 56.029 47.3204 57.2526 48.17 57.2716C48.7129 57.1775 49.2258 56.9561 49.6667 56.6255C50.1075 56.2948 50.4637 55.8645 50.706 55.3696C52.2023 52.041 54.4594 49.9742 58.2381 49.9425C62.0168 49.9108 64.6163 51.9523 66.0301 55.5091C66.2485 55.9725 66.5772 56.3752 66.9875 56.682C67.3986 56.9902 67.8802 57.1907 68.3886 57.2653C69.346 57.1702 70.2907 56.2002 71.0705 55.4267C72.8521 53.7529 74.5639 52.0093 76.2757 50.2658C77.2014 49.3401 78.0636 48.3638 79.4458 46.8802C77.3218 46.1257 76.2757 45.815 75.1916 45.3586C73.994 44.7885 72.9595 43.9256 72.1839 42.8497C71.4082 41.7738 70.9164 40.5197 70.7539 39.2033C70.5915 37.887 70.7636 36.5509 71.2544 35.3187C71.7451 34.0866 72.5387 32.998 73.5618 32.1539C74.5848 31.3097 75.8041 30.7371 77.1071 30.4892C78.41 30.2412 79.7545 30.3258 81.016 30.7352C82.2776 31.1446 83.4156 31.8655 84.3247 32.8313C85.2338 33.7971 85.8846 34.9765 86.217 36.2605C86.6833 37.9232 86.5789 39.6943 85.9203 41.2906C85.2618 42.887 84.0871 44.2166 82.5841 45.0669C78.3299 47.603 78.5962 48.237 82.4573 51.1978C84.5129 52.9626 85.895 55.384 86.3692 58.0515C86.8447 61.2215 84.6574 63.6751 81.6712 65.2285C81.1684 65.4883 80.7299 65.8571 80.3877 66.3079C80.0455 66.7586 79.8081 67.2801 79.693 67.8343C79.8013 68.3831 80.0309 68.9008 80.3651 69.3495C80.7033 69.801 81.1361 70.1732 81.6331 70.44C85.6464 72.7288 87.3392 75.975 86.2107 79.8171C85.7104 81.5617 84.6251 83.0812 83.1369 84.1202C81.6488 85.1592 79.8485 85.6546 78.0383 85.5232C76.2246 85.3848 74.5119 84.6336 73.1817 83.3929C71.8598 82.1446 71.0088 80.4786 70.7725 78.6759C70.3033 74.764 72.5034 71.5686 76.7449 70.0787C77.1887 69.9202 77.6769 69.7997 78.1334 69.6729L79.0337 68.3541Z" fill="url(#paint5_linear_472_796)"/>
<defs>
<linearGradient id="paint0_linear_472_796" x1="127.45" y1="-105.739" x2="45.916" y2="87.9008" gradientUnits="userSpaceOnUse">
<stop offset="0.36" stop-color="#00ECFF"/>
<stop offset="1" stop-color="#FFEB81"/>
</linearGradient>
<linearGradient id="paint1_linear_472_796" x1="84.4307" y1="-123.625" x2="2.92853" y2="70.1039" gradientUnits="userSpaceOnUse">
<stop offset="0.36" stop-color="#00ECFF"/>
<stop offset="1" stop-color="#FFEB81"/>
</linearGradient>
<linearGradient id="paint2_linear_472_796" x1="144.509" y1="-98.3404" x2="63.2097" y2="95.1726" gradientUnits="userSpaceOnUse">
<stop offset="0.36" stop-color="#00ECFF"/>
<stop offset="1" stop-color="#FFEB81"/>
</linearGradient>
<linearGradient id="paint3_linear_472_796" x1="167.912" y1="-88.7793" x2="86.3396" y2="104.886" gradientUnits="userSpaceOnUse">
<stop offset="0.36" stop-color="#00ECFF"/>
<stop offset="1" stop-color="#FFEB81"/>
</linearGradient>
<linearGradient id="paint4_linear_472_796" x1="108.019" y1="-113.854" x2="26.587" y2="79.7917" gradientUnits="userSpaceOnUse">
<stop offset="0.36" stop-color="#00ECFF"/>
<stop offset="1" stop-color="#FFEB81"/>
</linearGradient>
<linearGradient id="paint5_linear_472_796" x1="87.8718" y1="38.1752" x2="36.593" y2="72.6971" gradientUnits="userSpaceOnUse">
<stop offset="0.36" stop-color="#00ECFF"/>
<stop offset="1" stop-color="#FFEB81"/>
</linearGradient>
</defs>
</svg>
