<svg width="277" height="77" viewBox="0 0 277 77" fill="none" xmlns="http://www.w3.org/2000/svg">
<path d="M90.0141 62.6582L85.1373 56.5367L91.0328 30.6831L97.9253 25.5818L105.967 41.1027L123.414 19.5688L112.772 64.3514L114.008 38.0419L102.455 53.2372L95.3243 37.0217L90.0141 62.6582Z" fill="white"/>
<path d="M136.744 49.6554L132.973 34.6339L116.067 50.8493L136.744 49.6554ZM136.788 49.8725L111.689 57.6655L106.703 52.2169L135.27 25.5601L144.395 54.4962L140.321 63.8956L136.788 49.8725Z" fill="white"/>
<path d="M153.477 46.2474L176.929 35.5673L155.081 31.2475L153.477 46.2474ZM153.455 46.3993L152.003 59.9448L144.872 54.8218L150.551 28.1867L156.533 25.7989L184.515 32.1592L185.425 37.7163L164.249 45.1837L196.956 61.5294L153.455 46.3993Z" fill="white"/>
<path d="M203.003 51.3269L204.997 33.288L182.239 50.9796L203.003 51.3269ZM205.106 53.3023L201.616 64.0258L202.743 53.693L177.709 57.6655L172.29 50.6323L208.509 25.126L211.456 33.8524L205.734 51.3703L216.225 51.544L205.106 53.3023Z" fill="white"/>
<path d="M231.44 53.2806L216.94 57.6655L210.373 51.6091L217.2 27.6006L224.006 23.2374L218.197 49.9811L225.61 51.4572L236.577 24.3662L231.44 53.2806Z" fill="white"/>
<path d="M238.658 62.2892L234.951 51.4355L240.674 22.6513L246.742 25.5818L238.658 62.2892Z" fill="white"/>
<path d="M277 31.2475L272.578 33.8524L271.56 31.9204L252.204 41.1027L275.981 45.1837L276.653 51.6525L243.6 61.638L266.813 49.1562L243.708 44.6193L246.526 38.3892L275.179 24.8872L277 31.2475Z" fill="white"/>
<path d="M90.1625 10.2287V8.39838H96.9897V10.2449C96.9897 10.433 96.9226 10.5943 96.7885 10.7287C96.6543 10.8577 96.4959 10.9222 96.3135 10.9222C96.1256 10.9222 95.9619 10.855 95.8223 10.7206C95.6882 10.5862 95.6211 10.4276 95.6211 10.2449V9.75301H94.2524V18.4211C94.2524 18.6092 94.1853 18.7705 94.0511 18.9048C93.9169 19.0339 93.7586 19.0984 93.5761 19.0984C93.3829 19.0984 93.2192 19.0339 93.085 18.9048C92.9508 18.7705 92.8837 18.6092 92.8837 18.4211V9.75301H91.515V10.2287C91.515 10.4169 91.4479 10.5782 91.3138 10.7125C91.1849 10.8416 91.0266 10.9061 90.8387 10.9061C90.6509 10.9061 90.4899 10.8416 90.3557 10.7125C90.2269 10.5782 90.1625 10.4169 90.1625 10.2287Z" fill="white"/>
<path d="M100.114 18.4211V9.05957C100.114 8.8768 100.178 8.71822 100.307 8.58383C100.441 8.44944 100.602 8.38225 100.79 8.38225C100.972 8.38225 101.131 8.44944 101.265 8.58383C101.399 8.71822 101.466 8.8768 101.466 9.05957V13.0509H105.588V9.05957C105.588 8.8768 105.653 8.71822 105.781 8.58383C105.916 8.44944 106.077 8.38225 106.265 8.38225C106.452 8.38225 106.611 8.44944 106.74 8.58383C106.874 8.71822 106.941 8.88217 106.941 9.07569V18.4211C106.941 18.6038 106.871 18.7624 106.731 18.8968C106.597 19.0312 106.442 19.0984 106.265 19.0984C106.071 19.0984 105.91 19.0339 105.781 18.9048C105.653 18.7705 105.588 18.6092 105.588 18.4211V14.4055H101.482V18.4211C101.482 18.6038 101.412 18.7624 101.273 18.8968C101.139 19.0312 100.978 19.0984 100.79 19.0984C100.607 19.0984 100.449 19.0339 100.315 18.9048C100.181 18.7705 100.114 18.6092 100.114 18.4211Z" fill="white"/>
<path d="M116.248 9.75301H111.466V13.0509H113.527C113.709 13.0509 113.867 13.1181 114.002 13.2525C114.136 13.3869 114.203 13.5454 114.203 13.7282C114.203 13.9217 114.136 14.0857 114.002 14.2201C113.873 14.3545 113.714 14.4217 113.527 14.4217H111.466V17.7437H116.264C116.446 17.7437 116.605 17.8109 116.739 17.9453C116.873 18.0743 116.94 18.2329 116.94 18.4211C116.94 18.6092 116.87 18.7705 116.731 18.9048C116.597 19.0339 116.436 19.0984 116.248 19.0984H110.113V8.38225H116.248C116.436 8.38225 116.597 8.45213 116.731 8.5919C116.87 8.72628 116.94 8.88755 116.94 9.07569C116.94 9.25846 116.87 9.41704 116.731 9.55143C116.597 9.68582 116.436 9.75301 116.248 9.75301Z" fill="white"/>
<path d="M64.5257 64.1763C57.2657 61.3747 57.2296 66.4652 56.0833 70.4726C42.2842 66.2269 28.7951 61.3025 14.6931 63.9741C12.761 61.8079 15.4141 58.9197 12.5807 57.8078C10.6774 57.0424 8.65149 56.573 6.44536 55.9088C8.0531 50.3562 9.3292 44.818 11.283 39.5253C13.828 32.6369 14.0875 25.5752 13.828 18.4196C13.7703 16.9755 13.828 15.5314 13.828 13.6613C20.4392 15.5531 19.401 9.97881 21.0376 6.44073C34.9809 10.3326 48.607 16.2607 64.295 13.1053C62.3701 19.4666 66.4579 19.9937 70.863 20.7808C65.8595 34.6587 61.9519 48.5366 64.5257 64.1763ZM14.8373 62.6239H62.918V14.6216H14.8373V62.6239Z" fill="url(#paint0_linear_418_812)"/>
<path d="M0 38.1462L5.89744 32.4925C8.49288 36.9115 10.1727 41.3088 6.82747 46.3054C4.6646 43.7566 2.46568 41.0994 0 38.1462Z" fill="url(#paint1_linear_418_812)"/>
<path d="M38.3982 77L32.8036 70.7975C37.0068 68.3859 41.4551 66.6313 46.6532 70.0755L38.3982 77Z" fill="url(#paint2_linear_418_812)"/>
<path d="M70.005 30.3263L76.8613 38.1462L70.762 43.5111C67.77 39.4098 67.4817 36.4349 70.005 30.3263Z" fill="url(#paint3_linear_418_812)"/>
<path d="M44.0217 6.08693C39.9915 8.46971 35.5576 10.1521 30.7128 6.95339L38.6217 0L44.0217 6.08693Z" fill="url(#paint4_linear_418_812)"/>
<path d="M53.1418 45.865C52.4641 45.1429 51.8008 44.4714 51.1087 43.7927C49.6601 42.4575 48.2994 41.0296 47.0353 39.5181C45.6366 38.796 44.5985 39.056 43.9208 40.9622C43.1637 43.1284 41.2748 44.067 38.975 44.0021C36.6751 43.9371 35.3702 42.7962 34.2239 40.9405C33.6615 40.0163 32.5873 39.3953 31.7438 38.6589L31.6501 39.7131C29.9774 41.1572 28.2832 42.5002 26.6682 43.966C26.2357 44.3559 25.6949 45.1574 25.8391 45.5184C26.1533 46.2181 26.7051 46.7835 27.3964 47.1141C29.9918 48.3777 31.3184 50.7894 30.7056 53.4321C30.422 54.6166 29.7397 55.6672 28.7734 56.407C28.0743 56.9476 27.2523 57.3062 26.3809 57.4506C25.5096 57.5951 24.616 57.5209 23.7803 57.2347C22.9446 56.9486 22.1927 56.4594 21.592 55.8109C20.9913 55.1624 20.5605 54.3748 20.3382 53.5188C20.0575 52.3868 20.1543 51.194 20.6138 50.1223C21.0733 49.0507 21.8703 48.159 22.8832 47.5835C23.5945 47.2465 24.3155 46.9432 25.0461 46.6737V44.2909L23.8204 43.8721C22.7306 43.5594 21.775 42.8937 21.1032 41.9792C20.4314 41.0646 20.0812 39.9528 20.1075 38.8177C20.1075 36.471 21.3331 34.8031 23.5249 33.7633C24.1593 33.4673 24.9668 32.7597 25.01 32.2109C25.0533 31.6621 24.2891 30.8534 23.6763 30.5429C20.9294 29.1566 19.6605 26.9327 20.2878 24.3405C20.5409 23.1527 21.1941 22.0883 22.138 21.3258C23.0818 20.5633 24.2588 20.149 25.4714 20.1526C26.6879 20.1407 27.8732 20.5373 28.8383 21.279C29.7932 22.038 30.4619 23.0999 30.7344 24.2899C31.2896 26.911 30.0135 29.1349 27.2738 30.4924C26.9333 30.6655 26.6304 30.9047 26.3829 31.196C26.1354 31.4872 25.9481 31.8249 25.8319 32.1892C25.7526 32.5503 26.6754 33.1423 27.1585 33.6333C28.276 34.7598 29.3935 35.8789 30.5326 36.9765C31.0517 37.4963 31.6428 38.3267 32.2196 38.3411C32.5852 38.2763 32.9303 38.1261 33.2272 37.9028C33.524 37.6796 33.7642 37.3894 33.9283 37.0559C34.9448 34.7959 36.4733 33.3951 39.0399 33.3734C41.6065 33.3517 43.3656 34.7381 44.3245 37.1498C44.4727 37.465 44.6963 37.7387 44.9755 37.9465C45.2548 38.1544 45.5809 38.2899 45.925 38.3411C46.5739 38.2762 47.2011 37.6191 47.7418 37.092C48.953 35.9584 50.1138 34.7742 51.2745 33.59C51.9018 32.9618 52.4857 32.2903 53.4374 31.2939C51.9955 30.7812 51.2745 30.5718 50.5536 30.2613C49.4709 29.7506 48.5901 28.8914 48.0518 27.8208C47.5233 26.7436 47.3707 25.52 47.6185 24.3457C47.8663 23.1713 48.5001 22.1141 49.4185 21.3431C50.337 20.5722 51.4871 20.1319 52.6849 20.0928C53.8827 20.0536 55.059 20.4179 56.0256 21.1273C57.0032 21.8519 57.705 22.8885 58.0155 24.0661C58.3314 25.1953 58.2602 26.3979 57.8132 27.4817C57.3662 28.5655 56.5693 29.468 55.5498 30.0447C52.666 31.756 52.8462 32.2109 55.4633 34.2038C56.8585 35.3994 57.7962 37.0429 58.1164 38.8538C58.4408 41.02 56.9557 42.6663 54.9298 43.7205C54.59 43.8982 54.2936 44.149 54.0617 44.4548C53.8299 44.7606 53.6684 45.1139 53.5888 45.4895C53.6641 45.861 53.8192 46.2116 54.0433 46.5171C54.2673 46.8225 54.5551 47.0755 54.8865 47.2585C57.6117 48.8109 58.7509 51.0132 57.9939 53.6198C57.6584 54.8087 56.9236 55.8452 55.9135 56.5542C54.9034 57.2633 53.6799 57.6015 52.4497 57.5117C51.2192 57.4204 50.0568 56.9109 49.1549 56.0676C48.2584 55.2215 47.6804 54.0919 47.5183 52.8689C47.2011 50.2117 48.6935 48.0456 51.5701 47.0347C51.8729 46.9264 52.2046 46.847 52.5146 46.7603L53.1418 45.865Z" fill="url(#paint5_linear_418_812)"/>
<defs>
<linearGradient id="paint0_linear_418_812" x1="284.285" y1="11.253" x2="228.962" y2="142.627" gradientUnits="userSpaceOnUse">
<stop offset="0.36" stop-color="#00ECFF"/>
<stop offset="1" stop-color="#FFEB81"/>
</linearGradient>
<linearGradient id="paint1_linear_418_812" x1="327.604" y1="29.5442" x2="272.303" y2="160.982" gradientUnits="userSpaceOnUse">
<stop offset="0.36" stop-color="#00ECFF"/>
<stop offset="1" stop-color="#FFEB81"/>
</linearGradient>
<linearGradient id="paint2_linear_418_812" x1="218.889" y1="-16.2621" x2="163.726" y2="115.03" gradientUnits="userSpaceOnUse">
<stop offset="0.36" stop-color="#00ECFF"/>
<stop offset="1" stop-color="#FFEB81"/>
</linearGradient>
<linearGradient id="paint3_linear_418_812" x1="305.214" y1="20.0301" x2="249.865" y2="151.428" gradientUnits="userSpaceOnUse">
<stop offset="0.36" stop-color="#00ECFF"/>
<stop offset="1" stop-color="#FFEB81"/>
</linearGradient>
<linearGradient id="paint4_linear_418_812" x1="265.146" y1="3.12536" x2="209.893" y2="134.507" gradientUnits="userSpaceOnUse">
<stop offset="0.36" stop-color="#00ECFF"/>
<stop offset="1" stop-color="#FFEB81"/>
</linearGradient>
<linearGradient id="paint5_linear_418_812" x1="59.1038" y1="25.3369" x2="24.3134" y2="48.7547" gradientUnits="userSpaceOnUse">
<stop offset="0.36" stop-color="#00ECFF"/>
<stop offset="1" stop-color="#FFEB81"/>
</linearGradient>
</defs>
</svg>

