<svg xmlns="http://www.w3.org/2000/svg" width="25" height="25" viewBox="0 0 25 25" fill="none">
  <g clip-path="url(#clip0_406_735)">
    <path fill-rule="evenodd" clip-rule="evenodd" d="M25 12.5C25 19.4024 19.4024 25 12.5 25C5.59761 25 0 19.4024 0 12.5C0 5.59761 5.59761 0 12.5 0C19.4024 0 25 5.59761 25 12.5Z" fill="#29296E"/>
    <path fill-rule="evenodd" clip-rule="evenodd" d="M18.3568 9.16335L18.0381 8.18725C17.9783 7.98805 17.8189 7.83864 17.6197 7.76892L16.6436 7.47012C16.5042 7.43028 16.5042 7.24103 16.6436 7.19123L17.6197 6.87251C17.8189 6.81275 17.9683 6.65339 18.0381 6.45418L18.3369 5.47809C18.3767 5.33864 18.566 5.33864 18.6158 5.47809L18.9345 6.45418C18.9942 6.65339 19.1536 6.80279 19.3528 6.87251L20.3289 7.17131C20.4683 7.21115 20.4683 7.4004 20.3289 7.4502L19.3528 7.76892C19.1536 7.82868 19.0042 7.98805 18.9345 8.18725L18.6357 9.16335C18.5859 9.29283 18.3966 9.29283 18.3568 9.16335Z" fill="#FAFAFA"/>
    <path fill-rule="evenodd" clip-rule="evenodd" d="M1.0957 12.3008C1.39451 11.7131 1.98216 11.2649 2.59969 10.9861C3.21722 10.7072 3.89451 10.5378 4.56184 10.488C5.90646 10.3685 7.2212 10.5876 8.41642 10.9861C9.03395 11.1753 9.58176 11.4243 10.1495 11.6833C10.4284 11.8127 10.6873 11.9721 10.9563 12.1215L11.6933 12.5498C12.51 13.0478 13.2969 13.496 14.0339 13.8446C14.781 14.1833 15.4483 14.4223 16.0758 14.5418C16.7033 14.6614 17.3507 14.6614 18.1375 14.4821C18.9244 14.3028 19.8009 13.9143 20.7272 13.4263C21.6535 12.9283 22.6096 12.3207 23.6953 11.7331C23.5857 12.9681 23.2371 14.1335 22.6993 15.259C22.1415 16.3645 21.3646 17.4502 20.2391 18.3267C19.1336 19.2131 17.6096 19.8207 16.0658 19.9203C14.512 20.0299 13.0479 19.6813 11.7929 19.1633C10.5379 18.6355 9.44232 17.9482 8.48614 17.1912C8.21722 16.9821 8.07778 16.8626 7.87857 16.6932L7.33076 16.2052C6.96224 15.9163 6.60367 15.5677 6.23515 15.2789C5.50805 14.6414 4.78096 14.0239 3.98415 13.496C3.58574 13.2271 3.17738 12.9681 2.70925 12.749C2.48017 12.6394 2.23116 12.5398 1.96224 12.4602C1.69331 12.3705 1.42439 12.3207 1.0957 12.3008Z" fill="#FF4F0A"/>
    <path fill-rule="evenodd" clip-rule="evenodd" d="M1.0957 12.3207C1.24511 11.0558 1.83275 9.87052 2.77897 8.86454C3.71522 7.86852 5.18933 7.09163 6.81283 6.99203C7.61961 6.94223 8.43634 7.03187 9.18335 7.23107C9.93036 7.44024 10.6276 7.73904 11.265 8.09761C11.5838 8.27689 11.8726 8.47609 12.1714 8.66534L12.9583 9.26295L14.1834 10.2291C14.9802 10.8566 15.7371 11.4442 16.4343 11.9323C17.1415 12.4203 17.7391 12.7689 18.3168 12.9781C18.8845 13.2072 19.6017 13.257 20.5579 13.0179C21.026 12.9084 21.524 12.7092 22.0519 12.49C22.5698 12.2709 23.1176 12.002 23.7152 11.743C23.6455 12.3805 23.516 13.008 23.267 13.6056C23.028 14.2032 22.7192 14.7908 22.2909 15.3386C22.0718 15.6076 21.8328 15.8765 21.5539 16.1155C21.275 16.3546 20.9662 16.5837 20.6276 16.7829C19.9503 17.1713 19.1435 17.4602 18.3168 17.5697C17.4901 17.6693 16.6634 17.6195 15.9065 17.4602C15.1495 17.3008 14.4622 17.0518 13.8248 16.7629C12.5598 16.1753 11.5041 15.4382 10.5678 14.6514C10.0997 14.2629 9.66144 13.8546 9.24311 13.4363L8.75507 12.9382C8.60566 12.7988 8.45626 12.6494 8.30686 12.5199C7.70925 11.992 7.15148 11.5837 6.54391 11.3347C5.93634 11.0657 5.15945 10.9661 4.20327 11.1454C3.2471 11.3347 2.21124 11.743 1.0957 12.3207Z" fill="#FAFAFA"/>
    <path fill-rule="evenodd" clip-rule="evenodd" d="M6.17567 18.8247C6.17567 19.2131 5.86691 19.5219 5.47846 19.5219C5.09001 19.5219 4.78125 19.2131 4.78125 18.8247C4.78125 18.4363 5.09001 18.1275 5.47846 18.1275C5.86691 18.1275 6.17567 18.4363 6.17567 18.8247Z" fill="#FAFAFA"/>
    <path fill-rule="evenodd" clip-rule="evenodd" d="M6.17567 18.8247C6.17567 19.2131 5.86691 19.5219 5.47846 19.5219C5.09001 19.5219 4.78125 19.2131 4.78125 18.8247C4.78125 18.4363 5.09001 18.1275 5.47846 18.1275C5.86691 18.1275 6.17567 18.4363 6.17567 18.8247Z" fill="#FAFAFA"/>
  </g>
  <defs>
    <clipPath id="clip0_406_735">
      <rect width="25" height="25" fill="white"/>
    </clipPath>
  </defs>
</svg>