<svg xmlns="http://www.w3.org/2000/svg" width="22" height="24" viewBox="0 0 22 24" fill="none">
  <path d="M13.7273 8.33333V3.75C13.7273 3.02065 13.4399 2.32118 12.9285 1.80546C12.417 1.28973 11.7233 1 11 1H3.72727C3.00396 1 2.31026 1.28973 1.7988 1.80546C1.28734 2.32118 1 3.02065 1 3.75V20.25C1 20.9793 1.28734 21.6788 1.7988 22.1945C2.31026 22.7103 3.00396 23 3.72727 23H11C11.7233 23 12.417 22.7103 12.9285 22.1945C13.4399 21.6788 13.7273 20.9793 13.7273 20.25V15.6667M9.18182 8.33333L5.54545 12M5.54545 12L9.18182 15.6667M5.54545 12H21" stroke="#00ECFF" stroke-width="2" stroke-linecap="round" stroke-linejoin="round"/>
</svg>