<svg width="376" height="72" viewBox="0 0 376 72" fill="none" xmlns="http://www.w3.org/2000/svg">
<path d="M185.045 71L75.7262 71L8.88876 7.62939e-06L367.111 7.62939e-06L303.228 71L185.045 71Z" fill="white"/>
<line y1="-1" x2="95.557" y2="-1" transform="matrix(-0.669278 0.743012 -0.896779 -0.442479 374 0)" stroke="#BFC6CE" stroke-width="2"/>
<line y1="-1" x2="98.4615" y2="-1" transform="matrix(-0.692837 -0.721094 0.884923 -0.465738 70.2178 71)" stroke="#BFC6CE" stroke-width="2"/>
<path d="M118.18 43V32.66H114.08V29H127V32.66H122.9V43H118.18ZM137.306 29H142.026V43H137.306V29ZM132.946 43H128.226V29H132.946V43ZM137.626 37.84H132.626V33.96H137.626V37.84ZM148.62 34.2H154.86V37.6H148.62V34.2ZM148.94 39.44H155.94V43H144.3V29H155.68V32.56H148.94V39.44ZM163.753 43V29H167.633L173.233 38.14H171.193L176.633 29H180.513L180.553 43H176.253L176.213 35.48H176.893L173.173 41.74H171.093L167.213 35.48H168.053V43H163.753ZM181.315 43L187.435 29H192.075L198.195 43H193.315L188.795 31.24H190.635L186.115 43H181.315ZM184.955 40.56L186.155 37.16H192.595L193.795 40.56H184.955ZM198.949 43V29H205.689C206.995 29 208.122 29.2133 209.069 29.64C210.029 30.0667 210.769 30.68 211.289 31.48C211.809 32.2667 212.069 33.2 212.069 34.28C212.069 35.36 211.809 36.2933 211.289 37.08C210.769 37.8533 210.029 38.4467 209.069 38.86C208.122 39.2733 206.995 39.48 205.689 39.48H201.569L203.669 37.54V43H198.949ZM207.329 43L203.889 37.9H208.889L212.369 43H207.329ZM203.669 38.06L201.569 35.92H205.389C206.042 35.92 206.522 35.7733 206.829 35.48C207.149 35.1867 207.309 34.7867 207.309 34.28C207.309 33.7733 207.149 33.3733 206.829 33.08C206.522 32.7867 206.042 32.64 205.389 32.64H201.569L203.669 30.5V38.06ZM221.191 43.32C220.058 43.32 219.004 43.14 218.031 42.78C217.071 42.42 216.238 41.9133 215.531 41.26C214.824 40.5933 214.271 39.8133 213.871 38.92C213.484 38.0267 213.291 37.0533 213.291 36C213.291 34.9333 213.484 33.96 213.871 33.08C214.271 32.1867 214.824 31.4133 215.531 30.76C216.238 30.0933 217.071 29.58 218.031 29.22C219.004 28.86 220.058 28.68 221.191 28.68C222.338 28.68 223.391 28.86 224.351 29.22C225.311 29.58 226.144 30.0933 226.851 30.76C227.558 31.4133 228.104 32.1867 228.491 33.08C228.891 33.96 229.091 34.9333 229.091 36C229.091 37.0533 228.891 38.0267 228.491 38.92C228.104 39.8133 227.558 40.5933 226.851 41.26C226.144 41.9133 225.311 42.42 224.351 42.78C223.391 43.14 222.338 43.32 221.191 43.32ZM225.771 46.54C225.118 46.54 224.511 46.4733 223.951 46.34C223.391 46.22 222.844 46.0133 222.311 45.72C221.791 45.4267 221.244 45.02 220.671 44.5C220.098 43.9933 219.458 43.36 218.751 42.6L223.631 41.4C223.951 41.8933 224.224 42.2733 224.451 42.54C224.678 42.8067 224.898 42.9933 225.111 43.1C225.338 43.2067 225.591 43.26 225.871 43.26C226.564 43.26 227.211 42.96 227.811 42.36L229.851 44.76C228.851 45.9467 227.491 46.54 225.771 46.54ZM221.191 39.5C221.631 39.5 222.038 39.42 222.411 39.26C222.798 39.1 223.131 38.8733 223.411 38.58C223.704 38.2733 223.931 37.9067 224.091 37.48C224.251 37.04 224.331 36.5467 224.331 36C224.331 35.4533 224.251 34.9667 224.091 34.54C223.931 34.1 223.704 33.7333 223.411 33.44C223.131 33.1333 222.798 32.9 222.411 32.74C222.038 32.58 221.631 32.5 221.191 32.5C220.751 32.5 220.338 32.58 219.951 32.74C219.578 32.9 219.244 33.1333 218.951 33.44C218.671 33.7333 218.451 34.1 218.291 34.54C218.131 34.9667 218.051 35.4533 218.051 36C218.051 36.5467 218.131 37.04 218.291 37.48C218.451 37.9067 218.671 38.2733 218.951 38.58C219.244 38.8733 219.578 39.1 219.951 39.26C220.338 39.42 220.751 39.5 221.191 39.5ZM237.504 43.32C235.357 43.32 233.684 42.74 232.484 41.58C231.284 40.42 230.684 38.7933 230.684 36.7V29H235.404V36.56C235.404 37.6267 235.597 38.3867 235.984 38.84C236.371 39.28 236.891 39.5 237.544 39.5C238.211 39.5 238.731 39.28 239.104 38.84C239.491 38.3867 239.684 37.6267 239.684 36.56V29H244.324V36.7C244.324 38.7933 243.724 40.42 242.524 41.58C241.324 42.74 239.651 43.32 237.504 43.32ZM246.488 43V29H251.208V43H246.488ZM258.7 43.32C257.527 43.32 256.393 43.1867 255.3 42.92C254.207 42.6533 253.307 42.3067 252.6 41.88L254.12 38.44C254.787 38.8267 255.527 39.14 256.34 39.38C257.167 39.6067 257.967 39.72 258.74 39.72C259.193 39.72 259.547 39.6933 259.8 39.64C260.067 39.5733 260.26 39.4867 260.38 39.38C260.5 39.26 260.56 39.12 260.56 38.96C260.56 38.7067 260.42 38.5067 260.14 38.36C259.86 38.2133 259.487 38.0933 259.02 38C258.567 37.8933 258.067 37.7867 257.52 37.68C256.973 37.56 256.42 37.4067 255.86 37.22C255.313 37.0333 254.807 36.7867 254.34 36.48C253.887 36.1733 253.52 35.7733 253.24 35.28C252.96 34.7733 252.82 34.1467 252.82 33.4C252.82 32.5333 253.06 31.7467 253.54 31.04C254.033 30.32 254.76 29.7467 255.72 29.32C256.693 28.8933 257.9 28.68 259.34 28.68C260.287 28.68 261.22 28.78 262.14 28.98C263.06 29.18 263.887 29.4867 264.62 29.9L263.2 33.32C262.507 32.9733 261.833 32.7133 261.18 32.54C260.54 32.3667 259.913 32.28 259.3 32.28C258.847 32.28 258.487 32.32 258.22 32.4C257.953 32.48 257.76 32.5867 257.64 32.72C257.533 32.8533 257.48 33 257.48 33.16C257.48 33.4 257.62 33.5933 257.9 33.74C258.18 33.8733 258.547 33.9867 259 34.08C259.467 34.1733 259.973 34.2733 260.52 34.38C261.08 34.4867 261.633 34.6333 262.18 34.82C262.727 35.0067 263.227 35.2533 263.68 35.56C264.147 35.8667 264.52 36.2667 264.8 36.76C265.08 37.2533 265.22 37.8667 265.22 38.6C265.22 39.4533 264.973 40.24 264.48 40.96C264 41.6667 263.28 42.24 262.32 42.68C261.36 43.1067 260.153 43.32 258.7 43.32Z" fill="#101823"/>
</svg>