<svg width="13" height="14" viewBox="0 0 13 14" fill="none" xmlns="http://www.w3.org/2000/svg">
<path d="M11.099 2.40663C8.56216 -0.133332 4.44663 -0.135857 1.90664 2.40095C-0.633325 4.93782 -0.635881 9.05339 1.90099 11.5934C4.4378 14.1333 8.5534 14.1359 11.0934 11.599C13.6333 9.06221 13.6359 4.94659 11.099 2.40663ZM7.40757 11.1245C7.40757 11.2248 7.32629 11.3061 7.22606 11.3061H5.77397C5.67374 11.3061 5.59246 11.2248 5.59246 11.1245V5.73408C5.59246 5.63378 5.67374 5.55257 5.77397 5.55257H7.22606C7.32629 5.55257 7.40757 5.63375 7.40757 5.73408V11.1245ZM6.50001 4.79928C5.91957 4.79928 5.4473 4.32708 5.4473 3.7466C5.4473 3.16618 5.91954 2.69389 6.50001 2.69389C7.08049 2.69389 7.55272 3.16615 7.55272 3.7466C7.55272 4.32708 7.08043 4.79928 6.50001 4.79928Z" fill="#717A8C"/>
</svg>
