<svg xmlns="http://www.w3.org/2000/svg" width="57" height="57" viewBox="0 0 57 57" fill="none">
  <path d="M18.2822 26.534C18.5077 25.8496 19.9738 25.0533 20.7882 24.75L22.0603 27L25.4606 27.7499C25.0371 27.7499 21.4314 29.4283 19.8704 30.2499V27.7241C19.0947 27.1666 18.2822 26.534 18.2822 26.534Z" fill="#408CFF"/>
  <path d="M37.9287 26.534C37.7032 25.8496 36.2372 25.0533 35.4228 24.75L34.1506 27L30.4985 27.7499C30.922 27.7499 34.7796 29.4283 36.3406 30.2499V27.7241C37.1163 27.1666 37.9287 26.534 37.9287 26.534Z" fill="#408CFF"/>
  <path d="M23.9486 25.9995L25.4598 27.7495L22.0596 26.9995L23.9486 25.9995Z" fill="#0066FF"/>
  <path d="M32.1354 25.9995L30.4982 27.7495L34.1504 26.9995L32.1354 25.9995Z" fill="#0066FF"/>
  <path d="M27.9995 4L32.0348 8.6874H23.9641L27.9995 4Z" fill="url(#paint0_linear_565_4024)"/>
  <path d="M28.0005 30.7495L23.9652 26.0621L32.0359 26.0621L28.0005 30.7495Z" fill="url(#paint1_linear_565_4024)"/>
  <g filter="url(#filter0_f_565_4024)">
    <path d="M27.889 5.2002L28.3566 6.61113L29.7781 7.07515L28.3566 7.53918L27.889 8.95011L27.4215 7.53918L26 7.07515L27.4215 6.61113L27.889 5.2002Z" fill="white"/>
    <path d="M27.889 5.51813L28.2616 6.64258L28.2775 6.69052L28.3255 6.70619L29.4558 7.07515L28.3255 7.44412L28.2775 7.45979L28.2616 7.50773L27.889 8.63218L27.5165 7.50773L27.5006 7.45979L27.4526 7.44412L26.3223 7.07515L27.4526 6.70619L27.5006 6.69052L27.5165 6.64258L27.889 5.51813Z" stroke="#3E74FF" stroke-width="0.2"/>
  </g>
  <path d="M39.6702 24.0624L33.5626 25.1874L37.598 18.25L39.6702 24.0624Z" fill="url(#paint2_linear_565_4024)"/>
  <path d="M16.3298 10.6876L22.4374 9.56262L18.402 16.5L16.3298 10.6876Z" fill="url(#paint3_linear_565_4024)"/>
  <path d="M39.6697 10.6874L37.5974 16.4998L33.5621 9.56243L39.6697 10.6874Z" fill="url(#paint4_linear_565_4024)"/>
  <path d="M16.3303 24.0621L18.4026 18.2497L22.4379 25.1871L16.3303 24.0621Z" fill="url(#paint5_linear_565_4024)"/>
  <path d="M37.9524 17.2498C37.9524 22.6309 33.5563 26.9996 28.1256 26.9996C22.6949 26.9996 18.2988 22.6309 18.2988 17.2498C18.2988 11.8686 22.6949 7.5 28.1256 7.5C33.5563 7.5 37.9524 11.8686 37.9524 17.2498Z" fill="url(#paint6_linear_565_4024)" stroke="url(#paint7_linear_565_4024)"/>
  <g filter="url(#filter1_i_565_4024)">
    <ellipse cx="28.126" cy="17.2498" rx="9.0674" ry="8.99981" fill="url(#paint8_linear_565_4024)"/>
  </g>
  <g filter="url(#filter2_ii_565_4024)">
    <ellipse cx="28.1255" cy="17.2498" rx="7.55617" ry="7.49984" fill="url(#paint9_linear_565_4024)"/>
  </g>
  <g filter="url(#filter3_d_565_4024)">
    <path d="M24.8528 19.1597C24.34 17.7819 25.8805 16.547 27.1137 17.3473C28.3883 18.1745 27.8025 20.1533 26.2829 20.1533C25.6455 20.1533 25.0752 19.7571 24.8528 19.1597Z" fill="url(#paint10_linear_565_4024)"/>
    <path d="M31.3819 19.1611C31.9024 17.7803 30.3628 16.5334 29.1203 17.3295C27.8311 18.1556 28.4162 20.1533 29.9474 20.1533C30.5854 20.1533 31.1568 19.7581 31.3819 19.1611Z" fill="url(#paint11_linear_565_4024)"/>
    <path d="M26.3684 17.386C27.0846 15.9228 29.1701 15.9228 29.8862 17.386C30.5231 18.687 29.5759 20.2052 28.1273 20.2052C26.6788 20.2052 25.7316 18.687 26.3684 17.386Z" fill="url(#paint12_linear_565_4024)"/>
    <mask id="mask0_565_4024" style="mask-type:alpha" maskUnits="userSpaceOnUse" x="26" y="16" width="5" height="5">
      <path d="M26.3684 17.3865C27.0846 15.9233 29.1701 15.9233 29.8862 17.3865C30.5231 18.6875 29.5759 20.2057 28.1273 20.2057C26.6788 20.2057 25.7316 18.6875 26.3684 17.3865Z" fill="url(#paint13_linear_565_4024)"/>
    </mask>
    <g mask="url(#mask0_565_4024)">
      <g filter="url(#filter4_f_565_4024)">
        <ellipse cx="3.28751" cy="0.892185" rx="3.28751" ry="0.892185" transform="matrix(0.204188 0.978932 -0.979534 0.201279 30.1631 14.5977)" fill="#7BB0FF"/>
      </g>
    </g>
    <ellipse cx="28.1276" cy="13.3235" rx="0.577804" ry="0.573497" fill="url(#paint14_linear_565_4024)"/>
    <ellipse cx="23.5616" cy="14.9917" rx="0.472749" ry="0.469225" fill="url(#paint15_linear_565_4024)"/>
    <ellipse cx="32.669" cy="14.9917" rx="0.472749" ry="0.469225" fill="url(#paint16_linear_565_4024)"/>
    <rect x="25.1992" y="20.6577" width="5.74681" height="0.777814" rx="0.388907" fill="url(#paint17_linear_565_4024)"/>
  </g>
  <path d="M24.0955 10.75L24.2825 11.3144L24.8511 11.5L24.2825 11.6856L24.0955 12.25L23.9085 11.6856L23.3398 11.5L23.9085 11.3144L24.0955 10.75Z" fill="white"/>
  <path d="M21.8285 8.25L22.2649 9.56687L23.5916 9.99996L22.2649 10.4331L21.8285 11.7499L21.3922 10.4331L20.0654 9.99996L21.3922 9.56687L21.8285 8.25Z" fill="white"/>
  <g filter="url(#filter5_d_565_4024)">
    <path d="M20.0449 23.807L22.0599 26.9999C27.4752 24.1249 32.6385 26.2499 34.1498 26.9999L36.1648 23.807C35.5886 23.1464 33.1739 21.8105 28.1249 21.7518C23.0759 21.6931 20.6345 23.0975 20.0449 23.807Z" fill="url(#paint18_linear_565_4024)"/>
  </g>
  <defs>
    <filter id="filter0_f_565_4024" x="21" y="0.200195" width="13.7783" height="13.75" filterUnits="userSpaceOnUse" color-interpolation-filters="sRGB">
      <feFlood flood-opacity="0" result="BackgroundImageFix"/>
      <feBlend mode="normal" in="SourceGraphic" in2="BackgroundImageFix" result="shape"/>
      <feGaussianBlur stdDeviation="2.5" result="effect1_foregroundBlur_565_4024"/>
    </filter>
    <filter id="filter1_i_565_4024" x="19.0586" y="6.25" width="18.1348" height="19.9995" filterUnits="userSpaceOnUse" color-interpolation-filters="sRGB">
      <feFlood flood-opacity="0" result="BackgroundImageFix"/>
      <feBlend mode="normal" in="SourceGraphic" in2="BackgroundImageFix" result="shape"/>
      <feColorMatrix in="SourceAlpha" type="matrix" values="0 0 0 0 0 0 0 0 0 0 0 0 0 0 0 0 0 0 127 0" result="hardAlpha"/>
      <feOffset dy="-2"/>
      <feGaussianBlur stdDeviation="2"/>
      <feComposite in2="hardAlpha" operator="arithmetic" k2="-1" k3="1"/>
      <feColorMatrix type="matrix" values="0 0 0 0 0 0 0 0 0 0.172667 0 0 0 0 0.616667 0 0 0 0.15 0"/>
      <feBlend mode="normal" in2="shape" result="effect1_innerShadow_565_4024"/>
    </filter>
    <filter id="filter2_ii_565_4024" x="20.5693" y="7.75" width="15.1123" height="18.9995" filterUnits="userSpaceOnUse" color-interpolation-filters="sRGB">
      <feFlood flood-opacity="0" result="BackgroundImageFix"/>
      <feBlend mode="normal" in="SourceGraphic" in2="BackgroundImageFix" result="shape"/>
      <feColorMatrix in="SourceAlpha" type="matrix" values="0 0 0 0 0 0 0 0 0 0 0 0 0 0 0 0 0 0 127 0" result="hardAlpha"/>
      <feOffset dy="2"/>
      <feGaussianBlur stdDeviation="5"/>
      <feComposite in2="hardAlpha" operator="arithmetic" k2="-1" k3="1"/>
      <feColorMatrix type="matrix" values="0 0 0 0 0 0 0 0 0 0.193203 0 0 0 0 0.4875 0 0 0 1 0"/>
      <feBlend mode="normal" in2="shape" result="effect1_innerShadow_565_4024"/>
      <feColorMatrix in="SourceAlpha" type="matrix" values="0 0 0 0 0 0 0 0 0 0 0 0 0 0 0 0 0 0 127 0" result="hardAlpha"/>
      <feOffset dy="-2"/>
      <feGaussianBlur stdDeviation="5"/>
      <feComposite in2="hardAlpha" operator="arithmetic" k2="-1" k3="1"/>
      <feColorMatrix type="matrix" values="0 0 0 0 0.4375 0 0 0 0 0.62875 0 0 0 0 1 0 0 0 1 0"/>
      <feBlend mode="normal" in2="effect1_innerShadow_565_4024" result="effect2_innerShadow_565_4024"/>
    </filter>
    <filter id="filter3_d_565_4024" x="19.0889" y="10.75" width="18.0527" height="16.6855" filterUnits="userSpaceOnUse" color-interpolation-filters="sRGB">
      <feFlood flood-opacity="0" result="BackgroundImageFix"/>
      <feColorMatrix in="SourceAlpha" type="matrix" values="0 0 0 0 0 0 0 0 0 0 0 0 0 0 0 0 0 0 127 0" result="hardAlpha"/>
      <feOffset dy="2"/>
      <feGaussianBlur stdDeviation="2"/>
      <feComposite in2="hardAlpha" operator="out"/>
      <feColorMatrix type="matrix" values="0 0 0 0 0.111875 0 0 0 0 0.364131 0 0 0 0 0.745833 0 0 0 0.68 0"/>
      <feBlend mode="normal" in2="BackgroundImageFix" result="effect1_dropShadow_565_4024"/>
      <feBlend mode="normal" in="SourceGraphic" in2="effect1_dropShadow_565_4024" result="shape"/>
    </filter>
    <filter id="filter4_f_565_4024" x="22.8584" y="8.77197" width="14.2041" height="18.4468" filterUnits="userSpaceOnUse" color-interpolation-filters="sRGB">
      <feFlood flood-opacity="0" result="BackgroundImageFix"/>
      <feBlend mode="normal" in="SourceGraphic" in2="BackgroundImageFix" result="shape"/>
      <feGaussianBlur stdDeviation="3" result="effect1_foregroundBlur_565_4024"/>
    </filter>
    <filter id="filter5_d_565_4024" x="0.0449219" y="11.75" width="56.1201" height="45.25" filterUnits="userSpaceOnUse" color-interpolation-filters="sRGB">
      <feFlood flood-opacity="0" result="BackgroundImageFix"/>
      <feColorMatrix in="SourceAlpha" type="matrix" values="0 0 0 0 0 0 0 0 0 0 0 0 0 0 0 0 0 0 127 0" result="hardAlpha"/>
      <feOffset dy="10"/>
      <feGaussianBlur stdDeviation="10"/>
      <feComposite in2="hardAlpha" operator="out"/>
      <feColorMatrix type="matrix" values="0 0 0 0 0 0 0 0 0 0 0 0 0 0 0 0 0 0 0.3 0"/>
      <feBlend mode="normal" in2="BackgroundImageFix" result="effect1_dropShadow_565_4024"/>
      <feBlend mode="normal" in="SourceGraphic" in2="effect1_dropShadow_565_4024" result="shape"/>
    </filter>
    <linearGradient id="paint0_linear_565_4024" x1="26.322" y1="5.87496" x2="29.677" y2="5.87496" gradientUnits="userSpaceOnUse">
      <stop offset="0.488759" stop-color="#E3EBFF"/>
      <stop offset="0.488859" stop-color="#D1E5EE"/>
      <stop offset="0.488959" stop-color="#B3C2D9"/>
    </linearGradient>
    <linearGradient id="paint1_linear_565_4024" x1="29.678" y1="28.8746" x2="26.323" y2="28.8746" gradientUnits="userSpaceOnUse">
      <stop offset="0.488759" stop-color="#E3EBFF"/>
      <stop offset="0.488859" stop-color="#D1E5EE"/>
      <stop offset="0.488959" stop-color="#B3C2D9"/>
    </linearGradient>
    <linearGradient id="paint2_linear_565_4024" x1="38.873" y1="21.683" x2="37.2142" y2="24.5776" gradientUnits="userSpaceOnUse">
      <stop offset="0.488759" stop-color="#E3EBFF"/>
      <stop offset="0.488859" stop-color="#D1E5EE"/>
      <stop offset="0.488959" stop-color="#B3C2D9"/>
    </linearGradient>
    <linearGradient id="paint3_linear_565_4024" x1="17.127" y1="13.067" x2="18.7858" y2="10.1724" gradientUnits="userSpaceOnUse">
      <stop offset="0.488759" stop-color="#E3EBFF"/>
      <stop offset="0.488859" stop-color="#D1E5EE"/>
      <stop offset="0.488959" stop-color="#B3C2D9"/>
    </linearGradient>
    <linearGradient id="paint4_linear_565_4024" x1="37.195" y1="10.183" x2="38.8537" y2="13.0775" gradientUnits="userSpaceOnUse">
      <stop offset="0.488759" stop-color="#E3EBFF"/>
      <stop offset="0.488859" stop-color="#D1E5EE"/>
      <stop offset="0.488959" stop-color="#B3C2D9"/>
    </linearGradient>
    <linearGradient id="paint5_linear_565_4024" x1="18.805" y1="24.5665" x2="17.1463" y2="21.672" gradientUnits="userSpaceOnUse">
      <stop offset="0.488759" stop-color="#E3EBFF"/>
      <stop offset="0.488859" stop-color="#D1E5EE"/>
      <stop offset="0.488959" stop-color="#B3C2D9"/>
    </linearGradient>
    <linearGradient id="paint6_linear_565_4024" x1="21.5059" y1="9.62815" x2="35.1607" y2="24.973" gradientUnits="userSpaceOnUse">
      <stop stop-color="#D5E3FF"/>
      <stop offset="0.520833" stop-color="#F0F5FF"/>
      <stop offset="1" stop-color="#D0DFFE"/>
    </linearGradient>
    <linearGradient id="paint7_linear_565_4024" x1="28.1256" y1="7" x2="28.1256" y2="27.4996" gradientUnits="userSpaceOnUse">
      <stop stop-color="white" stop-opacity="0.5"/>
      <stop offset="1" stop-color="white" stop-opacity="0"/>
    </linearGradient>
    <linearGradient id="paint8_linear_565_4024" x1="22.3329" y1="10.375" x2="33.8164" y2="24.3341" gradientUnits="userSpaceOnUse">
      <stop stop-color="#B1CCFF"/>
      <stop offset="1" stop-color="#D5E3FF"/>
    </linearGradient>
    <linearGradient id="paint9_linear_565_4024" x1="23.1251" y1="11.0735" x2="29.2709" y2="24.7842" gradientUnits="userSpaceOnUse">
      <stop stop-color="#78A6FF"/>
      <stop offset="0.484375" stop-color="#376EC1"/>
      <stop offset="1" stop-color="#1352B0"/>
    </linearGradient>
    <linearGradient id="paint10_linear_565_4024" x1="23.7401" y1="16.3474" x2="26.791" y2="18.5829" gradientUnits="userSpaceOnUse">
      <stop stop-color="#90BDFF"/>
      <stop offset="1" stop-color="#408CFF"/>
    </linearGradient>
    <linearGradient id="paint11_linear_565_4024" x1="32.1964" y1="15.7017" x2="30.3589" y2="19.034" gradientUnits="userSpaceOnUse">
      <stop stop-color="#90BDFF"/>
      <stop offset="1" stop-color="#408CFF"/>
    </linearGradient>
    <linearGradient id="paint12_linear_565_4024" x1="26.5216" y1="17.0936" x2="29.779" y2="17.0936" gradientUnits="userSpaceOnUse">
      <stop offset="0.49728" stop-color="#90BDFF"/>
      <stop offset="0.49738" stop-color="#408CFF"/>
    </linearGradient>
    <linearGradient id="paint13_linear_565_4024" x1="26.5216" y1="17.094" x2="29.779" y2="17.094" gradientUnits="userSpaceOnUse">
      <stop offset="0.416667" stop-color="#B1B0D8"/>
      <stop offset="0.49738" stop-color="#FFCC1D"/>
    </linearGradient>
    <linearGradient id="paint14_linear_565_4024" x1="28.1276" y1="12.75" x2="28.1276" y2="13.897" gradientUnits="userSpaceOnUse">
      <stop stop-color="#B0C6FF"/>
      <stop offset="1" stop-color="#408CFF"/>
    </linearGradient>
    <linearGradient id="paint15_linear_565_4024" x1="23.5616" y1="14.5225" x2="23.5616" y2="15.4609" gradientUnits="userSpaceOnUse">
      <stop stop-color="#B0C6FF"/>
      <stop offset="1" stop-color="#408CFF"/>
    </linearGradient>
    <linearGradient id="paint16_linear_565_4024" x1="32.669" y1="14.5225" x2="32.669" y2="15.4609" gradientUnits="userSpaceOnUse">
      <stop stop-color="#B0C6FF"/>
      <stop offset="1" stop-color="#408CFF"/>
    </linearGradient>
    <linearGradient id="paint17_linear_565_4024" x1="25.2645" y1="21.0466" x2="31.0113" y2="21.0466" gradientUnits="userSpaceOnUse">
      <stop stop-color="#90BDFF"/>
      <stop offset="1" stop-color="#458FFF"/>
    </linearGradient>
    <linearGradient id="paint18_linear_565_4024" x1="20.9074" y1="24.7851" x2="35.4209" y2="24.6233" gradientUnits="userSpaceOnUse">
      <stop stop-color="#8FBCFF"/>
      <stop offset="1" stop-color="#408CFF"/>
    </linearGradient>
  </defs>
</svg>