<svg width="24" height="28" viewBox="0 0 24 28" fill="none" xmlns="http://www.w3.org/2000/svg">
<path d="M1.95312 23.5337C2.17873 22.8494 3.64473 22.0531 4.45913 21.7498L5.73122 23.9997L9.13153 24.7497C8.70803 24.7497 5.10232 26.4281 3.54132 27.2496V24.7238C2.76562 24.1664 1.95312 23.5337 1.95312 23.5337Z" fill="#408CFF"/>
<path d="M21.5982 23.5337C21.3727 22.8494 19.9067 22.0531 19.0923 21.7498L17.8201 23.9997L14.168 24.7497C14.5915 24.7497 18.4491 26.4281 20.0101 27.2496V24.7238C20.7858 24.1664 21.5982 23.5337 21.5982 23.5337Z" fill="#408CFF"/>
<path d="M7.61947 22.9998L9.13067 24.7497L5.73047 23.9997L7.61947 22.9998Z" fill="#0066FF"/>
<path d="M15.8052 22.9998L14.168 24.7497L17.8202 23.9997L15.8052 22.9998Z" fill="#0066FF"/>
<path d="M11.6682 1L15.7035 5.6874H7.63281L11.6682 1Z" fill="url(#paint0_linear_536_620)"/>
<path d="M11.672 27.7497L7.63672 23.0623H15.7074L11.672 27.7497Z" fill="url(#paint1_linear_536_620)"/>
<g filter="url(#filter0_f_536_620)">
<path d="M11.5609 2.19995L12.0285 3.61088L13.45 4.07491L12.0285 4.53894L11.5609 5.94987L11.0934 4.53894L9.67188 4.07491L11.0934 3.61088L11.5609 2.19995Z" fill="white"/>
<path d="M11.5628 2.51782L11.9354 3.64228L11.9513 3.69021L11.9993 3.70589L13.1296 4.07485L11.9993 4.44382L11.9513 4.45949L11.9354 4.50743L11.5628 5.63188L11.1903 4.50743L11.1744 4.45949L11.1264 4.44382L9.99609 4.07485L11.1264 3.70589L11.1744 3.69021L11.1903 3.64228L11.5628 2.51782Z" stroke="#3E74FF" stroke-width="0.2"/>
</g>
<path d="M23.342 21.0623L17.2344 22.1873L21.2698 15.25L23.342 21.0623Z" fill="url(#paint2_linear_536_620)"/>
<path d="M0 7.68751L6.1076 6.5625L2.0722 13.4998L0 7.68751Z" fill="url(#paint3_linear_536_620)"/>
<path d="M23.342 7.68743L21.2697 13.4998L17.2344 6.5625L23.342 7.68743Z" fill="url(#paint4_linear_536_620)"/>
<path d="M0 21.0623L2.0723 15.25L6.1076 22.1873L0 21.0623Z" fill="url(#paint5_linear_536_620)"/>
<path d="M21.6223 14.2498C21.6223 19.631 17.2263 23.9996 11.7956 23.9996C6.36485 23.9996 1.96875 19.631 1.96875 14.2498C1.96875 8.86866 6.36485 4.5 11.7956 4.5C17.2263 4.5 21.6223 8.86866 21.6223 14.2498Z" fill="url(#paint6_linear_536_620)" stroke="white"/>
<path d="M11.7979 23.2496C16.8057 23.2496 20.8653 19.2203 20.8653 14.2498C20.8653 9.27935 16.8057 5.25 11.7979 5.25C6.79008 5.25 2.73047 9.27935 2.73047 14.2498C2.73047 19.2203 6.79008 23.2496 11.7979 23.2496Z" fill="url(#paint7_linear_536_620)"/>
<g filter="url(#filter1_ii_536_620)">
<path d="M11.7945 21.7497C15.9676 21.7497 19.3506 18.3919 19.3506 14.2498C19.3506 10.1078 15.9676 6.75 11.7945 6.75C7.62129 6.75 4.23828 10.1078 4.23828 14.2498C4.23828 18.3919 7.62129 21.7497 11.7945 21.7497Z" fill="url(#paint8_linear_536_620)"/>
</g>
<path d="M8.5231 16.1597C8.0103 14.7819 9.5508 13.547 10.784 14.3473C12.0587 15.1745 11.4728 17.1533 9.9533 17.1533C9.3158 17.1533 8.7455 16.7571 8.5231 16.1597Z" fill="url(#paint9_linear_536_620)"/>
<path d="M15.0522 16.1611C15.5728 14.7803 14.0332 13.5334 12.7907 14.3295C11.5014 15.1556 12.0866 17.1533 13.6178 17.1533C14.2558 17.1533 14.8272 16.7581 15.0522 16.1611Z" fill="url(#paint10_linear_536_620)"/>
<path d="M10.0378 14.3862C10.754 12.923 12.8395 12.923 13.5556 14.3862C14.1925 15.6873 13.2453 17.2054 11.7967 17.2054C10.3482 17.2054 9.40099 15.6873 10.0378 14.3862Z" fill="url(#paint11_linear_536_620)"/>
<mask id="mask0_536_620" style="mask-type:alpha" maskUnits="userSpaceOnUse" x="9" y="13" width="5" height="5">
<path d="M10.0378 14.3862C10.754 12.923 12.8395 12.923 13.5556 14.3862C14.1925 15.6872 13.2453 17.2054 11.7967 17.2054C10.3482 17.2054 9.40099 15.6872 10.0378 14.3862Z" fill="url(#paint12_linear_536_620)"/>
</mask>
<g mask="url(#mask0_536_620)">
<g filter="url(#filter2_f_536_620)">
<path d="M12.7555 15.1748C13.1262 16.9522 13.818 18.3127 14.3006 18.2135C14.7833 18.1143 14.874 16.5931 14.5033 14.8157C14.1326 13.0383 13.4408 11.6778 12.9581 11.777C12.4755 11.8762 12.3847 13.3974 12.7555 15.1748Z" fill="#7BB0FF"/>
</g>
</g>
<path d="M11.7966 10.897C12.1157 10.897 12.3744 10.6402 12.3744 10.3235C12.3744 10.0068 12.1157 9.75 11.7966 9.75C11.4774 9.75 11.2188 10.0068 11.2188 10.3235C11.2188 10.6402 11.4774 10.897 11.7966 10.897Z" fill="url(#paint13_linear_536_620)"/>
<path d="M7.23056 12.4609C7.49165 12.4609 7.70331 12.2508 7.70331 11.9917C7.70331 11.7325 7.49165 11.5225 7.23056 11.5225C6.96947 11.5225 6.75781 11.7325 6.75781 11.9917C6.75781 12.2508 6.96947 12.4609 7.23056 12.4609Z" fill="url(#paint14_linear_536_620)"/>
<path d="M16.3399 12.4609C16.601 12.4609 16.8127 12.2508 16.8127 11.9917C16.8127 11.7325 16.601 11.5225 16.3399 11.5225C16.0788 11.5225 15.8672 11.7325 15.8672 11.9917C15.8672 12.2508 16.0788 12.4609 16.3399 12.4609Z" fill="url(#paint15_linear_536_620)"/>
<path d="M14.2251 17.658H9.25609C9.04131 17.658 8.86719 17.8321 8.86719 18.0469C8.86719 18.2617 9.04131 18.4358 9.25609 18.4358H14.2251C14.4399 18.4358 14.614 18.2617 14.614 18.0469C14.614 17.8321 14.4399 17.658 14.2251 17.658Z" fill="url(#paint16_linear_536_620)"/>
<path d="M7.76742 7.75L7.95442 8.3144L8.52302 8.5L7.95442 8.6856L7.76742 9.2499L7.58042 8.6856L7.01172 8.5L7.58042 8.3144L7.76742 7.75Z" fill="white"/>
<path d="M5.49748 5.25L5.93388 6.56687L7.26058 6.99996L5.93388 7.43306L5.49748 8.74996L5.06118 7.43306L3.73438 6.99996L5.06118 6.56687L5.49748 5.25Z" fill="white"/>
<path d="M3.71484 20.8067L5.72984 23.9996C11.145 21.1247 16.3084 23.2496 17.8197 23.9996L19.8346 20.8067C19.2585 20.1461 16.8438 18.8102 11.7948 18.7515C6.74584 18.6928 4.30444 20.0972 3.71484 20.8067Z" fill="url(#paint17_linear_536_620)"/>
<defs>
<filter id="filter0_f_536_620" x="8.37188" y="0.899951" width="6.38125" height="6.35" filterUnits="userSpaceOnUse" color-interpolation-filters="sRGB">
<feFlood flood-opacity="0" result="BackgroundImageFix"/>
<feBlend mode="normal" in="SourceGraphic" in2="BackgroundImageFix" result="shape"/>
<feGaussianBlur stdDeviation="0.65" result="effect1_foregroundBlur_536_620"/>
</filter>
<filter id="filter1_ii_536_620" x="4.23828" y="4.75" width="15.1133" height="18.9998" filterUnits="userSpaceOnUse" color-interpolation-filters="sRGB">
<feFlood flood-opacity="0" result="BackgroundImageFix"/>
<feBlend mode="normal" in="SourceGraphic" in2="BackgroundImageFix" result="shape"/>
<feColorMatrix in="SourceAlpha" type="matrix" values="0 0 0 0 0 0 0 0 0 0 0 0 0 0 0 0 0 0 127 0" result="hardAlpha"/>
<feOffset dy="2"/>
<feGaussianBlur stdDeviation="5"/>
<feComposite in2="hardAlpha" operator="arithmetic" k2="-1" k3="1"/>
<feColorMatrix type="matrix" values="0 0 0 0 0 0 0 0 0 0.193203 0 0 0 0 0.4875 0 0 0 1 0"/>
<feBlend mode="normal" in2="shape" result="effect1_innerShadow_536_620"/>
<feColorMatrix in="SourceAlpha" type="matrix" values="0 0 0 0 0 0 0 0 0 0 0 0 0 0 0 0 0 0 127 0" result="hardAlpha"/>
<feOffset dy="-2"/>
<feGaussianBlur stdDeviation="5"/>
<feComposite in2="hardAlpha" operator="arithmetic" k2="-1" k3="1"/>
<feColorMatrix type="matrix" values="0 0 0 0 0.4375 0 0 0 0 0.62875 0 0 0 0 1 0 0 0 1 0"/>
<feBlend mode="normal" in2="effect1_innerShadow_536_620" result="effect2_innerShadow_536_620"/>
</filter>
<filter id="filter2_f_536_620" x="6.52734" y="5.77197" width="14.2031" height="18.4465" filterUnits="userSpaceOnUse" color-interpolation-filters="sRGB">
<feFlood flood-opacity="0" result="BackgroundImageFix"/>
<feBlend mode="normal" in="SourceGraphic" in2="BackgroundImageFix" result="shape"/>
<feGaussianBlur stdDeviation="3" result="effect1_foregroundBlur_536_620"/>
</filter>
<linearGradient id="paint0_linear_536_620" x1="9.99071" y1="2.87496" x2="13.3457" y2="2.87496" gradientUnits="userSpaceOnUse">
<stop offset="0.488759" stop-color="#E3EBFF"/>
<stop offset="0.488859" stop-color="#D1E5EE"/>
<stop offset="0.488959" stop-color="#B3C2D9"/>
</linearGradient>
<linearGradient id="paint1_linear_536_620" x1="13.3495" y1="25.8748" x2="9.99462" y2="25.8748" gradientUnits="userSpaceOnUse">
<stop offset="0.488759" stop-color="#E3EBFF"/>
<stop offset="0.488859" stop-color="#D1E5EE"/>
<stop offset="0.488959" stop-color="#B3C2D9"/>
</linearGradient>
<linearGradient id="paint2_linear_536_620" x1="22.5448" y1="18.6829" x2="20.8861" y2="21.5775" gradientUnits="userSpaceOnUse">
<stop offset="0.488759" stop-color="#E3EBFF"/>
<stop offset="0.488859" stop-color="#D1E5EE"/>
<stop offset="0.488959" stop-color="#B3C2D9"/>
</linearGradient>
<linearGradient id="paint3_linear_536_620" x1="0.7972" y1="10.0668" x2="2.456" y2="7.17231" gradientUnits="userSpaceOnUse">
<stop offset="0.488759" stop-color="#E3EBFF"/>
<stop offset="0.488859" stop-color="#D1E5EE"/>
<stop offset="0.488959" stop-color="#B3C2D9"/>
</linearGradient>
<linearGradient id="paint4_linear_536_620" x1="20.8673" y1="7.18303" x2="22.526" y2="10.0776" gradientUnits="userSpaceOnUse">
<stop offset="0.488759" stop-color="#E3EBFF"/>
<stop offset="0.488859" stop-color="#D1E5EE"/>
<stop offset="0.488959" stop-color="#B3C2D9"/>
</linearGradient>
<linearGradient id="paint5_linear_536_620" x1="2.4747" y1="21.5668" x2="0.816001" y2="18.6722" gradientUnits="userSpaceOnUse">
<stop offset="0.488759" stop-color="#E3EBFF"/>
<stop offset="0.488859" stop-color="#D1E5EE"/>
<stop offset="0.488959" stop-color="#B3C2D9"/>
</linearGradient>
<linearGradient id="paint6_linear_536_620" x1="5.17585" y1="6.62815" x2="18.8307" y2="21.973" gradientUnits="userSpaceOnUse">
<stop stop-color="#D5E3FF"/>
<stop offset="0.520833" stop-color="#F0F5FF"/>
<stop offset="1" stop-color="#D0DFFE"/>
</linearGradient>
<linearGradient id="paint7_linear_536_620" x1="6.00477" y1="7.37501" x2="17.4883" y2="21.3341" gradientUnits="userSpaceOnUse">
<stop stop-color="#B1CCFF"/>
<stop offset="1" stop-color="#D5E3FF"/>
</linearGradient>
<linearGradient id="paint8_linear_536_620" x1="6.79405" y1="8.07344" x2="12.9399" y2="21.7841" gradientUnits="userSpaceOnUse">
<stop stop-color="#78A6FF"/>
<stop offset="0.484375" stop-color="#376EC1"/>
<stop offset="1" stop-color="#1352B0"/>
</linearGradient>
<linearGradient id="paint9_linear_536_620" x1="7.4105" y1="13.3474" x2="10.4613" y2="15.5829" gradientUnits="userSpaceOnUse">
<stop stop-color="#90BDFF"/>
<stop offset="1" stop-color="#408CFF"/>
</linearGradient>
<linearGradient id="paint10_linear_536_620" x1="15.8668" y1="12.7017" x2="14.0293" y2="16.034" gradientUnits="userSpaceOnUse">
<stop stop-color="#90BDFF"/>
<stop offset="1" stop-color="#408CFF"/>
</linearGradient>
<linearGradient id="paint11_linear_536_620" x1="10.191" y1="14.0938" x2="13.4484" y2="14.0938" gradientUnits="userSpaceOnUse">
<stop offset="0.49728" stop-color="#90BDFF"/>
<stop offset="0.49738" stop-color="#408CFF"/>
</linearGradient>
<linearGradient id="paint12_linear_536_620" x1="10.191" y1="14.0937" x2="13.4484" y2="14.0937" gradientUnits="userSpaceOnUse">
<stop offset="0.416667" stop-color="#B1B0D8"/>
<stop offset="0.49738" stop-color="#FFCC1D"/>
</linearGradient>
<linearGradient id="paint13_linear_536_620" x1="11.7966" y1="9.75" x2="11.7966" y2="10.897" gradientUnits="userSpaceOnUse">
<stop stop-color="#B0C6FF"/>
<stop offset="1" stop-color="#408CFF"/>
</linearGradient>
<linearGradient id="paint14_linear_536_620" x1="7.23056" y1="11.5225" x2="7.23056" y2="12.461" gradientUnits="userSpaceOnUse">
<stop stop-color="#B0C6FF"/>
<stop offset="1" stop-color="#408CFF"/>
</linearGradient>
<linearGradient id="paint15_linear_536_620" x1="16.3399" y1="11.5225" x2="16.3399" y2="12.461" gradientUnits="userSpaceOnUse">
<stop stop-color="#B0C6FF"/>
<stop offset="1" stop-color="#408CFF"/>
</linearGradient>
<linearGradient id="paint16_linear_536_620" x1="8.93249" y1="18.0469" x2="14.6793" y2="18.0469" gradientUnits="userSpaceOnUse">
<stop stop-color="#90BDFF"/>
<stop offset="1" stop-color="#458FFF"/>
</linearGradient>
<linearGradient id="paint17_linear_536_620" x1="4.57734" y1="21.7848" x2="19.0908" y2="21.6231" gradientUnits="userSpaceOnUse">
<stop stop-color="#8FBCFF"/>
<stop offset="1" stop-color="#408CFF"/>
</linearGradient>
</defs>
</svg>