<svg width="17" height="18" viewBox="0 0 17 18" fill="none" xmlns="http://www.w3.org/2000/svg">
<g filter="url(#filter0_d_2931_1699)">
<path d="M13.7494 13.9421C12.224 13.3109 12.1868 14.3897 11.9263 15.2341C9.02349 14.2663 6.19281 13.1487 3.18331 13.6423C2.78481 13.1762 3.36263 12.5742 2.76722 12.3233C2.36705 12.1511 1.93982 12.0412 1.47702 11.8921C1.84683 10.7228 2.14631 9.55532 2.58776 8.44245C3.16329 6.99603 3.25446 5.49858 3.23662 3.98023C3.2313 3.67341 3.2515 3.36813 3.26115 2.97132C4.65348 3.40679 4.46603 2.21929 4.82728 1.47688C7.76291 2.36974 10.6213 3.69886 13.9653 3.11112C13.5248 4.44947 14.386 4.58176 15.3187 4.77239C14.1862 7.68942 13.2827 10.612 13.7494 13.9421ZM3.22129 13.3566L13.4181 13.6046L13.6656 3.42604L3.4688 3.17808L3.22129 13.3566Z" fill="url(#paint0_linear_2931_1699)"/>
<path d="M0.200231 8.08958L1.48005 6.92043C2.00458 7.8715 2.34133 8.81253 1.60587 9.85435C1.16015 9.30316 0.707716 8.72808 0.200231 8.08958Z" fill="url(#paint1_linear_2931_1699)"/>
<path d="M8.14317 16.5267L6.98927 15.1825C7.89293 14.6933 8.84522 14.3441 9.92943 15.1006L8.14317 16.5267Z" fill="url(#paint2_linear_2931_1699)"/>
<path d="M15.0878 6.7922L16.5016 8.48598L15.1795 9.59204C14.5666 8.70637 14.5209 8.07454 15.0878 6.7922Z" fill="url(#paint3_linear_2931_1699)"/>
<path d="M9.7019 1.51783C8.83487 2.00242 7.88569 2.33622 6.87415 1.63162L8.58755 0.199179L9.7019 1.51783Z" fill="url(#paint4_linear_2931_1699)"/>
<rect x="3.44101" y="3.1958" width="10.3828" height="10.2628" transform="rotate(1.39297 3.44101 3.1958)" fill="black"/>
<path d="M11.431 10.0001C11.2906 9.84336 11.1536 9.69763 11.0102 9.54993C10.7101 9.25932 10.4289 8.94973 10.1684 8.62309C9.87562 8.46263 9.65445 8.51202 9.50049 8.91263C9.32885 9.36483 8.92346 9.55761 8.43575 9.53206C7.94805 9.5065 7.67752 9.25805 7.4481 8.85815C7.33337 8.65912 7.10851 8.52222 6.93351 8.36188L6.90801 8.58488C6.5457 8.88276 6.18028 9.15866 5.82972 9.46138C5.7365 9.54126 5.61741 9.70905 5.64565 9.78641C5.709 9.93611 5.82298 10.0588 5.96765 10.1329C6.50848 10.4135 6.78065 10.9321 6.63749 11.4891C6.59 11.6704 6.49817 11.8371 6.37024 11.9742C6.24232 12.1112 6.08233 12.2143 5.90468 12.2741C5.72702 12.334 5.53727 12.3487 5.35251 12.317C5.16775 12.2853 4.99377 12.2081 4.84624 12.0924C4.69871 11.9768 4.58226 11.8262 4.50737 11.6544C4.43247 11.4825 4.40149 11.2947 4.4172 11.1079C4.43291 10.9211 4.49483 10.7412 4.59737 10.5842C4.69992 10.4273 4.83988 10.2983 5.00466 10.209C5.15784 10.1406 5.31174 10.0804 5.46547 10.0267L5.47767 9.52493L5.21991 9.42739C4.99019 9.35541 4.79083 9.20925 4.65308 9.01182C4.51534 8.81439 4.44698 8.57683 4.45873 8.33639C4.47084 7.83831 4.73941 7.49161 5.20909 7.28214C5.34563 7.22248 5.52077 7.07705 5.53273 6.9605C5.54469 6.84396 5.38649 6.66852 5.25855 6.59969C4.68278 6.29178 4.42515 5.81362 4.57171 5.26679C4.63138 5.01733 4.7747 4.79584 4.97779 4.63919C5.18089 4.48254 5.43152 4.40017 5.68795 4.40581C5.94618 4.40935 6.19572 4.49965 6.39641 4.66218C6.59512 4.82803 6.73125 5.05675 6.78226 5.3105C6.88734 5.86892 6.60494 6.33395 6.02052 6.60726C5.94743 6.64243 5.88202 6.69172 5.82805 6.75227C5.77391 6.81271 5.73246 6.8834 5.70616 6.96016C5.68697 7.03636 5.88368 7.16711 5.97967 7.27349C6.21104 7.51826 6.44245 7.76121 6.67853 7.9997C6.78531 8.11274 6.90692 8.29186 7.02909 8.29757C7.10754 8.28593 7.18211 8.25586 7.24669 8.20984C7.31127 8.16381 7.36403 8.10313 7.40063 8.03278C7.62756 7.5591 7.95954 7.26961 8.50334 7.27827C9.04713 7.28693 9.414 7.58976 9.60498 8.10646C9.63478 8.1739 9.68067 8.23299 9.73862 8.27857C9.79669 8.32436 9.86529 8.35489 9.93818 8.3674C10.0763 8.35706 10.2156 8.2208 10.3305 8.11224C10.5927 7.87765 10.8451 7.63277 11.0975 7.3879C11.2339 7.25796 11.3614 7.12049 11.5654 6.91187C11.2625 6.79588 11.113 6.74752 10.9586 6.67805C10.7883 6.59184 10.6425 6.46406 10.5347 6.30655C10.4268 6.14904 10.3605 5.96688 10.3417 5.77691C10.3229 5.58695 10.3524 5.39531 10.4273 5.21974C10.5022 5.04417 10.6202 4.89033 10.7703 4.77245C10.9205 4.65457 11.0979 4.57646 11.2863 4.54534C11.4746 4.51422 11.6678 4.5311 11.8478 4.59441C12.0279 4.65773 12.1891 4.76543 12.3166 4.90757C12.444 5.04971 12.5335 5.22168 12.5768 5.40759C12.6381 5.64846 12.6169 5.90291 12.5165 6.13029C12.4162 6.35768 12.2425 6.54487 12.0233 6.66195C11.4023 7.01196 11.4384 7.10411 11.9836 7.54363C12.2732 7.80474 12.4636 8.15797 12.5225 8.54342C12.5798 9.0012 12.2565 9.34657 11.8214 9.55962C11.7482 9.59524 11.6838 9.64677 11.633 9.71043C11.5822 9.77409 11.5462 9.84829 11.5277 9.92762C11.5413 10.007 11.5726 10.0823 11.6191 10.148C11.6662 10.2141 11.7271 10.2692 11.7977 10.3093C12.3671 10.6527 12.5993 11.1257 12.4235 11.6745C12.3454 11.9238 12.184 12.1386 11.9662 12.2829C11.7485 12.4272 11.4877 12.4922 11.2277 12.4669C10.9672 12.4407 10.7234 12.3266 10.5364 12.1434C10.3506 11.9592 10.234 11.7165 10.2063 11.4563C10.1524 10.8918 10.4802 10.4398 11.0957 10.2402C11.1601 10.219 11.2307 10.2034 11.2968 10.1867L11.431 10.0001Z" fill="url(#paint5_linear_2931_1699)"/>
</g>
<defs>
<filter id="filter0_d_2931_1699" x="0.200226" y="0.199158" width="16.8014" height="17.3276" filterUnits="userSpaceOnUse" color-interpolation-filters="sRGB">
<feFlood flood-opacity="0" result="BackgroundImageFix"/>
<feColorMatrix in="SourceAlpha" type="matrix" values="0 0 0 0 0 0 0 0 0 0 0 0 0 0 0 0 0 0 127 0" result="hardAlpha"/>
<feOffset dx="0.5" dy="1"/>
<feComposite in2="hardAlpha" operator="out"/>
<feColorMatrix type="matrix" values="0 0 0 0 0 0 0 0 0 0 0 0 0 0 0 0 0 0 1 0"/>
<feBlend mode="normal" in2="BackgroundImageFix" result="effect1_dropShadow_2931_1699"/>
<feBlend mode="normal" in="SourceGraphic" in2="effect1_dropShadow_2931_1699" result="shape"/>
</filter>
<linearGradient id="paint0_linear_2931_1699" x1="19.0058" y1="-14.8791" x2="6.5972" y2="12.6966" gradientUnits="userSpaceOnUse">
<stop offset="0.36" stop-color="#00ECFF"/>
<stop offset="1" stop-color="#FFEB81"/>
</linearGradient>
<linearGradient id="paint1_linear_2931_1699" x1="12.8789" y1="-17.603" x2="0.474509" y2="9.98567" gradientUnits="userSpaceOnUse">
<stop offset="0.36" stop-color="#00ECFF"/>
<stop offset="1" stop-color="#FFEB81"/>
</linearGradient>
<linearGradient id="paint2_linear_2931_1699" x1="21.4345" y1="-13.7549" x2="9.06009" y2="13.8035" gradientUnits="userSpaceOnUse">
<stop offset="0.36" stop-color="#00ECFF"/>
<stop offset="1" stop-color="#FFEB81"/>
</linearGradient>
<linearGradient id="paint3_linear_2931_1699" x1="24.7681" y1="-12.2973" x2="12.354" y2="15.2819" gradientUnits="userSpaceOnUse">
<stop offset="0.36" stop-color="#00ECFF"/>
<stop offset="1" stop-color="#FFEB81"/>
</linearGradient>
<linearGradient id="paint4_linear_2931_1699" x1="16.2389" y1="-16.1147" x2="3.84479" y2="11.4623" gradientUnits="userSpaceOnUse">
<stop offset="0.36" stop-color="#00ECFF"/>
<stop offset="1" stop-color="#FFEB81"/>
</linearGradient>
<linearGradient id="paint5_linear_2931_1699" x1="12.8082" y1="5.68887" x2="5.30941" y2="10.4765" gradientUnits="userSpaceOnUse">
<stop offset="0.36" stop-color="#00ECFF"/>
<stop offset="1" stop-color="#FFEB81"/>
</linearGradient>
</defs>
</svg>
