<svg width="37" height="33" viewBox="0 0 37 33" fill="none" xmlns="http://www.w3.org/2000/svg">
<path fill-rule="evenodd" clip-rule="evenodd" d="M10.5859 29.8081L15.4335 31.0705V29.4198L15.8292 29.0314H18.5991V30.9733V32.3326H15.6313L11.9709 30.7791L10.5859 29.8081Z" fill="#CDBDB2"/>
<path fill-rule="evenodd" clip-rule="evenodd" d="M26.4141 29.8081L21.6656 31.0705V29.4198L21.2699 29.0314H18.4999V30.9733V32.3326H21.4677L25.1279 30.7791L26.4141 29.8081Z" fill="#CDBDB2"/>
<path fill-rule="evenodd" clip-rule="evenodd" d="M15.8254 26.2158L15.4297 29.4198L15.9242 29.0315H21.0684L21.662 29.4198L21.2663 26.2158L20.4749 25.7302L16.5178 25.8274L15.8254 26.2158Z" fill="#393939"/>
<path fill-rule="evenodd" clip-rule="evenodd" d="M13.1562 4.56335L15.5305 10.0007L16.6188 25.8273H20.4769L21.664 10.0007L23.8404 4.56335H13.1562Z" fill="#F89C35"/>
<path fill-rule="evenodd" clip-rule="evenodd" d="M2.76996 16.5062L0 24.3709L6.9249 23.9825H11.3765V20.5842L11.1787 13.5934L10.1894 14.3701L2.76996 16.5062Z" fill="#F89D35"/>
<path fill-rule="evenodd" clip-rule="evenodd" d="M8.01562 17.38L16.1276 17.5742L15.2374 21.6522L11.3791 20.6812L8.01562 17.38Z" fill="#D87C30"/>
<path fill-rule="evenodd" clip-rule="evenodd" d="M8.01562 17.4772L11.3791 20.5842V23.6913L8.01562 17.4772Z" fill="#EA8D3A"/>
<path fill-rule="evenodd" clip-rule="evenodd" d="M11.375 20.6813L15.3321 21.6522L16.6182 25.8274L15.7278 26.3128L11.375 23.7883V20.6813Z" fill="#F89D35"/>
<path fill-rule="evenodd" clip-rule="evenodd" d="M11.3774 23.7883L10.5859 29.8082L15.8292 26.2158L11.3774 23.7883Z" fill="#EB8F35"/>
<path fill-rule="evenodd" clip-rule="evenodd" d="M16.1221 17.5742L16.6168 25.8274L15.1328 21.6037L16.1221 17.5742Z" fill="#EA8E3A"/>
<path fill-rule="evenodd" clip-rule="evenodd" d="M6.82812 23.8855L11.3788 23.7883L10.5874 29.8082L6.82812 23.8855Z" fill="#D87C30"/>
<path fill-rule="evenodd" clip-rule="evenodd" d="M2.1764 32.4299L10.5851 29.8082L6.82588 23.8855L0 24.3709L2.1764 32.4299Z" fill="#EB8F35"/>
<path fill-rule="evenodd" clip-rule="evenodd" d="M15.5341 10.0009L11.2803 13.4963L8.01562 17.3801L16.1276 17.6715L15.5341 10.0009Z" fill="#E8821E"/>
<path fill-rule="evenodd" clip-rule="evenodd" d="M10.5859 29.8083L15.8292 26.2158L15.4335 29.3229V31.0706L11.8721 30.3908L10.5859 29.8083Z" fill="#DFCEC3"/>
<path fill-rule="evenodd" clip-rule="evenodd" d="M26.4141 29.8083L21.2699 26.2158L21.6656 29.3229V31.0706L25.2269 30.3908L26.4141 29.8083Z" fill="#DFCEC3"/>
<path fill-rule="evenodd" clip-rule="evenodd" d="M13.9508 19.322L15.0391 21.5553L11.1808 20.5843L13.9508 19.322Z" fill="#393939"/>
<path fill-rule="evenodd" clip-rule="evenodd" d="M2.07812 0.00012207L15.5322 10.0008L13.257 4.56351L2.07812 0.00012207Z" fill="#E88F35"/>
<path fill-rule="evenodd" clip-rule="evenodd" d="M2.07756 0L0.296875 5.34023L1.28615 11.1659L0.593656 11.5543L1.58293 12.4282L0.791511 13.1078L1.87971 14.0788L1.18722 14.6614L2.77005 16.6033L10.1896 14.3701C13.8169 11.522 15.5976 10.0655 15.5317 10.0008C15.4657 9.93607 10.981 6.60247 2.07756 0Z" fill="#8E5A30"/>
<path fill-rule="evenodd" clip-rule="evenodd" d="M34.23 16.5062L37 24.3709L30.0751 23.9825H25.6235V20.5842L25.8213 13.5934L26.8106 14.3701L34.23 16.5062Z" fill="#F89D35"/>
<path fill-rule="evenodd" clip-rule="evenodd" d="M28.9844 17.38L20.8724 17.5742L21.7626 21.6522L25.6209 20.6812L28.9844 17.38Z" fill="#D87C30"/>
<path fill-rule="evenodd" clip-rule="evenodd" d="M28.9844 17.4772L25.6209 20.5842V23.6913L28.9844 17.4772Z" fill="#EA8D3A"/>
<path fill-rule="evenodd" clip-rule="evenodd" d="M25.625 20.6813L21.6679 21.6522L20.3818 25.8274L21.2722 26.3128L25.625 23.7883V20.6813Z" fill="#F89D35"/>
<path fill-rule="evenodd" clip-rule="evenodd" d="M25.6226 23.7883L26.4141 29.8082L21.2699 26.3128L25.6226 23.7883Z" fill="#EB8F35"/>
<path fill-rule="evenodd" clip-rule="evenodd" d="M20.8779 17.5742L20.3832 25.8274L21.8672 21.6037L20.8779 17.5742Z" fill="#EA8E3A"/>
<path fill-rule="evenodd" clip-rule="evenodd" d="M30.1719 23.8855L25.6212 23.7883L26.4126 29.8082L30.1719 23.8855Z" fill="#D87C30"/>
<path fill-rule="evenodd" clip-rule="evenodd" d="M34.8236 32.4299L26.4149 29.8082L30.1741 23.8855L37 24.3709L34.8236 32.4299Z" fill="#EB8F35"/>
<path fill-rule="evenodd" clip-rule="evenodd" d="M21.4659 10.0009L25.7197 13.4963L28.9844 17.3801L20.8724 17.6715L21.4659 10.0009Z" fill="#E8821E"/>
<path fill-rule="evenodd" clip-rule="evenodd" d="M23.0492 19.322L21.9609 21.5553L25.8192 20.5843L23.0492 19.322Z" fill="#393939"/>
<path fill-rule="evenodd" clip-rule="evenodd" d="M34.9219 0.00012207L21.4678 10.0008L23.743 4.56351L34.9219 0.00012207Z" fill="#E88F35"/>
<path fill-rule="evenodd" clip-rule="evenodd" d="M34.9224 0L36.7031 5.34023L35.7139 11.1659L36.4063 11.5543L35.4171 12.4282L36.2085 13.1078L35.1203 14.0788L35.8128 14.6614L34.2299 16.6033L26.8104 14.3701C23.1831 11.522 21.4024 10.0655 21.4683 10.0008C21.5343 9.93607 26.019 6.60247 34.9224 0Z" fill="#8E5A30"/>
</svg>
