<svg width="44" height="44" viewBox="0 0 44 44" fill="none" xmlns="http://www.w3.org/2000/svg">
<circle cx="22" cy="22" r="22" fill="#46464D"/>
<path fill-rule="evenodd" clip-rule="evenodd" d="M33 13.8636C33 12.2821 31.7179 11 30.1364 11H14.8636C13.2821 11 12 12.2821 12 13.8636V29.1364C12 30.7179 13.2821 32 14.8636 32H30.1364C31.7179 32 33 30.7179 33 29.1364V13.8636ZM31.0909 13.8636C31.0909 13.3365 30.6636 12.9091 30.1364 12.9091H14.8636C14.3365 12.9091 13.9091 13.3365 13.9091 13.8636V29.1364C13.9091 29.6636 14.3365 30.0909 14.8636 30.0909H30.1364C30.6636 30.0909 31.0909 29.6636 31.0909 29.1364V13.8636Z" fill="white"/>
<path d="M16.1185 26.6571L20.258 19.4732C20.6215 18.8423 21.5786 18.8423 21.9422 19.4732L24.9815 24.748L26.0226 23.0235C26.3908 22.4135 27.3199 22.4135 27.6882 23.0235L29.8722 26.6415C30.2376 27.2468 29.7758 28 29.0393 28H16.9606C16.2325 28 15.7698 27.2622 16.1185 26.6571Z" fill="white"/>
<path d="M28 18C28 19.1046 27.1046 20 26 20C24.8954 20 24 19.1046 24 18C24 16.8954 24.8954 16 26 16C27.1046 16 28 16.8954 28 18Z" fill="white"/>
</svg>
