<svg width="14" height="14" viewBox="0 0 14 14" fill="none" xmlns="http://www.w3.org/2000/svg">
<path fill-rule="evenodd" clip-rule="evenodd" d="M6.4 1C6.0858 1 5.81776 1.2274 5.76659 1.53743C5.71947 1.78823 5.5389 1.99317 5.29601 2.07143C5.09809 2.1394 4.90457 2.21954 4.71658 2.31143C4.49288 2.42586 4.22452 2.40871 4.01715 2.26686C3.76621 2.08643 3.42148 2.11437 3.20287 2.33286L2.35258 3.18314C2.12374 3.412 2.09401 3.77277 2.28229 4.036C2.4275 4.24814 2.44841 4.52166 2.33715 4.75343C2.26384 4.9144 2.19917 5.07923 2.14344 5.24714C2.0636 5.51174 1.84325 5.70991 1.57172 5.76143C1.24428 5.81371 1.00255 6.09494 1.00001 6.42657V7.49029C0.998268 7.87249 1.27433 8.1994 1.65144 8.26171C1.93752 8.31614 2.1764 8.51209 2.28572 8.782C2.31829 8.858 2.35258 8.93343 2.38858 9.00829C2.53397 9.28819 2.51389 9.62533 2.33629 9.886C2.1142 10.1947 2.1483 10.6188 2.41686 10.888L3.04172 11.5129C3.34991 11.8212 3.83596 11.8611 4.19029 11.6071L4.21 11.5934C4.47459 11.4153 4.81128 11.3831 5.10486 11.5077C5.41895 11.6208 5.65046 11.8907 5.71429 12.2183L5.7229 12.2474C5.79341 12.6812 6.168 12.9998 6.60747 13H7.36176C7.81301 13.0002 8.19815 12.6738 8.272 12.2286L8.28571 12.1686C8.34629 11.8547 8.5658 11.595 8.86514 11.4829C9.15367 11.359 9.48545 11.3914 9.74461 11.5686L9.78743 11.5994C10.1509 11.8614 10.6508 11.8211 10.9677 11.5043L11.5429 10.9283C11.8311 10.6384 11.8673 10.1826 11.6286 9.85086C11.4415 9.57355 11.4177 9.21721 11.566 8.91743L11.6029 8.83171C11.723 8.539 11.9829 8.32686 12.2937 8.26771C12.7 8.20146 12.9987 7.85123 13 7.43971V6.48571C12.9999 6.1228 12.7374 5.8132 12.3794 5.75371C12.085 5.69723 11.8452 5.48406 11.7545 5.19829C11.7145 5.08403 11.67 4.96969 11.6208 4.85543C11.5065 4.60429 11.5319 4.31166 11.6877 4.084C11.8934 3.79789 11.8615 3.40489 11.6123 3.15571L10.8143 2.35686C10.5861 2.12869 10.2262 2.09929 9.96404 2.28743C9.74514 2.437 9.46163 2.45346 9.2269 2.33029C9.0596 2.2474 8.88791 2.17386 8.71262 2.11C8.46743 2.0254 8.28668 1.81557 8.23947 1.56057C8.18945 1.23974 7.91437 1.0024 7.58971 1H6.4Z" stroke="#A8AFB5" stroke-linecap="round" stroke-linejoin="round"/>
<path fill-rule="evenodd" clip-rule="evenodd" d="M9 7C9 5.89541 8.10458 5 6.99999 5C5.89539 5 5 5.89541 5 7C5 8.10458 5.89539 9 6.99999 9C8.10458 9 9 8.10458 9 7Z" stroke="#A8AFB5" stroke-linecap="round" stroke-linejoin="round"/>
</svg>
