<svg width="44" height="44" viewBox="0 0 44 44" fill="none" xmlns="http://www.w3.org/2000/svg">
<circle cx="22" cy="22" r="22" fill="#46464D"/>
<path d="M28.1439 25.9792C27.3522 25.9792 26.6147 26.2094 25.9929 26.6052L19.7171 22.2237C19.8178 21.872 19.8729 21.501 19.8729 21.117C19.8729 20.7329 19.8178 20.3619 19.7171 20.0103L25.8234 15.747C26.4786 16.2124 27.2789 16.487 28.1438 16.487C30.3599 16.487 32.1564 14.6904 32.1564 12.4743C32.1564 10.2582 30.3599 8.46164 28.1439 8.46164C25.9278 8.46164 24.1312 10.2582 24.1312 12.4743C24.1312 12.7669 24.1634 13.052 24.2229 13.3268L17.9615 17.6984C17.3503 17.3219 16.6308 17.1043 15.8603 17.1043C13.6442 17.1043 11.8477 18.9009 11.8477 21.117C11.8477 23.3331 13.6441 25.1296 15.8603 25.1296C16.6308 25.1296 17.3503 24.912 17.9615 24.5356L24.2712 28.9408C24.1805 29.276 24.1312 29.6281 24.1312 29.9919C24.1312 32.208 25.9278 34.0045 28.1439 34.0045C30.3599 34.0045 32.1565 32.208 32.1565 29.9919C32.1565 27.7758 30.3599 25.9792 28.1439 25.9792Z" fill="white"/>
</svg>
