<svg width="14" height="15" viewBox="0 0 14 15" fill="none" xmlns="http://www.w3.org/2000/svg">
<g clip-path="url(#clip0_2879_1370)">
<path d="M14 8.375V11H11.375V10.125H12.4209C12.234 9.84245 11.988 9.62598 11.6826 9.47559C11.3773 9.3252 11.056 9.25 10.7188 9.25C10.4727 9.25 10.2311 9.29102 9.99414 9.37305C9.75716 9.45508 9.54753 9.57357 9.36523 9.72852C9.18294 9.88346 9.03483 10.068 8.9209 10.2822C8.80697 10.4964 8.75 10.7357 8.75 11H7.875C7.875 10.6126 7.95247 10.2594 8.10742 9.94043C8.26237 9.62142 8.47428 9.34342 8.74316 9.10645C9.01204 8.86947 9.3151 8.68945 9.65234 8.56641C9.98958 8.44336 10.3451 8.37956 10.7188 8.375C10.9557 8.375 11.1882 8.40006 11.416 8.4502C11.6439 8.50033 11.8626 8.58008 12.0723 8.68945C12.2819 8.79883 12.4756 8.92643 12.6533 9.07227C12.8311 9.2181 12.9883 9.39355 13.125 9.59863V8.375H14ZM11.1562 13.625C11.4023 13.625 11.6416 13.584 11.874 13.502C12.1064 13.4199 12.3161 13.3014 12.5029 13.1465C12.6898 12.9915 12.8402 12.807 12.9541 12.5928C13.068 12.3786 13.125 12.1393 13.125 11.875H14C14 12.2624 13.9225 12.6156 13.7676 12.9346C13.6126 13.2536 13.4007 13.5316 13.1318 13.7686C12.863 14.0055 12.5599 14.1855 12.2227 14.3086C11.8854 14.4316 11.5299 14.4954 11.1562 14.5C10.9193 14.5 10.6868 14.4749 10.459 14.4248C10.2311 14.3747 10.0124 14.2949 9.80273 14.1855C9.5931 14.0762 9.39941 13.9486 9.22168 13.8027C9.04395 13.6569 8.88672 13.4814 8.75 13.2764V14.5H7.875V11.875H10.5V12.75H9.4541C9.64095 13.0326 9.88704 13.249 10.1924 13.3994C10.4977 13.5498 10.819 13.625 11.1562 13.625ZM9.625 5.75C9.26497 5.75 8.92546 5.81836 8.60645 5.95508C8.28744 6.0918 8.00944 6.27865 7.77246 6.51562C7.53548 6.7526 7.34863 7.0306 7.21191 7.34961C7.0752 7.66862 7.00456 8.00814 7 8.36816C7 8.79199 6.90658 9.18848 6.71973 9.55762C6.53288 9.92676 6.26628 10.2389 5.91992 10.4941C6.125 10.599 6.31869 10.722 6.50098 10.8633C6.68327 11.0046 6.84961 11.1618 7 11.335L6.30273 11.875C6.05664 11.597 5.76725 11.3828 5.43457 11.2324C5.10189 11.082 4.7487 11.0046 4.375 11C4.01042 11 3.6709 11.0684 3.35645 11.2051C3.04199 11.3418 2.764 11.5286 2.52246 11.7656C2.28092 12.0026 2.0918 12.2829 1.95508 12.6064C1.81836 12.93 1.75 13.2695 1.75 13.625H0.875C0.875 13.2923 0.920573 12.971 1.01172 12.6611C1.10286 12.3512 1.23275 12.0573 1.40137 11.7793C1.56999 11.5013 1.77507 11.2552 2.0166 11.041C2.25814 10.8268 2.52702 10.6423 2.82324 10.4873C2.486 10.2412 2.22396 9.93359 2.03711 9.56445C1.85026 9.19531 1.75456 8.79883 1.75 8.375C1.75 8.01497 1.81836 7.67546 1.95508 7.35645C2.0918 7.03744 2.27865 6.75944 2.51562 6.52246C2.7526 6.28548 3.0306 6.09635 3.34961 5.95508C3.66862 5.8138 4.01042 5.74544 4.375 5.75C4.79427 5.75 5.18848 5.84342 5.55762 6.03027C5.92676 6.21712 6.23665 6.48145 6.4873 6.82324C6.66048 6.48145 6.88151 6.17611 7.15039 5.90723C7.41927 5.63835 7.72689 5.41504 8.07324 5.2373C7.736 4.99121 7.47396 4.68359 7.28711 4.31445C7.10026 3.94531 7.00456 3.54883 7 3.125C7 2.76497 7.06836 2.42546 7.20508 2.10645C7.3418 1.78743 7.52865 1.50944 7.76562 1.27246C8.0026 1.03548 8.2806 0.846354 8.59961 0.705078C8.91862 0.563802 9.26042 0.495443 9.625 0.5C9.98503 0.5 10.3245 0.568359 10.6436 0.705078C10.9626 0.841797 11.2406 1.02865 11.4775 1.26562C11.7145 1.5026 11.9036 1.78288 12.0449 2.10645C12.1862 2.43001 12.2546 2.76953 12.25 3.125C12.25 3.54427 12.1566 3.93848 11.9697 4.30762C11.7829 4.67676 11.5186 4.98665 11.1768 5.2373C11.6325 5.46517 12.0176 5.77506 12.332 6.16699C12.6465 6.55892 12.8698 7.00326 13.002 7.5H12.0859C11.9948 7.24023 11.8672 7.00326 11.7031 6.78906C11.5391 6.57487 11.3499 6.3903 11.1357 6.23535C10.9215 6.0804 10.6868 5.96191 10.4316 5.87988C10.1764 5.79785 9.90755 5.75456 9.625 5.75ZM9.625 1.375C9.38346 1.375 9.15788 1.42057 8.94824 1.51172C8.73861 1.60286 8.55176 1.72819 8.3877 1.8877C8.22363 2.0472 8.09831 2.23177 8.01172 2.44141C7.92513 2.65104 7.87956 2.87891 7.875 3.125C7.875 3.36654 7.92057 3.59212 8.01172 3.80176C8.10286 4.01139 8.22819 4.19824 8.3877 4.3623C8.5472 4.52637 8.73177 4.65169 8.94141 4.73828C9.15104 4.82487 9.37891 4.87044 9.625 4.875C9.86654 4.875 10.0921 4.82943 10.3018 4.73828C10.5114 4.64714 10.6982 4.52181 10.8623 4.3623C11.0264 4.2028 11.1517 4.01823 11.2383 3.80859C11.3249 3.59896 11.3704 3.37109 11.375 3.125C11.375 2.88346 11.3294 2.65788 11.2383 2.44824C11.1471 2.23861 11.0218 2.05176 10.8623 1.8877C10.7028 1.72363 10.5182 1.59831 10.3086 1.51172C10.099 1.42513 9.87109 1.37956 9.625 1.375ZM4.375 10.125C4.61654 10.125 4.84212 10.0794 5.05176 9.98828C5.26139 9.89714 5.44824 9.77181 5.6123 9.6123C5.77637 9.4528 5.90169 9.26823 5.98828 9.05859C6.07487 8.84896 6.12044 8.62109 6.125 8.375C6.125 8.13346 6.07943 7.9056 5.98828 7.69141C5.89714 7.47721 5.77409 7.29264 5.61914 7.1377C5.46419 6.98275 5.27734 6.85742 5.05859 6.76172C4.83984 6.66602 4.61198 6.62044 4.375 6.625C4.13346 6.625 3.90788 6.67057 3.69824 6.76172C3.48861 6.85286 3.30176 6.97819 3.1377 7.1377C2.97363 7.2972 2.84831 7.48177 2.76172 7.69141C2.67513 7.90104 2.62956 8.12891 2.625 8.375C2.625 8.61654 2.67057 8.84212 2.76172 9.05176C2.85286 9.26139 2.97819 9.44824 3.1377 9.6123C3.2972 9.77637 3.48177 9.90169 3.69141 9.98828C3.90104 10.0749 4.12891 10.1204 4.375 10.125Z" fill="black"/>
</g>
<defs>
<clipPath id="clip0_2879_1370">
<rect width="14" height="14" fill="white" transform="translate(0 0.5)"/>
</clipPath>
</defs>
</svg>
