<svg width="777" height="99" viewBox="0 0 777 99" fill="none" xmlns="http://www.w3.org/2000/svg">
<mask id="mask0_418_766" style="mask-type:luminance" maskUnits="userSpaceOnUse" x="0" y="0" width="100" height="99">
<path d="M99.4609 0H0.460938V99H99.4609V0Z" fill="white"/>
</mask>
<g mask="url(#mask0_418_766)">
<path d="M49.9601 98.4984C22.8954 98.4984 0.960938 76.6978 0.960938 49.8107C0.960938 22.9236 22.8954 1.12262 49.9601 1.12262C77.0249 1.12262 98.9609 22.9236 98.9609 49.8107C98.9609 76.6977 77.0249 98.4984 49.9601 98.4984Z" fill="#9B9B9B" stroke="#9B9B9B"/>
<path fill-rule="evenodd" clip-rule="evenodd" d="M28.1261 38.22L29.3479 34.4686C29.5964 33.7058 30.2023 33.112 30.9729 32.8779L34.7664 31.7186C35.2915 31.5592 35.2959 30.8231 34.7749 30.6552L30.9985 29.441C30.2322 29.1943 29.6346 28.592 29.3976 27.8263L28.2324 24.0566C28.0722 23.5363 27.3313 23.5305 27.1624 24.0497L25.9406 27.8008C25.6921 28.5625 25.0862 29.1561 24.3156 29.3917L20.5221 30.5496C19.9969 30.7102 19.9912 31.445 20.5136 31.6129L24.29 32.827C25.0563 33.0739 25.6539 33.6774 25.8909 34.4433L27.0561 38.2114C27.2163 38.7334 27.9572 38.7389 28.1261 38.22Z" fill="#FAFAFA"/>
<path fill-rule="evenodd" clip-rule="evenodd" d="M88.088 36.0366C86.5242 34.2987 84.0837 33.3204 81.7108 32.9191C79.319 32.5338 76.8109 32.5696 74.45 32.9864C69.6722 33.7895 65.3319 35.7552 61.5461 38.1803C59.5802 39.3705 57.9037 40.7478 56.1669 42.1502C55.3299 42.8597 54.567 43.615 53.7724 44.3595L51.6012 46.5062C49.2418 48.9569 46.9165 51.1889 44.6666 53.0388C42.4076 54.8804 40.2956 56.2791 38.2142 57.2558C36.134 58.2375 33.9085 58.8149 31.0074 58.9074C28.1318 59.0081 24.7298 58.4925 21.0908 57.6411C17.4321 56.7937 13.5901 55.5857 9.29688 54.5464C10.7949 58.6761 13.0507 62.3254 15.947 65.6615C18.8772 68.9396 22.5362 71.9278 27.2365 73.8928C31.8691 75.9015 37.6907 76.6218 43.1341 75.534C48.5918 74.4905 53.3812 71.9807 57.2527 69.0786C61.1341 66.1464 64.2742 62.806 66.9214 59.334C67.6521 58.3745 68.0387 57.8376 68.5676 57.0877L70.0294 54.9363C71.045 53.6055 71.9698 52.0902 72.9749 50.7715C74.9462 48.01 76.8897 45.2517 79.1479 42.7104C80.2846 41.4216 81.4833 40.1886 82.898 39.0038C83.6037 38.4254 84.3662 37.8596 85.2109 37.3497C86.068 36.7999 86.9735 36.3694 88.088 36.0366Z" fill="#6C6C6C"/>
<path fill-rule="evenodd" clip-rule="evenodd" d="M88.088 36.039C86.4082 31.8263 83.2847 28.2801 79.0923 25.6634C74.9256 23.0753 69.1384 21.7545 63.4032 22.8805C60.5704 23.4248 57.8255 24.4732 55.4168 25.8691C53.0191 27.2597 50.8704 28.9334 49.0102 30.729C48.0815 31.6299 47.2386 32.5694 46.4013 33.5145L44.231 36.2643L40.8789 40.6906C36.6053 46.3855 32.0033 53.0595 24.4514 55.0371C17.0374 56.9785 13.8219 55.2592 9.29688 54.5488C10.1243 56.6716 11.1491 58.7329 12.5385 60.5462C13.902 62.3965 15.5126 64.1344 17.5149 65.6237C18.5267 66.3391 19.5951 67.0452 20.7815 67.6441C21.9628 68.2227 23.2365 68.7319 24.596 69.1155C27.3004 69.852 30.3449 70.1098 33.2929 69.7138C36.2421 69.3228 39.061 68.3938 41.5252 67.1604C44.0075 65.9388 46.1698 64.4506 48.1005 62.8803C51.9388 59.7128 54.9242 56.2132 57.4459 52.6755C58.7143 50.9068 59.8659 49.1048 60.9307 47.3024L62.1841 45.1563C62.5672 44.529 62.9547 43.8978 63.3481 43.3099C64.9365 40.9484 66.4898 39.0547 68.3765 37.6335C70.2367 36.1752 72.8278 35.0981 76.2896 34.8476C79.737 34.5944 83.717 35.0622 88.088 36.039Z" fill="#CBCBCB"/>
<path fill-rule="evenodd" clip-rule="evenodd" d="M69.4375 71.0404C69.4375 74.1344 71.9634 76.6442 75.0767 76.6442C78.1909 76.6442 80.713 74.1344 80.713 71.0404C80.713 67.9459 78.1909 65.4366 75.0767 65.4366C71.9634 65.4366 69.4375 67.9459 69.4375 71.0404Z" fill="#9B9B9B"/>
</g>
<path d="M389.535 39.643V34.796C389.535 34.6039 389.383 34.4481 389.196 34.4481H362.238C362.05 34.4481 361.898 34.6039 361.898 34.796V39.643H372.854V70.9999H378.579V39.643H389.535Z" fill="#9B9B9B"/>
<path d="M332.818 34.4481C332.631 34.4481 332.48 34.6038 332.48 34.796V70.6516C332.48 70.8437 332.631 70.9999 332.818 70.9999H355.323C355.509 70.9999 355.66 70.8437 355.66 70.6516V65.8561H338.159V54.3688H352.618V49.3283H338.159V39.5915H354.413V34.796C354.413 34.6039 354.263 34.4481 354.076 34.4481H332.818Z" fill="#9B9B9B"/>
<path d="M318.598 70.7871L318.724 70.9999H323.217C323.409 70.9999 323.564 70.8437 323.564 70.6516V34.796C323.564 34.6039 323.409 34.4481 323.217 34.4481H317.818V59.7621C316.881 58.2658 315.792 56.6186 314.553 54.821C312.975 52.4816 311.277 50.1083 309.459 47.7013C307.676 45.2601 305.858 42.9045 304.006 40.6345C302.186 38.3284 300.467 36.3115 298.849 34.5851L298.72 34.4481H294.492C294.3 34.4481 294.145 34.6038 294.145 34.796V70.6516C294.145 70.8437 294.3 70.9999 294.492 70.9999H299.891V43.8817C300.629 44.7559 301.415 45.7246 302.248 46.7882C303.374 48.2254 304.535 49.7659 305.731 51.4097L305.732 51.4115L305.734 51.4133C306.928 53.0219 308.123 54.6992 309.319 56.4455L309.32 56.4478L309.322 56.4502C310.552 58.1973 311.73 59.927 312.857 61.6393L312.858 61.641L312.86 61.6427C313.986 63.3194 315.026 64.9446 315.981 66.5175L315.983 66.5202L315.985 66.5234C316.976 68.0995 317.847 69.5209 318.598 70.7871Z" fill="#9B9B9B"/>
<path d="M286.493 35.1761L286.625 35.0304C286.829 34.8071 286.671 34.4481 286.369 34.4481H279.96L279.83 34.599C278.98 35.5876 277.923 36.7493 276.658 38.0849C275.426 39.3875 274.109 40.7592 272.705 42.1995C271.303 43.6393 269.882 45.0792 268.446 46.519C267.296 47.6433 266.224 48.6795 265.228 49.6278V34.4481H259.722C259.53 34.4481 259.375 34.6038 259.375 34.796V70.6516C259.375 70.8437 259.53 70.9999 259.722 70.9999H265.228V54.4177C266.436 55.2105 267.672 56.1382 268.934 57.2016L268.936 57.2032L268.938 57.2047C270.466 58.4642 271.962 59.8436 273.425 61.3433L273.428 61.3469L273.432 61.3504C274.927 62.8149 276.338 64.3643 277.664 65.9991L277.665 66.0007L277.667 66.0028C278.992 67.6034 280.164 69.202 281.181 70.7989L281.309 70.9999H287.555C287.823 70.9999 287.99 70.7103 287.857 70.4783L287.782 70.3482C286.845 68.7134 285.668 66.9975 284.254 65.2001C282.875 63.4053 281.394 61.6458 279.811 59.921C278.227 58.196 276.608 56.5739 274.954 55.0549C273.456 53.6791 272.025 52.4977 270.66 51.5126C271.821 50.3777 273.051 49.1592 274.351 47.8568C275.791 46.4139 277.231 44.9539 278.671 43.4767C280.146 41.9651 281.551 40.5048 282.889 39.0959L282.891 39.094L282.893 39.0921C284.23 37.6497 285.43 36.3443 286.493 35.1761Z" fill="#9B9B9B"/>
<path fill-rule="evenodd" clip-rule="evenodd" d="M225.858 34.4488C225.658 34.4489 225.496 34.6034 225.496 34.794V70.6544C225.496 70.8454 225.658 70.9999 225.858 70.9999H231.033V57.815H238.592C239.442 58.7849 240.271 59.7998 241.08 60.8595L241.083 60.8636L241.086 60.8675C242.409 62.52 243.632 64.2437 244.754 66.0393L244.755 66.0409L244.756 66.043C245.773 67.6319 246.66 69.2011 247.418 70.7507L247.54 70.9999H253.663C253.925 70.9999 254.1 70.7423 253.992 70.5148C253.287 69.045 252.524 67.6054 251.677 66.2033C250.525 64.2437 249.261 62.3032 247.887 60.3825C247.101 59.2848 246.298 58.2185 245.479 57.1835C247.763 56.5183 249.57 55.3154 250.877 53.5695L250.878 53.5682C252.447 51.4552 253.225 48.9701 253.225 46.1318C253.225 44.1814 252.869 42.3967 252.148 40.7841C251.425 39.1481 250.337 37.7913 248.887 36.7208C247.448 35.6447 245.675 34.96 243.586 34.6529C243.099 34.5674 242.595 34.5161 242.077 34.4987C241.57 34.4656 241.128 34.4486 240.752 34.4486C239.165 34.4486 237.577 34.4485 235.99 34.4483C232.612 34.448 229.236 34.4478 225.858 34.4488ZM247.584 46.1318C247.584 47.0738 247.42 48.0008 247.089 48.9145C246.765 49.792 246.249 50.5613 245.535 51.2259C244.859 51.8553 243.967 52.3017 242.837 52.5515C242.478 52.6289 242.093 52.6839 241.679 52.7154L241.678 52.7155L241.677 52.7156C241.27 52.7479 240.91 52.7636 240.596 52.7636H231.033V39.5H240.596C240.91 39.5 241.27 39.5157 241.677 39.5481L241.687 39.5488L241.697 39.5492C242.1 39.5645 242.473 39.6181 242.819 39.7078L242.83 39.7108L242.842 39.7132C243.967 39.9464 244.856 40.3911 245.531 41.0341L245.533 41.0359L245.535 41.0376C246.248 41.7012 246.764 42.4782 247.089 43.3728V43.3739L247.089 43.375C247.419 44.2712 247.584 45.1895 247.584 46.1318Z" fill="#9B9B9B"/>
<path fill-rule="evenodd" clip-rule="evenodd" d="M212.93 66.174L212.931 66.1756L212.931 66.1772C213.455 67.6568 214.013 69.1705 214.607 70.7183L214.715 70.9999H220.685C220.93 70.9999 221.101 70.7599 221.017 70.5327C219.713 67.0023 218.396 63.4762 217.053 59.9602C215.833 56.7312 214.63 53.6733 213.444 50.7866C212.293 47.8998 211.142 45.1498 209.991 42.5367C208.835 39.8809 207.62 37.2515 206.354 34.6455C206.295 34.5248 206.171 34.4481 206.035 34.4481H201.273C201.137 34.4481 201.013 34.5248 200.955 34.6455C199.688 37.2515 198.473 39.8811 197.318 42.537C196.166 45.1491 194.998 47.8982 193.813 50.7843L193.812 50.7864L193.811 50.7885C192.66 53.6743 191.475 56.7315 190.255 59.96C188.912 63.4762 187.595 67.0023 186.291 70.5327C186.207 70.7599 186.378 70.9999 186.623 70.9999H192.338L192.45 70.9994L192.581 70.8607C193.96 69.4025 195.501 67.9709 197.205 66.5671L197.207 66.566L197.208 66.5644C198.919 65.1254 200.703 63.7909 202.559 62.5604L202.563 62.5578L202.567 62.5546C204.396 61.2816 206.236 60.1393 208.088 59.1273L208.09 59.1261L208.092 59.1249C208.759 58.7509 209.416 58.4025 210.062 58.0796L211.311 61.5959L211.313 61.5985C211.869 63.1411 212.408 64.6662 212.93 66.174ZM206.507 48.8358L206.508 48.8388L206.509 48.8418C207.012 50.0961 207.515 51.3714 208.018 52.6678C207.981 52.6841 207.942 52.7011 207.903 52.7186C206.134 53.5128 204.232 54.5394 202.198 55.7963C200.251 56.9996 198.319 58.3069 196.402 59.7181L197.214 57.4349C198.287 54.4674 199.361 51.602 200.434 48.8388C201.421 46.3467 202.449 43.9497 203.518 41.6478C204.555 43.9488 205.551 46.3448 206.507 48.8358Z" fill="#9B9B9B"/>
<path d="M187.164 39.643V34.796C187.164 34.6039 187.012 34.4481 186.824 34.4481H159.867C159.679 34.4481 159.527 34.6039 159.527 34.796V39.643H170.483V70.6516C170.483 70.8437 170.635 70.9999 170.823 70.9999H175.868C176.056 70.9999 176.208 70.8437 176.208 70.6516V39.643H187.164Z" fill="#9B9B9B"/>
<path d="M133.689 69.666L133.687 69.6655C131.555 68.7738 129.781 67.5007 128.375 65.8453L128.373 65.8432L128.371 65.8416C126.979 64.1652 126.075 62.1887 125.655 59.9226C125.635 59.8093 125.661 59.6924 125.729 59.5984C125.797 59.5045 125.9 59.4414 126.016 59.4235L130.707 58.6984C130.929 58.6641 131.141 58.8009 131.196 59.0144C131.767 61.1866 132.94 62.8727 134.718 64.0949C136.524 65.3066 138.653 65.9187 141.123 65.9187C142.726 65.9187 144.158 65.6758 145.426 65.198C146.708 64.7039 147.704 64.0109 148.43 63.1276C149.145 62.259 149.506 61.2302 149.506 60.0211C149.506 59.2704 149.37 58.6559 149.119 58.1621C149.116 58.1577 149.114 58.1532 149.112 58.1487C148.867 57.6226 148.525 57.1832 148.084 56.8252C148.08 56.8218 148.075 56.8184 148.072 56.8148C147.629 56.4271 147.12 56.0993 146.544 55.8324C145.955 55.5594 145.341 55.3342 144.701 55.1572L144.695 55.1556L135.339 52.4299C134.298 52.1235 133.291 51.7403 132.318 51.2805L132.316 51.2792L132.313 51.2777C131.325 50.7935 130.441 50.1953 129.661 49.4829L129.659 49.4806L129.657 49.4794C128.867 48.7394 128.24 47.8597 127.777 46.8447L127.776 46.8422C127.304 45.793 127.076 44.5733 127.076 43.1943C127.076 40.9837 127.658 39.0748 128.843 37.4908L128.843 37.4901C130.032 35.9054 131.636 34.7013 133.638 33.8742C135.638 33.0484 137.881 32.6486 140.362 32.6656C142.875 32.6826 145.136 33.1248 147.136 34.002C149.151 34.8618 150.823 36.1032 152.143 37.7258C153.483 39.3518 154.376 41.2922 154.83 43.5361C154.853 43.6491 154.829 43.7663 154.762 43.8613C154.696 43.9562 154.593 44.021 154.478 44.0408L149.66 44.8658C149.546 44.8854 149.429 44.8595 149.334 44.794C149.239 44.7283 149.175 44.6285 149.156 44.5163C148.912 43.1162 148.372 41.9286 147.541 40.9414L147.536 40.9356C146.715 39.9245 145.685 39.1498 144.439 38.6101L144.435 38.6083C143.186 38.0516 141.811 37.7625 140.303 37.7465H140.302C138.857 37.7304 137.565 37.956 136.419 38.4148C135.271 38.875 134.375 39.51 133.714 40.3128L133.711 40.316C133.062 41.0883 132.74 41.9752 132.74 42.9943C132.74 44.0063 133.034 44.7868 133.591 45.3769C134.191 45.9968 134.93 46.4973 135.813 46.8758C136.749 47.2529 137.658 47.5634 138.54 47.8083L138.542 47.8088L145.524 49.7834C146.337 50.0043 147.267 50.3085 148.311 50.6944C149.403 51.0921 150.457 51.6524 151.47 52.3725C152.514 53.0967 153.371 54.0637 154.045 55.2629C154.737 56.4778 155.068 57.9885 155.068 59.771C155.068 61.5627 154.699 63.1732 153.95 64.5916C153.222 66.0011 152.201 67.1849 150.891 68.1401L150.888 68.1422C149.585 69.0749 148.076 69.7788 146.368 70.2577C144.659 70.7534 142.834 70.9999 140.894 70.9999C138.244 70.9999 135.84 70.5583 133.689 69.666Z" fill="#9B9B9B"/>
<g clip-path="url(#clip0_418_766)">
<path d="M617.07 29.1706H641.288V33.9311H621.986V48.3099H639.418V53.0026H621.986V71.2144H617.07V29.1706Z" fill="#9B9B9B"/>
<path d="M646.406 29.1706H651.381V71.1847H646.406V29.1706Z" fill="#9B9B9B"/>
<path d="M659.842 68.9569C657.95 66.8449 657.004 63.8901 657.004 60.0925V41.2624H661.974V59.3344C661.974 62.1946 662.619 64.2882 663.908 65.6153C665.198 66.9424 666.932 67.6073 669.111 67.6101C670.705 67.6358 672.267 67.1652 673.583 66.2633C674.883 65.3722 675.931 64.1581 676.623 62.7395C677.342 61.3214 677.714 59.752 677.709 58.1612V41.2624H682.683V71.189H677.941V66.8647H677.709C676.777 68.4606 675.418 69.7622 673.786 70.6214C672.04 71.6251 670.063 72.1509 668.051 72.1461C664.476 72.132 661.739 71.069 659.842 68.9569Z" fill="#9B9B9B"/>
<path d="M697.265 71.5235C696.298 71.1681 695.411 70.6208 694.66 69.9141C693.892 69.1754 693.294 68.2779 692.907 67.284C692.486 66.1158 692.287 64.879 692.32 63.6374V45.7814H687.113V41.2623H692.32V32.8129H697.29V41.2623H704.545V45.7814H697.29V62.4557C697.29 64.1499 697.603 65.3739 698.228 66.1743C698.968 67.0553 700.041 67.4957 701.446 67.4957C702.611 67.4853 703.749 67.1383 704.723 66.4962V71.3668C704.153 71.6337 703.553 71.8313 702.936 71.9555C702.173 72.0836 701.4 72.1417 700.626 72.1292C699.478 72.1358 698.339 71.9305 697.265 71.5235Z" fill="#9B9B9B"/>
<path d="M717.819 71.5235C716.854 71.1671 715.969 70.6198 715.218 69.9141C714.449 69.1756 713.85 68.2781 713.461 67.284C713.042 66.1155 712.845 64.8787 712.879 63.6374V45.7814H707.672V41.2623H712.879V32.8129H717.849V41.2623H725.104V45.7814H717.849V62.4557C717.849 64.1499 718.161 65.3739 718.782 66.1743C719.525 67.0553 720.6 67.4957 722.004 67.4957C723.168 67.4857 724.305 67.1386 725.277 66.4962V71.3668C724.709 71.6342 724.11 71.8319 723.495 71.9555C722.73 72.0835 721.956 72.1416 721.181 72.1292C720.033 72.1342 718.894 71.929 717.819 71.5235Z" fill="#9B9B9B"/>
<path d="M734.639 70.0708C732.388 68.7095 730.557 66.7496 729.348 64.4082C728.054 61.8968 727.399 59.1032 727.443 56.2765C727.415 53.5144 728.025 50.7833 729.226 48.2972C730.36 45.9379 732.112 43.9313 734.293 42.4906C736.555 41.0243 739.202 40.2691 741.894 40.3221C744.56 40.255 747.192 40.9341 749.495 42.2831C751.631 43.5796 753.35 45.4662 754.445 47.7169C755.631 50.1863 756.223 52.9006 756.172 55.6412C756.18 56.1551 756.121 56.6678 755.994 57.1659H732.418C732.465 59.1926 733.03 61.1732 734.061 62.9174C734.954 64.4088 736.238 65.6261 737.773 66.4369C739.223 67.2084 740.84 67.6113 742.481 67.6101C746.304 67.6101 749.249 65.8115 751.315 62.2144L755.538 64.2685C754.327 66.6146 752.521 68.5997 750.302 70.0242C748.098 71.436 745.436 72.1419 742.316 72.1419C739.616 72.1774 736.958 71.4604 734.639 70.0708ZM750.902 53.0534C750.806 51.7426 750.447 50.4647 749.846 49.2967C749.168 47.9892 748.146 46.8933 746.89 46.1287C745.36 45.2184 743.6 44.7699 741.822 44.8369C739.624 44.7824 737.493 45.5944 735.885 47.0986C734.218 48.6928 733.101 50.7789 732.697 53.0534H750.902Z" fill="#9B9B9B"/>
<path d="M759.391 41.2624H764.133V46.0736H764.365C765 44.3628 766.19 42.9157 767.743 41.9654C769.298 40.9058 771.13 40.3324 773.009 40.3179C774.211 40.289 775.406 40.5096 776.519 40.9659V46.3066C775.204 45.6668 773.757 45.3462 772.296 45.3706C770.875 45.3644 769.487 45.7945 768.318 46.6031C767.1 47.4533 766.113 48.5945 765.446 49.9235C764.726 51.3135 764.354 52.859 764.365 54.4256V71.1889H759.395V41.2624H759.391Z" fill="#9B9B9B"/>
<path d="M540.582 60.5795L529.535 49.5L565.43 13.5H587.519L540.582 60.5795Z" fill="#9B9B9B"/>
<path d="M557.148 77.1946L565.429 85.5H587.519L568.187 66.1193L557.148 77.1946Z" fill="#9B9B9B"/>
<path d="M557.148 77.1946L573.529 71.5066L568.187 66.1193L557.148 77.1946Z" fill="#1A237E"/>
<path d="M557.148 55.0416L546.105 66.1164L557.148 77.1912L568.19 66.1164L557.148 55.0416Z" fill="#9B9B9B"/>
<path d="M587.519 46.7344L568.196 66.1151L587.519 85.5H565.43L557.149 77.1946L546.101 66.1151L565.43 46.7344H587.519ZM565.43 13.5L529.535 49.5L540.582 60.5795L587.519 13.5H565.43Z" fill="#9B9B9B"/>
</g>
<defs>
<clipPath id="clip0_418_766">
<rect width="247" height="72" fill="white" transform="translate(529.535 13.5)"/>
</clipPath>
</defs>
</svg>
