<svg width="39" height="39" viewBox="0 0 39 39" fill="none" xmlns="http://www.w3.org/2000/svg">
<g id="Group 1171276038">
<path id="Vector" d="M19.5 39C30.3063 39 39 30.3063 39 19.5C39 8.69369 30.3063 0 19.5 0C8.69369 0 0 8.69369 0 19.5C0 30.3063 8.69369 39 19.5 39Z" fill="#A9A9A9"/>
<path id="Vector_2" d="M24.8312 22.6022C24.8312 19.7597 23.1258 18.7851 19.715 18.3791C17.2787 18.0542 16.7915 17.4045 16.7915 16.2674C16.7915 15.1302 17.6037 14.3995 19.2278 14.3995C20.6896 14.3995 21.5017 14.8868 21.9077 16.105C21.989 16.3487 22.2326 16.511 22.4762 16.511H23.7755C24.1004 16.511 24.344 16.2674 24.344 15.9426V15.8614C24.0191 14.0746 22.5573 12.694 20.6896 12.5316V10.5824C20.6896 10.2575 20.4459 10.0138 20.0399 9.93256H18.8218C18.4969 9.93256 18.2533 10.1762 18.172 10.5824V12.4503C15.7357 12.7752 14.1928 14.3995 14.1928 16.4299C14.1928 19.1101 15.817 20.1657 19.2278 20.5719C21.5017 20.9779 22.2326 21.4652 22.2326 22.7648C22.2326 24.0643 21.0955 24.9576 19.5527 24.9576C17.4411 24.9576 16.7102 24.0641 16.4666 22.8458C16.3855 22.5211 16.1419 22.3585 15.8982 22.3585H14.5176C14.1928 22.3585 13.9492 22.6022 13.9492 22.9271V23.0084C14.2739 25.0387 15.5733 26.5005 18.2533 26.9068V28.8559C18.2533 29.1807 18.4969 29.4243 18.9029 29.5056H20.121C20.4459 29.5056 20.6896 29.2619 20.7708 28.8559V26.9068C23.2071 26.5005 24.8312 24.795 24.8312 22.6022Z" fill="white"/>
<path id="Vector_3" d="M15.3521 31.1328C9.00804 28.8575 5.75463 21.7873 8.11344 15.5297C9.33344 12.1165 12.0175 9.51609 15.3521 8.29709C15.6775 8.13463 15.8401 7.89083 15.8401 7.48437V6.3467C15.8401 6.02157 15.6775 5.77778 15.3521 5.69664C15.2707 5.69664 15.1081 5.69664 15.0267 5.77778C7.30003 8.21576 3.07062 16.4238 5.51063 24.144C6.97463 28.6948 10.472 32.1894 15.0267 33.6522C15.3521 33.8146 15.6775 33.6522 15.7587 33.327C15.8401 33.2459 15.8401 33.1646 15.8401 33.0021V31.8642C15.8401 31.6204 15.5961 31.2955 15.3521 31.1328ZM23.9735 5.77778C23.6481 5.61531 23.3227 5.77778 23.2415 6.10291C23.1601 6.18424 23.1601 6.26537 23.1601 6.42804V7.5657C23.1601 7.89083 23.4041 8.21576 23.6481 8.37843C29.9921 10.6537 33.2455 17.7239 30.8867 23.9815C29.6667 27.3947 26.9827 29.9952 23.6481 31.2142C23.3227 31.3766 23.1601 31.6204 23.1601 32.0269V33.1646C23.1601 33.4897 23.3227 33.7335 23.6481 33.8146C23.7295 33.8146 23.8921 33.8146 23.9735 33.7335C31.7001 31.2955 35.9296 23.0875 33.4896 15.3673C32.0255 10.7351 28.4467 7.24057 23.9735 5.77778Z" fill="white"/>
</g>
</svg>
