<svg xmlns="http://www.w3.org/2000/svg" width="23" height="23" viewBox="0 0 23 23" fill="none">
  <path d="M11.5 23C17.873 23 23 17.873 23 11.5C23 5.12705 17.873 0 11.5 0C5.12705 0 0 5.12705 0 11.5C0 17.873 5.12705 23 11.5 23Z" fill="#2775CA"/>
  <path d="M14.6442 13.3297C14.6442 11.6534 13.6384 11.0787 11.6269 10.8392C10.1901 10.6476 9.90277 10.2645 9.90277 9.59383C9.90277 8.9232 10.3817 8.49225 11.3396 8.49225C12.2016 8.49225 12.6806 8.77963 12.92 9.49808C12.968 9.64176 13.1116 9.73752 13.2553 9.73752H14.0215C14.2131 9.73752 14.3568 9.59383 14.3568 9.40232V9.35439C14.1652 8.30063 13.3031 7.48643 12.2016 7.39067V6.24116C12.2016 6.04953 12.058 5.90584 11.8185 5.85791H11.1001C10.9085 5.85791 10.7648 6.0016 10.7169 6.24116V7.34274C9.28013 7.53436 8.37024 8.49225 8.37024 9.6897C8.37024 11.2703 9.32806 11.8929 11.3396 12.1324C12.6806 12.3719 13.1116 12.6592 13.1116 13.4256C13.1116 14.192 12.4411 14.7188 11.5312 14.7188C10.2859 14.7188 9.85484 14.1919 9.71116 13.4734C9.66335 13.2819 9.51967 13.1861 9.37599 13.1861H8.56174C8.37024 13.1861 8.22656 13.3297 8.22656 13.5214V13.5693C8.41806 14.7666 9.18438 15.6288 10.7648 15.8683V17.0178C10.7648 17.2094 10.9085 17.353 11.1479 17.401H11.8663C12.058 17.401 12.2016 17.2573 12.2496 17.0178V15.8683C13.6863 15.6288 14.6442 14.623 14.6442 13.3297Z" fill="white"/>
  <path d="M9.05381 18.3602C5.31246 17.0183 3.39378 12.8488 4.78487 9.15837C5.50436 7.14547 7.08724 5.61187 9.05381 4.89298C9.24571 4.79716 9.34161 4.65338 9.34161 4.41368V3.74275C9.34161 3.551 9.24571 3.40722 9.05381 3.35938C9.00581 3.35938 8.90991 3.35937 8.86191 3.40722C4.30517 4.84501 1.8109 9.68564 3.24988 14.2386C4.11327 16.9224 6.17585 18.9833 8.86191 19.846C9.05381 19.9418 9.24571 19.846 9.2936 19.6542C9.34161 19.6064 9.34161 19.5584 9.34161 19.4626V18.7915C9.34161 18.6478 9.19771 18.4561 9.05381 18.3602ZM14.1382 3.40722C13.9463 3.31141 13.7544 3.40722 13.7066 3.59897C13.6585 3.64693 13.6585 3.69478 13.6585 3.79071V4.46164C13.6585 4.65338 13.8024 4.84501 13.9463 4.94094C17.6877 6.2828 19.6064 10.4524 18.2153 14.1428C17.4958 16.1557 15.9129 17.6893 13.9463 18.4082C13.7544 18.504 13.6585 18.6478 13.6585 18.8875V19.5584C13.6585 19.7501 13.7544 19.8939 13.9463 19.9418C13.9943 19.9418 14.0902 19.9418 14.1382 19.8939C18.695 18.4561 21.1893 13.6155 19.7503 9.06256C18.8869 6.33076 16.7763 4.2699 14.1382 3.40722Z" fill="white"/>
</svg>