<svg width="20" height="15" viewBox="0 0 20 15" fill="none" xmlns="http://www.w3.org/2000/svg">
<path d="M8.44609 2.45563H14.5687V0.298465C14.5687 0.133504 14.7047 0 14.8723 0C14.957 0 15.0332 0.0337596 15.0883 0.0882353L19.8953 4.17737C20.0219 4.28478 20.0355 4.47276 19.9262 4.59667C19.916 4.60857 19.9047 4.61931 19.893 4.62928L15.0707 8.73107C14.9441 8.83849 14.7527 8.82468 14.6434 8.70077C14.5957 8.64681 14.5694 8.57772 14.5695 8.50627L14.5687 6.34872H8.44609C8.27851 6.34872 8.14258 6.21522 8.14258 6.05064V2.75371C8.14258 2.58913 8.27851 2.45563 8.44609 2.45563ZM5.43125 8.65205H11.5539C11.7215 8.65205 11.8574 8.78555 11.8574 8.95051V12.2471C11.8574 12.4116 11.7215 12.5451 11.5539 12.5451H5.43125V14.7027C5.43047 14.7717 5.40625 14.8412 5.35664 14.8972C5.33064 14.9267 5.29897 14.9509 5.26344 14.9684C5.2279 14.986 5.18921 14.9964 5.14956 14.9992C5.10991 15.002 5.07008 14.9972 5.03235 14.9848C4.99463 14.9725 4.95974 14.953 4.92969 14.9275L0.107031 10.8257C0.0953127 10.8157 0.0843752 10.805 0.0738283 10.7931C0.0478067 10.7636 0.0279625 10.7293 0.0154298 10.6923C0.00289706 10.6552 -0.00207856 10.6161 0.00078729 10.5772C0.00365314 10.5382 0.0143043 10.5002 0.032132 10.4653C0.0499598 10.4304 0.0746147 10.3993 0.104688 10.3738L4.91211 6.28504C4.94021 6.25689 4.97377 6.23454 5.0108 6.21932C5.04783 6.2041 5.08759 6.19632 5.12773 6.19642C5.29531 6.19642 5.43125 6.32992 5.43125 6.49488V8.65205Z" fill="white"/>
</svg>
