<svg width="21" height="21" viewBox="0 0 21 21" fill="none" xmlns="http://www.w3.org/2000/svg">
<path d="M13.5848 1.73832C13.6166 1.79226 13.5745 1.85893 13.5119 1.85893C12.2437 1.85893 11.2128 2.86296 11.1886 4.11058C10.7544 4.02951 10.3045 4.02342 9.85998 4.09831C9.82927 2.85638 8.80099 1.85893 7.537 1.85893C7.47434 1.85893 7.43217 1.79221 7.464 1.73823C8.07788 0.698586 9.2186 0 10.5244 0C11.8302 0 12.9709 0.698624 13.5848 1.73832Z" fill="url(#paint0_linear_3490_3819)"/>
<path d="M17.5875 9.52957C17.9073 9.62642 18.2102 9.34574 18.1033 9.02914C16.9891 5.72886 13.2943 4.38306 10.5065 4.38306C7.7141 4.38306 3.93683 5.77158 2.9106 9.04392C2.812 9.35838 3.11394 9.62957 3.429 9.53306L10.2583 7.44036C10.3977 7.39765 10.5467 7.3974 10.6862 7.43969L17.5875 9.52957Z" fill="url(#paint1_linear_3490_3819)"/>
<path d="M2.92792 10.0559L10.2634 7.83115C10.4019 7.78915 10.5499 7.78902 10.6885 7.83081L18.0696 10.057C18.6798 10.241 19.0973 10.8031 19.0973 11.4404V18.0802C19.069 19.7009 17.613 21 15.9928 21H13.3017C13.0357 21 12.8203 20.7848 12.8203 20.5188V18.1908C12.8203 17.2741 13.3628 16.4445 14.2023 16.0773C15.3277 15.585 16.659 14.9192 16.9094 13.5831C16.9902 13.1518 16.709 12.7358 16.2788 12.6503C15.1912 12.4341 13.9854 12.5176 12.9657 12.9737C11.8081 13.4914 11.5053 14.3527 11.3932 15.5093L11.2573 16.7554C11.2158 17.1362 10.8588 17.428 10.4759 17.428C10.0797 17.428 9.78272 17.1263 9.73976 16.7323L9.60641 15.5093C9.5104 14.5186 9.33635 13.5562 8.31214 13.0981C7.14382 12.5756 5.96975 12.4021 4.7208 12.6503C4.29064 12.7358 4.00945 13.1518 4.09027 13.5831C4.34284 14.9308 5.6637 15.5814 6.79728 16.0773C7.63682 16.4445 8.17933 17.2741 8.17933 18.1908V20.5184C8.17933 20.7844 7.96396 21 7.69797 21H5.00682C3.3866 21 1.93064 19.7009 1.90234 18.0802V11.4387C1.90234 10.8021 2.31883 10.2406 2.92792 10.0559Z" fill="url(#paint2_linear_3490_3819)"/>
<defs>
<linearGradient id="paint0_linear_3490_3819" x1="10.3317" y1="-1.134" x2="17.8711" y2="21.0998" gradientUnits="userSpaceOnUse">
<stop stop-color="#F5D45E"/>
<stop offset="1" stop-color="#FF9600"/>
</linearGradient>
<linearGradient id="paint1_linear_3490_3819" x1="10.3312" y1="-1.13398" x2="17.8706" y2="21.0998" gradientUnits="userSpaceOnUse">
<stop stop-color="#F5D45E"/>
<stop offset="1" stop-color="#FF9600"/>
</linearGradient>
<linearGradient id="paint2_linear_3490_3819" x1="10.3312" y1="-1.134" x2="17.8707" y2="21.0998" gradientUnits="userSpaceOnUse">
<stop stop-color="#F5D45E"/>
<stop offset="1" stop-color="#FF9600"/>
</linearGradient>
</defs>
</svg>
