<svg width="33" height="33" viewBox="0 0 33 33" fill="none" xmlns="http://www.w3.org/2000/svg">
<path d="M16.056 22.7006C16.4338 22.7006 16.7507 22.5726 17.0067 22.3166C17.2627 22.0606 17.3902 21.7442 17.3893 21.3673C17.3884 20.9904 17.2604 20.674 17.0053 20.418C16.7502 20.162 16.4338 20.034 16.056 20.034C15.6782 20.034 15.3618 20.162 15.1067 20.418C14.8515 20.674 14.7235 20.9904 14.7227 21.3673C14.7218 21.7442 14.8498 22.0611 15.1067 22.318C15.3635 22.5748 15.68 22.7024 16.056 22.7006ZM14.7227 17.3673L17.3893 17.3673L17.3893 9.36729L14.7227 9.36729L14.7227 17.3673ZM16.056 29.3673C14.2115 29.3673 12.4782 29.0171 10.856 28.3166C9.23377 27.6162 7.82266 26.6664 6.62266 25.4673C5.42266 24.2682 4.47288 22.8571 3.77332 21.234C3.07377 19.6108 2.72355 17.8775 2.72266 16.034C2.72177 14.1904 3.07199 12.4571 3.77332 10.834C4.47466 9.21084 5.42444 7.79973 6.62266 6.60062C7.82088 5.40151 9.23199 4.45173 10.856 3.75129C12.48 3.05084 14.2133 2.70062 16.056 2.70062C17.8987 2.70062 19.632 3.05084 21.256 3.75129C22.88 4.45173 24.2911 5.40151 25.4893 6.60062C26.6875 7.79973 27.6378 9.21084 28.34 10.834C29.0422 12.4571 29.392 14.1904 29.3893 16.034C29.3867 17.8775 29.0364 19.6108 28.3387 21.234C27.6409 22.8571 26.6911 24.2682 25.4893 25.4673C24.2875 26.6664 22.8764 27.6166 21.256 28.318C19.6355 29.0193 17.9022 29.3691 16.056 29.3673Z" fill="#EEBE5A"/>
</svg>
