<svg width="14" height="15" viewBox="0 0 14 15" fill="none" xmlns="http://www.w3.org/2000/svg">
<g id="withdraw 1">
<g id="Group">
<path id="Vector" fill-rule="evenodd" clip-rule="evenodd" d="M13.4166 2.83331C13.4166 1.86682 12.6331 1.08331 11.6666 1.08331H2.33325C1.36676 1.08331 0.583252 1.86682 0.583252 2.83331V8.66665C0.583252 9.63317 1.36676 10.4166 2.33325 10.4166H2.91659C3.23875 10.4166 3.49992 10.1555 3.49992 9.83331C3.49992 9.51114 3.23875 9.24998 2.91659 9.24998H2.33325C2.01109 9.24998 1.74992 8.98882 1.74992 8.66665V5.16665H12.2499V8.66665C12.2499 8.98882 11.9888 9.24998 11.6666 9.24998H11.0833C10.7611 9.24998 10.4999 9.51114 10.4999 9.83331C10.4999 10.1555 10.7611 10.4166 11.0833 10.4166H11.6666C12.6331 10.4166 13.4166 9.63317 13.4166 8.66665V2.83331ZM12.2499 3.99998V2.83331C12.2499 2.51115 11.9888 2.24998 11.6666 2.24998H2.33325C2.01109 2.24998 1.74992 2.51114 1.74992 2.83331V3.99998H12.2499Z" fill="black"/>
<path id="Vector_2" d="M7.58316 13.3333C7.58316 13.6555 7.322 13.9166 6.99983 13.9166C6.67765 13.9166 6.4165 13.6555 6.4165 13.3333V10.0707L5.66233 10.8247C5.43449 11.0526 5.06518 11.0526 4.83735 10.8247C4.60956 10.5971 4.60956 10.2276 4.83735 9.99991L6.58706 8.25382C6.81491 8.02638 7.18393 8.02661 7.4116 8.25423L9.16108 10.0038C9.38893 10.2316 9.38893 10.6009 9.16108 10.8288C8.93329 11.0565 8.56392 11.0565 8.33613 10.8288L7.58316 10.0758V13.3333Z" fill="black"/>
</g>
</g>
</svg>
