<svg width="9" height="13" viewBox="0 0 9 13" fill="none" xmlns="http://www.w3.org/2000/svg">
<path id="Vector" d="M9 7.68045C9 10.0709 7.05511 12.0156 4.66486 12.0156H3.1303C2.876 12.0156 2.66993 11.8095 2.66993 11.5552V11.4018C2.66993 11.1474 2.87598 10.9414 3.1303 10.9414H4.66486C6.46287 10.9414 7.92581 9.47846 7.92581 7.68045C7.92581 5.88244 6.46287 4.4195 4.66486 4.4195H1.83368L3.78352 6.36933C3.99294 6.57868 3.99294 6.91948 3.78352 7.12883C3.58031 7.33189 3.22665 7.33158 3.02389 7.12883L0.157345 4.26221C0.0559051 4.16076 0 4.02588 0 3.88238C0 3.73898 0.0559051 3.60402 0.157345 3.50263L3.02404 0.635883C3.2268 0.432977 3.58076 0.432977 3.78354 0.635883C3.99296 0.845178 3.99296 1.18603 3.78354 1.3953L1.83371 3.34529H4.66486C7.05511 3.34529 9 5.2901 9 7.68045Z" fill="white"/>
</svg>
