<svg width="44" height="44" viewBox="0 0 44 44" fill="none" xmlns="http://www.w3.org/2000/svg">
<path d="M44 22C44 34.1503 34.1503 44 22 44C9.84974 44 0 34.1503 0 22C0 9.84974 9.84974 0 22 0C34.1503 0 44 9.84974 44 22Z" fill="#46464D"/>
<path d="M10.831 10.7754L19.7453 22.782L10.7014 32.4888L12.7299 32.4957L20.6486 23.9977L26.9937 32.5443L33.8956 32.5677L24.4803 19.8857L32.8988 10.8505L30.8702 10.8436L23.5783 18.6701L17.7343 10.7989L10.831 10.7754ZM13.8082 12.2799L16.9782 12.2907L30.9157 31.0633L27.7457 31.0525L13.8082 12.2799Z" fill="white"/>
</svg>
