<svg width="399" height="398" viewBox="0 0 399 398" fill="none" xmlns="http://www.w3.org/2000/svg">
<path d="M241.136 296.911C238.046 296.911 234.771 296.004 231.379 294.224L206.724 281.259C203.365 279.495 198.545 278.487 193.507 278.487C188.469 278.487 183.632 279.495 180.273 281.259L155.619 294.224C152.226 296.004 148.935 296.911 145.861 296.911C141.78 296.911 138.169 295.299 135.684 292.36C133.568 289.857 131.317 285.239 132.644 277.53L137.346 250.088C138.69 242.245 134.878 230.489 129.168 224.93L109.216 205.482C101.86 198.311 102.498 191.895 103.539 188.704C104.58 185.513 107.839 179.938 117.982 178.476L145.542 174.479C153.419 173.337 163.411 166.065 166.938 158.928L179.265 133.954C183.8 124.751 190.115 123.374 193.474 123.374C196.832 123.374 203.13 124.751 207.682 133.954L220.009 158.928C223.536 166.065 233.528 173.337 241.405 174.479L268.965 178.476C279.125 179.954 282.383 185.53 283.408 188.704C284.449 191.895 285.087 198.311 277.731 205.482L257.796 224.93C252.103 230.489 248.274 242.245 249.617 250.088L254.32 277.53C255.647 285.239 253.396 289.841 251.28 292.36C248.811 295.299 245.184 296.911 241.103 296.911H241.136Z" fill="url(#paint0_radial_3158_3624)"/>
<path d="M280.239 189.748C279.45 187.296 276.864 183.013 268.5 181.804L240.94 177.807C231.972 176.497 221.022 168.536 217.008 160.424L204.681 135.451C200.936 127.877 196.066 126.751 193.496 126.751C190.927 126.751 186.039 127.877 182.311 135.451L169.984 160.424C165.97 168.553 155.02 176.513 146.052 177.807L118.492 181.804C110.128 183.013 107.542 187.312 106.753 189.748C105.963 192.2 105.527 197.187 111.573 203.082L131.524 222.53C138.007 228.845 142.189 241.726 140.661 250.661L135.958 278.103C134.85 284.535 136.596 288.23 138.259 290.195C140.106 292.395 142.743 293.554 145.867 293.554C148.403 293.554 151.157 292.782 154.063 291.253L178.717 278.288C182.529 276.273 187.92 275.131 193.513 275.131C199.105 275.131 204.48 276.289 208.309 278.288L232.963 291.253C235.868 292.782 238.623 293.554 241.159 293.554C244.283 293.554 246.902 292.395 248.767 290.195C250.429 288.23 252.176 284.535 251.067 278.103L246.365 250.661C244.837 241.726 249.019 228.845 255.501 222.53L275.436 203.082C281.482 197.187 281.062 192.2 280.256 189.748H280.239Z" fill="url(#paint1_radial_3158_3624)"/>
<mask id="mask0_3158_3624" style="mask-type:luminance" maskUnits="userSpaceOnUse" x="109" y="130" width="169" height="161">
<path d="M201.673 136.925C197.172 127.806 189.816 127.806 185.315 136.925L172.988 161.899C168.487 171.018 156.58 179.667 146.537 181.129L118.977 185.126C108.917 186.587 106.65 193.59 113.922 200.677L133.874 220.125C141.146 227.213 145.697 241.219 143.984 251.229L139.282 278.671C137.569 288.68 143.514 293.013 152.516 288.277L177.17 275.312C186.155 270.593 200.884 270.576 209.869 275.312L234.523 288.277C243.508 293.013 249.47 288.68 247.757 278.671L243.055 251.229C241.342 241.219 245.876 227.213 253.165 220.125L273.117 200.677C280.389 193.59 278.121 186.587 268.062 185.126L240.502 181.129C230.442 179.667 218.535 171.018 214.051 161.899L201.723 136.925H201.673Z" fill="white"/>
</mask>
<g mask="url(#mask0_3158_3624)">
<path style="mix-blend-mode:screen" d="M181.689 234.262C219.831 215.37 235.435 169.134 216.543 130.992C197.651 92.85 151.415 77.2451 113.273 96.1375C75.1311 115.03 59.5262 161.265 78.4186 199.407C97.311 237.549 143.547 253.154 181.689 234.262Z" fill="url(#paint2_radial_3158_3624)"/>
<path style="mix-blend-mode:screen" d="M237.724 240.887C268.064 202.525 261.561 146.832 223.199 116.493C184.838 86.1535 129.145 92.6565 98.8055 131.018C68.4661 169.379 74.9691 225.072 113.33 255.411C151.692 285.751 207.385 279.248 237.724 240.887Z" fill="url(#paint3_radial_3158_3624)"/>
</g>
<path d="M186.271 139.226C186.271 139.226 177.185 158.825 173.155 171.488C169.124 184.151 196.684 152.662 196.868 141.762C197.07 130.863 190.386 130.04 186.271 139.243V139.226Z" fill="white"/>
<path d="M169.858 183.014C169.858 184.76 168.447 186.171 166.7 186.171C164.954 186.171 163.543 184.76 163.543 183.014C163.543 181.267 164.954 179.856 166.7 179.856C168.447 179.856 169.858 181.267 169.858 183.014Z" fill="white"/>
<path d="M177.973 271.13C178.813 272.809 167.947 279.141 166.67 279.796C161.968 282.197 151.69 287.42 149.087 284.599C146.483 281.777 177.133 269.45 177.973 271.13Z" fill="#FFED1D"/>
<path d="M270.476 193.875C268.242 199.468 256.721 211.291 253.127 216.262C249.533 221.233 272.894 204.791 275.094 198.376C277.294 191.96 272.726 188.266 270.476 193.858V193.875Z" fill="#FFE000"/>
<path d="M185.512 269.59C185.512 270.665 184.638 271.538 183.563 271.538C182.489 271.538 181.615 270.665 181.615 269.59C181.615 268.515 182.489 267.642 183.563 267.642C184.638 267.642 185.512 268.515 185.512 269.59Z" fill="#FFED1D"/>
<path d="M220.18 274.609C221.859 275.297 223.841 276.54 224.378 276.809C229.836 279.597 235.143 280.856 240.938 282.721C243.255 283.459 246.664 286.482 243.557 288.498C239.308 291.252 233.548 287.776 229.736 285.811C226.377 284.098 224.126 282.569 220.364 279.429C216.602 276.288 215.813 272.812 220.18 274.592V274.609Z" fill="#FFC900"/>
<path d="M142.5 137.884C127.267 139.295 126.125 140.42 124.731 155.653C123.321 140.42 122.195 139.278 106.963 137.884C122.195 136.474 123.337 135.348 124.731 120.116C126.125 135.348 127.267 136.49 142.5 137.884Z" fill="#FFED1D"/>
<path style="mix-blend-mode:screen" d="M167.471 132.981C164.767 109.368 143.421 92.4396 119.825 95.1435C96.2117 97.8474 79.2829 119.193 81.9868 142.789C84.6907 166.402 106.036 183.331 129.633 180.627C153.246 177.923 170.191 156.578 167.471 132.981Z" fill="url(#paint4_radial_3158_3624)"/>
<path d="M255.467 150.209C246.583 151.032 245.911 151.687 245.088 160.588C244.265 151.704 243.61 151.032 234.709 150.209C243.61 149.386 244.265 148.731 245.088 139.83C245.911 148.731 246.566 149.386 255.467 150.209Z" fill="#FFED1D"/>
<path style="mix-blend-mode:screen" d="M270.023 147.336C268.444 133.565 255.983 123.673 242.211 125.251C228.423 126.83 218.548 139.292 220.127 153.063C221.705 166.835 234.167 176.726 247.938 175.148C261.71 173.569 271.602 161.108 270.023 147.336Z" fill="url(#paint5_radial_3158_3624)"/>
<path d="M137.906 252.077C129.022 252.9 128.35 253.555 127.527 262.456C126.704 253.572 126.05 252.9 117.148 252.077C126.05 251.254 126.704 250.599 127.527 241.698C128.35 250.599 129.005 251.254 137.906 252.077Z" fill="#FFED1D"/>
<path style="mix-blend-mode:screen" d="M152.462 249.224C150.884 235.453 138.422 225.561 124.651 227.139C110.863 228.718 100.987 241.18 102.566 254.951C104.145 268.722 116.606 278.614 130.378 277.036C144.149 275.457 154.041 262.996 152.462 249.224Z" fill="url(#paint6_radial_3158_3624)"/>
<path d="M175.234 104.728C167.089 105.484 166.484 106.088 165.728 114.234C164.973 106.088 164.368 105.484 156.223 104.728C164.368 103.972 164.973 103.367 165.728 95.2222C166.484 103.367 167.089 103.972 175.234 104.728Z" fill="#FFED1D"/>
<path style="mix-blend-mode:screen" d="M188.605 102.093C187.16 89.464 175.74 80.395 163.111 81.8561C150.481 83.3005 141.412 94.7207 142.873 107.35C144.318 119.98 155.738 129.049 168.367 127.587C180.997 126.143 190.066 114.723 188.605 102.093Z" fill="url(#paint7_radial_3158_3624)"/>
<path d="M275.385 266.651C269.02 267.239 268.55 267.709 267.962 274.074C267.374 267.709 266.904 267.239 260.539 266.651C266.904 266.063 267.374 265.593 267.962 259.228C268.55 265.593 269.02 266.063 275.385 266.651Z" fill="#FFED1D"/>
<path style="mix-blend-mode:screen" d="M285.837 264.6C284.711 254.742 275.793 247.655 265.918 248.78C256.06 249.905 248.973 258.823 250.098 268.698C251.223 278.557 260.141 285.644 270.016 284.502C279.874 283.377 286.962 274.459 285.837 264.584V264.6Z" fill="url(#paint8_radial_3158_3624)"/>
<path style="mix-blend-mode:screen" opacity="0.38" d="M396.685 176.327C384.157 67.1534 285.468 -11.2123 176.294 1.31536C67.1199 13.843 -11.2118 112.498 1.31584 221.706C13.8435 330.88 112.498 409.212 221.707 396.684C330.881 384.157 409.246 285.502 396.719 176.327H396.685Z" fill="url(#paint9_radial_3158_3624)"/>
<defs>
<radialGradient id="paint0_radial_3158_3624" cx="0" cy="0" r="1" gradientUnits="userSpaceOnUse" gradientTransform="translate(192.298 199.218) scale(87.8686 87.8686)">
<stop stop-color="#AA9800"/>
<stop offset="0.28" stop-color="#AA9400"/>
<stop offset="0.54" stop-color="#AA8900"/>
<stop offset="0.79" stop-color="#AA7600"/>
<stop offset="1" stop-color="#AA6100"/>
</radialGradient>
<radialGradient id="paint1_radial_3158_3624" cx="0" cy="0" r="1" gradientUnits="userSpaceOnUse" gradientTransform="translate(192.337 199.639) scale(84.5266 84.5266)">
<stop stop-color="#FFE400"/>
<stop offset="0.23" stop-color="#FFE000"/>
<stop offset="0.45" stop-color="#FFD400"/>
<stop offset="0.66" stop-color="#FFC200"/>
<stop offset="0.86" stop-color="#FFA700"/>
<stop offset="1" stop-color="#FF9200"/>
</radialGradient>
<radialGradient id="paint2_radial_3158_3624" cx="0" cy="0" r="1" gradientUnits="userSpaceOnUse" gradientTransform="translate(146.439 155.499) scale(76.5156)">
<stop stop-color="white" stop-opacity="0.7"/>
<stop offset="0.3" stop-color="white" stop-opacity="0.53"/>
<stop offset="0.84" stop-color="white" stop-opacity="0.2"/>
</radialGradient>
<radialGradient id="paint3_radial_3158_3624" cx="0" cy="0" r="1" gradientUnits="userSpaceOnUse" gradientTransform="translate(167.082 174.799) scale(87.9358)">
<stop stop-color="white" stop-opacity="0.7"/>
<stop offset="0.25" stop-color="white" stop-opacity="0.53"/>
<stop offset="0.83" stop-color="white" stop-opacity="0.11"/>
<stop offset="0.84" stop-color="white" stop-opacity="0.1"/>
</radialGradient>
<radialGradient id="paint4_radial_3158_3624" cx="0" cy="0" r="1" gradientUnits="userSpaceOnUse" gradientTransform="translate(124.729 137.885) scale(43.0274 43.0274)">
<stop stop-color="#FCF7ED" stop-opacity="0.69"/>
<stop offset="0.03" stop-color="#F4E1B3" stop-opacity="0.66"/>
<stop offset="0.05" stop-color="#EECE84" stop-opacity="0.64"/>
<stop offset="0.07" stop-color="#E9C05F" stop-opacity="0.62"/>
<stop offset="0.09" stop-color="#E5B645" stop-opacity="0.61"/>
<stop offset="0.12" stop-color="#E3B036" stop-opacity="0.6"/>
<stop offset="0.14" stop-color="#E3AE31" stop-opacity="0.6"/>
<stop offset="0.25" stop-color="#BF9225" stop-opacity="0.46"/>
<stop offset="0.41" stop-color="#937118" stop-opacity="0.3"/>
<stop offset="0.56" stop-color="#71570D" stop-opacity="0.17"/>
<stop offset="0.71" stop-color="#584406" stop-opacity="0.07"/>
<stop offset="0.86" stop-color="#493901" stop-opacity="0.02"/>
<stop offset="1" stop-color="#453600" stop-opacity="0"/>
</radialGradient>
<radialGradient id="paint5_radial_3158_3624" cx="0" cy="0" r="1" gradientUnits="userSpaceOnUse" gradientTransform="translate(245.083 150.208) scale(25.1245 25.1245)">
<stop stop-color="#FCF7ED" stop-opacity="0.69"/>
<stop offset="0.03" stop-color="#F4E1B3" stop-opacity="0.66"/>
<stop offset="0.05" stop-color="#EECE84" stop-opacity="0.64"/>
<stop offset="0.07" stop-color="#E9C05F" stop-opacity="0.62"/>
<stop offset="0.09" stop-color="#E5B645" stop-opacity="0.61"/>
<stop offset="0.12" stop-color="#E3B036" stop-opacity="0.6"/>
<stop offset="0.14" stop-color="#E3AE31" stop-opacity="0.6"/>
<stop offset="0.25" stop-color="#BF9225" stop-opacity="0.46"/>
<stop offset="0.41" stop-color="#937118" stop-opacity="0.3"/>
<stop offset="0.56" stop-color="#71570D" stop-opacity="0.17"/>
<stop offset="0.71" stop-color="#584406" stop-opacity="0.07"/>
<stop offset="0.86" stop-color="#493901" stop-opacity="0.02"/>
<stop offset="1" stop-color="#453600" stop-opacity="0"/>
</radialGradient>
<radialGradient id="paint6_radial_3158_3624" cx="0" cy="0" r="1" gradientUnits="userSpaceOnUse" gradientTransform="translate(127.523 252.079) scale(25.1245)">
<stop stop-color="#FCF7ED" stop-opacity="0.69"/>
<stop offset="0.03" stop-color="#F4E1B3" stop-opacity="0.66"/>
<stop offset="0.05" stop-color="#EECE84" stop-opacity="0.64"/>
<stop offset="0.07" stop-color="#E9C05F" stop-opacity="0.62"/>
<stop offset="0.09" stop-color="#E5B645" stop-opacity="0.61"/>
<stop offset="0.12" stop-color="#E3B036" stop-opacity="0.6"/>
<stop offset="0.14" stop-color="#E3AE31" stop-opacity="0.6"/>
<stop offset="0.25" stop-color="#BF9225" stop-opacity="0.46"/>
<stop offset="0.41" stop-color="#937118" stop-opacity="0.3"/>
<stop offset="0.56" stop-color="#71570D" stop-opacity="0.17"/>
<stop offset="0.71" stop-color="#584406" stop-opacity="0.07"/>
<stop offset="0.86" stop-color="#493901" stop-opacity="0.02"/>
<stop offset="1" stop-color="#453600" stop-opacity="0"/>
</radialGradient>
<radialGradient id="paint7_radial_3158_3624" cx="0" cy="0" r="1" gradientUnits="userSpaceOnUse" gradientTransform="translate(165.73 104.73) scale(23.0252 23.0252)">
<stop stop-color="#FCF7ED" stop-opacity="0.69"/>
<stop offset="0.03" stop-color="#F4E1B3" stop-opacity="0.66"/>
<stop offset="0.05" stop-color="#EECE84" stop-opacity="0.64"/>
<stop offset="0.07" stop-color="#E9C05F" stop-opacity="0.62"/>
<stop offset="0.09" stop-color="#E5B645" stop-opacity="0.61"/>
<stop offset="0.12" stop-color="#E3B036" stop-opacity="0.6"/>
<stop offset="0.14" stop-color="#E3AE31" stop-opacity="0.6"/>
<stop offset="0.25" stop-color="#BF9225" stop-opacity="0.46"/>
<stop offset="0.41" stop-color="#937118" stop-opacity="0.3"/>
<stop offset="0.56" stop-color="#71570D" stop-opacity="0.17"/>
<stop offset="0.71" stop-color="#584406" stop-opacity="0.07"/>
<stop offset="0.86" stop-color="#493901" stop-opacity="0.02"/>
<stop offset="1" stop-color="#453600" stop-opacity="0"/>
</radialGradient>
<radialGradient id="paint8_radial_3158_3624" cx="0" cy="0" r="1" gradientUnits="userSpaceOnUse" gradientTransform="translate(267.967 266.649) scale(17.9869 17.9869)">
<stop stop-color="#FCF7ED" stop-opacity="0.69"/>
<stop offset="0.03" stop-color="#F4E1B3" stop-opacity="0.66"/>
<stop offset="0.05" stop-color="#EECE84" stop-opacity="0.64"/>
<stop offset="0.07" stop-color="#E9C05F" stop-opacity="0.62"/>
<stop offset="0.09" stop-color="#E5B645" stop-opacity="0.61"/>
<stop offset="0.12" stop-color="#E3B036" stop-opacity="0.6"/>
<stop offset="0.14" stop-color="#E3AE31" stop-opacity="0.6"/>
<stop offset="0.25" stop-color="#BF9225" stop-opacity="0.46"/>
<stop offset="0.41" stop-color="#937118" stop-opacity="0.3"/>
<stop offset="0.56" stop-color="#71570D" stop-opacity="0.17"/>
<stop offset="0.71" stop-color="#584406" stop-opacity="0.07"/>
<stop offset="0.86" stop-color="#493901" stop-opacity="0.02"/>
<stop offset="1" stop-color="#453600" stop-opacity="0"/>
</radialGradient>
<radialGradient id="paint9_radial_3158_3624" cx="0" cy="0" r="1" gradientUnits="userSpaceOnUse" gradientTransform="translate(199 199) scale(199.012 199.012)">
<stop stop-color="white" stop-opacity="0.7"/>
<stop offset="0.01" stop-color="#FCF7ED" stop-opacity="0.69"/>
<stop offset="0.06" stop-color="#F4E1B3" stop-opacity="0.66"/>
<stop offset="0.1" stop-color="#EECE84" stop-opacity="0.64"/>
<stop offset="0.15" stop-color="#E9C05F" stop-opacity="0.62"/>
<stop offset="0.2" stop-color="#E5B645" stop-opacity="0.61"/>
<stop offset="0.25" stop-color="#E3B036" stop-opacity="0.6"/>
<stop offset="0.3" stop-color="#E3AE31" stop-opacity="0.6"/>
<stop offset="0.39" stop-color="#D9A62E" stop-opacity="0.56"/>
<stop offset="0.54" stop-color="#BE9225" stop-opacity="0.46"/>
<stop offset="0.73" stop-color="#937118" stop-opacity="0.3"/>
<stop offset="0.94" stop-color="#584406" stop-opacity="0.07"/>
<stop offset="1" stop-color="#453600" stop-opacity="0"/>
</radialGradient>
</defs>
</svg>
