<svg width="189" height="52" viewBox="0 0 189 52" fill="none" xmlns="http://www.w3.org/2000/svg">
<rect x="0.293256" y="0.293256" width="188.413" height="50.5887" rx="9.09093" fill="url(#paint0_linear_2630_2525)"/>
<rect x="0.293256" y="0.293256" width="188.413" height="50.5887" rx="9.09093" stroke="url(#paint1_linear_2630_2525)" stroke-width="0.586511"/>
<path d="M51.7166 24.9436C51.7318 23.8221 52.0454 22.7225 52.6282 21.7471C53.211 20.7716 54.0441 19.9521 55.05 19.3647C54.411 18.4978 53.568 17.7844 52.588 17.2811C51.608 16.7779 50.5179 16.4986 49.4044 16.4655C47.029 16.2287 44.7262 17.8157 43.5157 17.8157C42.2819 17.8157 40.4182 16.489 38.4114 16.5282C37.1133 16.5681 35.8482 16.9266 34.7394 17.569C33.6305 18.2113 32.7158 19.1156 32.0842 20.1936C29.3486 24.6927 31.3891 31.3049 34.0097 34.9417C35.3208 36.7225 36.8532 38.7117 38.8582 38.6412C40.8203 38.5639 41.5531 37.4527 43.9214 37.4527C46.2678 37.4527 46.9553 38.6412 49.0011 38.5963C51.1065 38.5639 52.4329 36.8076 53.6981 35.0099C54.6401 33.741 55.365 32.3386 55.846 30.8546C54.6228 30.3632 53.579 29.5406 52.8446 28.4895C52.1103 27.4384 51.718 26.2051 51.7166 24.9436Z" fill="white"/>
<path d="M47.8521 14.074C49.0001 12.765 49.5656 11.0825 49.4287 9.38379C47.6749 9.55876 46.0549 10.355 44.8914 11.6137C44.3226 12.2287 43.8869 12.9441 43.6093 13.7191C43.3317 14.4941 43.2176 15.3134 43.2736 16.1303C44.1508 16.1389 45.0186 15.9583 45.8117 15.6021C46.6048 15.2459 47.3024 14.7234 47.8521 14.074Z" fill="white"/>
<path d="M72.4572 9.75463C72.9155 9.71938 73.3754 9.7936 73.8037 9.97194C74.232 10.1503 74.618 10.4283 74.934 10.786C75.2499 11.1436 75.4879 11.572 75.6307 12.0401C75.7735 12.5083 75.8176 13.0046 75.7598 13.4933C75.7598 15.8971 74.5479 17.2788 72.4572 17.2788H69.9219V9.75463H72.4572ZM71.012 16.2147H72.3354C72.6629 16.2357 72.9906 16.1781 73.2947 16.0462C73.5989 15.9143 73.8717 15.7114 74.0934 15.4521C74.3152 15.1929 74.4802 14.884 74.5765 14.5478C74.6728 14.2116 74.6979 13.8566 74.6501 13.5086C74.6945 13.1621 74.6668 12.8093 74.569 12.4755C74.4712 12.1418 74.3058 11.8354 74.0846 11.5782C73.8633 11.321 73.5918 11.1195 73.2894 10.9881C72.987 10.8566 72.6612 10.7985 72.3354 10.8179H71.012V16.2147Z" fill="white"/>
<path d="M76.9903 14.4374C76.957 14.0642 76.9969 13.6877 77.1072 13.332C77.2176 12.9764 77.3961 12.6493 77.6313 12.3719C77.8665 12.0945 78.1532 11.8729 78.473 11.7212C78.7928 11.5696 79.1386 11.4912 79.4883 11.4912C79.838 11.4912 80.1838 11.5696 80.5036 11.7212C80.8234 11.8729 81.11 12.0945 81.3452 12.3719C81.5804 12.6493 81.7589 12.9764 81.8693 13.332C81.9797 13.6877 82.0195 14.0642 81.9862 14.4374C82.0202 14.8109 81.9808 15.1879 81.8707 15.5442C81.7606 15.9005 81.5822 16.2281 81.347 16.506C81.1117 16.784 80.8248 17.0061 80.5047 17.1581C80.1846 17.3101 79.8384 17.3886 79.4883 17.3886C79.1382 17.3886 78.792 17.3101 78.4719 17.1581C78.1517 17.0061 77.8649 16.784 77.6296 16.506C77.3943 16.2281 77.2159 15.9005 77.1058 15.5442C76.9957 15.1879 76.9564 14.8109 76.9903 14.4374ZM80.911 14.4374C80.911 13.2066 80.3952 12.4868 79.49 12.4868C78.5813 12.4868 78.0702 13.2066 78.0702 14.4374C78.0702 15.6781 78.5814 16.3923 79.49 16.3923C80.3952 16.3923 80.911 15.6731 80.911 14.4374H80.911Z" fill="white"/>
<path d="M88.6264 17.2788H87.542L86.4472 13.0968H86.3645L85.2744 17.2788H84.2003L82.7402 11.6006H83.8005L84.7494 15.9334H84.8275L85.9165 11.6006H86.9194L88.0084 15.9334H88.0911L89.0354 11.6006H90.0807L88.6264 17.2788Z" fill="white"/>
<path d="M91.3106 11.6005H92.3168V12.5026H92.395C92.5275 12.1786 92.751 11.907 93.0343 11.7257C93.3177 11.5443 93.6467 11.4623 93.9756 11.4909C94.2334 11.4702 94.4922 11.5118 94.7328 11.6128C94.9735 11.7138 95.1899 11.8716 95.366 12.0744C95.542 12.2772 95.6733 12.5199 95.75 12.7845C95.8267 13.0491 95.8469 13.3288 95.809 13.6029V17.2787H94.7637V13.8843C94.7637 12.9718 94.3938 12.518 93.6207 12.518C93.4457 12.5092 93.271 12.5412 93.1086 12.6116C92.9462 12.682 92.7999 12.7892 92.6798 12.9259C92.5597 13.0625 92.4685 13.2254 92.4126 13.4034C92.3567 13.5814 92.3374 13.7702 92.3559 13.9569V17.2787H91.3105L91.3106 11.6005Z" fill="white"/>
<path d="M97.4727 9.38379H98.518V17.2786H97.4727V9.38379Z" fill="white"/>
<path d="M99.9727 14.4375C99.9394 14.0643 99.9793 13.6878 100.09 13.3321C100.2 12.9764 100.379 12.6493 100.614 12.3719C100.849 12.0945 101.136 11.8729 101.456 11.7212C101.775 11.5696 102.121 11.4912 102.471 11.4912C102.821 11.4912 103.167 11.5696 103.486 11.7212C103.806 11.8729 104.093 12.0945 104.328 12.3719C104.563 12.6493 104.742 12.9764 104.852 13.3321C104.963 13.6878 105.002 14.0643 104.969 14.4375C105.003 14.811 104.964 15.1881 104.854 15.5443C104.743 15.9006 104.565 16.2282 104.33 16.5061C104.094 16.7841 103.808 17.0062 103.487 17.1582C103.167 17.3101 102.821 17.3887 102.471 17.3887C102.121 17.3887 101.775 17.3101 101.455 17.1582C101.134 17.0062 100.847 16.7841 100.612 16.5061C100.377 16.2282 100.198 15.9006 100.088 15.5443C99.9782 15.1881 99.9388 14.811 99.9727 14.4375ZM103.893 14.4375C103.893 13.2067 103.378 12.4869 102.472 12.4869C101.564 12.4869 101.053 13.2067 101.053 14.4375C101.053 15.6782 101.564 16.3924 102.472 16.3924C103.378 16.3924 103.893 15.6732 103.893 14.4375H103.893Z" fill="white"/>
<path d="M106.072 15.6732C106.072 14.6511 106.782 14.0618 108.042 13.9781L109.477 13.8894V13.3993C109.477 12.7996 109.107 12.461 108.393 12.461C107.809 12.461 107.405 12.6906 107.289 13.0921H106.277C106.384 12.1168 107.239 11.4912 108.441 11.4912C109.769 11.4912 110.518 12.1999 110.518 13.3993V17.279H109.512V16.481H109.429C109.261 16.7673 109.025 17.0006 108.746 17.1572C108.466 17.3139 108.153 17.3882 107.838 17.3725C107.616 17.3973 107.391 17.3719 107.178 17.2979C106.966 17.2239 106.77 17.1029 106.603 16.9428C106.437 16.7827 106.304 16.587 106.212 16.3683C106.121 16.1496 106.073 15.9128 106.072 15.6732ZM109.477 15.188V14.7133L108.184 14.8019C107.454 14.8543 107.123 15.1203 107.123 15.6208C107.123 16.1319 107.537 16.4293 108.106 16.4293C108.272 16.4474 108.441 16.4293 108.6 16.3763C108.76 16.3232 108.909 16.2361 109.037 16.1203C109.165 16.0045 109.27 15.8623 109.345 15.7021C109.421 15.542 109.466 15.3671 109.477 15.188Z" fill="white"/>
<path d="M111.891 14.437C111.891 12.6428 112.751 11.5062 114.089 11.5062C114.42 11.4898 114.749 11.5748 115.037 11.7513C115.324 11.9277 115.559 12.1882 115.714 12.5024H115.792V9.38379H116.837V17.2786H115.835V16.3815H115.753C115.586 16.6935 115.343 16.9508 115.05 17.1255C114.757 17.3001 114.425 17.3854 114.089 17.3721C112.742 17.3722 111.891 16.2356 111.891 14.437ZM112.97 14.437C112.97 15.6414 113.5 16.3661 114.386 16.3661C115.267 16.3661 115.811 15.6309 115.811 14.442C115.811 13.2585 115.261 12.5129 114.386 12.5129C113.506 12.5129 112.97 13.2425 112.97 14.437H112.97Z" fill="white"/>
<path d="M121.162 14.4374C121.129 14.0642 121.169 13.6877 121.279 13.332C121.389 12.9764 121.568 12.6493 121.803 12.3719C122.038 12.0945 122.325 11.8729 122.645 11.7212C122.965 11.5696 123.31 11.4912 123.66 11.4912C124.01 11.4912 124.356 11.5696 124.675 11.7212C124.995 11.8729 125.282 12.0945 125.517 12.3719C125.752 12.6493 125.931 12.9764 126.041 13.332C126.152 13.6877 126.191 14.0642 126.158 14.4374C126.192 14.8109 126.153 15.1879 126.043 15.5442C125.933 15.9005 125.754 16.2281 125.519 16.506C125.284 16.784 124.997 17.0061 124.677 17.1581C124.356 17.3101 124.01 17.3886 123.66 17.3886C123.31 17.3886 122.964 17.3101 122.644 17.1581C122.324 17.0061 122.037 16.784 121.801 16.506C121.566 16.2281 121.388 15.9005 121.278 15.5442C121.168 15.1879 121.128 14.8109 121.162 14.4374ZM125.083 14.4374C125.083 13.2066 124.567 12.4868 123.662 12.4868C122.753 12.4868 122.242 13.2066 122.242 14.4374C122.242 15.6781 122.753 16.3923 123.662 16.3923C124.567 16.3923 125.083 15.6731 125.083 14.4374Z" fill="white"/>
<path d="M127.559 11.6005H128.565V12.5026H128.643C128.776 12.1786 128.999 11.907 129.282 11.7257C129.566 11.5443 129.895 11.4623 130.224 11.4909C130.481 11.4702 130.74 11.5118 130.981 11.6128C131.222 11.7138 131.438 11.8716 131.614 12.0744C131.79 12.2772 131.921 12.5199 131.998 12.7845C132.075 13.0491 132.095 13.3288 132.057 13.6029V17.2787H131.012V13.8843C131.012 12.9718 130.642 12.518 129.869 12.518C129.694 12.5092 129.519 12.5412 129.357 12.6116C129.194 12.682 129.048 12.7892 128.928 12.9259C128.808 13.0625 128.717 13.2254 128.661 13.4034C128.605 13.5814 128.585 13.7702 128.604 13.9569V17.2787H127.559V11.6005Z" fill="white"/>
<path d="M137.964 10.1865V11.6261H139.111V12.57H137.964V15.4897C137.964 16.0845 138.192 16.345 138.713 16.345C138.846 16.3445 138.979 16.3359 139.111 16.3191V17.2525C138.923 17.2885 138.733 17.3077 138.543 17.3098C137.38 17.3098 136.917 16.8714 136.917 15.7767V12.5699H136.076V11.626H136.917V10.1865H137.964Z" fill="white"/>
<path d="M140.539 9.38379H141.575V12.5129H141.658C141.797 12.1859 142.027 11.9128 142.316 11.7307C142.605 11.5487 142.939 11.4667 143.273 11.4957C143.529 11.4808 143.786 11.5267 144.024 11.6301C144.262 11.7336 144.475 11.892 144.65 12.0942C144.824 12.2964 144.954 12.5373 145.032 12.7998C145.109 13.0622 145.131 13.3398 145.097 13.6126V17.2786H144.051V13.889C144.051 12.9821 143.657 12.5227 142.918 12.5227C142.738 12.5069 142.558 12.5334 142.389 12.6003C142.22 12.6672 142.066 12.7729 141.939 12.91C141.812 13.0472 141.714 13.2124 141.653 13.3941C141.592 13.5759 141.568 13.7698 141.584 13.9623V17.2786H140.539L140.539 9.38379Z" fill="white"/>
<path d="M151.194 15.745C151.052 16.2639 150.745 16.7128 150.325 17.0131C149.905 17.3134 149.401 17.446 148.899 17.3877C148.55 17.3976 148.203 17.3259 147.883 17.1777C147.562 17.0295 147.276 16.8083 147.043 16.5295C146.81 16.2506 146.637 15.9208 146.535 15.5629C146.433 15.205 146.405 14.8276 146.452 14.4569C146.406 14.085 146.434 13.7068 146.536 13.3478C146.638 12.9889 146.81 12.6575 147.042 12.3762C147.274 12.0949 147.559 11.8703 147.878 11.7174C148.198 11.5646 148.545 11.4871 148.895 11.4903C150.368 11.4903 151.257 12.5697 151.257 14.3528V14.7438H147.517V14.8066C147.501 15.015 147.525 15.2247 147.589 15.4224C147.653 15.6201 147.754 15.8013 147.887 15.9544C148.02 16.1076 148.181 16.2293 148.36 16.3118C148.539 16.3942 148.733 16.4356 148.928 16.4333C149.178 16.4655 149.431 16.4172 149.656 16.2946C149.88 16.1721 150.065 15.9807 150.188 15.7449L151.194 15.745ZM147.517 13.915H150.193C150.206 13.7245 150.182 13.533 150.122 13.3531C150.062 13.1731 149.967 13.0086 149.845 12.87C149.722 12.7315 149.573 12.6221 149.409 12.5487C149.244 12.4753 149.067 12.4397 148.889 12.4441C148.708 12.4417 148.529 12.478 148.361 12.5511C148.194 12.6242 148.041 12.7324 147.914 12.8695C147.786 13.0066 147.685 13.1698 147.617 13.3493C147.549 13.5289 147.515 13.7212 147.517 13.915H147.517Z" fill="white"/>
<path d="M79.1854 33.7811H73.6174L72.2802 38.0136H69.9219L75.1958 22.3545H77.646L82.9199 38.0136H80.5214L79.1854 33.7811ZM74.1941 31.828H78.6076L76.4319 24.959H76.3709L74.1941 31.828Z" fill="white"/>
<path d="M94.3094 32.3061C94.3094 35.8539 92.538 38.1333 89.8649 38.1333C89.1877 38.1713 88.5143 38.0041 87.9217 37.6508C87.329 37.2976 86.8412 36.7725 86.514 36.1359H86.4634V41.7907H84.2773V26.5971H86.3933V28.496H86.4335C86.7758 27.8624 87.2719 27.3401 87.869 26.9847C88.4662 26.6293 89.142 26.4541 89.8246 26.4777C92.5277 26.4777 94.3094 28.7682 94.3094 32.3061ZM92.0624 32.3061C92.0624 29.9947 90.9481 28.4751 89.248 28.4751C87.5777 28.4751 86.4542 30.0267 86.4542 32.3061C86.4542 34.6065 87.5777 36.147 89.248 36.147C90.9482 36.147 92.0624 34.6385 92.0624 32.3061H92.0624Z" fill="white"/>
<path d="M106.033 32.3061C106.033 35.8539 104.261 38.1333 101.588 38.1333C100.91 38.1713 100.237 38.0041 99.6443 37.6508C99.0517 37.2976 98.5639 36.7726 98.2366 36.1359H98.1861V41.7907H96V26.5971H98.116V28.496H98.1562C98.4985 27.8624 98.9945 27.3401 99.5917 26.9847C100.189 26.6293 100.865 26.4541 101.547 26.4777C104.25 26.4777 106.033 28.7682 106.033 32.3061ZM103.785 32.3061C103.785 29.9947 102.671 28.4751 100.971 28.4751C99.3004 28.4751 98.1769 30.0267 98.1769 32.3061C98.1769 34.6065 99.3004 36.147 100.971 36.147C102.671 36.147 103.785 34.6385 103.785 32.3061Z" fill="white"/>
<path d="M113.779 33.6509C113.941 35.2038 115.348 36.2233 117.271 36.2233C119.114 36.2233 120.439 35.2037 120.439 33.8036C120.439 32.5881 119.64 31.8604 117.747 31.3616L115.853 30.8727C113.171 30.1782 111.926 28.8334 111.926 26.6513C111.926 23.9495 114.122 22.0938 117.24 22.0938C120.328 22.0938 122.444 23.9495 122.515 26.6513H120.308C120.176 25.0886 118.971 24.1453 117.21 24.1453C115.449 24.1453 114.244 25.0997 114.244 26.4888C114.244 27.5958 115.014 28.2473 116.897 28.746L118.506 29.1696C121.503 29.9294 122.747 31.22 122.747 33.5104C122.747 36.44 120.571 38.2749 117.109 38.2749C113.87 38.2749 111.682 36.4831 111.541 33.6508L113.779 33.6509Z" fill="white"/>
<path d="M127.468 23.8955V26.5973H129.493V28.4531H127.468V34.747C127.468 35.7248 127.873 36.1804 128.763 36.1804C129.004 36.1759 129.244 36.1578 129.482 36.1262V37.9709C129.082 38.051 128.675 38.0874 128.268 38.0792C126.112 38.0792 125.271 37.2111 125.271 34.9969V28.4531H123.723V26.5973H125.271V23.8955H127.468Z" fill="white"/>
<path d="M130.664 32.3064C130.664 28.7143 132.638 26.457 135.715 26.457C138.803 26.457 140.767 28.7142 140.767 32.3064C140.767 35.9084 138.813 38.1557 135.715 38.1557C132.618 38.1557 130.664 35.9083 130.664 32.3064ZM138.54 32.3064C138.54 29.8423 137.486 28.3879 135.715 28.3879C133.944 28.3879 132.89 29.8534 132.89 32.3064C132.89 34.7803 133.944 36.2236 135.715 36.2236C137.486 36.2236 138.54 34.7803 138.54 32.3064H138.54Z" fill="white"/>
<path d="M142.57 26.597H144.655V28.5402H144.706C144.847 27.9333 145.179 27.397 145.645 27.0214C146.112 26.6457 146.685 26.4537 147.268 26.4776C147.52 26.4766 147.771 26.506 148.017 26.565V28.757C147.699 28.6528 147.367 28.605 147.034 28.6154C146.717 28.6016 146.4 28.6616 146.106 28.7913C145.812 28.9211 145.548 29.1174 145.332 29.367C145.115 29.6165 144.952 29.9133 144.853 30.237C144.753 30.5606 144.72 30.9035 144.756 31.242V38.0137H142.57L142.57 26.597Z" fill="white"/>
<path d="M158.095 34.6609C157.801 36.7334 155.918 38.1557 153.509 38.1557C150.411 38.1557 148.488 35.9305 148.488 32.3606C148.488 28.7795 150.422 26.457 153.418 26.457C156.364 26.457 158.217 28.6268 158.217 32.0884V32.8913H150.695V33.0329C150.66 33.4531 150.709 33.8764 150.839 34.2746C150.969 34.6729 151.176 35.0371 151.447 35.3429C151.718 35.6488 152.046 35.8893 152.411 36.0486C152.775 36.2079 153.167 36.2822 153.56 36.2667C154.077 36.3186 154.595 36.1903 155.038 35.901C155.481 35.6117 155.825 35.1767 156.019 34.6609L158.095 34.6609ZM150.705 31.2535H156.03C156.049 30.8757 155.996 30.4977 155.873 30.143C155.75 29.7884 155.56 29.4649 155.314 29.1929C155.069 28.9208 154.774 28.706 154.447 28.562C154.121 28.4179 153.77 28.3478 153.418 28.3559C153.062 28.3536 152.709 28.427 152.379 28.5717C152.05 28.7163 151.75 28.9295 151.498 29.1989C151.246 29.4683 151.046 29.7886 150.91 30.1412C150.774 30.4939 150.704 30.8719 150.705 31.2535V31.2535Z" fill="white"/>
<defs>
<linearGradient id="paint0_linear_2630_2525" x1="-28.3704" y1="-18.6617" x2="203.469" y2="76.1206" gradientUnits="userSpaceOnUse">
<stop stop-color="#090C0F"/>
<stop offset="0.694999" stop-color="#1A1F25"/>
<stop offset="1" stop-color="#090C0F"/>
</linearGradient>
<linearGradient id="paint1_linear_2630_2525" x1="-7.13967e-10" y1="6.63383" x2="179.399" y2="61.3687" gradientUnits="userSpaceOnUse">
<stop stop-color="#727272"/>
<stop offset="0.865222" stop-color="#121212"/>
<stop offset="1" stop-color="#4C4C4C"/>
</linearGradient>
</defs>
</svg>
