<svg width="152" height="53" viewBox="0 0 152 53" fill="none" xmlns="http://www.w3.org/2000/svg">
<rect x="0.829389" y="1.20561" width="150.305" height="50.5887" rx="9.09093" fill="url(#paint0_linear_2127_3129)"/>
<rect x="0.829389" y="1.20561" width="150.305" height="50.5887" rx="9.09093" stroke="url(#paint1_linear_2127_3129)" stroke-width="0.586511"/>
<path d="M33.198 25.8566C33.2132 24.7351 33.5268 23.6355 34.1097 22.66C34.6925 21.6846 35.5256 20.8651 36.5315 20.2776C35.8925 19.4108 35.0495 18.6974 34.0694 18.1941C33.0894 17.6908 31.9993 17.4116 30.8858 17.3785C28.5104 17.1416 26.2076 18.7286 24.9972 18.7286C23.7633 18.7286 21.8997 17.402 19.8928 17.4412C18.5947 17.481 17.3296 17.8396 16.2208 18.4819C15.112 19.1243 14.1972 20.0285 13.5657 21.1065C10.83 25.6056 12.8706 32.2178 15.4912 35.8546C16.8023 37.6354 18.3346 39.6247 20.3397 39.5541C22.3017 39.4768 23.0345 38.3657 25.4029 38.3657C27.7493 38.3657 28.4368 39.5541 30.4825 39.5093C32.5879 39.4768 33.9144 37.7205 35.1795 35.9229C36.1216 34.654 36.8465 33.2516 37.3274 31.7676C36.1042 31.2762 35.0604 30.4536 34.3261 29.4025C33.5918 28.3513 33.1994 27.1181 33.198 25.8566Z" fill="white"/>
<path d="M29.3341 14.9867C30.482 13.6777 31.0476 11.9952 30.9106 10.2965C29.1568 10.4715 27.5368 11.2677 26.3734 12.5265C25.8045 13.1414 25.3688 13.8568 25.0913 14.6318C24.8137 15.4068 24.6996 16.2261 24.7555 17.043C25.6328 17.0516 26.5006 16.871 27.2937 16.5148C28.0867 16.1586 28.7844 15.6361 29.3341 14.9867Z" fill="white"/>
<path d="M53.9386 10.6673C54.3969 10.632 54.8568 10.7063 55.2851 10.8846C55.7134 11.0629 56.0995 11.341 56.4154 11.6986C56.7314 12.0563 56.9693 12.4846 57.1121 12.9528C57.2549 13.421 57.299 13.9173 57.2413 14.4059C57.2413 16.8097 56.0293 18.1915 53.9386 18.1915H51.4033V10.6673H53.9386ZM52.4935 17.1274H53.8168C54.1443 17.1484 54.4721 17.0908 54.7762 16.9589C55.0803 16.827 55.3532 16.624 55.5749 16.3648C55.7966 16.1056 55.9616 15.7966 56.0579 15.4604C56.1542 15.1242 56.1794 14.7692 56.1316 14.4213C56.1759 14.0747 56.1482 13.7219 56.0504 13.3882C55.9527 13.0544 55.7872 12.748 55.566 12.4909C55.3448 12.2337 55.0732 12.0322 54.7708 11.9007C54.4684 11.7693 54.1426 11.7112 53.8168 11.7306H52.4935V17.1274Z" fill="white"/>
<path d="M58.4725 15.3498C58.4392 14.9766 58.479 14.6001 58.5894 14.2445C58.6998 13.8888 58.8783 13.5617 59.1135 13.2843C59.3487 13.0069 59.6354 12.7853 59.9552 12.6336C60.275 12.482 60.6208 12.4036 60.9705 12.4036C61.3201 12.4036 61.666 12.482 61.9858 12.6336C62.3055 12.7853 62.5922 13.0069 62.8274 13.2843C63.0626 13.5617 63.2411 13.8888 63.3515 14.2445C63.4619 14.6001 63.5017 14.9766 63.4684 15.3498C63.5023 15.7233 63.463 16.1003 63.3529 16.4566C63.2428 16.8129 63.0644 17.1405 62.8291 17.4184C62.5939 17.6964 62.307 17.9185 61.9869 18.0705C61.6668 18.2225 61.3206 18.301 60.9705 18.301C60.6204 18.301 60.2741 18.2225 59.954 18.0705C59.6339 17.9185 59.347 17.6964 59.1118 17.4184C58.8765 17.1405 58.6981 16.8129 58.588 16.4566C58.4779 16.1003 58.4386 15.7233 58.4725 15.3498ZM62.3932 15.3498C62.3932 14.119 61.8774 13.3992 60.9722 13.3992C60.0635 13.3992 59.5524 14.119 59.5524 15.3498C59.5524 16.5905 60.0636 17.3047 60.9722 17.3047C61.8774 17.3047 62.3932 16.5855 62.3932 15.3498H62.3932Z" fill="white"/>
<path d="M70.1081 18.1914H69.0237L67.9289 14.0094H67.8462L66.7561 18.1914H65.682L64.2219 12.5132H65.2822L66.2311 16.846H66.3092L67.3982 12.5132H68.4011L69.4901 16.846H69.5728L70.5171 12.5132H71.5624L70.1081 18.1914Z" fill="white"/>
<path d="M72.7922 12.5131H73.7985V13.4152H73.8767C74.0092 13.0912 74.2327 12.8196 74.516 12.6383C74.7994 12.4569 75.1284 12.3749 75.4573 12.4035C75.7151 12.3828 75.9739 12.4244 76.2145 12.5254C76.4552 12.6264 76.6716 12.7842 76.8477 12.987C77.0237 13.1898 77.155 13.4325 77.2317 13.6971C77.3084 13.9617 77.3286 14.2414 77.2907 14.5155V18.1913H76.2454V14.7969C76.2454 13.8844 75.8755 13.4306 75.1024 13.4306C74.9274 13.4218 74.7527 13.4538 74.5903 13.5242C74.4279 13.5946 74.2816 13.7018 74.1615 13.8385C74.0414 13.9751 73.9502 14.138 73.8943 14.316C73.8384 14.494 73.8191 14.6828 73.8376 14.8695V18.1913H72.7922L72.7922 12.5131Z" fill="white"/>
<path d="M78.9551 10.2966H80.0004V18.1914H78.9551V10.2966Z" fill="white"/>
<path d="M81.4549 15.3498C81.4216 14.9767 81.4615 14.6001 81.5719 14.2444C81.6823 13.8887 81.8608 13.5617 82.0961 13.2843C82.3313 13.0069 82.618 12.7853 82.9378 12.6336C83.2576 12.4819 83.6034 12.4036 83.9531 12.4036C84.3028 12.4036 84.6487 12.4819 84.9685 12.6336C85.2883 12.7853 85.575 13.0069 85.8102 13.2843C86.0454 13.5617 86.224 13.8887 86.3344 14.2444C86.4448 14.6001 86.4847 14.9767 86.4514 15.3498C86.4853 15.7234 86.4459 16.1004 86.3358 16.4567C86.2256 16.8129 86.0472 17.1406 85.8119 17.4185C85.5766 17.6964 85.2897 17.9185 84.9696 18.0705C84.6495 18.2225 84.3033 18.301 83.9531 18.301C83.603 18.301 83.2568 18.2225 82.9367 18.0705C82.6166 17.9185 82.3296 17.6964 82.0944 17.4185C81.8591 17.1406 81.6807 16.8129 81.5705 16.4567C81.4604 16.1004 81.421 15.7234 81.4549 15.3498ZM85.3756 15.3498C85.3756 14.119 84.8598 13.3992 83.9546 13.3992C83.0459 13.3992 82.5348 14.119 82.5348 15.3499C82.5348 16.5905 83.046 17.3048 83.9546 17.3048C84.8598 17.3048 85.3756 16.5856 85.3756 15.3498H85.3756Z" fill="white"/>
<path d="M87.5527 16.5855C87.5527 15.5634 88.2627 14.9742 89.5228 14.8905L90.9576 14.8018V14.3117C90.9576 13.712 90.5877 13.3733 89.8732 13.3733C89.2896 13.3733 88.8853 13.603 88.7693 14.0044H87.7572C87.864 13.0291 88.7199 12.4036 89.9214 12.4036C91.2494 12.4036 91.9984 13.1122 91.9984 14.3117V18.1913H90.9921V17.3934H90.9094C90.7415 17.6796 90.5058 17.913 90.2262 18.0696C89.9467 18.2262 89.6334 18.3005 89.3184 18.2849C89.096 18.3097 88.8713 18.2843 88.6586 18.2102C88.446 18.1362 88.2502 18.0153 88.0838 17.8552C87.9175 17.695 87.7843 17.4993 87.6928 17.2807C87.6013 17.062 87.5536 16.8252 87.5527 16.5855ZM90.9576 16.1003V15.6256L89.6641 15.7143C88.9347 15.7666 88.6038 16.0326 88.6038 16.5332C88.6038 17.0442 89.0174 17.3416 89.5861 17.3416C89.7527 17.3597 89.921 17.3417 90.081 17.2886C90.2409 17.2355 90.3893 17.1485 90.5173 17.0327C90.6453 16.9169 90.7502 16.7746 90.8258 16.6145C90.9015 16.4543 90.9463 16.2795 90.9576 16.1003Z" fill="white"/>
<path d="M93.3721 15.3498C93.3721 13.5556 94.2325 12.419 95.5708 12.419C95.9018 12.4026 96.2303 12.4876 96.518 12.664C96.8056 12.8404 97.0405 13.101 97.1951 13.4152H97.2732V10.2966H98.3186V18.1914H97.3169V17.2942H97.2342C97.0676 17.6063 96.8245 17.8636 96.5313 18.0382C96.2381 18.2129 95.906 18.2982 95.5708 18.2849C94.2233 18.285 93.3721 17.1483 93.3721 15.3498ZM94.4519 15.3498C94.4519 16.5542 94.9815 17.2789 95.8672 17.2789C96.7483 17.2789 97.2928 16.5437 97.2928 15.3547C97.2928 14.1713 96.7425 13.4257 95.8672 13.4257C94.9872 13.4257 94.4519 14.1553 94.4519 15.3498H94.4519Z" fill="white"/>
<path d="M102.643 15.3498C102.61 14.9766 102.649 14.6001 102.76 14.2445C102.87 13.8888 103.049 13.5617 103.284 13.2843C103.519 13.0069 103.806 12.7853 104.126 12.6336C104.445 12.482 104.791 12.4036 105.141 12.4036C105.491 12.4036 105.836 12.482 106.156 12.6336C106.476 12.7853 106.763 13.0069 106.998 13.2843C107.233 13.5617 107.412 13.8888 107.522 14.2445C107.632 14.6001 107.672 14.9766 107.639 15.3498C107.673 15.7233 107.633 16.1003 107.523 16.4566C107.413 16.8129 107.235 17.1405 107 17.4184C106.764 17.6964 106.477 17.9185 106.157 18.0705C105.837 18.2225 105.491 18.301 105.141 18.301C104.791 18.301 104.445 18.2225 104.124 18.0705C103.804 17.9185 103.517 17.6964 103.282 17.4184C103.047 17.1405 102.869 16.8129 102.758 16.4566C102.648 16.1003 102.609 15.7233 102.643 15.3498ZM106.564 15.3498C106.564 14.119 106.048 13.3992 105.143 13.3992C104.234 13.3992 103.723 14.119 103.723 15.3498C103.723 16.5905 104.234 17.3047 105.143 17.3047C106.048 17.3047 106.564 16.5855 106.564 15.3498Z" fill="white"/>
<path d="M109.04 12.5131H110.046V13.4151H110.124C110.256 13.0911 110.48 12.8196 110.763 12.6382C111.047 12.4569 111.376 12.3748 111.705 12.4035C111.962 12.3827 112.221 12.4244 112.462 12.5254C112.703 12.6264 112.919 12.7841 113.095 12.9869C113.271 13.1898 113.402 13.4325 113.479 13.697C113.556 13.9616 113.576 14.2413 113.538 14.5154V18.1912H112.493V14.7968C112.493 13.8843 112.123 13.4305 111.35 13.4305C111.175 13.4218 111 13.4537 110.838 13.5241C110.675 13.5945 110.529 13.7017 110.409 13.8384C110.289 13.9751 110.198 14.138 110.142 14.3159C110.086 14.4939 110.066 14.6827 110.085 14.8694V18.1913H109.04V12.5131Z" fill="white"/>
<path d="M119.446 11.0995V12.539H120.593V13.4829H119.446V16.4027C119.446 16.9975 119.674 17.2579 120.195 17.2579C120.328 17.2575 120.461 17.2488 120.593 17.2321V18.1655C120.406 18.2015 120.215 18.2207 120.025 18.2228C118.862 18.2228 118.399 17.7844 118.399 16.6896V13.4829H117.558V12.539H118.399V11.0995H119.446Z" fill="white"/>
<path d="M122.021 10.2966H123.057V13.4257H123.14C123.279 13.0987 123.509 12.8256 123.798 12.6435C124.087 12.4615 124.421 12.3794 124.755 12.4085C125.012 12.3935 125.268 12.4394 125.506 12.5429C125.744 12.6463 125.958 12.8048 126.132 13.007C126.306 13.2092 126.436 13.4501 126.514 13.7126C126.591 13.975 126.614 14.2525 126.579 14.5254V18.1914H125.533V14.8018C125.533 13.8948 125.139 13.4355 124.4 13.4355C124.221 13.4197 124.04 13.4462 123.871 13.5131C123.702 13.58 123.548 13.6857 123.421 13.8228C123.294 13.9599 123.197 14.1252 123.135 14.3069C123.074 14.4887 123.051 14.6826 123.067 14.8751V18.1913H122.021L122.021 10.2966Z" fill="white"/>
<path d="M132.676 16.6582C132.533 17.1771 132.226 17.626 131.806 17.9263C131.387 18.2266 130.882 18.3592 130.38 18.3009C130.031 18.3108 129.685 18.2391 129.364 18.0909C129.043 17.9427 128.757 17.7215 128.524 17.4427C128.291 17.1638 128.118 16.834 128.016 16.4761C127.914 16.1182 127.886 15.7408 127.933 15.3701C127.887 14.9982 127.916 14.62 128.017 14.2611C128.119 13.9021 128.292 13.5707 128.523 13.2894C128.755 13.0081 129.04 12.7835 129.36 12.6306C129.679 12.4778 130.026 12.4003 130.376 12.4035C131.85 12.4035 132.739 13.483 132.739 15.266V15.657H128.998V15.7198C128.982 15.9282 129.006 16.1379 129.07 16.3356C129.134 16.5333 129.235 16.7145 129.368 16.8676C129.501 17.0208 129.662 17.1425 129.841 17.225C130.021 17.3074 130.214 17.3488 130.409 17.3465C130.659 17.3787 130.912 17.3304 131.137 17.2078C131.361 17.0853 131.547 16.8939 131.669 16.6581L132.676 16.6582ZM128.998 14.8282H131.674C131.687 14.6377 131.663 14.4463 131.603 14.2663C131.543 14.0863 131.449 13.9218 131.326 13.7833C131.203 13.6447 131.054 13.5353 130.89 13.4619C130.725 13.3885 130.548 13.3529 130.37 13.3573C130.189 13.3549 130.01 13.3912 129.842 13.4643C129.675 13.5374 129.523 13.6457 129.395 13.7827C129.267 13.9198 129.166 14.083 129.098 14.2625C129.03 14.4421 128.996 14.6344 128.998 14.8282H128.998Z" fill="white"/>
<path d="M60.6668 34.6942H55.0988L53.7617 38.9267H51.4033L56.6772 23.2676H59.1275L64.4014 38.9267H62.0028L60.6668 34.6942ZM55.6755 32.7411H60.0891L57.9133 25.8721H57.8524L55.6755 32.7411Z" fill="white"/>
<path d="M75.7908 33.2189C75.7908 36.7667 74.0195 39.0461 71.3463 39.0461C70.6692 39.0841 69.9957 38.9169 69.4031 38.5636C68.8105 38.2103 68.3226 37.6853 67.9954 37.0487H67.9449V42.7035H65.7588V27.5099H67.8748V29.4088H67.915C68.2572 28.7752 68.7533 28.2529 69.3505 27.8975C69.9476 27.5421 70.6234 27.3669 71.3061 27.3905C74.0091 27.3905 75.7908 29.681 75.7908 33.2189ZM73.5439 33.2189C73.5439 30.9075 72.4296 29.3879 70.7294 29.3879C69.0592 29.3879 67.9357 30.9395 67.9357 33.2189C67.9357 35.5192 69.0592 37.0598 70.7294 37.0598C72.4296 37.0598 73.5438 35.5513 73.5438 33.2189H73.5439Z" fill="white"/>
<path d="M87.5143 33.2189C87.5143 36.7667 85.7424 39.0461 83.0692 39.0461C82.3921 39.0841 81.7186 38.9169 81.126 38.5636C80.5334 38.2103 80.0455 37.6853 79.7183 37.0487H79.6678V42.7035H77.4817V27.5099H79.5977V29.4088H79.6379C79.9801 28.7752 80.4762 28.2529 81.0734 27.8975C81.6705 27.5421 82.3463 27.3669 83.029 27.3905C85.732 27.3905 87.5143 29.681 87.5143 33.2189ZM85.2668 33.2189C85.2668 30.9075 84.1525 29.3879 82.4524 29.3879C80.7821 29.3879 79.6586 30.9395 79.6586 33.2189C79.6586 35.5192 80.7821 37.0598 82.4524 37.0598C84.1525 37.0598 85.2668 35.5513 85.2668 33.2189Z" fill="white"/>
<path d="M95.2598 34.5636C95.4218 36.1165 96.829 37.1361 98.752 37.1361C100.595 37.1361 101.92 36.1164 101.92 34.7163C101.92 33.5008 101.121 32.7731 99.2276 32.2743L97.3344 31.7854C94.6521 31.0909 93.4069 29.7462 93.4069 27.564C93.4069 24.8623 95.6033 23.0065 98.721 23.0065C101.809 23.0065 103.925 24.8623 103.996 27.564H101.789C101.657 26.0013 100.452 25.0581 98.6911 25.0581C96.9301 25.0581 95.725 26.0124 95.725 27.4015C95.725 28.5086 96.4947 29.16 98.3775 29.6587L99.9869 30.0823C102.984 30.8421 104.228 32.1327 104.228 34.4231C104.228 37.3527 102.052 39.1876 98.5899 39.1876C95.3505 39.1876 93.1633 37.3958 93.022 34.5635L95.2598 34.5636Z" fill="white"/>
<path d="M108.948 24.8081V27.5099H110.974V29.3657H108.948V35.6596C108.948 36.6374 109.354 37.093 110.244 37.093C110.484 37.0885 110.725 37.0704 110.963 37.0388V38.8835C110.563 38.9636 110.156 39 109.749 38.9918C107.593 38.9918 106.752 38.1237 106.752 35.9095V29.3657H105.203V27.5099H106.752V24.8081H108.948Z" fill="white"/>
<path d="M112.146 33.2189C112.146 29.6267 114.119 27.3695 117.197 27.3695C120.285 27.3695 122.249 29.6267 122.249 33.2189C122.249 36.8208 120.295 39.0682 117.197 39.0682C114.1 39.0682 112.146 36.8208 112.146 33.2189ZM120.022 33.2189C120.022 30.7547 118.968 29.3004 117.197 29.3004C115.425 29.3004 114.372 30.7658 114.372 33.2189C114.372 35.6928 115.425 37.1361 117.197 37.1361C118.968 37.1361 120.022 35.6928 120.022 33.2189H120.022Z" fill="white"/>
<path d="M124.051 27.51H126.136V29.4532H126.186C126.327 28.8463 126.659 28.31 127.126 27.9343C127.592 27.5587 128.165 27.3667 128.748 27.3905C129 27.3896 129.251 27.4189 129.497 27.478V29.6699C129.179 29.5658 128.847 29.5179 128.515 29.5283C128.197 29.5145 127.881 29.5745 127.587 29.7043C127.293 29.834 127.029 30.0304 126.812 30.2799C126.596 30.5295 126.432 30.8263 126.333 31.1499C126.234 31.4736 126.201 31.8165 126.237 32.155V38.9267H124.051L124.051 27.51Z" fill="white"/>
<path d="M139.577 35.5734C139.283 37.646 137.4 39.0683 134.991 39.0683C131.893 39.0683 129.97 36.8431 129.97 33.2731C129.97 29.6921 131.903 27.3696 134.899 27.3696C137.846 27.3696 139.698 29.5394 139.698 33.001V33.8039H132.176V33.9455C132.142 34.3656 132.191 34.7889 132.32 35.1872C132.45 35.5855 132.657 35.9496 132.928 36.2555C133.199 36.5613 133.528 36.8019 133.892 36.9611C134.256 37.1204 134.648 37.1948 135.041 37.1792C135.558 37.2311 136.076 37.1029 136.52 36.8135C136.963 36.5242 137.307 36.0893 137.501 35.5734L139.577 35.5734ZM132.187 32.166H137.511C137.531 31.7882 137.477 31.4102 137.354 31.0556C137.231 30.701 137.041 30.3775 136.796 30.1054C136.55 29.8333 136.255 29.6185 135.929 29.4745C135.603 29.3305 135.252 29.2603 134.899 29.2685C134.543 29.2662 134.19 29.3395 133.861 29.4842C133.531 29.6289 133.232 29.8421 132.98 30.1115C132.728 30.3809 132.528 30.7011 132.392 31.0537C132.255 31.4064 132.186 31.7844 132.187 32.166V32.166Z" fill="white"/>
<defs>
<linearGradient id="paint0_linear_2127_3129" x1="-22.114" y1="-17.7493" x2="173.117" y2="45.9734" gradientUnits="userSpaceOnUse">
<stop stop-color="#090C0F"/>
<stop offset="0.694999" stop-color="#1A1F25"/>
<stop offset="1" stop-color="#090C0F"/>
</linearGradient>
<linearGradient id="paint1_linear_2127_3129" x1="0.536133" y1="7.54618" x2="148.327" y2="43.5456" gradientUnits="userSpaceOnUse">
<stop stop-color="#727272"/>
<stop offset="0.865222" stop-color="#121212"/>
<stop offset="1" stop-color="#4C4C4C"/>
</linearGradient>
</defs>
</svg>
