<svg width="151" height="52" viewBox="0 0 151 52" fill="none" xmlns="http://www.w3.org/2000/svg">
<rect x="0.293256" y="0.705609" width="150.305" height="50.5887" rx="9.09093" fill="url(#paint0_linear_5259_870)"/>
<rect x="0.293256" y="0.705609" width="150.305" height="50.5887" rx="9.09093" stroke="url(#paint1_linear_5259_870)" stroke-width="0.586511"/>
<path d="M32.6619 25.3567C32.6771 24.2352 32.9907 23.1356 33.5735 22.1602C34.1563 21.1847 34.9895 20.3652 35.9953 19.7778C35.3563 18.9109 34.5133 18.1975 33.5333 17.6942C32.5533 17.191 31.4632 16.9117 30.3497 16.8786C27.9743 16.6417 25.6715 18.2287 24.461 18.2287C23.2272 18.2287 21.3635 16.9021 19.3567 16.9413C18.0586 16.9812 16.7935 17.3397 15.6847 17.9821C14.5758 18.6244 13.6611 19.5286 13.0295 20.6066C10.2939 25.1058 12.3344 31.718 14.955 35.3547C16.2662 37.1356 17.7985 39.1248 19.8035 39.0542C21.7656 38.9769 22.4984 37.8658 24.8667 37.8658C27.2131 37.8658 27.9006 39.0542 29.9464 39.0094C32.0518 38.9769 33.3782 37.2207 34.6434 35.423C35.5854 34.1541 36.3104 32.7517 36.7913 31.2677C35.5681 30.7763 34.5243 29.9537 33.79 28.9026C33.0556 27.8514 32.6633 26.6182 32.6619 25.3567Z" fill="white"/>
<path d="M28.7974 14.4868C29.9454 13.1778 30.5109 11.4953 30.374 9.79663C28.6202 9.9716 27.0002 10.7678 25.8367 12.0266C25.2679 12.6415 24.8322 13.3569 24.5546 14.1319C24.277 14.9069 24.163 15.7262 24.2189 16.5431C25.0961 16.5517 25.964 16.3711 26.757 16.0149C27.5501 15.6587 28.2478 15.1363 28.7974 14.4868Z" fill="white"/>
<path d="M53.4025 10.1675C53.8608 10.1322 54.3207 10.2064 54.749 10.3848C55.1773 10.5631 55.5633 10.8412 55.8793 11.1988C56.1952 11.5565 56.4332 11.9848 56.576 12.453C56.7188 12.9212 56.7629 13.4175 56.7051 13.9061C56.7051 16.3099 55.4932 17.6916 53.4025 17.6916H50.8672V10.1675H53.4025ZM51.9573 16.6276H53.2807C53.6082 16.6486 53.9359 16.591 54.24 16.4591C54.5442 16.3272 54.817 16.1242 55.0388 15.865C55.2605 15.6058 55.4255 15.2968 55.5218 14.9606C55.6181 14.6244 55.6432 14.2694 55.5954 13.9215C55.6398 13.5749 55.6121 13.2221 55.5143 12.8884C55.4165 12.5546 55.2511 12.2482 55.0299 11.991C54.8087 11.7339 54.5371 11.5324 54.2347 11.4009C53.9323 11.2695 53.6065 11.2114 53.2807 11.2308H51.9573V16.6276Z" fill="white"/>
<path d="M57.9356 14.85C57.9023 14.4768 57.9422 14.1003 58.0526 13.7446C58.1629 13.389 58.3415 13.0619 58.5766 12.7845C58.8118 12.5071 59.0985 12.2855 59.4183 12.1338C59.7381 11.9822 60.0839 11.9038 60.4336 11.9038C60.7833 11.9038 61.1291 11.9822 61.4489 12.1338C61.7687 12.2855 62.0554 12.5071 62.2905 12.7845C62.5257 13.0619 62.7043 13.389 62.8146 13.7446C62.925 14.1003 62.9648 14.4768 62.9315 14.85C62.9655 15.2235 62.9261 15.6005 62.816 15.9568C62.7059 16.3131 62.5275 16.6407 62.2923 16.9186C62.057 17.1966 61.7701 17.4187 61.45 17.5707C61.1299 17.7227 60.7837 17.8012 60.4336 17.8012C60.0835 17.8012 59.7373 17.7227 59.4172 17.5707C59.0971 17.4187 58.8102 17.1966 58.5749 16.9186C58.3397 16.6407 58.1612 16.3131 58.0512 15.9568C57.9411 15.6005 57.9017 15.2235 57.9356 14.85ZM61.8563 14.85C61.8563 13.6192 61.3405 12.8994 60.4353 12.8994C59.5267 12.8994 59.0155 13.6192 59.0155 14.85C59.0155 16.0907 59.5267 16.8049 60.4353 16.8049C61.3405 16.8049 61.8563 16.0857 61.8563 14.85H61.8563Z" fill="white"/>
<path d="M69.5717 17.6914H68.4873L67.3926 13.5094H67.3099L66.2197 17.6914H65.1456L63.6855 12.0132H64.7458L65.6947 16.346H65.7728L66.8618 12.0132H67.8647L68.9537 16.346H69.0364L69.9807 12.0132H71.026L69.5717 17.6914Z" fill="white"/>
<path d="M72.2559 12.0131H73.2622V12.9152H73.3403C73.4728 12.5912 73.6963 12.3196 73.9796 12.1383C74.263 11.9569 74.592 11.8749 74.921 11.9035C75.1787 11.8828 75.4375 11.9244 75.6781 12.0254C75.9188 12.1264 76.1352 12.2842 76.3113 12.487C76.4874 12.6898 76.6186 12.9325 76.6953 13.1971C76.772 13.4617 76.7922 13.7414 76.7544 14.0155V17.6913H75.709V14.2969C75.709 13.3844 75.3391 12.9306 74.566 12.9306C74.391 12.9218 74.2163 12.9538 74.0539 13.0242C73.8915 13.0946 73.7453 13.2018 73.6251 13.3385C73.505 13.4751 73.4138 13.638 73.3579 13.816C73.302 13.994 73.2827 14.1828 73.3012 14.3695V17.6913H72.2559L72.2559 12.0131Z" fill="white"/>
<path d="M78.418 9.79663H79.4633V17.6914H78.418V9.79663Z" fill="white"/>
<path d="M80.918 14.8498C80.8848 14.4767 80.9246 14.1001 81.035 13.7444C81.1454 13.3887 81.324 13.0617 81.5592 12.7843C81.7944 12.5069 82.0811 12.2853 82.4009 12.1336C82.7207 11.9819 83.0666 11.9036 83.4163 11.9036C83.766 11.9036 84.1118 11.9819 84.4316 12.1336C84.7514 12.2853 85.0381 12.5069 85.2734 12.7843C85.5086 13.0617 85.6871 13.3887 85.7975 13.7444C85.9079 14.1001 85.9478 14.4767 85.9145 14.8498C85.9484 15.2234 85.909 15.6004 85.7989 15.9567C85.6888 16.3129 85.5103 16.6406 85.275 16.9185C85.0398 17.1964 84.7529 17.4185 84.4327 17.5705C84.1126 17.7225 83.7664 17.801 83.4163 17.801C83.0662 17.801 82.7199 17.7225 82.3998 17.5705C82.0797 17.4185 81.7928 17.1964 81.5575 16.9185C81.3222 16.6406 81.1438 16.3129 81.0337 15.9567C80.9235 15.6004 80.8841 15.2234 80.918 14.8498ZM84.8387 14.8498C84.8387 13.619 84.3229 12.8992 83.4177 12.8992C82.5091 12.8992 81.9979 13.619 81.9979 14.8499C81.9979 16.0905 82.5091 16.8048 83.4177 16.8048C84.3229 16.8048 84.8387 16.0856 84.8387 14.8498H84.8387Z" fill="white"/>
<path d="M87.0176 16.0855C87.0176 15.0634 87.7275 14.4742 88.9877 14.3905L90.4225 14.3018V13.8117C90.4225 13.212 90.0526 12.8733 89.338 12.8733C88.7545 12.8733 88.3501 13.103 88.2341 13.5044H87.2221C87.3289 12.5291 88.1847 11.9036 89.3863 11.9036C90.7142 11.9036 91.4632 12.6122 91.4632 13.8117V17.6913H90.4569V16.8934H90.3742C90.2063 17.1796 89.9706 17.413 89.6911 17.5696C89.4116 17.7262 89.0983 17.8005 88.7832 17.7849C88.5608 17.8097 88.3361 17.7843 88.1235 17.7102C87.9108 17.6362 87.715 17.5153 87.5487 17.3552C87.3823 17.195 87.2491 16.9993 87.1576 16.7807C87.0662 16.562 87.0185 16.3252 87.0176 16.0855ZM90.4225 15.6003V15.1256L89.129 15.2143C88.3995 15.2666 88.0687 15.5326 88.0687 16.0332C88.0687 16.5442 88.4822 16.8416 89.0509 16.8416C89.2175 16.8597 89.3858 16.8417 89.5458 16.7886C89.7058 16.7355 89.8542 16.6485 89.9822 16.5327C90.1101 16.4169 90.215 16.2746 90.2907 16.1145C90.3663 15.9543 90.4111 15.7795 90.4225 15.6003Z" fill="white"/>
<path d="M92.8359 14.8499C92.8359 13.0557 93.6964 11.919 95.0346 11.919C95.3657 11.9027 95.6942 11.9877 95.9819 12.1641C96.2695 12.3405 96.5043 12.601 96.659 12.9152H96.7371V9.79663H97.7824V17.6914H96.7807V16.7943H96.698C96.5315 17.1064 96.2884 17.3637 95.9952 17.5383C95.702 17.7129 95.3698 17.7982 95.0346 17.785C93.6872 17.7851 92.8359 16.6484 92.8359 14.8499ZM93.9158 14.8499C93.9158 16.0542 94.4454 16.7789 95.3311 16.7789C96.2121 16.7789 96.7566 16.0438 96.7566 14.8548C96.7566 13.6714 96.2064 12.9257 95.3311 12.9257C94.4511 12.9257 93.9158 13.6554 93.9158 14.8499H93.9158Z" fill="white"/>
<path d="M102.108 14.85C102.074 14.4768 102.114 14.1003 102.224 13.7446C102.335 13.389 102.513 13.0619 102.749 12.7845C102.984 12.5071 103.27 12.2855 103.59 12.1338C103.91 11.9822 104.256 11.9038 104.605 11.9038C104.955 11.9038 105.301 11.9822 105.621 12.1338C105.941 12.2855 106.227 12.5071 106.462 12.7845C106.698 13.0619 106.876 13.389 106.987 13.7446C107.097 14.1003 107.137 14.4768 107.103 14.85C107.137 15.2235 107.098 15.6005 106.988 15.9568C106.878 16.3131 106.699 16.6407 106.464 16.9186C106.229 17.1966 105.942 17.4187 105.622 17.5707C105.302 17.7227 104.956 17.8012 104.605 17.8012C104.255 17.8012 103.909 17.7227 103.589 17.5707C103.269 17.4187 102.982 17.1966 102.747 16.9186C102.512 16.6407 102.333 16.3131 102.223 15.9568C102.113 15.6005 102.074 15.2235 102.108 14.85ZM106.028 14.85C106.028 13.6192 105.512 12.8994 104.607 12.8994C103.699 12.8994 103.187 13.6192 103.187 14.85C103.187 16.0907 103.699 16.8049 104.607 16.8049C105.512 16.8049 106.028 16.0857 106.028 14.85Z" fill="white"/>
<path d="M108.504 12.0131H109.51V12.9152H109.588C109.721 12.5912 109.944 12.3196 110.228 12.1383C110.511 11.9569 110.84 11.8749 111.169 11.9035C111.427 11.8828 111.686 11.9244 111.926 12.0254C112.167 12.1264 112.383 12.2842 112.559 12.487C112.735 12.6898 112.867 12.9325 112.943 13.1971C113.02 13.4617 113.04 13.7414 113.002 14.0155V17.6913H111.957V14.2969C111.957 13.3844 111.587 12.9306 110.814 12.9306C110.639 12.9218 110.464 12.9538 110.302 13.0242C110.14 13.0946 109.993 13.2018 109.873 13.3385C109.753 13.4751 109.662 13.638 109.606 13.816C109.55 13.994 109.531 14.1828 109.549 14.3695V17.6913H108.504V12.0131Z" fill="white"/>
<path d="M118.909 10.5996V12.0392H120.056V12.9831H118.909V15.9028C118.909 16.4976 119.137 16.7581 119.658 16.7581C119.791 16.7576 119.924 16.749 120.056 16.7322V17.6656C119.869 17.7016 119.679 17.7208 119.488 17.7229C118.325 17.7229 117.862 17.2845 117.862 16.1897V12.983H117.021V12.0391H117.862V10.5996H118.909Z" fill="white"/>
<path d="M121.484 9.79663H122.521V12.9257H122.603C122.742 12.5987 122.972 12.3256 123.261 12.1436C123.55 11.9616 123.884 11.8795 124.218 11.9086C124.475 11.8936 124.731 11.9395 124.969 12.0429C125.207 12.1464 125.421 12.3049 125.595 12.5071C125.769 12.7092 125.9 12.9502 125.977 13.2126C126.054 13.4751 126.077 13.7526 126.043 14.0254V17.6914H124.996V14.3019C124.996 13.3949 124.602 12.9356 123.863 12.9356C123.684 12.9198 123.503 12.9463 123.334 13.0132C123.165 13.0801 123.011 13.1858 122.884 13.3229C122.757 13.46 122.66 13.6252 122.599 13.807C122.537 13.9887 122.514 14.1826 122.53 14.3751V17.6914H121.484L121.484 9.79663Z" fill="white"/>
<path d="M132.14 16.1583C131.998 16.6772 131.69 17.1261 131.27 17.4264C130.851 17.7268 130.346 17.8593 129.844 17.801C129.495 17.8109 129.149 17.7393 128.828 17.5911C128.508 17.4429 128.221 17.2216 127.988 16.9428C127.755 16.6639 127.582 16.3341 127.48 15.9762C127.378 15.6183 127.35 15.2409 127.398 14.8702C127.351 14.4984 127.38 14.1201 127.481 13.7612C127.583 13.4022 127.756 13.0709 127.987 12.7896C128.219 12.5083 128.504 12.2836 128.824 12.1307C129.143 11.9779 129.49 11.9005 129.84 11.9037C131.314 11.9037 132.203 12.9831 132.203 14.7661V15.1571H128.462V15.2199C128.446 15.4283 128.471 15.6381 128.534 15.8357C128.598 16.0334 128.699 16.2146 128.832 16.3678C128.965 16.5209 129.126 16.6426 129.305 16.7251C129.485 16.8076 129.678 16.849 129.873 16.8466C130.123 16.8788 130.377 16.8305 130.601 16.708C130.825 16.5854 131.011 16.394 131.133 16.1583L132.14 16.1583ZM128.462 14.3284H131.138C131.151 14.1378 131.127 13.9464 131.067 13.7664C131.007 13.5864 130.913 13.4219 130.79 13.2834C130.667 13.1448 130.519 13.0354 130.354 12.962C130.189 12.8887 130.012 12.853 129.834 12.8574C129.653 12.855 129.474 12.8914 129.306 12.9644C129.139 13.0375 128.987 13.1458 128.859 13.2829C128.731 13.4199 128.63 13.5831 128.562 13.7626C128.494 13.9422 128.46 14.1346 128.462 14.3284H128.462Z" fill="white"/>
<path d="M60.1307 34.1944H54.5627L53.2256 38.4269H50.8672L56.1411 22.7678H58.5914L63.8653 38.4269H61.4667L60.1307 34.1944ZM55.1394 32.2413H59.5529L57.3772 25.3724H57.3163L55.1394 32.2413Z" fill="white"/>
<path d="M75.2547 32.719C75.2547 36.2668 73.4833 38.5462 70.8102 38.5462C70.133 38.5841 69.4596 38.4169 68.867 38.0637C68.2744 37.7104 67.7865 37.1854 67.4593 36.5487H67.4087V42.2035H65.2227V27.01H67.3386V28.9089H67.3789C67.7211 28.2753 68.2172 27.753 68.8143 27.3976C69.4115 27.0422 70.0873 26.8669 70.77 26.8905C73.473 26.8905 75.2547 29.181 75.2547 32.719ZM73.0077 32.719C73.0077 30.4076 71.8935 28.8879 70.1933 28.8879C68.523 28.8879 67.3996 30.4396 67.3996 32.719C67.3996 35.0193 68.523 36.5598 70.1933 36.5598C71.8935 36.5598 73.0077 35.0513 73.0077 32.719H73.0077Z" fill="white"/>
<path d="M86.9779 32.719C86.9779 36.2668 85.206 38.5462 82.5329 38.5462C81.8557 38.5841 81.1823 38.4169 80.5896 38.0637C79.997 37.7104 79.5092 37.1854 79.182 36.5487H79.1314V42.2035H76.9453V27.01H79.0613V28.9089H79.1015C79.4438 28.2753 79.9399 27.753 80.537 27.3976C81.1341 27.0422 81.81 26.8669 82.4926 26.8905C85.1957 26.8905 86.9779 29.181 86.9779 32.719ZM84.7304 32.719C84.7304 30.4076 83.6161 28.8879 81.916 28.8879C80.2457 28.8879 79.1222 30.4396 79.1222 32.719C79.1222 35.0193 80.2457 36.5598 81.916 36.5598C83.6161 36.5598 84.7304 35.0513 84.7304 32.719Z" fill="white"/>
<path d="M94.7241 34.0638C94.8861 35.6166 96.2933 36.6362 98.2163 36.6362C100.059 36.6362 101.385 35.6166 101.385 34.2164C101.385 33.001 100.585 32.2732 98.6919 31.7744L96.7988 31.2856C94.1165 30.591 92.8712 29.2463 92.8712 27.0642C92.8712 24.3624 95.0676 22.5066 98.1853 22.5066C101.273 22.5066 103.389 24.3624 103.46 27.0642H101.254C101.122 25.5015 99.9165 24.5582 98.1554 24.5582C96.3944 24.5582 95.1894 25.5126 95.1894 26.9016C95.1894 28.0087 95.959 28.6601 97.8418 29.1588L99.4512 29.5824C102.448 30.3422 103.692 31.6328 103.692 33.9233C103.692 36.8529 101.517 38.6877 98.0543 38.6877C94.8148 38.6877 92.6276 36.896 92.4863 34.0636L94.7241 34.0638Z" fill="white"/>
<path d="M108.413 24.3083V27.0101H110.438V28.8659H108.413V35.1598C108.413 36.1376 108.818 36.5932 109.709 36.5932C109.949 36.5887 110.189 36.5706 110.428 36.539V38.3837C110.028 38.4639 109.621 38.5002 109.214 38.4921C107.057 38.4921 106.216 37.6239 106.216 35.4098V28.8659H104.668V27.0101H106.216V24.3083H108.413Z" fill="white"/>
<path d="M111.609 32.719C111.609 29.1269 113.583 26.8696 116.66 26.8696C119.748 26.8696 121.713 29.1268 121.713 32.719C121.713 36.321 119.759 38.5683 116.66 38.5683C113.563 38.5683 111.609 36.3209 111.609 32.719ZM119.485 32.719C119.485 30.2549 118.432 28.8005 116.66 28.8005C114.889 28.8005 113.836 30.266 113.836 32.719C113.836 35.1929 114.889 36.6362 116.66 36.6362C118.432 36.6362 119.485 35.1929 119.485 32.719H119.485Z" fill="white"/>
<path d="M123.516 27.0101H125.601V28.9533H125.651C125.792 28.3464 126.124 27.8101 126.59 27.4344C127.057 27.0588 127.63 26.8668 128.213 26.8907C128.465 26.8897 128.716 26.919 128.962 26.9781V29.1701C128.644 29.0659 128.312 29.018 127.98 29.0285C127.662 29.0146 127.345 29.0747 127.052 29.2044C126.758 29.3341 126.493 29.5305 126.277 29.7801C126.061 30.0296 125.897 30.3264 125.798 30.6501C125.699 30.9737 125.666 31.3166 125.702 31.6551V38.4268H123.516L123.516 27.0101Z" fill="white"/>
<path d="M139.041 35.0735C138.746 37.146 136.864 38.5683 134.455 38.5683C131.357 38.5683 129.434 36.3431 129.434 32.7732C129.434 29.1921 131.367 26.8696 134.363 26.8696C137.309 26.8696 139.162 29.0394 139.162 32.501V33.3039H131.64V33.4455C131.606 33.8657 131.655 34.289 131.784 34.6872C131.914 35.0855 132.121 35.4497 132.392 35.7555C132.663 36.0614 132.992 36.3019 133.356 36.4612C133.72 36.6205 134.112 36.6948 134.505 36.6793C135.022 36.7312 135.54 36.6029 135.983 36.3136C136.427 36.0243 136.771 35.5893 136.965 35.0735L139.041 35.0735ZM131.651 31.6661H136.975C136.995 31.2883 136.941 30.9102 136.818 30.5556C136.695 30.201 136.505 29.8775 136.26 29.6055C136.014 29.3334 135.719 29.1186 135.393 28.9746C135.066 28.8305 134.716 28.7604 134.363 28.7685C134.007 28.7662 133.654 28.8396 133.325 28.9842C132.995 29.1289 132.696 29.3421 132.444 29.6115C132.191 29.8809 131.992 30.2012 131.855 30.5538C131.719 30.9064 131.65 31.2845 131.651 31.6661V31.6661Z" fill="white"/>
<defs>
<linearGradient id="paint0_linear_5259_870" x1="-22.6501" y1="-18.2493" x2="172.581" y2="45.4734" gradientUnits="userSpaceOnUse">
<stop stop-color="#090C0F"/>
<stop offset="0.694999" stop-color="#1A1F25"/>
<stop offset="1" stop-color="#090C0F"/>
</linearGradient>
<linearGradient id="paint1_linear_5259_870" x1="-5.7001e-10" y1="7.04618" x2="147.791" y2="43.0456" gradientUnits="userSpaceOnUse">
<stop stop-color="#727272"/>
<stop offset="0.865222" stop-color="#121212"/>
<stop offset="1" stop-color="#4C4C4C"/>
</linearGradient>
</defs>
</svg>
