<svg width="133" height="26" viewBox="0 0 133 26" fill="none" xmlns="http://www.w3.org/2000/svg">
<g clip-path="url(#clip0_2127_1973)">
<path d="M21.25 10.59L3.46 0.310022C3.109 0.108541 2.71123 0.0028116 2.30652 0.00342058C1.90181 0.00402957 1.50436 0.110956 1.15397 0.313492C0.803583 0.516029 0.512556 0.807066 0.310032 1.15746C0.107507 1.50786 0.000594925 1.90531 0 2.31002L0 22.86C0.000594925 23.2647 0.107507 23.6622 0.310032 24.0126C0.512556 24.363 0.803583 24.654 1.15397 24.8566C1.50436 25.0591 1.90181 25.166 2.30652 25.1666C2.71123 25.1672 3.109 25.0615 3.46 24.86L21.25 14.58C21.6011 14.3786 21.8929 14.088 22.0957 13.7377C22.2986 13.3875 22.4055 12.9898 22.4055 12.585C22.4055 12.1802 22.2986 11.7826 22.0957 11.4323C21.8929 11.082 21.6011 10.7915 21.25 10.59Z" fill="#062325"/>
<path d="M48.6895 10.59L30.8895 0.310011C30.5392 0.107796 30.1419 0.0015064 29.7374 0.00186246C29.333 0.00221853 28.9358 0.109207 28.5859 0.31204C28.236 0.514872 27.9458 0.806376 27.7445 1.15716C27.5433 1.50794 27.438 1.90559 27.4395 2.31001V22.86C27.4411 23.2633 27.5482 23.6591 27.7502 24.0081C27.9522 24.3571 28.242 24.6471 28.5909 24.8494C28.9398 25.0516 29.3355 25.159 29.7388 25.1609C30.142 25.1628 30.5387 25.059 30.8895 24.86L48.6895 14.58C49.0406 14.3786 49.3323 14.088 49.5352 13.7377C49.7381 13.3874 49.8449 12.9898 49.8449 12.585C49.8449 12.1802 49.7381 11.7826 49.5352 11.4323C49.3323 11.082 49.0406 10.7915 48.6895 10.59Z" fill="#12464A"/>
<path d="M76.1309 10.59L58.3309 0.310011C57.9806 0.107796 57.5833 0.0015064 57.1788 0.00186246C56.7744 0.00221853 56.3772 0.109207 56.0273 0.31204C55.6775 0.514872 55.3872 0.806376 55.186 1.15716C54.9847 1.50794 54.8794 1.90559 54.8809 2.31001V22.86C54.8825 23.2633 54.9896 23.6591 55.1916 24.0081C55.3936 24.3571 55.6834 24.6471 56.0323 24.8494C56.3812 25.0516 56.7769 25.159 57.1802 25.1609C57.5834 25.1628 57.9801 25.059 58.3309 24.86L76.1309 14.58C76.482 14.3786 76.7737 14.088 76.9766 13.7377C77.1795 13.3874 77.2863 12.9898 77.2863 12.585C77.2863 12.1802 77.1795 11.7826 76.9766 11.4323C76.7737 11.082 76.482 10.7915 76.1309 10.59Z" fill="#00ECFF" fill-opacity="0.42"/>
<path d="M103.571 10.59L85.7705 0.310022C85.4196 0.108541 85.0218 0.0028116 84.6171 0.00342058C84.2124 0.00402957 83.8149 0.110956 83.4645 0.313492C83.1141 0.516029 82.8231 0.807066 82.6206 1.15746C82.4181 1.50786 82.3111 1.90531 82.3105 2.31002V22.86C82.3111 23.2647 82.4181 23.6622 82.6206 24.0126C82.8231 24.363 83.1141 24.654 83.4645 24.8566C83.8149 25.0591 84.2124 25.166 84.6171 25.1666C85.0218 25.1672 85.4196 25.0615 85.7705 24.86L103.571 14.58C103.919 14.3765 104.208 14.0853 104.409 13.7353C104.61 13.3852 104.716 12.9886 104.716 12.585C104.716 12.1814 104.61 11.7848 104.409 11.4348C104.208 11.0848 103.919 10.7935 103.571 10.59Z" fill="#00ECFF" fill-opacity="0.67"/>
<path d="M131 10.59L113.21 0.310022C112.859 0.108541 112.461 0.0028116 112.057 0.00342058C111.652 0.00402957 111.254 0.110956 110.904 0.313492C110.554 0.516029 110.263 0.807066 110.06 1.15746C109.858 1.50786 109.751 1.90531 109.75 2.31002V22.86C109.751 23.2647 109.858 23.6622 110.06 24.0126C110.263 24.363 110.554 24.654 110.904 24.8566C111.254 25.0591 111.652 25.166 112.057 25.1666C112.461 25.1672 112.859 25.0615 113.21 24.86L131 14.58C131.349 14.3765 131.638 14.0853 131.839 13.7353C132.04 13.3852 132.145 12.9886 132.145 12.585C132.145 12.1814 132.04 11.7848 131.839 11.4348C131.638 11.0848 131.349 10.7935 131 10.59Z" fill="#FFEB81"/>
</g>
<defs>
<clipPath id="clip0_2127_1973">
<rect width="132.16" height="25.17" fill="white"/>
</clipPath>
</defs>
</svg>
