<svg width="778" height="386" viewBox="0 0 778 386" fill="none" xmlns="http://www.w3.org/2000/svg">
<path style="mix-blend-mode:color-dodge" d="M778 141.5L565.914 264.84H226.11L0 148.5L410.5 0L778 141.5Z" fill="url(#paint0_linear_2195_800)"/>
<path d="M565.891 264.864C565.912 266.676 565.378 268.452 564.362 269.954C563.346 271.455 561.895 272.61 560.204 273.264L522.542 288.223L418.454 329.774C404.006 335.531 387.901 335.531 373.453 329.774L269.388 288.223L231.798 273.216C230.117 272.544 228.676 271.383 227.661 269.883C226.646 268.384 226.104 266.615 226.104 264.805C226.104 262.994 226.646 261.225 227.661 259.726C228.676 258.227 230.117 257.066 231.798 256.393L373.5 199.764C387.944 193.984 404.058 193.984 418.501 199.764L560.204 256.393C561.906 257.051 563.365 258.217 564.382 259.732C565.4 261.247 565.926 263.039 565.891 264.864Z" fill="url(#paint1_linear_2195_800)"/>
<path d="M565.89 264.864V311.818C565.913 313.634 565.38 315.414 564.364 316.919C563.348 318.425 561.896 319.584 560.203 320.242L418.5 376.871C404.052 382.627 387.948 382.627 373.5 376.871L231.915 320.242C230.197 319.604 228.717 318.454 227.675 316.947C226.632 315.441 226.078 313.65 226.086 311.818V264.864C226.07 266.678 226.609 268.455 227.629 269.956C228.649 271.457 230.103 272.611 231.797 273.263L269.388 288.223L373.5 329.774C387.948 335.531 404.052 335.531 418.5 329.774L522.541 288.223L560.297 273.263C561.971 272.595 563.402 271.433 564.4 269.933C565.399 268.433 565.918 266.665 565.89 264.864Z" fill="white"/>
<path d="M395.987 378.711C388.574 378.711 381.229 377.293 374.349 374.535L232.764 317.906C231.499 317.412 230.415 316.545 229.656 315.419C228.898 314.294 228.5 312.963 228.516 311.606V274.066C229.303 274.643 230.159 275.119 231.065 275.482L372.768 332.111C387.76 338.087 404.474 338.087 419.467 332.111L523.555 290.559L561.17 275.576C562.076 275.213 562.932 274.738 563.718 274.16V311.913C563.735 313.27 563.337 314.6 562.578 315.726C561.819 316.851 560.735 317.719 559.471 318.213L417.886 374.842C410.902 377.525 403.468 378.839 395.987 378.711Z" fill="url(#paint2_linear_2195_800)"/>
<path style="mix-blend-mode:color-dodge" d="M543.78 240.159L416.354 189.24C403.351 184.073 388.863 184.073 375.86 189.24L248.434 240.159C246.923 240.767 245.628 241.813 244.716 243.163C243.804 244.513 243.316 246.104 243.316 247.733C243.316 249.362 243.804 250.954 244.716 252.304C245.628 253.653 246.923 254.7 248.434 255.308L282.273 268.828L375.978 306.226C388.977 311.418 403.473 311.418 416.472 306.226L510.201 268.828L543.78 255.308C545.301 254.709 546.606 253.666 547.526 252.315C548.446 250.964 548.938 249.368 548.938 247.733C548.938 246.099 548.446 244.503 547.526 243.152C546.606 241.801 545.301 240.758 543.78 240.159ZM542.931 252.146L509.092 265.666L415.363 303.065C402.909 308.036 389.022 308.036 376.568 303.065L249.142 252.146C248.054 251.708 247.123 250.955 246.466 249.984C245.81 249.013 245.46 247.867 245.46 246.695C245.46 245.523 245.81 244.378 246.466 243.406C247.123 242.435 248.054 241.682 249.142 241.245L376.592 190.349C389.045 185.378 402.933 185.378 415.386 190.349L542.954 241.245C544.042 241.682 544.973 242.435 545.63 243.406C546.286 244.378 546.636 245.523 546.636 246.695C546.636 247.867 546.286 249.013 545.63 249.984C544.973 250.955 544.042 251.708 542.954 252.146H542.931Z" fill="url(#paint3_linear_2195_800)"/>
<path style="mix-blend-mode:color-dodge" d="M546.635 246.695C546.651 247.871 546.307 249.023 545.649 249.998C544.991 250.972 544.05 251.722 542.953 252.146L509.115 265.666L415.385 303.064C402.932 308.036 389.045 308.036 376.591 303.064L249.165 252.146C248.077 251.708 247.145 250.955 246.489 249.984C245.833 249.013 245.482 247.867 245.482 246.695C245.482 245.523 245.833 244.378 246.489 243.406C247.145 242.435 248.077 241.682 249.165 241.245L376.591 190.349C389.045 185.378 402.932 185.378 415.385 190.349L542.953 241.245C544.048 241.671 544.987 242.422 545.645 243.395C546.302 244.369 546.648 245.52 546.635 246.695Z" fill="url(#paint4_linear_2195_800)"/>
<path style="mix-blend-mode:color-dodge" d="M548.924 247.733V260.546C548.947 262.18 548.468 263.782 547.553 265.136C546.637 266.491 545.329 267.532 543.803 268.12L416.353 319.039C403.355 324.23 388.859 324.23 375.86 319.039L248.434 268.12C246.906 267.533 245.594 266.492 244.675 265.139C243.755 263.785 243.272 262.182 243.29 260.546V247.733C243.272 249.37 243.755 250.972 244.675 252.326C245.594 253.68 246.906 254.72 248.434 255.308L282.273 268.828L375.978 306.226C388.977 311.418 403.473 311.418 416.471 306.226L510.201 268.828L543.78 255.308C545.31 254.723 546.623 253.684 547.543 252.329C548.463 250.975 548.945 249.371 548.924 247.733Z" fill="url(#paint5_linear_2195_800)"/>
<path d="M522.518 316.302L464.893 339.378V333.172L522.518 310.12V316.302Z" fill="white"/>
<path d="M269.482 316.302L327.107 339.378V333.172L269.482 310.12V316.302Z" fill="white"/>
<path style="mix-blend-mode:color-dodge" d="M598.678 345.519L521.637 385.193L465.217 339.288L521.974 314.269L598.678 345.519Z" fill="url(#paint6_linear_2195_800)"/>
<path style="mix-blend-mode:color-dodge" d="M193.58 345.463L270.621 385.137L327.041 339.232L270.284 314.212L193.58 345.463Z" fill="url(#paint7_linear_2195_800)"/>
<defs>
<linearGradient id="paint0_linear_2195_800" x1="395.988" y1="-1.05619" x2="395.988" y2="264.297" gradientUnits="userSpaceOnUse">
<stop stop-color="#0F151A" stop-opacity="0"/>
<stop offset="0.618068" stop-color="#55595C" stop-opacity="0"/>
<stop offset="1" stop-color="white"/>
</linearGradient>
<linearGradient id="paint1_linear_2195_800" x1="312.595" y1="351.765" x2="479.39" y2="177.923" gradientUnits="userSpaceOnUse">
<stop stop-color="white"/>
<stop offset="0.07" stop-color="#FF00FF"/>
<stop offset="0.09" stop-color="#CB0DFC"/>
<stop offset="0.11" stop-color="#9B1AFA"/>
<stop offset="0.13" stop-color="#7124F8"/>
<stop offset="0.16" stop-color="#4F2DF6"/>
<stop offset="0.18" stop-color="#3533F5"/>
<stop offset="0.21" stop-color="#2238F4"/>
<stop offset="0.23" stop-color="#173BF3"/>
<stop offset="0.26" stop-color="#133CF3"/>
<stop offset="0.94" stop-color="#52EAFF"/>
<stop offset="0.95" stop-color="#67ECFF"/>
<stop offset="0.97" stop-color="#88F0FF"/>
<stop offset="0.98" stop-color="#B6F6FF"/>
<stop offset="1" stop-color="white"/>
</linearGradient>
<linearGradient id="paint2_linear_2195_800" x1="226.44" y1="326.353" x2="565.842" y2="326.353" gradientUnits="userSpaceOnUse">
<stop stop-color="white"/>
<stop offset="0.13" stop-color="#4BE9FF"/>
<stop offset="0.17" stop-color="#3FC3FC"/>
<stop offset="0.23" stop-color="#319AFA"/>
<stop offset="0.28" stop-color="#2678F7"/>
<stop offset="0.34" stop-color="#1E5EF5"/>
<stop offset="0.4" stop-color="#184BF4"/>
<stop offset="0.46" stop-color="#1440F3"/>
<stop offset="0.53" stop-color="#133CF3"/>
<stop offset="1" stop-color="#FF00FF"/>
</linearGradient>
<linearGradient id="paint3_linear_2195_800" x1="263.914" y1="227.654" x2="531.508" y2="268.339" gradientUnits="userSpaceOnUse">
<stop stop-color="white"/>
<stop offset="0.03" stop-color="#DFDFDF"/>
<stop offset="0.12" stop-color="#808080"/>
<stop offset="0.19" stop-color="#3B3B3B"/>
<stop offset="0.24" stop-color="#101010"/>
<stop offset="0.27"/>
<stop offset="0.39" stop-color="#030303"/>
<stop offset="0.49" stop-color="#0D0D0D"/>
<stop offset="0.58" stop-color="#1D1D1D"/>
<stop offset="0.66" stop-color="#343434"/>
<stop offset="0.73" stop-color="#525252"/>
<stop offset="0.81" stop-color="#777777"/>
<stop offset="0.88" stop-color="#A2A2A2"/>
<stop offset="0.95" stop-color="#D3D3D3"/>
<stop offset="1" stop-color="white"/>
</linearGradient>
<linearGradient id="paint4_linear_2195_800" x1="396.012" y1="156.608" x2="396.012" y2="310.285" gradientUnits="userSpaceOnUse">
<stop stop-color="white"/>
<stop offset="0.03" stop-color="#DFDFDF"/>
<stop offset="0.12" stop-color="#808080"/>
<stop offset="0.19" stop-color="#3B3B3B"/>
<stop offset="0.24" stop-color="#101010"/>
<stop offset="0.27"/>
<stop offset="0.39" stop-color="#030303"/>
<stop offset="0.49" stop-color="#0D0D0D"/>
<stop offset="0.58" stop-color="#1D1D1D"/>
<stop offset="0.66" stop-color="#343434"/>
<stop offset="0.73" stop-color="#525252"/>
<stop offset="0.81" stop-color="#777777"/>
<stop offset="0.88" stop-color="#A2A2A2"/>
<stop offset="0.95" stop-color="#D3D3D3"/>
<stop offset="1" stop-color="white"/>
</linearGradient>
<linearGradient id="paint5_linear_2195_800" x1="243.054" y1="285.321" x2="550.033" y2="285.321" gradientUnits="userSpaceOnUse">
<stop/>
<stop offset="0.05" stop-color="#000404"/>
<stop offset="0.11" stop-color="#001111"/>
<stop offset="0.16" stop-color="#002626"/>
<stop offset="0.22" stop-color="#004343"/>
<stop offset="0.28" stop-color="#006868"/>
<stop offset="0.33" stop-color="#009696"/>
<stop offset="0.39" stop-color="#00CCCC"/>
<stop offset="0.44" stop-color="#00F6F6"/>
<stop offset="0.45" stop-color="#00C8C8"/>
<stop offset="0.46" stop-color="#009D9D"/>
<stop offset="0.48" stop-color="#007777"/>
<stop offset="0.49" stop-color="#005757"/>
<stop offset="0.51" stop-color="#003B3B"/>
<stop offset="0.53" stop-color="#002525"/>
<stop offset="0.55" stop-color="#001414"/>
<stop offset="0.58" stop-color="#000909"/>
<stop offset="0.62" stop-color="#000202"/>
<stop offset="0.73"/>
<stop offset="0.78" stop-color="#000303"/>
<stop offset="0.81" stop-color="#000D0D"/>
<stop offset="0.84" stop-color="#001E1E"/>
<stop offset="0.87" stop-color="#003636"/>
<stop offset="0.9" stop-color="#005555"/>
<stop offset="0.93" stop-color="#007B7B"/>
<stop offset="0.96" stop-color="#00A7A7"/>
<stop offset="0.98" stop-color="#00DADA"/>
<stop offset="1" stop-color="#00FFFF"/>
</linearGradient>
<linearGradient id="paint6_linear_2195_800" x1="545.27" y1="373.195" x2="512.84" y2="313.033" gradientUnits="userSpaceOnUse">
<stop stop-color="#0F151A" stop-opacity="0"/>
<stop offset="1" stop-color="white"/>
</linearGradient>
<linearGradient id="paint7_linear_2195_800" x1="246.988" y1="373.139" x2="279.418" y2="312.977" gradientUnits="userSpaceOnUse">
<stop stop-color="#0F151A" stop-opacity="0"/>
<stop offset="1" stop-color="white"/>
</linearGradient>
</defs>
</svg>
