<svg width="25" height="25" viewBox="0 0 25 25" fill="none" xmlns="http://www.w3.org/2000/svg">
<g id="Group 1171276273">
<circle id="Ellipse 207" cx="12.5" cy="12.5" r="12" fill="url(#paint0_linear_1804_1161)" stroke="url(#paint1_linear_1804_1161)"/>
<g id="Layer_x0020_1">
<g id="_1421394342400">
<g id="Group">
<path id="Vector" d="M12.4993 5.2085L12.4082 5.56457V15.8961L12.4993 16.0006L16.6646 13.1659L12.4993 5.2085Z" fill="#343434"/>
<path id="Vector_2" d="M12.4994 5.2085L8.33398 13.1659L12.4994 16.0006V10.986V5.2085Z" fill="#8C8C8C"/>
<path id="Vector_3" d="M12.4996 16.9085L12.4482 16.9805V20.6608L12.4996 20.8332L16.6674 14.0752L12.4996 16.9085Z" fill="#3C3C3B"/>
<path id="Vector_4" d="M12.4994 20.8332V16.9085L8.33398 14.0752L12.4994 20.8332Z" fill="#8C8C8C"/>
<path id="Vector_5" d="M12.5 16.0007L16.6653 13.1659L12.5 10.9861V16.0007Z" fill="#141414"/>
<path id="Vector_6" d="M8.33398 13.1659L12.4994 16.0007V10.9861L8.33398 13.1659Z" fill="#393939"/>
</g>
</g>
</g>
</g>
<defs>
<linearGradient id="paint0_linear_1804_1161" x1="12.5" y1="2.37064e-07" x2="4.54545" y2="25" gradientUnits="userSpaceOnUse">
<stop stop-color="#BEBEBE"/>
<stop offset="1" stop-color="#E2E2E2"/>
</linearGradient>
<linearGradient id="paint1_linear_1804_1161" x1="12.5" y1="0" x2="12.5" y2="25" gradientUnits="userSpaceOnUse">
<stop stop-color="#B4B4B4"/>
<stop offset="1" stop-color="#4E4E4E"/>
</linearGradient>
</defs>
</svg>
