<svg width="164" height="53" viewBox="0 0 164 53" fill="none" xmlns="http://www.w3.org/2000/svg">
<rect x="0.721478" y="0.417828" width="162.449" height="52.1644" rx="9.09093" fill="url(#paint0_linear_2127_3159)"/>
<rect x="0.721478" y="0.417828" width="162.449" height="52.1644" rx="9.09093" stroke="url(#paint1_linear_2127_3159)" stroke-width="0.586511"/>
<path fill-rule="evenodd" clip-rule="evenodd" d="M12.6896 9.99414C12.3529 10.3826 12.1584 10.9763 12.1584 11.7533V39.3125C12.1584 40.0896 12.3529 40.6832 12.7012 41.0562L12.7912 41.1401L27.2106 25.6992V25.3542L12.7796 9.91022L12.6896 9.99414Z" fill="url(#paint2_linear_2127_3159)"/>
<path fill-rule="evenodd" clip-rule="evenodd" d="M32.0084 30.8618L27.199 25.7117V25.3512L32.0084 20.2011L32.1129 20.2695L37.8017 23.7319C39.43 24.714 39.43 26.3364 37.8017 27.331L32.1129 30.7934L32.0084 30.8618Z" fill="url(#paint3_linear_2127_3159)"/>
<path fill-rule="evenodd" clip-rule="evenodd" d="M32.1139 30.7934L27.2001 25.5314L12.6907 41.0687C13.2218 41.6778 14.1129 41.7462 15.1084 41.1526L32.1139 30.7934Z" fill="url(#paint4_linear_2127_3159)"/>
<path fill-rule="evenodd" clip-rule="evenodd" d="M32.1139 20.2695L15.1084 9.92582C14.1129 9.31663 13.2189 9.40055 12.6907 10.0097L27.2001 25.5314L32.1139 20.2695Z" fill="url(#paint5_linear_2127_3159)"/>
<path d="M88.1983 17.5679C87.1447 17.5679 86.2566 17.1732 85.5542 16.3962C84.8576 15.6409 84.4687 14.5997 84.4861 13.5368C84.4861 12.4023 84.846 11.4419 85.5542 10.6805C86.2537 9.90345 87.1418 9.50873 88.1954 9.50873C89.2374 9.50873 90.1255 9.90345 90.8395 10.6805C91.5477 11.4668 91.9076 12.4272 91.9076 13.5368C91.896 14.6743 91.5361 15.6347 90.8395 16.3931C90.1401 17.1763 89.2519 17.5679 88.1983 17.5679ZM56.8491 17.5679C55.8187 17.5679 54.9248 17.1794 54.1933 16.4117C53.4677 15.6472 53.0991 14.6806 53.0991 13.5399C53.0991 12.3992 53.4677 11.4326 54.1933 10.668C54.9102 9.90035 55.8042 9.51184 56.8491 9.51184C57.3599 9.51184 57.8562 9.62062 58.3322 9.84129C58.7995 10.0557 59.1797 10.3479 59.4613 10.7053L59.5309 10.7955L58.7444 11.6222L58.6631 11.5196C58.219 10.954 57.624 10.6774 56.8375 10.6774C56.1351 10.6774 55.5227 10.9447 55.0176 11.473C54.5097 12.0045 54.2514 12.7007 54.2514 13.543C54.2514 14.3853 54.5097 15.0815 55.0176 15.613C55.5227 16.1413 56.1351 16.4086 56.8375 16.4086C57.5863 16.4086 58.2161 16.1413 58.7066 15.613C58.9969 15.3022 59.1768 14.867 59.2407 14.3169H56.7185V13.1545H60.3233L60.3378 13.2602C60.3639 13.456 60.39 13.658 60.39 13.8445C60.39 14.9168 60.0882 15.7839 59.4903 16.4242C58.8111 17.1825 57.923 17.5679 56.8491 17.5679ZM98.531 17.4032H97.4194L94.0148 11.5694L94.0438 12.6199V17.4001H92.9322V9.67656H94.2006L94.2354 9.73562L97.4368 15.2307L97.4078 14.1833V9.67656H98.531V17.4032ZM79.8451 17.4032H78.719V10.839H76.7656V9.67656H81.7955V10.839H79.8422V17.4032H79.8451ZM75.8484 17.4032H74.7252V9.67656H75.8484V17.4032ZM69.5356 17.4032H68.4124V10.839H66.4591V9.67656H71.489V10.839H69.5356V17.4032ZM65.748 17.3908H61.4407V9.67656H65.748V10.839H62.5669V12.9587H65.4374V14.1087H62.5669V16.2284H65.748V17.3908ZM86.3785 15.5974C86.8806 16.1351 87.4901 16.4055 88.1983 16.4055C88.9268 16.4055 89.5218 16.1413 90.0182 15.5974C90.5116 15.0691 90.7612 14.376 90.7612 13.5399C90.7612 12.7038 90.5116 12.0076 90.021 11.4824C89.5189 10.9447 88.9065 10.6743 88.2012 10.6743C87.4727 10.6743 86.8777 10.9384 86.3843 11.4824C85.8909 12.0107 85.6413 12.7038 85.6413 13.5399C85.6413 14.376 85.888 15.0722 86.3785 15.5974Z" fill="white"/>
<path fill-rule="evenodd" clip-rule="evenodd" d="M84.6024 28.1467C81.8596 28.1467 79.6363 30.3752 79.6363 33.4491C79.6363 36.495 81.8741 38.7514 84.6024 38.7514C87.3453 38.7514 89.5685 36.5074 89.5685 33.4491C89.5685 30.3752 87.3453 28.1467 84.6024 28.1467ZM84.6024 36.6504C83.1019 36.6504 81.8103 35.3201 81.8103 33.4366C81.8103 31.5252 83.1048 30.2229 84.6024 30.2229C86.103 30.2229 87.3946 31.5252 87.3946 33.4366C87.3975 35.3325 86.103 36.6504 84.6024 36.6504ZM73.7675 28.1467C71.0247 28.1467 68.8014 30.3752 68.8014 33.4491C68.8014 36.495 71.0392 38.7514 73.7675 38.7514C76.5104 38.7514 78.7337 36.5074 78.7337 33.4491C78.7337 30.3752 76.5075 28.1467 73.7675 28.1467ZM73.7675 36.6504C72.267 36.6504 70.9754 35.3201 70.9754 33.4366C70.9754 31.5252 72.2699 30.2229 73.7675 30.2229C75.2681 30.2229 76.5597 31.5252 76.5597 33.4366C76.5597 35.3325 75.2681 36.6504 73.7675 36.6504ZM60.8748 29.766V32.01H65.9048C65.7509 33.2688 65.362 34.1981 64.767 34.8353C64.0298 35.6247 62.892 36.4825 60.8864 36.4825C57.7953 36.4825 55.3776 33.8096 55.3776 30.4995C55.3776 27.1894 57.7953 24.5165 60.8864 24.5165C62.5553 24.5165 63.7715 25.222 64.6741 26.1233L66.1602 24.532C64.9063 23.2453 63.2374 22.26 60.898 22.26C56.6575 22.26 53.0991 25.9586 53.0991 30.4871C53.0991 35.028 56.6546 38.7141 60.898 38.7141C63.1881 38.7141 64.9063 37.9122 66.2647 36.4017C67.6492 34.9192 68.0874 32.8274 68.0874 31.1398C68.0874 30.6145 68.0497 30.1421 67.9713 29.7411H60.8719C60.8748 29.738 60.8748 29.766 60.8748 29.766ZM113.61 31.5127C113.195 30.3223 111.941 28.1343 109.369 28.1343C106.821 28.1343 104.702 30.2819 104.702 33.4366C104.702 36.4142 106.798 38.739 109.616 38.739C111.88 38.739 113.197 37.2564 113.74 36.3862L112.06 35.1802C111.502 36.066 110.727 36.6473 109.627 36.6473C108.516 36.6473 107.738 36.1065 107.221 35.0404L113.842 32.1033C113.842 32.1064 113.61 31.5127 113.61 31.5127ZM106.858 33.2843C106.806 31.2361 108.345 30.1949 109.445 30.1949C110.312 30.1949 111.035 30.6518 111.282 31.3169L106.858 33.2843ZM101.48 38.422H103.654V22.8443H101.48V38.422ZM97.9102 29.3246H97.8318C97.3413 28.6999 96.4096 28.1343 95.2196 28.1343C92.7496 28.1343 90.4741 30.4622 90.4741 33.4522C90.4741 36.4297 92.738 38.7297 95.2196 38.7297C96.3951 38.7297 97.3413 38.1609 97.8318 37.5237H97.9102V38.2852C97.9102 40.3086 96.9002 41.3995 95.2719 41.3995C93.9396 41.3995 93.1124 40.3738 92.7758 39.516L90.8863 40.3614C91.429 41.76 92.8773 43.4912 95.269 43.4912C97.8173 43.4912 99.9768 41.8844 99.9768 37.9651V28.4513H97.9218V29.3246C97.9247 29.3246 97.9102 29.3246 97.9102 29.3246ZM95.4141 36.6504C93.9135 36.6504 92.6597 35.3077 92.6597 33.4522C92.6597 31.5811 93.9135 30.226 95.4141 30.226C96.9002 30.226 98.0524 31.5966 98.0524 33.4522C98.0669 35.3077 96.9031 36.6504 95.4141 36.6504ZM123.789 22.8443H118.59V38.422H120.764V32.5229H123.791C126.198 32.5229 128.563 30.6549 128.563 27.6898C128.563 24.7247 126.206 22.8443 123.789 22.8443ZM123.852 30.3472H120.761V25.0013H123.852C125.481 25.0013 126.401 26.4404 126.401 27.6743C126.401 28.8957 125.469 30.3472 123.852 30.3472ZM137.276 28.1187C135.697 28.1187 134.069 28.8678 133.396 30.4995L135.323 31.3573C135.738 30.4995 136.498 30.2073 137.302 30.2073C138.429 30.2073 139.566 30.9284 139.592 32.2152V32.3799C139.204 32.1437 138.35 31.7831 137.329 31.7831C135.247 31.7831 133.137 33.0015 133.137 35.2859C133.137 37.3777 134.844 38.7203 136.745 38.7203C138.205 38.7203 139.009 38.0148 139.511 37.1974H139.59V38.4033H141.685V32.4358C141.685 29.6572 139.758 28.1187 137.276 28.1187ZM137.003 36.6504C136.292 36.6504 135.297 36.2774 135.297 35.3201C135.297 34.1142 136.539 33.6573 137.598 33.6573C138.556 33.6573 139.009 33.878 139.578 34.1826C139.421 35.5812 138.318 36.6379 137.003 36.6504ZM149.33 28.4513L146.834 35.2082H146.756L144.17 28.4513H141.83L145.711 37.8967L143.499 43.1462H145.763L151.733 28.4513H149.33ZM129.762 38.422H131.936V22.8443H129.762V38.422Z" fill="white"/>
<defs>
<linearGradient id="paint0_linear_2127_3159" x1="-24.0447" y1="-19.1117" x2="184.912" y2="52.3787" gradientUnits="userSpaceOnUse">
<stop stop-color="#090C0F"/>
<stop offset="0.694999" stop-color="#1A1F25"/>
<stop offset="1" stop-color="#090C0F"/>
</linearGradient>
<linearGradient id="paint1_linear_2127_3159" x1="0.428223" y1="6.96265" x2="159.235" y2="47.51" gradientUnits="userSpaceOnUse">
<stop stop-color="#727272"/>
<stop offset="0.865222" stop-color="#121212"/>
<stop offset="1" stop-color="#4C4C4C"/>
</linearGradient>
<linearGradient id="paint2_linear_2127_3159" x1="25.9172" y1="11.456" x2="2.62224" y2="17.2523" gradientUnits="userSpaceOnUse">
<stop stop-color="#00A0FF"/>
<stop offset="0.00657" stop-color="#00A1FF"/>
<stop offset="0.2601" stop-color="#00BEFF"/>
<stop offset="0.5122" stop-color="#00D2FF"/>
<stop offset="0.7604" stop-color="#00DFFF"/>
<stop offset="1" stop-color="#00E3FF"/>
</linearGradient>
<linearGradient id="paint3_linear_2127_3159" x1="39.9251" y1="25.5315" x2="11.7626" y2="25.5315" gradientUnits="userSpaceOnUse">
<stop stop-color="#FFE000"/>
<stop offset="0.4087" stop-color="#FFBD00"/>
<stop offset="0.7754" stop-color="#FFA500"/>
<stop offset="1" stop-color="#FF9C00"/>
</linearGradient>
<linearGradient id="paint4_linear_2127_3159" x1="29.442" y1="28.3947" x2="8.96314" y2="60.5821" gradientUnits="userSpaceOnUse">
<stop stop-color="#FF3A44"/>
<stop offset="1" stop-color="#C31162"/>
</linearGradient>
<linearGradient id="paint5_linear_2127_3159" x1="9.03705" y1="0.827552" x2="18.174" y2="15.2038" gradientUnits="userSpaceOnUse">
<stop stop-color="#32A071"/>
<stop offset="0.0685" stop-color="#2DA771"/>
<stop offset="0.4762" stop-color="#15CF74"/>
<stop offset="0.8009" stop-color="#06E775"/>
<stop offset="1" stop-color="#00F076"/>
</linearGradient>
</defs>
</svg>
