<svg width="164" height="54" viewBox="0 0 164 54" fill="none" xmlns="http://www.w3.org/2000/svg">
<rect x="1.18583" y="0.917767" width="162.449" height="52.1644" rx="9.09093" fill="url(#paint0_linear_5259_900)"/>
<rect x="1.18583" y="0.917767" width="162.449" height="52.1644" rx="9.09093" stroke="url(#paint1_linear_5259_900)" stroke-width="0.586511"/>
<path fill-rule="evenodd" clip-rule="evenodd" d="M13.1542 10.4943C12.8175 10.8828 12.623 11.4765 12.623 12.2535V39.8127C12.623 40.5897 12.8175 41.1834 13.1658 41.5563L13.2558 41.6403L27.6752 26.1994V25.8544L13.2442 10.4104L13.1542 10.4943Z" fill="url(#paint2_linear_5259_900)"/>
<path fill-rule="evenodd" clip-rule="evenodd" d="M32.4735 31.3618L27.6641 26.2118V25.8512L32.4735 20.7012L32.5779 20.7695L38.2668 24.2319C39.8951 25.2141 39.8951 26.8365 38.2668 27.8311L32.5779 31.2935L32.4735 31.3618Z" fill="url(#paint3_linear_5259_900)"/>
<path fill-rule="evenodd" clip-rule="evenodd" d="M32.5795 31.2935L27.6656 26.0315L13.1562 41.5687C13.6874 42.1779 14.5785 42.2463 15.574 41.6526L32.5795 31.2935Z" fill="url(#paint4_linear_5259_900)"/>
<path fill-rule="evenodd" clip-rule="evenodd" d="M32.5795 20.7695L15.574 10.4259C14.5785 9.8167 13.6845 9.90061 13.1562 10.5098L27.6656 26.0315L32.5795 20.7695Z" fill="url(#paint5_linear_5259_900)"/>
<path d="M88.6637 18.068C87.6101 18.068 86.7219 17.6733 86.0195 16.8963C85.3229 16.141 84.934 15.0998 84.9514 14.0368C84.9514 12.9024 85.3113 11.942 86.0195 11.1805C86.719 10.4035 87.6072 10.0088 88.6607 10.0088C89.7027 10.0088 90.5909 10.4035 91.3049 11.1805C92.0131 11.9669 92.373 12.9273 92.373 14.0368C92.3614 15.1744 92.0015 16.1348 91.3049 16.8932C90.6054 17.6764 89.7172 18.068 88.6637 18.068ZM57.3144 18.068C56.284 18.068 55.3901 17.6795 54.6587 16.9118C53.9331 16.1472 53.5645 15.1806 53.5645 14.04C53.5645 12.8993 53.9331 11.9327 54.6587 11.1681C55.3756 10.4004 56.2695 10.0119 57.3144 10.0119C57.8252 10.0119 58.3215 10.1207 58.7975 10.3414C59.2648 10.5558 59.6451 10.848 59.9266 11.2054L59.9963 11.2955L59.2097 12.1223L59.1284 12.0197C58.6844 11.454 58.0894 11.1774 57.3028 11.1774C56.6004 11.1774 55.988 11.4447 55.483 11.9731C54.975 12.5046 54.7167 13.2008 54.7167 14.0431C54.7167 14.8853 54.975 15.5816 55.483 16.113C55.988 16.6414 56.6004 16.9087 57.3028 16.9087C58.0516 16.9087 58.6815 16.6414 59.172 16.113C59.4622 15.8022 59.6422 15.3671 59.706 14.817H57.1838V13.6546H60.7886L60.8031 13.7602C60.8293 13.956 60.8554 14.1581 60.8554 14.3445C60.8554 15.4168 60.5535 16.284 59.9556 16.9242C59.2765 17.6826 58.3883 18.068 57.3144 18.068ZM98.9963 17.9033H97.8847L94.4801 12.0694L94.5092 13.12V17.9002H93.3975V10.1766H94.6659L94.7007 10.2357L97.9021 15.7307L97.8731 14.6833V10.1766H98.9963V17.9033ZM80.3104 17.9033H79.1843V11.339H77.2309V10.1766H82.2609V11.339H80.3075V17.9033H80.3104ZM76.3138 17.9033H75.1905V10.1766H76.3138V17.9033ZM70.001 17.9033H68.8777V11.339H66.9244V10.1766H71.9543V11.339H70.001V17.9033ZM66.2133 17.8909H61.9061V10.1766H66.2133V11.339H63.0322V13.4587H65.9027V14.6087H63.0322V16.7284H66.2133V17.8909ZM86.8438 16.0975C87.3459 16.6352 87.9555 16.9056 88.6637 16.9056C89.3922 16.9056 89.9872 16.6414 90.4835 16.0975C90.9769 15.5691 91.2265 14.876 91.2265 14.04C91.2265 13.2039 90.9769 12.5077 90.4864 11.9824C89.9843 11.4447 89.3718 11.1743 88.6666 11.1743C87.938 11.1743 87.343 11.4385 86.8496 11.9824C86.3562 12.5108 86.1066 13.2039 86.1066 14.04C86.1066 14.876 86.3533 15.5722 86.8438 16.0975Z" fill="white"/>
<path fill-rule="evenodd" clip-rule="evenodd" d="M85.0678 28.6467C82.3249 28.6467 80.1017 30.8752 80.1017 33.9491C80.1017 36.995 82.3395 39.2514 85.0678 39.2514C87.8106 39.2514 90.0339 37.0074 90.0339 33.9491C90.0339 30.8752 87.8106 28.6467 85.0678 28.6467ZM85.0678 37.1504C83.5672 37.1504 82.2756 35.8201 82.2756 33.9366C82.2756 32.0252 83.5701 30.7229 85.0678 30.7229C86.5683 30.7229 87.8599 32.0252 87.8599 33.9366C87.8628 35.8325 86.5683 37.1504 85.0678 37.1504ZM74.2329 28.6467C71.4901 28.6467 69.2668 30.8752 69.2668 33.9491C69.2668 36.995 71.5046 39.2514 74.2329 39.2514C76.9757 39.2514 79.199 37.0074 79.199 33.9491C79.199 30.8752 76.9728 28.6467 74.2329 28.6467ZM74.2329 37.1504C72.7323 37.1504 71.4407 35.8201 71.4407 33.9366C71.4407 32.0252 72.7352 30.7229 74.2329 30.7229C75.7334 30.7229 77.025 32.0252 77.025 33.9366C77.025 35.8325 75.7334 37.1504 74.2329 37.1504ZM61.3401 30.266V32.51H66.3701C66.2163 33.7688 65.8273 34.6981 65.2323 35.3353C64.4951 36.1247 63.3574 36.9825 61.3518 36.9825C58.2606 36.9825 55.8429 34.3096 55.8429 30.9995C55.8429 27.6894 58.2606 25.0165 61.3518 25.0165C63.0207 25.0165 64.2368 25.722 65.1395 26.6233L66.6255 25.032C65.3717 23.7453 63.7027 22.76 61.3634 22.76C57.1229 22.76 53.5645 26.4586 53.5645 30.9871C53.5645 35.528 57.12 39.2141 61.3634 39.2141C63.6534 39.2141 65.3717 38.4122 66.73 36.9017C68.1145 35.4192 68.5528 33.3274 68.5528 31.6398C68.5528 31.1145 68.515 30.6421 68.4367 30.2411H61.3372C61.3401 30.238 61.3401 30.266 61.3401 30.266ZM114.075 32.0127C113.66 30.8223 112.406 28.6343 109.834 28.6343C107.286 28.6343 105.167 30.7819 105.167 33.9366C105.167 36.9142 107.263 39.239 110.081 39.239C112.345 39.239 113.663 37.7564 114.206 36.8862L112.525 35.6802C111.968 36.566 111.193 37.1473 110.093 37.1473C108.981 37.1473 108.203 36.6065 107.687 35.5404L114.307 32.6033C114.307 32.6064 114.075 32.0127 114.075 32.0127ZM107.324 33.7843C107.272 31.7361 108.81 30.6949 109.91 30.6949C110.778 30.6949 111.5 31.1518 111.747 31.8169L107.324 33.7843ZM101.946 38.922H104.12V23.3443H101.946V38.922ZM98.3755 29.8246H98.2972C97.8067 29.1999 96.875 28.6343 95.685 28.6343C93.215 28.6343 90.9394 30.9622 90.9394 33.9522C90.9394 36.9297 93.2034 39.2297 95.685 39.2297C96.8605 39.2297 97.8067 38.6609 98.2972 38.0237H98.3755V38.7852C98.3755 40.8086 97.3655 41.8995 95.7372 41.8995C94.405 41.8995 93.5778 40.8738 93.2411 40.016L91.3516 40.8614C91.8944 42.26 93.3427 43.9912 95.7343 43.9912C98.2827 43.9912 100.442 42.3844 100.442 38.4651V28.9513H98.3871V29.8246C98.3901 29.8246 98.3755 29.8246 98.3755 29.8246ZM95.8794 37.1504C94.3789 37.1504 93.125 35.8077 93.125 33.9522C93.125 32.0811 94.3789 30.726 95.8794 30.726C97.3655 30.726 98.5178 32.0966 98.5178 33.9522C98.5323 35.8077 97.3684 37.1504 95.8794 37.1504ZM124.254 23.3443H119.056V38.922H121.23V33.0229H124.257C126.663 33.0229 129.028 31.1549 129.028 28.1898C129.028 25.2247 126.672 23.3443 124.254 23.3443ZM124.318 30.8472H121.227V25.5013H124.318C125.946 25.5013 126.866 26.9404 126.866 28.1743C126.866 29.3957 125.934 30.8472 124.318 30.8472ZM137.742 28.6187C136.163 28.6187 134.534 29.3678 133.861 30.9995L135.788 31.8573C136.203 30.9995 136.964 30.7073 137.768 30.7073C138.894 30.7073 140.032 31.4284 140.058 32.7152V32.8799C139.669 32.6437 138.816 32.2831 137.794 32.2831C135.713 32.2831 133.603 33.5015 133.603 35.7859C133.603 37.8777 135.309 39.2203 137.21 39.2203C138.67 39.2203 139.474 38.5148 139.977 37.6974H140.055V38.9033H142.15V32.9358C142.15 30.1572 140.223 28.6187 137.742 28.6187ZM137.469 37.1504C136.758 37.1504 135.762 36.7774 135.762 35.8201C135.762 34.6142 137.004 34.1573 138.064 34.1573C139.022 34.1573 139.474 34.378 140.043 34.6826C139.887 36.0812 138.784 37.1379 137.469 37.1504ZM149.796 28.9513L147.299 35.7082H147.221L144.635 28.9513H142.296L146.176 38.3967L143.964 43.6462H146.228L152.199 28.9513H149.796ZM130.227 38.922H132.401V23.3443H130.227V38.922Z" fill="white"/>
<defs>
<linearGradient id="paint0_linear_5259_900" x1="-23.5804" y1="-18.6117" x2="185.377" y2="52.8787" gradientUnits="userSpaceOnUse">
<stop stop-color="#090C0F"/>
<stop offset="0.694999" stop-color="#1A1F25"/>
<stop offset="1" stop-color="#090C0F"/>
</linearGradient>
<linearGradient id="paint1_linear_5259_900" x1="0.892578" y1="7.46259" x2="159.699" y2="48.0099" gradientUnits="userSpaceOnUse">
<stop stop-color="#727272"/>
<stop offset="0.865222" stop-color="#121212"/>
<stop offset="1" stop-color="#4C4C4C"/>
</linearGradient>
<linearGradient id="paint2_linear_5259_900" x1="26.3818" y1="11.9561" x2="3.08684" y2="17.7525" gradientUnits="userSpaceOnUse">
<stop stop-color="#00A0FF"/>
<stop offset="0.00657" stop-color="#00A1FF"/>
<stop offset="0.2601" stop-color="#00BEFF"/>
<stop offset="0.5122" stop-color="#00D2FF"/>
<stop offset="0.7604" stop-color="#00DFFF"/>
<stop offset="1" stop-color="#00E3FF"/>
</linearGradient>
<linearGradient id="paint3_linear_5259_900" x1="40.3902" y1="26.0316" x2="12.2277" y2="26.0316" gradientUnits="userSpaceOnUse">
<stop stop-color="#FFE000"/>
<stop offset="0.4087" stop-color="#FFBD00"/>
<stop offset="0.7754" stop-color="#FFA500"/>
<stop offset="1" stop-color="#FF9C00"/>
</linearGradient>
<linearGradient id="paint4_linear_5259_900" x1="29.9075" y1="28.8948" x2="9.42872" y2="61.0821" gradientUnits="userSpaceOnUse">
<stop stop-color="#FF3A44"/>
<stop offset="1" stop-color="#C31162"/>
</linearGradient>
<linearGradient id="paint5_linear_5259_900" x1="9.50263" y1="1.32761" x2="18.6396" y2="15.7038" gradientUnits="userSpaceOnUse">
<stop stop-color="#32A071"/>
<stop offset="0.0685" stop-color="#2DA771"/>
<stop offset="0.4762" stop-color="#15CF74"/>
<stop offset="0.8009" stop-color="#06E775"/>
<stop offset="1" stop-color="#00F076"/>
</linearGradient>
</defs>
</svg>
