<svg width="189" height="53" viewBox="0 0 189 53" fill="none" xmlns="http://www.w3.org/2000/svg">
<rect x="0.293256" y="0.46806" width="188.413" height="52.1644" rx="9.09093" fill="url(#paint0_linear_2630_2555)"/>
<rect x="0.293256" y="0.46806" width="188.413" height="52.1644" rx="9.09093" stroke="url(#paint1_linear_2630_2555)" stroke-width="0.586511"/>
<path fill-rule="evenodd" clip-rule="evenodd" d="M25.244 10.0439C24.9074 10.4324 24.7129 11.026 24.7129 11.803V39.3623C24.7129 40.1393 24.9074 40.7329 25.2556 41.1059L25.3456 41.1898L39.765 25.7489V25.4039L25.334 9.95996L25.244 10.0439Z" fill="url(#paint2_linear_2630_2555)"/>
<path fill-rule="evenodd" clip-rule="evenodd" d="M44.5633 30.9117L39.7539 25.7616V25.401L44.5633 20.251L44.6678 20.3194L50.3566 23.7817C51.9849 24.7639 51.9849 26.3863 50.3566 27.3809L44.6678 30.8433L44.5633 30.9117Z" fill="url(#paint3_linear_2630_2555)"/>
<path fill-rule="evenodd" clip-rule="evenodd" d="M44.6693 30.843L39.7555 25.5811L25.2461 41.1183C25.7772 41.7275 26.6683 41.7958 27.6638 41.2022L44.6693 30.843Z" fill="url(#paint4_linear_2630_2555)"/>
<path fill-rule="evenodd" clip-rule="evenodd" d="M44.6693 20.3193L27.6638 9.97568C26.6683 9.3665 25.7743 9.45042 25.2461 10.0596L39.7555 25.5813L44.6693 20.3193Z" fill="url(#paint5_linear_2630_2555)"/>
<path d="M100.752 17.6178C99.698 17.6178 98.8098 17.2231 98.1074 16.4461C97.4108 15.6908 97.0219 14.6496 97.0393 13.5867C97.0393 12.4522 97.3992 11.4918 98.1074 10.7303C98.8069 9.95332 99.6951 9.55859 100.749 9.55859C101.791 9.55859 102.679 9.95332 103.393 10.7303C104.101 11.5167 104.461 12.4771 104.461 13.5867C104.449 14.7242 104.089 15.6846 103.393 16.443C102.693 17.2262 101.805 17.6178 100.752 17.6178ZM69.4023 17.6178C68.3719 17.6178 67.478 17.2293 66.7466 16.4616C66.021 15.697 65.6523 14.7304 65.6523 13.5898C65.6523 12.4491 66.021 11.4825 66.7466 10.7179C67.4635 9.95021 68.3574 9.5617 69.4023 9.5617C69.9131 9.5617 70.4094 9.67048 70.8854 9.89116C71.3527 10.1056 71.733 10.3978 72.0145 10.7552L72.0841 10.8453L71.2976 11.6721L71.2163 11.5695C70.7722 11.0038 70.1772 10.7272 69.3907 10.7272C68.6883 10.7272 68.0759 10.9945 67.5709 11.5229C67.0629 12.0544 66.8046 12.7506 66.8046 13.5929C66.8046 14.4352 67.0629 15.1314 67.5709 15.6628C68.0759 16.1912 68.6883 16.4585 69.3907 16.4585C70.1395 16.4585 70.7693 16.1912 71.2599 15.6628C71.5501 15.352 71.7301 14.9169 71.7939 14.3668H69.2717V13.2044H72.8765L72.891 13.31C72.9171 13.5058 72.9433 13.7079 72.9433 13.8943C72.9433 14.9666 72.6414 15.8338 72.0435 16.474C71.3643 17.2324 70.4762 17.6178 69.4023 17.6178ZM111.084 17.4531H109.973L106.568 11.6192L106.597 12.6698V17.45H105.485V9.72643H106.754L106.789 9.78548L109.99 15.2805L109.961 14.2331V9.72643H111.084V17.4531ZM92.3983 17.4531H91.2722V10.8888H89.3188V9.72643H94.3488V10.8888H92.3954V17.4531H92.3983ZM88.4017 17.4531H87.2784V9.72643H88.4017V17.4531ZM82.0889 17.4531H80.9656V10.8888H79.0123V9.72643H84.0422V10.8888H82.0889V17.4531ZM78.3012 17.4407H73.994V9.72643H78.3012V10.8888H75.1201V13.0085H77.9906V14.1585H75.1201V16.2782H78.3012V17.4407ZM98.9317 15.6473C99.4338 16.185 100.043 16.4554 100.752 16.4554C101.48 16.4554 102.075 16.1912 102.571 15.6473C103.065 15.1189 103.314 14.4258 103.314 13.5898C103.314 12.7537 103.065 12.0575 102.574 11.5322C102.072 10.9945 101.46 10.7241 100.754 10.7241C100.026 10.7241 99.4309 10.9883 98.9375 11.5322C98.4441 12.0606 98.1945 12.7537 98.1945 13.5898C98.1945 14.4258 98.4412 15.122 98.9317 15.6473Z" fill="white"/>
<path fill-rule="evenodd" clip-rule="evenodd" d="M97.1557 28.1963C94.4128 28.1963 92.1895 30.4247 92.1895 33.4986C92.1895 36.5445 94.4273 38.801 97.1557 38.801C99.8985 38.801 102.122 36.557 102.122 33.4986C102.122 30.4247 99.8985 28.1963 97.1557 28.1963ZM97.1557 36.6999C95.6551 36.6999 94.3635 35.3697 94.3635 33.4862C94.3635 31.5747 95.658 30.2724 97.1557 30.2724C98.6562 30.2724 99.9478 31.5747 99.9478 33.4862C99.9507 35.3821 98.6562 36.6999 97.1557 36.6999ZM86.3208 28.1963C83.5779 28.1963 81.3547 30.4247 81.3547 33.4986C81.3547 36.5445 83.5925 38.801 86.3208 38.801C89.0636 38.801 91.2869 36.557 91.2869 33.4986C91.2869 30.4247 89.0607 28.1963 86.3208 28.1963ZM86.3208 36.6999C84.8202 36.6999 83.5286 35.3697 83.5286 33.4862C83.5286 31.5747 84.8231 30.2724 86.3208 30.2724C87.8213 30.2724 89.1129 31.5747 89.1129 33.4862C89.1129 35.3821 87.8213 36.6999 86.3208 36.6999ZM73.428 29.8156V32.0596H78.458C78.3042 33.3183 77.9152 34.2477 77.3202 34.8848C76.583 35.6743 75.4452 36.5321 73.4396 36.5321C70.3485 36.5321 67.9308 33.8591 67.9308 30.5491C67.9308 27.239 70.3485 24.566 73.4396 24.566C75.1086 24.566 76.3247 25.2716 77.2274 26.1729L78.7134 24.5816C77.4596 23.2948 75.7906 22.3096 73.4513 22.3096C69.2108 22.3096 65.6523 26.0082 65.6523 30.5366C65.6523 35.0775 69.2079 38.7637 73.4513 38.7637C75.7413 38.7637 77.4596 37.9618 78.8179 36.4513C80.2024 34.9687 80.6407 32.877 80.6407 31.1893C80.6407 30.6641 80.6029 30.1916 80.5246 29.7907H73.4251C73.428 29.7876 73.428 29.8156 73.428 29.8156ZM126.163 31.5623C125.748 30.3719 124.494 28.1838 121.922 28.1838C119.374 28.1838 117.255 30.3315 117.255 33.4862C117.255 36.4637 119.351 38.7885 122.169 38.7885C124.433 38.7885 125.751 37.306 126.293 36.4357L124.613 35.2298C124.056 36.1156 123.281 36.6968 122.181 36.6968C121.069 36.6968 120.291 36.156 119.775 35.0899L126.395 32.1528C126.395 32.1559 126.163 31.5623 126.163 31.5623ZM119.412 33.3339C119.359 31.2857 120.898 30.2445 121.998 30.2445C122.866 30.2445 123.588 30.7014 123.835 31.3665L119.412 33.3339ZM114.033 38.4715H116.207V22.8939H114.033V38.4715ZM110.463 29.3742H110.385C109.895 28.7495 108.963 28.1838 107.773 28.1838C105.303 28.1838 103.027 30.5118 103.027 33.5017C103.027 36.4793 105.291 38.7792 107.773 38.7792C108.948 38.7792 109.895 38.2104 110.385 37.5733H110.463V38.3348C110.463 40.3581 109.453 41.4491 107.825 41.4491C106.493 41.4491 105.666 40.4234 105.329 39.5656L103.439 40.411C103.982 41.8096 105.431 43.5408 107.822 43.5408C110.371 43.5408 112.53 41.9339 112.53 38.0146V28.5008H110.475V29.3742C110.478 29.3742 110.463 29.3742 110.463 29.3742ZM107.967 36.6999C106.467 36.6999 105.213 35.3572 105.213 33.5017C105.213 31.6307 106.467 30.2755 107.967 30.2755C109.453 30.2755 110.606 31.6462 110.606 33.5017C110.62 35.3572 109.456 36.6999 107.967 36.6999ZM136.342 22.8939H131.143V38.4715H133.317V32.5724H136.345C138.751 32.5724 141.116 30.7045 141.116 27.7394C141.116 24.7743 138.76 22.8939 136.342 22.8939ZM136.406 30.3968H133.314V25.0509H136.406C138.034 25.0509 138.954 26.4899 138.954 27.7238C138.954 28.9453 138.022 30.3968 136.406 30.3968ZM149.829 28.1683C148.251 28.1683 146.622 28.9173 145.949 30.5491L147.876 31.4069C148.291 30.5491 149.052 30.2569 149.856 30.2569C150.982 30.2569 152.12 30.978 152.146 32.2647V32.4294C151.757 32.1932 150.903 31.8327 149.882 31.8327C147.801 31.8327 145.691 33.0511 145.691 35.3355C145.691 37.4272 147.397 38.7699 149.298 38.7699C150.758 38.7699 151.562 38.0644 152.064 37.2469H152.143V38.4529H154.238V32.4854C154.238 29.7068 152.311 28.1683 149.829 28.1683ZM149.557 36.6999C148.846 36.6999 147.85 36.327 147.85 35.3697C147.85 34.1637 149.092 33.7069 150.152 33.7069C151.109 33.7069 151.562 33.9275 152.131 34.2321C151.974 35.6307 150.871 36.6875 149.557 36.6999ZM161.883 28.5008L159.387 35.2578H159.309L156.723 28.5008H154.383L158.264 37.9463L156.052 43.1958H158.316L164.287 28.5008H161.883ZM142.315 38.4715H144.489V22.8939H142.315V38.4715Z" fill="white"/>
<defs>
<linearGradient id="paint0_linear_2630_2555" x1="-28.3704" y1="-19.0614" x2="205.439" y2="73.6712" gradientUnits="userSpaceOnUse">
<stop stop-color="#090C0F"/>
<stop offset="0.694999" stop-color="#1A1F25"/>
<stop offset="1" stop-color="#090C0F"/>
</linearGradient>
<linearGradient id="paint1_linear_2630_2555" x1="-7.13967e-10" y1="7.01288" x2="180.303" y2="60.3803" gradientUnits="userSpaceOnUse">
<stop stop-color="#727272"/>
<stop offset="0.865222" stop-color="#121212"/>
<stop offset="1" stop-color="#4C4C4C"/>
</linearGradient>
<linearGradient id="paint2_linear_2630_2555" x1="38.4716" y1="11.5057" x2="15.1767" y2="17.3021" gradientUnits="userSpaceOnUse">
<stop stop-color="#00A0FF"/>
<stop offset="0.00657" stop-color="#00A1FF"/>
<stop offset="0.2601" stop-color="#00BEFF"/>
<stop offset="0.5122" stop-color="#00D2FF"/>
<stop offset="0.7604" stop-color="#00DFFF"/>
<stop offset="1" stop-color="#00E3FF"/>
</linearGradient>
<linearGradient id="paint3_linear_2630_2555" x1="52.4801" y1="25.5814" x2="24.3175" y2="25.5814" gradientUnits="userSpaceOnUse">
<stop stop-color="#FFE000"/>
<stop offset="0.4087" stop-color="#FFBD00"/>
<stop offset="0.7754" stop-color="#FFA500"/>
<stop offset="1" stop-color="#FF9C00"/>
</linearGradient>
<linearGradient id="paint4_linear_2630_2555" x1="41.9974" y1="28.4443" x2="21.5186" y2="60.6317" gradientUnits="userSpaceOnUse">
<stop stop-color="#FF3A44"/>
<stop offset="1" stop-color="#C31162"/>
</linearGradient>
<linearGradient id="paint5_linear_2630_2555" x1="21.5925" y1="0.877418" x2="30.7294" y2="15.2536" gradientUnits="userSpaceOnUse">
<stop stop-color="#32A071"/>
<stop offset="0.0685" stop-color="#2DA771"/>
<stop offset="0.4762" stop-color="#15CF74"/>
<stop offset="0.8009" stop-color="#06E775"/>
<stop offset="1" stop-color="#00F076"/>
</linearGradient>
</defs>
</svg>
