<svg width="68" height="34" viewBox="0 0 68 34" fill="none" xmlns="http://www.w3.org/2000/svg">
<path d="M0 30C0 13.4315 13.4315 0 30 0H68V4C68 20.5685 54.5685 34 38 34H0V30Z" fill="url(#paint0_linear_1804_1059)"/>
<path d="M26.204 13.2H28.024V23H26.204V13.2ZM21.136 23H19.316V13.2H21.136V23ZM26.344 18.8H20.982V17.246H26.344V18.8ZM35.242 23.14C34.4767 23.14 33.772 23.014 33.128 22.762C32.484 22.51 31.924 22.16 31.448 21.712C30.972 21.2547 30.6033 20.7227 30.342 20.116C30.0807 19.5 29.95 18.828 29.95 18.1C29.95 17.372 30.0807 16.7047 30.342 16.098C30.6033 15.482 30.972 14.95 31.448 14.502C31.924 14.0447 32.484 13.69 33.128 13.438C33.772 13.186 34.472 13.06 35.228 13.06C35.9933 13.06 36.6933 13.186 37.328 13.438C37.972 13.69 38.532 14.0447 39.008 14.502C39.484 14.95 39.8527 15.482 40.114 16.098C40.3753 16.7047 40.506 17.372 40.506 18.1C40.506 18.828 40.3753 19.5 40.114 20.116C39.8527 20.732 39.484 21.264 39.008 21.712C38.532 22.16 37.972 22.51 37.328 22.762C36.6933 23.014 35.998 23.14 35.242 23.14ZM35.228 21.544C35.7227 21.544 36.18 21.46 36.6 21.292C37.02 21.124 37.384 20.886 37.692 20.578C38 20.2607 38.238 19.8967 38.406 19.486C38.5833 19.066 38.672 18.604 38.672 18.1C38.672 17.596 38.5833 17.1387 38.406 16.728C38.238 16.308 38 15.944 37.692 15.636C37.384 15.3187 37.02 15.076 36.6 14.908C36.18 14.74 35.7227 14.656 35.228 14.656C34.7333 14.656 34.276 14.74 33.856 14.908C33.4453 15.076 33.0813 15.3187 32.764 15.636C32.456 15.944 32.2133 16.308 32.036 16.728C31.868 17.1387 31.784 17.596 31.784 18.1C31.784 18.5947 31.868 19.052 32.036 19.472C32.2133 19.892 32.456 20.2607 32.764 20.578C33.072 20.886 33.436 21.124 33.856 21.292C34.276 21.46 34.7333 21.544 35.228 21.544ZM44.2864 23V14.74H41.0384V13.2H49.3544V14.74H46.1064V23H44.2864Z" fill="black"/>
<defs>
<linearGradient id="paint0_linear_1804_1059" x1="73" y1="7.99999" x2="4.91081e-07" y2="21" gradientUnits="userSpaceOnUse">
<stop offset="0.34" stop-color="#00ECFF"/>
<stop offset="1" stop-color="#C691FF"/>
</linearGradient>
</defs>
</svg>
