<svg width="20" height="28" viewBox="0 0 20 28" fill="none" xmlns="http://www.w3.org/2000/svg">
<path fill-rule="evenodd" clip-rule="evenodd" d="M5.94714 1.1466C5.71429 1.5946 5.71429 2.1826 5.71429 3.36V12.6H4.00429C2.74286 12.6 2.11143 12.6 1.81286 12.8464C1.68474 12.9519 1.58363 13.0854 1.51764 13.2362C1.45165 13.3869 1.42262 13.5507 1.43286 13.7144C1.45714 14.098 1.89286 14.5446 2.76286 15.4392L8.76 21.6006C9.19143 22.0458 9.40714 22.267 9.66 22.3496C9.88064 22.4221 10.1194 22.4221 10.34 22.3496C10.5929 22.267 10.8086 22.0458 11.24 21.6006L17.2371 15.4406C18.1086 14.5446 18.5429 14.0966 18.5657 13.7144C18.5761 13.5508 18.5473 13.3871 18.4816 13.2364C18.4158 13.0856 18.315 12.9521 18.1871 12.8464C17.8886 12.6 17.2586 12.6 15.9957 12.6H14.2857V3.36C14.2857 2.184 14.2857 1.596 14.0514 1.1466C13.8463 0.751324 13.5187 0.429833 13.1157 0.2282C12.6586 1.46031e-07 12.0586 0 10.8571 0H9.14286C7.94286 0 7.34286 1.46031e-07 6.88429 0.2282C6.48073 0.429595 6.15265 0.75111 5.94714 1.1466ZM0 26.6C0 26.9713 0.15051 27.3274 0.418419 27.59C0.686328 27.8525 1.04969 28 1.42857 28H18.5714C18.9503 28 19.3137 27.8525 19.5816 27.59C19.8495 27.3274 20 26.9713 20 26.6C20 26.2287 19.8495 25.8726 19.5816 25.61C19.3137 25.3475 18.9503 25.2 18.5714 25.2H1.42857C1.04969 25.2 0.686328 25.3475 0.418419 25.61C0.15051 25.8726 0 26.2287 0 26.6Z" fill="white"/>
</svg>
