<svg width="277" height="78" viewBox="0 0 277 78" fill="none" xmlns="http://www.w3.org/2000/svg">
<path d="M90.0141 63.1582L85.1373 57.0367L91.0328 31.1831L97.9253 26.0818L105.967 41.6027L123.414 20.0688L112.772 64.8514L114.008 38.5419L102.455 53.7372L95.3243 37.5217L90.0141 63.1582Z" fill="white"/>
<path d="M136.744 50.1554L132.973 35.1339L116.067 51.3493L136.744 50.1554ZM136.788 50.3725L111.689 58.1655L106.703 52.7169L135.27 26.0601L144.395 54.9962L140.321 64.3956L136.788 50.3725Z" fill="white"/>
<path d="M153.477 46.7474L176.929 36.0673L155.081 31.7475L153.477 46.7474ZM153.455 46.8993L152.003 60.4448L144.872 55.3218L150.551 28.6867L156.533 26.2989L184.515 32.6592L185.425 38.2163L164.249 45.6837L196.956 62.0294L153.455 46.8993Z" fill="white"/>
<path d="M203.003 51.8269L204.997 33.788L182.239 51.4796L203.003 51.8269ZM205.106 53.8023L201.616 64.5258L202.743 54.193L177.709 58.1655L172.29 51.1323L208.509 25.626L211.456 34.3524L205.734 51.8703L216.225 52.044L205.106 53.8023Z" fill="white"/>
<path d="M231.44 53.7806L216.94 58.1655L210.373 52.1091L217.2 28.1006L224.006 23.7374L218.197 50.4811L225.61 51.9572L236.577 24.8662L231.44 53.7806Z" fill="white"/>
<path d="M238.658 62.7892L234.951 51.9355L240.674 23.1513L246.742 26.0818L238.658 62.7892Z" fill="white"/>
<path d="M277 31.7475L272.578 34.3524L271.56 32.4204L252.204 41.6027L275.981 45.6837L276.653 52.1525L243.6 62.138L266.813 49.6562L243.708 45.1193L246.526 38.8892L275.179 25.3872L277 31.7475Z" fill="white"/>
<path d="M90.1625 10.7287V8.89838H96.9897V10.7449C96.9897 10.933 96.9226 11.0943 96.7885 11.2287C96.6543 11.3577 96.4959 11.4222 96.3135 11.4222C96.1256 11.4222 95.9619 11.355 95.8223 11.2206C95.6882 11.0862 95.6211 10.9276 95.6211 10.7449V10.253H94.2524V18.9211C94.2524 19.1092 94.1853 19.2705 94.0511 19.4048C93.9169 19.5339 93.7586 19.5984 93.5761 19.5984C93.3829 19.5984 93.2192 19.5339 93.085 19.4048C92.9508 19.2705 92.8837 19.1092 92.8837 18.9211V10.253H91.515V10.7287C91.515 10.9169 91.4479 11.0782 91.3138 11.2125C91.1849 11.3416 91.0266 11.4061 90.8387 11.4061C90.6509 11.4061 90.4899 11.3416 90.3557 11.2125C90.2269 11.0782 90.1625 10.9169 90.1625 10.7287Z" fill="white"/>
<path d="M100.114 18.9211V9.55957C100.114 9.3768 100.178 9.21822 100.307 9.08383C100.441 8.94944 100.602 8.88225 100.79 8.88225C100.972 8.88225 101.131 8.94944 101.265 9.08383C101.399 9.21822 101.466 9.3768 101.466 9.55957V13.5509H105.588V9.55957C105.588 9.3768 105.653 9.21822 105.781 9.08383C105.916 8.94944 106.077 8.88225 106.265 8.88225C106.452 8.88225 106.611 8.94944 106.74 9.08383C106.874 9.21822 106.941 9.38217 106.941 9.57569V18.9211C106.941 19.1038 106.871 19.2624 106.731 19.3968C106.597 19.5312 106.442 19.5984 106.265 19.5984C106.071 19.5984 105.91 19.5339 105.781 19.4048C105.653 19.2705 105.588 19.1092 105.588 18.9211V14.9055H101.482V18.9211C101.482 19.1038 101.412 19.2624 101.273 19.3968C101.139 19.5312 100.978 19.5984 100.79 19.5984C100.607 19.5984 100.449 19.5339 100.315 19.4048C100.181 19.2705 100.114 19.1092 100.114 18.9211Z" fill="white"/>
<path d="M116.248 10.253H111.466V13.5509H113.527C113.709 13.5509 113.867 13.6181 114.002 13.7525C114.136 13.8869 114.203 14.0454 114.203 14.2282C114.203 14.4217 114.136 14.5857 114.002 14.7201C113.873 14.8545 113.714 14.9217 113.527 14.9217H111.466V18.2437H116.264C116.446 18.2437 116.605 18.3109 116.739 18.4453C116.873 18.5743 116.94 18.7329 116.94 18.9211C116.94 19.1092 116.87 19.2705 116.731 19.4048C116.597 19.5339 116.436 19.5984 116.248 19.5984H110.113V8.88225H116.248C116.436 8.88225 116.597 8.95213 116.731 9.0919C116.87 9.22628 116.94 9.38755 116.94 9.57569C116.94 9.75846 116.87 9.91704 116.731 10.0514C116.597 10.1858 116.436 10.253 116.248 10.253Z" fill="white"/>
<path d="M64.5257 64.6763C57.2657 61.8747 57.2296 66.9652 56.0833 70.9726C42.2842 66.7269 28.7951 61.8025 14.6931 64.4741C12.761 62.3079 15.4141 59.4197 12.5807 58.3078C10.6774 57.5424 8.65149 57.073 6.44536 56.4088C8.0531 50.8562 9.3292 45.318 11.283 40.0253C13.828 33.1369 14.0875 26.0752 13.828 18.9196C13.7703 17.4755 13.828 16.0314 13.828 14.1613C20.4392 16.0531 19.401 10.4788 21.0376 6.94073C34.9809 10.8326 48.607 16.7607 64.295 13.6053C62.3701 19.9666 66.4579 20.4937 70.863 21.2808C65.8595 35.1587 61.9519 49.0366 64.5257 64.6763ZM14.8373 63.1239H62.918V15.1216H14.8373V63.1239Z" fill="url(#paint0_linear_5148_868)"/>
<path d="M0 38.6462L5.89744 32.9925C8.49288 37.4115 10.1727 41.8088 6.82747 46.8054C4.6646 44.2566 2.46568 41.5994 0 38.6462Z" fill="url(#paint1_linear_5148_868)"/>
<path d="M38.3982 77.5L32.8036 71.2975C37.0068 68.8859 41.4551 67.1313 46.6532 70.5755L38.3982 77.5Z" fill="url(#paint2_linear_5148_868)"/>
<path d="M70.005 30.8263L76.8613 38.6462L70.762 44.0111C67.77 39.9098 67.4817 36.9349 70.005 30.8263Z" fill="url(#paint3_linear_5148_868)"/>
<path d="M44.0217 6.58693C39.9915 8.96971 35.5576 10.6521 30.7128 7.45339L38.6217 0.5L44.0217 6.58693Z" fill="url(#paint4_linear_5148_868)"/>
<path d="M53.1418 46.365C52.4641 45.6429 51.8008 44.9714 51.1087 44.2927C49.6601 42.9575 48.2994 41.5296 47.0353 40.0181C45.6366 39.296 44.5985 39.556 43.9208 41.4622C43.1637 43.6284 41.2748 44.567 38.975 44.5021C36.6751 44.4371 35.3702 43.2962 34.2239 41.4405C33.6615 40.5163 32.5873 39.8953 31.7438 39.1589L31.6501 40.2131C29.9774 41.6572 28.2832 43.0002 26.6682 44.466C26.2357 44.8559 25.6949 45.6574 25.8391 46.0184C26.1533 46.7181 26.7051 47.2835 27.3964 47.6141C29.9918 48.8777 31.3184 51.2894 30.7056 53.9321C30.422 55.1166 29.7397 56.1672 28.7734 56.907C28.0743 57.4476 27.2523 57.8062 26.3809 57.9506C25.5096 58.0951 24.616 58.0209 23.7803 57.7347C22.9446 57.4486 22.1927 56.9594 21.592 56.3109C20.9913 55.6624 20.5605 54.8748 20.3382 54.0188C20.0575 52.8868 20.1543 51.694 20.6138 50.6223C21.0733 49.5507 21.8703 48.659 22.8832 48.0835C23.5945 47.7465 24.3155 47.4432 25.0461 47.1737V44.7909L23.8204 44.3721C22.7306 44.0594 21.775 43.3937 21.1032 42.4792C20.4314 41.5646 20.0812 40.4528 20.1075 39.3177C20.1075 36.971 21.3331 35.3031 23.5249 34.2633C24.1593 33.9673 24.9668 33.2597 25.01 32.7109C25.0533 32.1621 24.2891 31.3534 23.6763 31.0429C20.9294 29.6566 19.6605 27.4327 20.2878 24.8405C20.5409 23.6527 21.1941 22.5883 22.138 21.8258C23.0818 21.0633 24.2588 20.649 25.4714 20.6526C26.6879 20.6407 27.8732 21.0373 28.8383 21.779C29.7932 22.538 30.4619 23.5999 30.7344 24.7899C31.2896 27.411 30.0135 29.6349 27.2738 30.9924C26.9333 31.1655 26.6304 31.4047 26.3829 31.696C26.1354 31.9872 25.9481 32.3249 25.8319 32.6892C25.7526 33.0503 26.6754 33.6423 27.1585 34.1333C28.276 35.2598 29.3935 36.3789 30.5326 37.4765C31.0517 37.9963 31.6428 38.8267 32.2196 38.8411C32.5852 38.7763 32.9303 38.6261 33.2272 38.4028C33.524 38.1796 33.7642 37.8894 33.9283 37.5559C34.9448 35.2959 36.4733 33.8951 39.0399 33.8734C41.6065 33.8517 43.3656 35.2381 44.3245 37.6498C44.4727 37.965 44.6963 38.2387 44.9755 38.4465C45.2548 38.6544 45.5809 38.7899 45.925 38.8411C46.5739 38.7762 47.2011 38.1191 47.7418 37.592C48.953 36.4584 50.1138 35.2742 51.2745 34.09C51.9018 33.4618 52.4857 32.7903 53.4374 31.7939C51.9955 31.2812 51.2745 31.0718 50.5536 30.7613C49.4709 30.2506 48.5901 29.3914 48.0518 28.3208C47.5233 27.2436 47.3707 26.02 47.6185 24.8457C47.8663 23.6713 48.5001 22.6141 49.4185 21.8431C50.337 21.0722 51.4871 20.6319 52.6849 20.5928C53.8827 20.5536 55.059 20.9179 56.0256 21.6273C57.0032 22.3519 57.705 23.3885 58.0155 24.5661C58.3314 25.6953 58.2602 26.8979 57.8132 27.9817C57.3662 29.0655 56.5693 29.968 55.5498 30.5447C52.666 32.256 52.8462 32.7109 55.4633 34.7038C56.8585 35.8994 57.7962 37.5429 58.1164 39.3538C58.4408 41.52 56.9557 43.1663 54.9298 44.2205C54.59 44.3982 54.2936 44.649 54.0617 44.9548C53.8299 45.2606 53.6684 45.6139 53.5888 45.9895C53.6641 46.361 53.8192 46.7116 54.0433 47.0171C54.2673 47.3225 54.5551 47.5755 54.8865 47.7585C57.6117 49.3109 58.7509 51.5132 57.9939 54.1198C57.6584 55.3087 56.9236 56.3452 55.9135 57.0542C54.9034 57.7633 53.6799 58.1015 52.4497 58.0117C51.2192 57.9204 50.0568 57.4109 49.1549 56.5676C48.2584 55.7215 47.6804 54.5919 47.5183 53.3689C47.2011 50.7117 48.6935 48.5456 51.5701 47.5347C51.8729 47.4264 52.2046 47.347 52.5146 47.2603L53.1418 46.365Z" fill="url(#paint5_linear_5148_868)"/>
<defs>
<linearGradient id="paint0_linear_5148_868" x1="284.285" y1="11.753" x2="228.962" y2="143.127" gradientUnits="userSpaceOnUse">
<stop offset="0.36" stop-color="#00ECFF"/>
<stop offset="1" stop-color="#FFEB81"/>
</linearGradient>
<linearGradient id="paint1_linear_5148_868" x1="327.604" y1="30.0442" x2="272.303" y2="161.482" gradientUnits="userSpaceOnUse">
<stop offset="0.36" stop-color="#00ECFF"/>
<stop offset="1" stop-color="#FFEB81"/>
</linearGradient>
<linearGradient id="paint2_linear_5148_868" x1="218.889" y1="-15.7621" x2="163.726" y2="115.53" gradientUnits="userSpaceOnUse">
<stop offset="0.36" stop-color="#00ECFF"/>
<stop offset="1" stop-color="#FFEB81"/>
</linearGradient>
<linearGradient id="paint3_linear_5148_868" x1="305.214" y1="20.5301" x2="249.865" y2="151.928" gradientUnits="userSpaceOnUse">
<stop offset="0.36" stop-color="#00ECFF"/>
<stop offset="1" stop-color="#FFEB81"/>
</linearGradient>
<linearGradient id="paint4_linear_5148_868" x1="265.146" y1="3.62536" x2="209.893" y2="135.007" gradientUnits="userSpaceOnUse">
<stop offset="0.36" stop-color="#00ECFF"/>
<stop offset="1" stop-color="#FFEB81"/>
</linearGradient>
<linearGradient id="paint5_linear_5148_868" x1="59.1038" y1="25.8369" x2="24.3134" y2="49.2547" gradientUnits="userSpaceOnUse">
<stop offset="0.36" stop-color="#00ECFF"/>
<stop offset="1" stop-color="#FFEB81"/>
</linearGradient>
</defs>
</svg>
