<svg width="18" height="22" viewBox="0 0 18 22" fill="none" xmlns="http://www.w3.org/2000/svg">
<path d="M1.46246 17.956C1.63147 17.4411 2.72972 16.8419 3.33982 16.6137L4.29281 18.3067L6.84012 18.871C6.52286 18.871 3.82167 20.134 2.65225 20.7521V18.8515C2.07114 18.4321 1.46246 17.956 1.46246 17.956Z" fill="#408CFF"/>
<path d="M16.1809 17.956C16.012 17.4411 14.9137 16.8419 14.3036 16.6137L13.3506 18.3067L10.6146 18.871C10.9319 18.871 13.8218 20.134 14.9912 20.7521V18.8515C15.5723 18.4321 16.1809 17.956 16.1809 17.956Z" fill="#408CFF"/>
<path d="M5.7081 17.5543L6.84021 18.871L4.29297 18.3067L5.7081 17.5543Z" fill="#0066FF"/>
<path d="M11.8408 17.5543L10.6143 18.871L13.3503 18.3067L11.8408 17.5543Z" fill="#0066FF"/>
<path d="M8.74228 1L11.7653 4.52715H5.71918L8.74228 1Z" fill="url(#paint0_linear_2379_621)"/>
<path d="M8.74293 21.1284L5.71991 17.6013H11.766L8.74293 21.1284Z" fill="url(#paint1_linear_2379_621)"/>
<g filter="url(#filter0_f_2379_621)">
<path d="M8.65964 1.90292L9.00994 2.96461L10.0749 3.31378L9.00994 3.66296L8.65964 4.72465L8.30942 3.66296L7.24451 3.31378L8.30942 2.96461L8.65964 1.90292Z" fill="white"/>
<path d="M8.65965 2.14215L8.93878 2.98828L8.95069 3.02435L8.98665 3.03614L9.83341 3.31378L8.98665 3.59142L8.95069 3.60321L8.93878 3.63928L8.65965 4.4854L8.38059 3.63928L8.36868 3.60321L8.33272 3.59142L7.48596 3.31378L8.33272 3.03614L8.36868 3.02435L8.38059 2.98828L8.65965 2.14215Z" stroke="#3E74FF" stroke-width="0.2"/>
</g>
<path d="M17.4851 16.0963L12.9096 16.9428L15.9327 11.7227L17.4851 16.0963Z" fill="url(#paint2_linear_2379_621)"/>
<path d="M0 6.03218L4.57548 5.18564L1.55238 10.4058L0 6.03218Z" fill="url(#paint3_linear_2379_621)"/>
<path d="M17.4855 6.03203L15.933 10.4057L12.91 5.18555L17.4855 6.03203Z" fill="url(#paint4_linear_2379_621)"/>
<path d="M0.000366211 16.0964L1.55282 11.7228L4.57584 16.9429L0.000366211 16.0964Z" fill="url(#paint5_linear_2379_621)"/>
<path d="M16.1989 10.9701C16.1989 15.0193 12.9057 18.3066 8.83728 18.3066C4.7689 18.3066 1.47559 15.0193 1.47559 10.9701C1.47559 6.92098 4.7689 3.63367 8.83728 3.63367C12.9057 3.63367 16.1989 6.92098 16.1989 10.9701Z" fill="url(#paint6_linear_2379_621)" stroke="white"/>
<path d="M8.83723 17.7422C12.5888 17.7422 15.63 14.7102 15.63 10.9701C15.63 7.22992 12.5888 4.19794 8.83723 4.19794C5.08567 4.19794 2.04443 7.22992 2.04443 10.9701C2.04443 14.7102 5.08567 17.7422 8.83723 17.7422Z" fill="url(#paint7_linear_2379_621)"/>
<g filter="url(#filter1_ii_2379_621)">
<path d="M8.83687 16.6136C11.9632 16.6136 14.4975 14.087 14.4975 10.9702C14.4975 7.85338 11.9632 5.32672 8.83687 5.32672C5.71057 5.32672 3.17621 7.85338 3.17621 10.9702C3.17621 14.087 5.71057 16.6136 8.83687 16.6136Z" fill="url(#paint8_linear_2379_621)"/>
</g>
<path d="M6.38473 12.4072C6.00057 11.3705 7.15463 10.4412 8.07847 11.0434C9.03341 11.6659 8.59449 13.1549 7.45616 13.1549C6.97858 13.1549 6.55134 12.8568 6.38473 12.4072Z" fill="url(#paint9_linear_2379_621)"/>
<path d="M11.2766 12.4083C11.6666 11.3692 10.5133 10.431 9.58245 11.03C8.61657 11.6516 9.05497 13.1549 10.2021 13.1549C10.68 13.1549 11.1081 12.8575 11.2766 12.4083Z" fill="url(#paint10_linear_2379_621)"/>
<path d="M7.52054 11.0727C8.05708 9.97166 9.61942 9.97166 10.1559 11.0727C10.633 12.0517 9.92342 13.1941 8.83821 13.1941C7.75308 13.1941 7.04349 12.0517 7.52054 11.0727Z" fill="url(#paint11_linear_2379_621)"/>
<mask id="mask0_2379_621" style="mask-type:alpha" maskUnits="userSpaceOnUse" x="7" y="10" width="4" height="4">
<path d="M7.52054 11.0728C8.05708 9.97175 9.61942 9.97175 10.1559 11.0728C10.633 12.0517 9.92342 13.1942 8.83821 13.1942C7.75308 13.1942 7.04349 12.0517 7.52054 11.0728Z" fill="url(#paint12_linear_2379_621)"/>
</mask>
<g mask="url(#mask0_2379_621)">
<g filter="url(#filter2_f_2379_621)">
<path d="M9.55683 11.6662C9.83456 13.0036 10.3528 14.0273 10.7144 13.9527C11.076 13.8781 11.144 12.7334 10.8662 11.3959C10.5885 10.0585 10.0702 9.03477 9.70865 9.1094C9.34707 9.18403 9.2791 10.3287 9.55683 11.6662Z" fill="#7BB0FF"/>
</g>
</g>
<path d="M8.83844 8.44716C9.0775 8.44716 9.2713 8.25395 9.2713 8.01562C9.2713 7.77728 9.0775 7.58408 8.83844 7.58408C8.59938 7.58408 8.40558 7.77728 8.40558 8.01562C8.40558 8.25395 8.59938 8.44716 8.83844 8.44716Z" fill="url(#paint13_linear_2379_621)"/>
<path d="M5.41782 9.62404C5.61341 9.62404 5.77197 9.46596 5.77197 9.27096C5.77197 9.07596 5.61341 8.91788 5.41782 8.91788C5.22222 8.91788 5.06366 9.07596 5.06366 9.27096C5.06366 9.46596 5.22222 9.62404 5.41782 9.62404Z" fill="url(#paint14_linear_2379_621)"/>
<path d="M12.2409 9.62404C12.4365 9.62404 12.5951 9.46596 12.5951 9.27096C12.5951 9.07596 12.4365 8.91788 12.2409 8.91788C12.0453 8.91788 11.8868 9.07596 11.8868 9.27096C11.8868 9.46596 12.0453 9.62404 12.2409 9.62404Z" fill="url(#paint15_linear_2379_621)"/>
<path d="M10.6584 13.5346H6.93594C6.77503 13.5346 6.64459 13.6656 6.64459 13.8272C6.64459 13.9888 6.77503 14.1199 6.93594 14.1199H10.6584C10.8193 14.1199 10.9498 13.9888 10.9498 13.8272C10.9498 13.6656 10.8193 13.5346 10.6584 13.5346Z" fill="url(#paint16_linear_2379_621)"/>
<path d="M5.81784 6.0791L5.95793 6.5038L6.38389 6.64346L5.95793 6.78312L5.81784 7.20774L5.67775 6.78312L5.25171 6.64346L5.67775 6.5038L5.81784 6.0791Z" fill="white"/>
<path d="M4.11952 4.19803L4.44645 5.18894L5.44034 5.51483L4.44645 5.84073L4.11952 6.83166L3.79267 5.84073L2.79871 5.51483L3.79267 5.18894L4.11952 4.19803Z" fill="white"/>
<path d="M2.78369 15.9041L4.29322 18.3067C8.34999 16.1434 12.2181 17.7423 13.3503 18.3067L14.8598 15.9041C14.4282 15.407 12.6192 14.4018 8.83678 14.3576C5.05435 14.3134 3.22539 15.3702 2.78369 15.9041Z" fill="url(#paint17_linear_2379_621)"/>
<defs>
<filter id="filter0_f_2379_621" x="5.86498" y="0.522907" width="5.58938" height="5.58172" filterUnits="userSpaceOnUse" color-interpolation-filters="sRGB">
<feFlood flood-opacity="0" result="BackgroundImageFix"/>
<feBlend mode="normal" in="SourceGraphic" in2="BackgroundImageFix" result="shape"/>
<feGaussianBlur stdDeviation="0.65" result="effect1_foregroundBlur_2379_621"/>
</filter>
<filter id="filter1_ii_2379_621" x="3.17621" y="3.32672" width="11.3214" height="15.2869" filterUnits="userSpaceOnUse" color-interpolation-filters="sRGB">
<feFlood flood-opacity="0" result="BackgroundImageFix"/>
<feBlend mode="normal" in="SourceGraphic" in2="BackgroundImageFix" result="shape"/>
<feColorMatrix in="SourceAlpha" type="matrix" values="0 0 0 0 0 0 0 0 0 0 0 0 0 0 0 0 0 0 127 0" result="hardAlpha"/>
<feOffset dy="2"/>
<feGaussianBlur stdDeviation="5"/>
<feComposite in2="hardAlpha" operator="arithmetic" k2="-1" k3="1"/>
<feColorMatrix type="matrix" values="0 0 0 0 0 0 0 0 0 0.193203 0 0 0 0 0.4875 0 0 0 1 0"/>
<feBlend mode="normal" in2="shape" result="effect1_innerShadow_2379_621"/>
<feColorMatrix in="SourceAlpha" type="matrix" values="0 0 0 0 0 0 0 0 0 0 0 0 0 0 0 0 0 0 127 0" result="hardAlpha"/>
<feOffset dy="-2"/>
<feGaussianBlur stdDeviation="5"/>
<feComposite in2="hardAlpha" operator="arithmetic" k2="-1" k3="1"/>
<feColorMatrix type="matrix" values="0 0 0 0 0.4375 0 0 0 0 0.62875 0 0 0 0 1 0 0 0 1 0"/>
<feBlend mode="normal" in2="effect1_innerShadow_2379_621" result="effect2_innerShadow_2379_621"/>
</filter>
<filter id="filter2_f_2379_621" x="3.38593" y="3.10556" width="13.6512" height="16.851" filterUnits="userSpaceOnUse" color-interpolation-filters="sRGB">
<feFlood flood-opacity="0" result="BackgroundImageFix"/>
<feBlend mode="normal" in="SourceGraphic" in2="BackgroundImageFix" result="shape"/>
<feGaussianBlur stdDeviation="3" result="effect1_foregroundBlur_2379_621"/>
</filter>
<linearGradient id="paint0_linear_2379_621" x1="7.48559" y1="2.41086" x2="9.99897" y2="2.41086" gradientUnits="userSpaceOnUse">
<stop offset="0.488759" stop-color="#E3EBFF"/>
<stop offset="0.488859" stop-color="#D1E5EE"/>
<stop offset="0.488959" stop-color="#B3C2D9"/>
</linearGradient>
<linearGradient id="paint1_linear_2379_621" x1="9.99962" y1="19.7176" x2="7.48632" y2="19.7176" gradientUnits="userSpaceOnUse">
<stop offset="0.488759" stop-color="#E3EBFF"/>
<stop offset="0.488859" stop-color="#D1E5EE"/>
<stop offset="0.488959" stop-color="#B3C2D9"/>
</linearGradient>
<linearGradient id="paint2_linear_2379_621" x1="16.8879" y1="14.3059" x2="15.6369" y2="16.4792" gradientUnits="userSpaceOnUse">
<stop offset="0.488759" stop-color="#E3EBFF"/>
<stop offset="0.488859" stop-color="#D1E5EE"/>
<stop offset="0.488959" stop-color="#B3C2D9"/>
</linearGradient>
<linearGradient id="paint3_linear_2379_621" x1="0.597218" y1="7.82254" x2="1.84822" y2="5.64929" gradientUnits="userSpaceOnUse">
<stop offset="0.488759" stop-color="#E3EBFF"/>
<stop offset="0.488859" stop-color="#D1E5EE"/>
<stop offset="0.488959" stop-color="#B3C2D9"/>
</linearGradient>
<linearGradient id="paint4_linear_2379_621" x1="15.6315" y1="5.65248" x2="16.8825" y2="7.82581" gradientUnits="userSpaceOnUse">
<stop offset="0.488759" stop-color="#E3EBFF"/>
<stop offset="0.488859" stop-color="#D1E5EE"/>
<stop offset="0.488959" stop-color="#B3C2D9"/>
</linearGradient>
<linearGradient id="paint5_linear_2379_621" x1="1.85428" y1="16.476" x2="0.603352" y2="14.3027" gradientUnits="userSpaceOnUse">
<stop offset="0.488759" stop-color="#E3EBFF"/>
<stop offset="0.488859" stop-color="#D1E5EE"/>
<stop offset="0.488959" stop-color="#B3C2D9"/>
</linearGradient>
<linearGradient id="paint6_linear_2379_621" x1="3.87817" y1="5.23505" x2="14.1583" y2="16.7363" gradientUnits="userSpaceOnUse">
<stop stop-color="#D5E3FF"/>
<stop offset="0.520833" stop-color="#F0F5FF"/>
<stop offset="1" stop-color="#D0DFFE"/>
</linearGradient>
<linearGradient id="paint7_linear_2379_621" x1="4.49736" y1="5.79695" x2="13.1457" y2="16.2632" gradientUnits="userSpaceOnUse">
<stop stop-color="#B1CCFF"/>
<stop offset="1" stop-color="#D5E3FF"/>
</linearGradient>
<linearGradient id="paint8_linear_2379_621" x1="5.09085" y1="6.32258" x2="9.72906" y2="16.6242" gradientUnits="userSpaceOnUse">
<stop stop-color="#78A6FF"/>
<stop offset="0.484375" stop-color="#376EC1"/>
<stop offset="1" stop-color="#1352B0"/>
</linearGradient>
<linearGradient id="paint9_linear_2379_621" x1="5.55124" y1="10.291" x2="7.8438" y2="11.9635" gradientUnits="userSpaceOnUse">
<stop stop-color="#90BDFF"/>
<stop offset="1" stop-color="#408CFF"/>
</linearGradient>
<linearGradient id="paint10_linear_2379_621" x1="11.8869" y1="9.80514" x2="10.5009" y2="12.3074" gradientUnits="userSpaceOnUse">
<stop stop-color="#90BDFF"/>
<stop offset="1" stop-color="#408CFF"/>
</linearGradient>
<linearGradient id="paint11_linear_2379_621" x1="7.63531" y1="10.8527" x2="10.0756" y2="10.8527" gradientUnits="userSpaceOnUse">
<stop offset="0.49728" stop-color="#90BDFF"/>
<stop offset="0.49738" stop-color="#408CFF"/>
</linearGradient>
<linearGradient id="paint12_linear_2379_621" x1="7.63531" y1="10.8527" x2="10.0756" y2="10.8527" gradientUnits="userSpaceOnUse">
<stop offset="0.416667" stop-color="#B1B0D8"/>
<stop offset="0.49738" stop-color="#FFCC1D"/>
</linearGradient>
<linearGradient id="paint13_linear_2379_621" x1="8.83844" y1="7.58407" x2="8.83844" y2="8.44716" gradientUnits="userSpaceOnUse">
<stop stop-color="#B0C6FF"/>
<stop offset="1" stop-color="#408CFF"/>
</linearGradient>
<linearGradient id="paint14_linear_2379_621" x1="5.41782" y1="8.9179" x2="5.41782" y2="9.62409" gradientUnits="userSpaceOnUse">
<stop stop-color="#B0C6FF"/>
<stop offset="1" stop-color="#408CFF"/>
</linearGradient>
<linearGradient id="paint15_linear_2379_621" x1="12.2409" y1="8.9179" x2="12.2409" y2="9.62409" gradientUnits="userSpaceOnUse">
<stop stop-color="#B0C6FF"/>
<stop offset="1" stop-color="#408CFF"/>
</linearGradient>
<linearGradient id="paint16_linear_2379_621" x1="6.69351" y1="13.8272" x2="10.9987" y2="13.8272" gradientUnits="userSpaceOnUse">
<stop stop-color="#90BDFF"/>
<stop offset="1" stop-color="#458FFF"/>
</linearGradient>
<linearGradient id="paint17_linear_2379_621" x1="3.42983" y1="16.6401" x2="14.3026" y2="16.5195" gradientUnits="userSpaceOnUse">
<stop stop-color="#8FBCFF"/>
<stop offset="1" stop-color="#408CFF"/>
</linearGradient>
</defs>
</svg>
