<svg width="101" height="101" viewBox="0 0 101 101" fill="none" xmlns="http://www.w3.org/2000/svg">
<g clip-path="url(#clip0_4462_6996)">
<path d="M100.875 50.5C100.875 22.8858 78.4892 0.5 50.875 0.5C23.2608 0.5 0.875 22.8858 0.875 50.5C0.875 78.1142 23.2608 100.5 50.875 100.5C78.4892 100.5 100.875 78.1142 100.875 50.5Z" fill="#3B82F6"/>
<path d="M83.4656 37.881V50.9997C83.4656 63.1185 76.6812 74.1935 65.9469 79.5935L58.9938 83.0935L59.2 75.206L60.9125 74.2997C69.7625 69.6029 75.3094 60.331 75.3094 50.231L50.8719 62.5435L26.4344 50.231C26.4344 60.2997 32.0625 69.5091 40.975 74.0122L42.7156 74.8935V83.0935L35.7812 79.5997C25.0562 74.1935 18.2812 63.1247 18.2812 51.0122V37.881L50.8719 54.3122L83.4656 37.881Z" fill="white"/>
<path d="M68.5094 22.1029C63.0411 19.3419 57.0008 17.9034 50.875 17.9034C44.7492 17.9034 38.7089 19.3419 33.2406 22.1029L18.2812 29.6435L50.875 46.0748L83.4688 29.6435L68.5094 22.1029ZM50.6688 37.9779L34.5625 29.681L39.7906 27.0373C43.2161 25.3035 47.0014 24.4001 50.8406 24.4001C54.6798 24.4001 58.4652 25.3035 61.8906 27.0373L67.1188 29.681L50.6688 37.9779ZM155.453 59.1935L160.459 41.8029H144.019L139.012 59.1935H155.453ZM173.256 38.1779L166.147 62.8185C165.849 63.8238 165.367 64.7649 164.725 65.5935C164.121 66.3852 163.381 67.0643 162.506 67.631C161.673 68.1956 160.744 68.63 159.719 68.9341C158.722 69.2305 157.687 69.3831 156.647 69.3873H131.9C130.877 69.3873 129.948 69.2362 129.112 68.9341C128.336 68.6688 127.635 68.222 127.066 67.631C126.529 67.0608 126.156 66.3572 125.984 65.5935C125.797 64.7623 125.854 63.8373 126.156 62.8185L133.266 38.1779C133.552 37.1964 134.015 36.2752 134.631 35.4591C135.277 34.63 136.017 33.9321 136.85 33.3654C137.723 32.8008 138.671 32.3664 139.694 32.0623C140.717 31.7581 141.741 31.6071 142.766 31.6091H167.513C168.538 31.6091 169.467 31.7602 170.3 32.0623C171.175 32.3664 171.876 32.8008 172.403 33.3654C172.934 33.9321 173.276 34.63 173.428 35.4591C173.616 36.2529 173.556 37.1591 173.256 38.1779ZM168.831 69.3873L179.697 31.6091H212.066C213.091 31.6091 214.02 31.7602 214.853 32.0623C215.728 32.3664 216.43 32.8008 216.959 33.3654C217.491 33.9321 217.832 34.63 217.984 35.4591C218.172 36.2529 218.115 37.1591 217.812 38.1779L213.547 53.0748C213.249 54.0801 212.767 55.0211 212.125 55.8498C211.479 56.6414 210.72 57.3216 209.847 57.8904C209.014 58.4571 208.084 58.8914 207.059 59.1935C206.062 59.4899 205.028 59.6425 203.988 59.6466H183.394L180.609 69.3873H168.831ZM186.353 49.4498H202.794L205.012 41.8029H188.575L186.353 49.4498ZM213.387 69.3873L224.25 31.6091H260.031L258.837 35.7435C258.65 36.3873 258.403 37.0675 258.097 37.7841C257.794 38.4564 257.432 39.1006 257.016 39.7091C256.653 40.2949 256.191 40.8131 255.65 41.2404C255.198 41.6027 254.636 41.801 254.056 41.8029H233.125L232.044 45.4279H252.578L249.678 55.6248H229.141L228.119 59.1935H252.125L249.166 69.3873H213.387ZM253.719 69.3873L264.584 31.6091H277.1L287.509 51.9998H287.909L293.769 31.6091H305.544L294.678 69.3873H282.106L271.753 49.0529H271.353L265.494 69.3873H253.719ZM299.219 69.3873L310.084 31.6091H324.191L329.141 48.5998L343.931 31.6091H358.041L347.175 69.3873H335.4L341.031 49.8466L323.906 69.3873H322.484L316.625 49.8466L310.994 69.3873H299.219ZM372.878 38.9154L370.147 31.6091H394.097L399.731 69.3873H386.703L385.962 64.0623H367.644L363.834 69.3873H350.863L372.878 38.9154ZM383.062 42.5966L374.984 53.8123H384.541L383.062 42.5966ZM415.212 69.3873H403.438L414.303 31.6091H446.672C447.697 31.6091 448.626 31.7602 449.459 32.0623C450.332 32.3664 451.034 32.8008 451.566 33.3654C452.097 33.9321 452.438 34.63 452.587 35.4591C452.777 36.2529 452.721 37.1591 452.419 38.1779L448.15 53.0748C447.885 53.981 447.45 54.8123 446.844 55.5685C446.237 56.2873 445.535 56.9289 444.737 57.4935C443.914 58.0351 443.038 58.4906 442.122 58.8529C441.237 59.186 440.323 59.433 439.391 59.5904L445.819 69.3873H432.45L425.625 59.6466H418L415.212 69.3873ZM423.178 41.8029L420.959 49.4498H437.4L439.619 41.8029H423.178ZM458.803 31.6091H470.578L464.319 53.3029L486.45 31.6091H499.875L481.5 49.9591L489.009 69.3873H476.041L472.112 59.1935L461.247 69.3873H447.937L458.803 31.6091Z" fill="white"/>
</g>
<defs>
<clipPath id="clip0_4462_6996">
<rect width="100" height="100" fill="white" transform="translate(0.875 0.5)"/>
</clipPath>
</defs>
</svg>
