<svg width="700" height="736" viewBox="0 0 700 736" fill="none" xmlns="http://www.w3.org/2000/svg">
<!-- <rect width="700" height="736" fill="#1D1D1D" style="fill:#1D1D1D;fill:color(display-p3 0.1142 0.1142 0.1142);fill-opacity:1;"/>
<path d="M-1186 -958C-1186 -959.105 -1185.1 -960 -1184 -960H11008C11009.1 -960 11010 -959.105 11010 -958V6750C11010 6751.1 11009.1 6752 11008 6752H-1184C-1185.1 6752 -1186 6751.1 -1186 6750V-958Z" fill="white" style="fill:white;fill-opacity:1;"/>
<path d="M-1184 -959H11008V-961H-1184V-959ZM11009 -958V6750H11011V-958H11009ZM11008 6751H-1184V6753H11008V6751ZM-1185 6750V-958H-1187V6750H-1185ZM-1184 6751C-1184.55 6751 -1185 6750.55 -1185 6750H-1187C-1187 6751.66 -1185.66 6753 -1184 6753V6751ZM11009 6750C11009 6750.55 11008.6 6751 11008 6751V6753C11009.7 6753 11011 6751.66 11011 6750H11009ZM11008 -959C11008.6 -959 11009 -958.552 11009 -958H11011C11011 -959.657 11009.7 -961 11008 -961V-959ZM-1184 -961C-1185.66 -961 -1187 -959.657 -1187 -958H-1185C-1185 -958.552 -1184.55 -959 -1184 -959V-961Z" fill="black" fill-opacity="0.1" style="fill:black;fill-opacity:0.1;"/> -->
<g clip-path="url(#clip0_0_1)">
<rect width="1920" height="7512" transform="translate(-1086 -860)" fill="#0F151A" style="fill:#0F151A;fill:color(display-p3 0.0588 0.0824 0.1020);fill-opacity:1;"/>
<g style="mix-blend-mode:screen" filter="url(#filter0_f_0_1)">
<path d="M-965.717 778.824C-660.483 320.835 -217.121 178.953 -104.298 137L-1424.62 206.016L-1516.82 1326.97C-1238.14 1333.11 -1254.15 1211.61 -965.717 778.824Z" fill="url(#paint0_radial_0_1)" fill-opacity="0.37" />
</g>
<path style="mix-blend-mode:color-dodge" d="M699.37 19.3701L531.01 611.45H168.36L0 19.3701H699.37Z" fill="url(#paint1_linear_0_1)"/>
<path style="mix-blend-mode:color-dodge" d="M678.78 0L469.41 592.08H229.95L20.5898 0H678.78Z" fill="url(#paint2_linear_0_1)" />
<path d="M531 611.45C531.022 613.393 530.449 615.296 529.359 616.905C528.269 618.514 526.713 619.751 524.9 620.45L484.78 636.45L373.68 680.79C358.272 686.948 341.087 686.948 325.68 680.79L214.58 636.45L174.46 620.45C172.656 619.735 171.108 618.495 170.017 616.891C168.927 615.286 168.344 613.39 168.344 611.45C168.344 609.51 168.927 607.614 170.017 606.009C171.108 604.404 172.656 603.164 174.46 602.45L325.67 542.1C341.079 535.952 358.26 535.952 373.67 542.1L524.9 602.46C526.711 603.159 528.266 604.394 529.356 606.001C530.446 607.607 531.02 609.508 531 611.45Z" fill="url(#paint3_linear_0_1)" />
<path d="M531 611.45V661.45C531.024 663.393 530.452 665.297 529.361 666.906C528.271 668.515 526.714 669.752 524.9 670.45L373.68 730.8C358.271 736.947 341.09 736.947 325.68 730.8L174.45 670.44C172.639 669.739 171.085 668.501 169.997 666.893C168.908 665.285 168.337 663.382 168.36 661.44V611.44C168.339 613.382 168.91 615.284 169.998 616.892C171.087 618.5 172.64 619.738 174.45 620.44L214.57 636.44L325.67 680.78C341.078 686.938 358.262 686.938 373.67 680.78L484.78 636.44L524.9 620.44C526.712 619.741 528.266 618.506 529.357 616.899C530.447 615.293 531.02 613.391 531 611.45Z" fill="white" style="fill:white;fill-opacity:1;"/>
<path d="M349.679 733C341.766 733.008 333.925 731.5 326.579 728.56L175.359 668.17C174.006 667.647 172.846 666.723 172.033 665.522C171.22 664.321 170.793 662.9 170.809 661.45V621.21C171.654 621.821 172.571 622.325 173.539 622.71L324.769 683.07C340.762 689.456 358.596 689.456 374.589 683.07L485.699 638.72L525.819 622.72C526.793 622.339 527.713 621.835 528.559 621.22V661.46C528.574 662.91 528.146 664.33 527.333 665.53C526.52 666.731 525.361 667.655 524.009 668.18L372.779 728.52C365.436 731.474 357.594 732.995 349.679 733Z" fill="url(#paint4_linear_0_1)" />
<path style="mix-blend-mode:color-dodge" d="M507.42 585.09L371.29 530.76C357.416 525.22 341.944 525.22 328.07 530.76L192 585.09C190.382 585.736 188.995 586.852 188.017 588.294C187.04 589.736 186.518 591.438 186.518 593.18C186.518 594.922 187.04 596.624 188.017 598.066C188.995 599.509 190.382 600.625 192 601.27L228.11 615.69L328.11 655.6C341.984 661.14 357.456 661.14 371.33 655.6L471.33 615.69L507.45 601.27C509.068 600.625 510.456 599.509 511.433 598.066C512.41 596.624 512.933 594.922 512.933 593.18C512.933 591.438 512.41 589.736 511.433 588.294C510.456 586.852 509.068 585.736 507.45 585.09H507.42ZM506.51 597.9L470.39 612.31L370.39 652.23C357.1 657.537 342.28 657.537 328.99 652.23L192.86 597.9C191.698 597.434 190.701 596.631 190 595.593C189.298 594.556 188.923 593.332 188.923 592.08C188.923 590.828 189.298 589.604 190 588.567C190.701 587.529 191.698 586.726 192.86 586.26L329 531.93C342.29 526.623 357.11 526.623 370.4 531.93L506.53 586.26C507.693 586.726 508.689 587.529 509.391 588.567C510.093 589.604 510.468 590.828 510.468 592.08C510.468 593.332 510.093 594.556 509.391 595.593C508.689 596.631 507.693 597.434 506.53 597.9H506.51Z" fill="url(#paint5_linear_0_1)" />
<path style="mix-blend-mode:color-dodge" d="M510.449 592.08C510.462 593.335 510.091 594.565 509.387 595.605C508.683 596.644 507.68 597.445 506.509 597.9L470.389 612.31L370.389 652.23C357.1 657.537 342.279 657.537 328.989 652.23L192.859 597.9C191.697 597.434 190.701 596.631 189.999 595.593C189.297 594.556 188.922 593.332 188.922 592.08C188.922 590.828 189.297 589.604 189.999 588.567C190.701 587.529 191.697 586.726 192.859 586.26L328.999 531.93C342.289 526.623 357.11 526.623 370.399 531.93L506.529 586.26C507.696 586.718 508.695 587.52 509.396 588.56C510.096 589.599 510.463 590.827 510.449 592.08Z" fill="url(#paint6_linear_0_1)" />
<path style="mix-blend-mode:color-dodge" d="M512.9 593.18V606.86C512.918 608.607 512.401 610.318 511.42 611.763C510.439 613.209 509.04 614.321 507.41 614.95L371.29 669.28C357.416 674.82 341.944 674.82 328.07 669.28L192 615C190.371 614.37 188.974 613.258 187.994 611.812C187.015 610.367 186.5 608.656 186.52 606.91V593.18C186.5 594.926 187.015 596.637 187.994 598.082C188.974 599.528 190.371 600.64 192 601.27L228.11 615.69L328.11 655.6C341.984 661.14 357.456 661.14 371.33 655.6L471.33 615.69L507.44 601.27C509.064 600.636 510.457 599.522 511.432 598.077C512.408 596.632 512.92 594.923 512.9 593.18Z" fill="url(#paint7_linear_0_1)" />
<path d="M484.689 666.36L423.199 690.98V684.37L484.689 659.75V666.36Z" fill="white" style="fill:white;fill-opacity:1;"/>
<path d="M214.67 666.36L276.17 690.98V684.37L214.67 659.75V666.36Z" fill="white" style="fill:white;fill-opacity:1;"/>
<path style="mix-blend-mode:color-dodge" d="M131.219 696.43L214.669 735.41L276.169 690.98L214.669 666.36L131.219 696.43Z" fill="url(#paint8_linear_0_1)" />
<path style="mix-blend-mode:color-dodge" d="M567.949 696.07L484.499 735.05L422.999 690.62L484.499 666L567.949 696.07Z" fill="url(#paint9_linear_0_1)" />
<path style="mix-blend-mode:color-dodge" d="M513.66 505.88C513.7 510.582 512.884 515.251 511.25 519.66C507.9 528.47 501.25 534.77 492.6 536.43C479.82 538.89 465.6 530.66 457.49 516.04L432.58 471.38C431.77 471.23 430.95 471.07 430.14 470.9C402.62 464.9 378.67 441.47 366.29 411.9L326.91 403.29L315.37 400.77C312.884 405.67 309.789 410.236 306.16 414.36C300.712 420.686 293.883 425.675 286.2 428.942C278.517 432.209 270.185 433.665 261.85 433.2C258.374 433.028 254.918 432.563 251.52 431.81C250.71 431.64 249.89 431.44 249.08 431.23L229.42 457.94L224.17 465.05C221.986 468.132 219.094 470.644 215.737 472.375C212.38 474.107 208.657 475.007 204.88 475C199.252 474.9 193.767 473.208 189.06 470.12C175.06 461.32 166.4 442.8 168.25 425.73L178.7 329.23C178.7 293.11 197.24 266.23 223.61 258.92C232.733 256.478 242.315 256.306 251.52 258.42L430.14 297.42C470.36 306.24 503 352.19 503 400.09L513.46 501.15C513.58 502.76 513.66 504.33 513.66 505.88Z" fill="url(#paint10_radial_0_1)" />
<path style="mix-blend-mode:hard-light" d="M473.729 393.7C473.729 422.33 454.179 441.35 430.139 436.09C406.099 430.83 386.539 403.27 386.539 374.65C386.539 346.03 406.099 327 430.139 332.26C454.179 337.52 473.729 365.07 473.729 393.7Z" fill="url(#paint11_linear_0_1)" />
<path d="M429.93 379.32L422.86 369.32C418.95 363.81 418.95 356.32 422.86 352.47C426.77 348.67 433.1 350.05 437.01 355.56C440.92 361.07 440.92 368.56 437.01 372.41L429.93 379.32Z" fill="white" style="fill:white;fill-opacity:1;"/>
<path d="M434.18 385.3L441.25 395.3C445.16 400.81 451.5 402.19 455.4 398.39C459.31 394.59 459.31 387.05 455.4 381.54C451.5 376.04 445.16 374.65 441.25 378.45L434.18 385.3Z" fill="white" style="fill:white;fill-opacity:1;"/>
<path d="M430.34 389L437.42 399C441.33 404.51 441.33 412.05 437.42 415.85C433.51 419.65 427.18 418.27 423.27 412.76C419.36 407.25 419.36 399.76 423.27 395.91L430.34 389Z" fill="white" style="fill:white;fill-opacity:1;"/>
<path d="M426.1 383.05L419.02 373.05C415.12 367.54 408.78 366.15 404.87 369.95C400.97 373.75 400.97 381.3 404.87 386.81C408.78 392.31 415.12 393.7 419.02 389.9L426.1 383.05Z" fill="white" style="fill:white;fill-opacity:1;"/>
<path d="M277.639 339.83L261.999 336.42V317.85C261.999 311.92 257.999 306.24 252.999 305.15C247.999 304.07 243.999 307.99 243.999 313.91V332.48L228.439 329.07C223.439 327.99 219.439 331.91 219.439 337.83C219.439 343.75 223.439 349.44 228.439 350.52L243.999 353.93V372.5C243.999 378.43 247.999 384.11 252.999 385.19C257.999 386.28 261.999 382.36 261.999 376.44V357.87L277.599 361.27C282.599 362.36 286.599 358.44 286.599 352.52C286.639 346.6 282.609 340.91 277.639 339.83Z" fill="white" style="fill:white;fill-opacity:1;"/>
<path style="mix-blend-mode:color-dodge" d="M540.39 488.92C540.39 504.61 532.05 517.04 519.33 519.48C516.665 519.985 513.935 520.046 511.25 519.66C512.884 515.251 513.701 510.582 513.66 505.88C513.66 504.33 513.58 502.76 513.42 501.15L503 400.09C503 352.19 470.4 306.24 430.18 297.45L251.56 258.45C242.356 256.336 232.773 256.508 223.65 258.95C237 243.81 256.49 236.71 278.25 241.46L456.87 280.46C497.09 289.24 529.69 335.19 529.69 383.09L540.15 484.2C540.31 485.8 540.39 487.38 540.39 488.92Z" fill="url(#paint12_radial_0_1)" />
</g>
<defs>
<filter id="filter0_f_0_1" x="-1665.92" y="-12.1" width="1710.72" height="1488.39" filterUnits="userSpaceOnUse" color-interpolation-filters="sRGB">
<feFlood flood-opacity="0" result="BackgroundImageFix"/>
<feBlend mode="normal" in="SourceGraphic" in2="BackgroundImageFix" result="shape"/>
<feGaussianBlur stdDeviation="74.55" result="effect1_foregroundBlur_0_1"/>
</filter>
<radialGradient id="paint0_radial_0_1" cx="0" cy="0" r="1" gradientUnits="userSpaceOnUse" gradientTransform="translate(-603.76 746.33) rotate(-136.2) scale(725.108 725.128)">
<stop offset="0.24" stop-color="#3EC5FF" style="stop-color:#3EC5FF;stop-color:color(display-p3 0.2431 0.7725 1.0000);stop-opacity:1;"/>
<stop offset="0.9999" stop-color="#2D2E32" stop-opacity="0" style="stop-color:none;stop-opacity:0;"/>
<stop offset="1" stop-opacity="0" style="stop-color:none;stop-opacity:0;"/>
</radialGradient>
<linearGradient id="paint1_linear_0_1" x1="349.68" y1="21.4501" x2="349.68" y2="610.2" gradientUnits="userSpaceOnUse">
<stop offset="0.0946119" stop-color="#0F151A" stop-opacity="0" style="stop-color:none;stop-opacity:0;"/>
<stop offset="0.724091" stop-color="#141414" stop-opacity="0" style="stop-color:none;stop-opacity:0;"/>
<stop offset="1" stop-color="white" stop-opacity="0.48" style="stop-color:white;stop-opacity:0.48;"/>
</linearGradient>
<linearGradient id="paint2_linear_0_1" x1="349.68" y1="2.08" x2="349.68" y2="590.83" gradientUnits="userSpaceOnUse">
<stop offset="0.48" stop-color="#0F151A" stop-opacity="0" style="stop-color:none;stop-opacity:0;"/>
<stop offset="0.816376" stop-color="#484C50" stop-opacity="0.0966582" style="stop-color:#484C50;stop-color:color(display-p3 0.2807 0.2987 0.3137);stop-opacity:0.0966582;"/>
<stop offset="1" stop-color="white" stop-opacity="0.41" style="stop-color:white;stop-opacity:0.41;"/>
</linearGradient>
<linearGradient id="paint3_linear_0_1" x1="260.68" y1="704.2" x2="438.69" y2="518.7" gradientUnits="userSpaceOnUse">
<stop stop-color="white" style="stop-color:white;stop-opacity:1;"/>
<stop offset="0.07" stop-color="#FF00FF" style="stop-color:#FF00FF;stop-color:color(display-p3 1.0000 0.0000 1.0000);stop-opacity:1;"/>
<stop offset="0.09" stop-color="#CB0DFC" style="stop-color:#CB0DFC;stop-color:color(display-p3 0.7961 0.0510 0.9882);stop-opacity:1;"/>
<stop offset="0.11" stop-color="#9B1AFA" style="stop-color:#9B1AFA;stop-color:color(display-p3 0.6078 0.1020 0.9804);stop-opacity:1;"/>
<stop offset="0.13" stop-color="#7124F8" style="stop-color:#7124F8;stop-color:color(display-p3 0.4431 0.1412 0.9725);stop-opacity:1;"/>
<stop offset="0.16" stop-color="#4F2DF6" style="stop-color:#4F2DF6;stop-color:color(display-p3 0.3098 0.1765 0.9647);stop-opacity:1;"/>
<stop offset="0.18" stop-color="#3533F5" style="stop-color:#3533F5;stop-color:color(display-p3 0.2078 0.2000 0.9608);stop-opacity:1;"/>
<stop offset="0.21" stop-color="#2238F4" style="stop-color:#2238F4;stop-color:color(display-p3 0.1333 0.2196 0.9569);stop-opacity:1;"/>
<stop offset="0.23" stop-color="#173BF3" style="stop-color:#173BF3;stop-color:color(display-p3 0.0902 0.2314 0.9529);stop-opacity:1;"/>
<stop offset="0.26" stop-color="#133CF3" style="stop-color:#133CF3;stop-color:color(display-p3 0.0745 0.2353 0.9529);stop-opacity:1;"/>
<stop offset="0.94" stop-color="#52EAFF" style="stop-color:#52EAFF;stop-color:color(display-p3 0.3216 0.9176 1.0000);stop-opacity:1;"/>
<stop offset="0.95" stop-color="#67ECFF" style="stop-color:#67ECFF;stop-color:color(display-p3 0.4039 0.9255 1.0000);stop-opacity:1;"/>
<stop offset="0.97" stop-color="#88F0FF" style="stop-color:#88F0FF;stop-color:color(display-p3 0.5333 0.9412 1.0000);stop-opacity:1;"/>
<stop offset="0.98" stop-color="#B6F6FF" style="stop-color:#B6F6FF;stop-color:color(display-p3 0.7137 0.9647 1.0000);stop-opacity:1;"/>
<stop offset="1" stop-color="white" style="stop-color:white;stop-opacity:1;"/>
</linearGradient>
<linearGradient id="paint4_linear_0_1" x1="168.729" y1="677.09" x2="530.939" y2="677.09" gradientUnits="userSpaceOnUse">
<stop stop-color="white" style="stop-color:white;stop-opacity:1;"/>
<stop offset="0.13" stop-color="#4BE9FF" style="stop-color:#4BE9FF;stop-color:color(display-p3 0.2941 0.9137 1.0000);stop-opacity:1;"/>
<stop offset="0.17" stop-color="#3FC3FC" style="stop-color:#3FC3FC;stop-color:color(display-p3 0.2471 0.7647 0.9882);stop-opacity:1;"/>
<stop offset="0.23" stop-color="#319AFA" style="stop-color:#319AFA;stop-color:color(display-p3 0.1922 0.6039 0.9804);stop-opacity:1;"/>
<stop offset="0.28" stop-color="#2678F7" style="stop-color:#2678F7;stop-color:color(display-p3 0.1490 0.4706 0.9686);stop-opacity:1;"/>
<stop offset="0.34" stop-color="#1E5EF5" style="stop-color:#1E5EF5;stop-color:color(display-p3 0.1176 0.3686 0.9608);stop-opacity:1;"/>
<stop offset="0.4" stop-color="#184BF4" style="stop-color:#184BF4;stop-color:color(display-p3 0.0941 0.2941 0.9569);stop-opacity:1;"/>
<stop offset="0.46" stop-color="#1440F3" style="stop-color:#1440F3;stop-color:color(display-p3 0.0784 0.2510 0.9529);stop-opacity:1;"/>
<stop offset="0.53" stop-color="#133CF3" style="stop-color:#133CF3;stop-color:color(display-p3 0.0745 0.2353 0.9529);stop-opacity:1;"/>
<stop offset="1" stop-color="#FF00FF" style="stop-color:#FF00FF;stop-color:color(display-p3 1.0000 0.0000 1.0000);stop-opacity:1;"/>
</linearGradient>
<linearGradient id="paint5_linear_0_1" x1="208.71" y1="571.74" x2="494.3" y2="615.17" gradientUnits="userSpaceOnUse">
<stop stop-color="white" style="stop-color:white;stop-opacity:1;"/>
<stop offset="0.03" stop-color="#DFDFDF" style="stop-color:#DFDFDF;stop-color:color(display-p3 0.8745 0.8745 0.8745);stop-opacity:1;"/>
<stop offset="0.12" stop-color="#808080" style="stop-color:#808080;stop-color:color(display-p3 0.5020 0.5020 0.5020);stop-opacity:1;"/>
<stop offset="0.19" stop-color="#3B3B3B" style="stop-color:#3B3B3B;stop-color:color(display-p3 0.2314 0.2314 0.2314);stop-opacity:1;"/>
<stop offset="0.24" stop-color="#101010" style="stop-color:#101010;stop-color:color(display-p3 0.0627 0.0627 0.0627);stop-opacity:1;"/>
<stop offset="0.27" style="stop-color:black;stop-opacity:1;"/>
<stop offset="0.39" stop-color="#030303" style="stop-color:#030303;stop-color:color(display-p3 0.0118 0.0118 0.0118);stop-opacity:1;"/>
<stop offset="0.49" stop-color="#0D0D0D" style="stop-color:#0D0D0D;stop-color:color(display-p3 0.0510 0.0510 0.0510);stop-opacity:1;"/>
<stop offset="0.58" stop-color="#1D1D1D" style="stop-color:#1D1D1D;stop-color:color(display-p3 0.1137 0.1137 0.1137);stop-opacity:1;"/>
<stop offset="0.66" stop-color="#343434" style="stop-color:#343434;stop-color:color(display-p3 0.2039 0.2039 0.2039);stop-opacity:1;"/>
<stop offset="0.73" stop-color="#525252" style="stop-color:#525252;stop-color:color(display-p3 0.3216 0.3216 0.3216);stop-opacity:1;"/>
<stop offset="0.81" stop-color="#777777" style="stop-color:#777777;stop-color:color(display-p3 0.4667 0.4667 0.4667);stop-opacity:1;"/>
<stop offset="0.88" stop-color="#A2A2A2" style="stop-color:#A2A2A2;stop-color:color(display-p3 0.6353 0.6353 0.6353);stop-opacity:1;"/>
<stop offset="0.95" stop-color="#D3D3D3" style="stop-color:#D3D3D3;stop-color:color(display-p3 0.8275 0.8275 0.8275);stop-opacity:1;"/>
<stop offset="1" stop-color="white" style="stop-color:white;stop-opacity:1;"/>
</linearGradient>
<linearGradient id="paint6_linear_0_1" x1="349.679" y1="495.93" x2="349.679" y2="659.95" gradientUnits="userSpaceOnUse">
<stop stop-color="white" style="stop-color:white;stop-opacity:1;"/>
<stop offset="0.03" stop-color="#DFDFDF" style="stop-color:#DFDFDF;stop-color:color(display-p3 0.8745 0.8745 0.8745);stop-opacity:1;"/>
<stop offset="0.12" stop-color="#808080" style="stop-color:#808080;stop-color:color(display-p3 0.5020 0.5020 0.5020);stop-opacity:1;"/>
<stop offset="0.19" stop-color="#3B3B3B" style="stop-color:#3B3B3B;stop-color:color(display-p3 0.2314 0.2314 0.2314);stop-opacity:1;"/>
<stop offset="0.24" stop-color="#101010" style="stop-color:#101010;stop-color:color(display-p3 0.0627 0.0627 0.0627);stop-opacity:1;"/>
<stop offset="0.27" style="stop-color:black;stop-opacity:1;"/>
<stop offset="0.39" stop-color="#030303" style="stop-color:#030303;stop-color:color(display-p3 0.0118 0.0118 0.0118);stop-opacity:1;"/>
<stop offset="0.49" stop-color="#0D0D0D" style="stop-color:#0D0D0D;stop-color:color(display-p3 0.0510 0.0510 0.0510);stop-opacity:1;"/>
<stop offset="0.58" stop-color="#1D1D1D" style="stop-color:#1D1D1D;stop-color:color(display-p3 0.1137 0.1137 0.1137);stop-opacity:1;"/>
<stop offset="0.66" stop-color="#343434" style="stop-color:#343434;stop-color:color(display-p3 0.2039 0.2039 0.2039);stop-opacity:1;"/>
<stop offset="0.73" stop-color="#525252" style="stop-color:#525252;stop-color:color(display-p3 0.3216 0.3216 0.3216);stop-opacity:1;"/>
<stop offset="0.81" stop-color="#777777" style="stop-color:#777777;stop-color:color(display-p3 0.4667 0.4667 0.4667);stop-opacity:1;"/>
<stop offset="0.88" stop-color="#A2A2A2" style="stop-color:#A2A2A2;stop-color:color(display-p3 0.6353 0.6353 0.6353);stop-opacity:1;"/>
<stop offset="0.95" stop-color="#D3D3D3" style="stop-color:#D3D3D3;stop-color:color(display-p3 0.8275 0.8275 0.8275);stop-opacity:1;"/>
<stop offset="1" stop-color="white" style="stop-color:white;stop-opacity:1;"/>
</linearGradient>
<linearGradient id="paint7_linear_0_1" x1="186.47" y1="633.31" x2="514.08" y2="633.31" gradientUnits="userSpaceOnUse">
<stop style="stop-color:black;stop-opacity:1;"/>
<stop offset="0.05" stop-color="#000404" style="stop-color:#000404;stop-color:color(display-p3 0.0000 0.0157 0.0157);stop-opacity:1;"/>
<stop offset="0.11" stop-color="#001111" style="stop-color:#001111;stop-color:color(display-p3 0.0000 0.0667 0.0667);stop-opacity:1;"/>
<stop offset="0.16" stop-color="#002626" style="stop-color:#002626;stop-color:color(display-p3 0.0000 0.1490 0.1490);stop-opacity:1;"/>
<stop offset="0.22" stop-color="#004343" style="stop-color:#004343;stop-color:color(display-p3 0.0000 0.2627 0.2627);stop-opacity:1;"/>
<stop offset="0.28" stop-color="#006868" style="stop-color:#006868;stop-color:color(display-p3 0.0000 0.4078 0.4078);stop-opacity:1;"/>
<stop offset="0.33" stop-color="#009696" style="stop-color:#009696;stop-color:color(display-p3 0.0000 0.5882 0.5882);stop-opacity:1;"/>
<stop offset="0.39" stop-color="#00CCCC" style="stop-color:#00CCCC;stop-color:color(display-p3 0.0000 0.8000 0.8000);stop-opacity:1;"/>
<stop offset="0.44" stop-color="#00F6F6" style="stop-color:#00F6F6;stop-color:color(display-p3 0.0000 0.9647 0.9647);stop-opacity:1;"/>
<stop offset="0.45" stop-color="#00C8C8" style="stop-color:#00C8C8;stop-color:color(display-p3 0.0000 0.7843 0.7843);stop-opacity:1;"/>
<stop offset="0.46" stop-color="#009D9D" style="stop-color:#009D9D;stop-color:color(display-p3 0.0000 0.6157 0.6157);stop-opacity:1;"/>
<stop offset="0.48" stop-color="#007777" style="stop-color:#007777;stop-color:color(display-p3 0.0000 0.4667 0.4667);stop-opacity:1;"/>
<stop offset="0.49" stop-color="#005757" style="stop-color:#005757;stop-color:color(display-p3 0.0000 0.3412 0.3412);stop-opacity:1;"/>
<stop offset="0.51" stop-color="#003B3B" style="stop-color:#003B3B;stop-color:color(display-p3 0.0000 0.2314 0.2314);stop-opacity:1;"/>
<stop offset="0.53" stop-color="#002525" style="stop-color:#002525;stop-color:color(display-p3 0.0000 0.1451 0.1451);stop-opacity:1;"/>
<stop offset="0.55" stop-color="#001414" style="stop-color:#001414;stop-color:color(display-p3 0.0000 0.0784 0.0784);stop-opacity:1;"/>
<stop offset="0.58" stop-color="#000909" style="stop-color:#000909;stop-color:color(display-p3 0.0000 0.0353 0.0353);stop-opacity:1;"/>
<stop offset="0.62" stop-color="#000202" style="stop-color:#000202;stop-color:color(display-p3 0.0000 0.0078 0.0078);stop-opacity:1;"/>
<stop offset="0.73" style="stop-color:black;stop-opacity:1;"/>
<stop offset="0.78" stop-color="#000303" style="stop-color:#000303;stop-color:color(display-p3 0.0000 0.0118 0.0118);stop-opacity:1;"/>
<stop offset="0.81" stop-color="#000D0D" style="stop-color:#000D0D;stop-color:color(display-p3 0.0000 0.0510 0.0510);stop-opacity:1;"/>
<stop offset="0.84" stop-color="#001E1E" style="stop-color:#001E1E;stop-color:color(display-p3 0.0000 0.1176 0.1176);stop-opacity:1;"/>
<stop offset="0.87" stop-color="#003636" style="stop-color:#003636;stop-color:color(display-p3 0.0000 0.2118 0.2118);stop-opacity:1;"/>
<stop offset="0.9" stop-color="#005555" style="stop-color:#005555;stop-color:color(display-p3 0.0000 0.3333 0.3333);stop-opacity:1;"/>
<stop offset="0.93" stop-color="#007B7B" style="stop-color:#007B7B;stop-color:color(display-p3 0.0000 0.4824 0.4824);stop-opacity:1;"/>
<stop offset="0.96" stop-color="#00A7A7" style="stop-color:#00A7A7;stop-color:color(display-p3 0.0000 0.6549 0.6549);stop-opacity:1;"/>
<stop offset="0.98" stop-color="#00DADA" style="stop-color:#00DADA;stop-color:color(display-p3 0.0000 0.8549 0.8549);stop-opacity:1;"/>
<stop offset="1" stop-color="#00FFFF" style="stop-color:#00FFFF;stop-color:color(display-p3 0.0000 1.0000 1.0000);stop-opacity:1;"/>
</linearGradient>
<linearGradient id="paint8_linear_0_1" x1="189.069" y1="723.62" x2="218.969" y2="662.45" gradientUnits="userSpaceOnUse">
<stop stop-color="#0F151A" stop-opacity="0" style="stop-color:none;stop-opacity:0;"/>
<stop offset="1" stop-color="white" style="stop-color:white;stop-opacity:1;"/>
</linearGradient>
<linearGradient id="paint9_linear_0_1" x1="510.099" y1="723.26" x2="480.199" y2="662.09" gradientUnits="userSpaceOnUse">
<stop stop-color="#0F151A" stop-opacity="0" style="stop-color:none;stop-opacity:0;"/>
<stop offset="1" stop-color="white" style="stop-color:white;stop-opacity:1;"/>
</linearGradient>
<radialGradient id="paint10_radial_0_1" cx="0" cy="0" r="1" gradientUnits="userSpaceOnUse" gradientTransform="translate(339.48 259.51) scale(288.92 288.92)">
<stop style="stop-color:black;stop-opacity:1;"/>
<stop offset="0.09" stop-color="#080808" style="stop-color:#080808;stop-color:color(display-p3 0.0314 0.0314 0.0314);stop-opacity:1;"/>
<stop offset="0.22" stop-color="#1D1D1D" style="stop-color:#1D1D1D;stop-color:color(display-p3 0.1137 0.1137 0.1137);stop-opacity:1;"/>
<stop offset="0.38" stop-color="#404040" style="stop-color:#404040;stop-color:color(display-p3 0.2510 0.2510 0.2510);stop-opacity:1;"/>
<stop offset="0.56" stop-color="#717171" style="stop-color:#717171;stop-color:color(display-p3 0.4431 0.4431 0.4431);stop-opacity:1;"/>
<stop offset="0.77" stop-color="#AFAFAF" style="stop-color:#AFAFAF;stop-color:color(display-p3 0.6863 0.6863 0.6863);stop-opacity:1;"/>
<stop offset="0.99" stop-color="#FAFAFA" style="stop-color:#FAFAFA;stop-color:color(display-p3 0.9804 0.9804 0.9804);stop-opacity:1;"/>
<stop offset="1" stop-color="white" style="stop-color:white;stop-opacity:1;"/>
</radialGradient>
<linearGradient id="paint11_linear_0_1" x1="416.65" y1="336.662" x2="439.85" y2="444.764" gradientUnits="userSpaceOnUse">
<stop stop-color="#FF3CF3" style="stop-color:#FF3CF3;stop-color:color(display-p3 1.0000 0.2353 0.9529);stop-opacity:1;"/>
<stop offset="0.88" stop-color="#4BE9FF" style="stop-color:#4BE9FF;stop-color:color(display-p3 0.2941 0.9137 1.0000);stop-opacity:1;"/>
<stop offset="0.89" stop-color="#52EAFF" style="stop-color:#52EAFF;stop-color:color(display-p3 0.3216 0.9176 1.0000);stop-opacity:1;"/>
<stop offset="0.91" stop-color="#67ECFF" style="stop-color:#67ECFF;stop-color:color(display-p3 0.4039 0.9255 1.0000);stop-opacity:1;"/>
<stop offset="0.94" stop-color="#88F0FF" style="stop-color:#88F0FF;stop-color:color(display-p3 0.5333 0.9412 1.0000);stop-opacity:1;"/>
<stop offset="0.96" stop-color="#B6F6FF" style="stop-color:#B6F6FF;stop-color:color(display-p3 0.7137 0.9647 1.0000);stop-opacity:1;"/>
<stop offset="0.99" stop-color="#F0FDFF" style="stop-color:#F0FDFF;stop-color:color(display-p3 0.9412 0.9922 1.0000);stop-opacity:1;"/>
<stop offset="1" stop-color="white" style="stop-color:white;stop-opacity:1;"/>
</linearGradient>
<radialGradient id="paint12_radial_0_1" cx="0" cy="0" r="1" gradientUnits="userSpaceOnUse" gradientTransform="translate(483.22 310.66) scale(246.89 246.89)">
<stop stop-color="white" style="stop-color:white;stop-opacity:1;"/>
<stop offset="0.13" stop-color="#4BE9FF" style="stop-color:#4BE9FF;stop-color:color(display-p3 0.2941 0.9137 1.0000);stop-opacity:1;"/>
<stop offset="0.24" stop-color="#78BEFC" style="stop-color:#78BEFC;stop-color:color(display-p3 0.4706 0.7451 0.9882);stop-opacity:1;"/>
<stop offset="0.36" stop-color="#A196F9" style="stop-color:#A196F9;stop-color:color(display-p3 0.6314 0.5882 0.9765);stop-opacity:1;"/>
<stop offset="0.48" stop-color="#C376F7" style="stop-color:#C376F7;stop-color:color(display-p3 0.7647 0.4627 0.9686);stop-opacity:1;"/>
<stop offset="0.6" stop-color="#DD5CF5" style="stop-color:#DD5CF5;stop-color:color(display-p3 0.8667 0.3608 0.9608);stop-opacity:1;"/>
<stop offset="0.73" stop-color="#F04AF4" style="stop-color:#F04AF4;stop-color:color(display-p3 0.9412 0.2902 0.9569);stop-opacity:1;"/>
<stop offset="0.86" stop-color="#FB40F3" style="stop-color:#FB40F3;stop-color:color(display-p3 0.9843 0.2510 0.9529);stop-opacity:1;"/>
<stop offset="1" stop-color="#FF3CF3" style="stop-color:#FF3CF3;stop-color:color(display-p3 1.0000 0.2353 0.9529);stop-opacity:1;"/>
</radialGradient>
<clipPath id="clip0_0_1">
<rect width="1920" height="7512" fill="white" style="fill:white;fill-opacity:1;" transform="translate(-1086 -860)"/>
</clipPath>
</defs>
</svg>
