<svg width="25" height="24" viewBox="0 0 25 24" fill="none" xmlns="http://www.w3.org/2000/svg">
<g id="test 1">
<path id="Vector" d="M23.1748 6.06567C23.1623 6.0869 23.1561 6.11135 23.1566 6.13619L23.1913 7.70413L21.9087 6.88876C21.8883 6.87585 21.8649 6.8693 21.8411 6.86987L20.3398 6.90614L21.1205 5.5664C21.1329 5.54518 21.1392 5.52073 21.1387 5.49589L21.1039 3.92798L22.3866 4.74334C22.407 4.75625 22.4304 4.7628 22.4541 4.76223L23.9554 4.72598L23.1748 6.06567Z" fill="#FFE45E"/>
<path id="Vector_2" d="M10.5855 2.23467C10.572 2.2424 10.5609 2.25399 10.5535 2.26811L10.0867 3.15956L9.61992 2.26812C9.6125 2.254 9.60141 2.24241 9.58789 2.23468L8.73438 1.74714L9.58789 1.25959C9.60141 1.25187 9.6125 1.24027 9.61992 1.22615L10.0867 0.334717L10.5535 1.22615C10.5609 1.24027 10.572 1.25187 10.5855 1.25959L11.4391 1.74714L10.5855 2.23467Z" fill="#FFE45E"/>
<path id="Vector_3" d="M21.2027 11.1316C21.5724 11.1316 21.8721 11.4447 21.8721 11.8308C21.8721 12.217 21.5724 12.53 21.2027 12.53C20.8329 12.53 20.5332 12.217 20.5332 11.8308C20.5332 11.4447 20.8329 11.1316 21.2027 11.1316Z" fill="#FFE45E"/>
<path id="Vector_4" d="M0.669456 4.28569C1.03919 4.28569 1.33891 4.59873 1.33891 4.98488C1.33891 5.37104 1.03919 5.68408 0.669456 5.68408C0.299726 5.68408 0 5.37104 0 4.98488C0 4.59873 0.299726 4.28569 0.669456 4.28569Z" fill="#FFE45E"/>
<path id="Vector_5" d="M14.2776 4.25318C14.4061 4.25318 14.5103 4.36199 14.5103 4.49622C14.5103 4.63045 14.4061 4.73926 14.2776 4.73926C14.1491 4.73926 14.0449 4.63045 14.0449 4.49622C14.0449 4.36199 14.1491 4.25318 14.2776 4.25318Z" fill="#FFE45E"/>
<path id="Vector_6" d="M19.7444 5.57303e-06C19.8729 5.57303e-06 19.9771 0.108818 19.9771 0.243045C19.9771 0.377272 19.8729 0.486084 19.7444 0.486084C19.6159 0.486084 19.5117 0.377272 19.5117 0.243045C19.5117 0.108818 19.6159 5.57303e-06 19.7444 5.57303e-06Z" fill="#FFE45E"/>
<path id="Vector_7" d="M6.78477 8.95831C6.77124 8.96599 6.76014 8.97759 6.75274 8.99175L6.28594 9.88319L5.81914 8.99175C5.81174 8.97767 5.80064 8.96607 5.78712 8.95831L4.93359 8.47079L5.7871 7.98322C5.80062 7.9755 5.81173 7.9639 5.81913 7.94978L6.28592 7.05835L6.75273 7.94978C6.76013 7.9639 6.77123 7.9755 6.78475 7.98322L7.63827 8.47079L6.78477 8.95831Z" fill="#FFE45E"/>
<g id="Clip path group">
<mask id="mask0_1804_1183" style="mask-type:luminance" maskUnits="userSpaceOnUse" x="1" y="8" width="22" height="16">
<g id="1_svg__clip0_228_1191">
<path id="Vector_8" d="M22.9766 8.64526H1.10156L1.10156 23.8329H22.9766V8.64526Z" fill="white"/>
</g>
</mask>
<g mask="url(#mask0_1804_1183)">
<g id="Group">
<path id="Vector_9" fill-rule="evenodd" clip-rule="evenodd" d="M7.78875 13.4779L8.51565 12.5623L5.76371 10.642C5.67906 10.5827 5.58312 10.5424 5.48217 10.5238C5.38123 10.5051 5.27757 10.5086 5.17802 10.5339C5.07848 10.5591 4.98528 10.6058 4.90458 10.6706C4.82387 10.7354 4.75747 10.817 4.70975 10.9099L3.91602 12.4671L3.92474 12.4827L5.8662 13.7823C6.16676 13.9837 6.52952 14.0641 6.88453 14.0079C7.23954 13.9517 7.56166 13.7628 7.78875 13.4779ZM16.3026 13.4776L15.5757 12.5621L18.3284 10.6418C18.4129 10.5829 18.5087 10.5429 18.6094 10.5244C18.7101 10.506 18.8135 10.5095 18.9128 10.5349C19.0121 10.5602 19.105 10.6067 19.1856 10.6712C19.266 10.7359 19.3324 10.8171 19.3801 10.9098L20.171 12.4668L20.1622 12.4825L18.2251 13.782C17.9246 13.9835 17.5618 14.0639 17.2068 14.0077C16.8518 13.9515 16.5297 13.7627 16.3026 13.4776Z" fill="#A25700"/>
<g id="Vector_10" style="mix-blend-mode:soft-light">
<path fill-rule="evenodd" clip-rule="evenodd" d="M5.76371 10.642C5.67906 10.5827 5.58312 10.5424 5.48217 10.5238C5.38123 10.5051 5.27757 10.5086 5.17802 10.5339C5.07848 10.5591 4.98528 10.6058 4.90458 10.6706C4.82387 10.7354 4.75747 10.817 4.70975 10.9099L3.91602 12.4671L3.92474 12.4827L5.8662 13.7823C6.16676 13.9837 6.52952 14.0641 6.88453 14.0079C7.23954 13.9517 7.56166 13.7628 7.78875 13.4779L8.51565 12.5623L5.76371 10.642ZM8.38229 12.5823L5.71238 10.7191C5.63835 10.6673 5.55428 10.6319 5.46599 10.6156C5.37771 10.5993 5.28705 10.6023 5.19998 10.6244C5.11292 10.6466 5.03141 10.6873 4.96083 10.744C4.89027 10.8007 4.83223 10.872 4.79049 10.9533C4.79047 10.9533 4.79051 10.9532 4.79049 10.9533L4.03134 12.4426L5.91606 13.7042C6.19778 13.893 6.53785 13.9683 6.8706 13.9156C7.20335 13.863 7.50527 13.686 7.71813 13.4188L8.38229 12.5823ZM16.3732 13.4187L15.709 12.5821L18.3796 10.719C18.4536 10.6675 18.5374 10.6324 18.6254 10.6163C18.7135 10.6002 18.8039 10.6033 18.8908 10.6255C18.9776 10.6475 19.0589 10.6882 19.1293 10.7447C19.1997 10.8011 19.2576 10.8722 19.2994 10.9531C19.2993 10.953 19.2994 10.9531 19.2994 10.9531L20.0557 12.4423L18.1752 13.7039C17.8935 13.8928 17.5535 13.9681 17.2207 13.9155C16.888 13.8627 16.586 13.6857 16.3732 13.4187ZM18.2251 13.782C17.9246 13.9835 17.5618 14.0639 17.2068 14.0077C16.8518 13.9515 16.5297 13.7627 16.3026 13.4776L15.5757 12.5621L18.3284 10.6418C18.4129 10.5829 18.5087 10.5429 18.6094 10.5244C18.7101 10.506 18.8135 10.5095 18.9128 10.5349C19.0121 10.5602 19.105 10.6067 19.1856 10.6712C19.266 10.7359 19.3324 10.8171 19.3801 10.9098L20.171 12.4668L20.1622 12.4825L18.2251 13.782Z" fill="white" fill-opacity="0.5"/>
</g>
<g id="Group_2" style="mix-blend-mode:soft-light">
<path id="Vector_11" fill-rule="evenodd" clip-rule="evenodd" d="M7.78875 13.4779L8.51565 12.5623L5.76371 10.642C5.67906 10.5827 5.58312 10.5424 5.48217 10.5238C5.38123 10.5051 5.27757 10.5086 5.17802 10.5339C5.07848 10.5591 4.98528 10.6058 4.90458 10.6706C4.82387 10.7354 4.75747 10.817 4.70975 10.9099L3.91602 12.4671L3.92474 12.4827L5.8662 13.7823C6.16676 13.9837 6.52952 14.0641 6.88453 14.0079C7.23954 13.9517 7.56166 13.7628 7.78875 13.4779ZM16.3026 13.4776L15.5757 12.5621L18.3284 10.6418C18.4129 10.5829 18.5087 10.5429 18.6094 10.5244C18.7101 10.506 18.8135 10.5095 18.9128 10.5349C19.0121 10.5602 19.105 10.6067 19.1856 10.6712C19.266 10.7359 19.3324 10.8171 19.3801 10.9098L20.171 12.4668L20.1622 12.4825L18.2251 13.782C17.9246 13.9835 17.5618 14.0639 17.2068 14.0077C16.8518 13.9515 16.5297 13.7627 16.3026 13.4776Z" fill="url(#paint0_linear_1804_1183)"/>
</g>
<g id="Group_3" filter="url(#filter0_i_1804_1183)">
<path id="Vector_12" d="M22.9662 11.9615L21.8809 18.6298L21.8598 18.7593L21.8497 18.8241L21.7872 19.2066L21.769 19.3197L21.7595 19.3785L21.6956 19.7708L21.6737 19.9033L21.6629 19.9696L21.6105 20.2925L21.5901 20.4191L21.58 20.4831L21.4041 21.5624L21.3859 21.6733H2.6328L2.54704 21.1225L2.45618 20.5412L2.44673 20.4786L2.4271 20.3558L2.37259 20.0097L2.36241 19.9435L2.34134 19.8095L2.28537 19.456L2.27737 19.4031L2.25701 19.2721L2.19233 18.8673L2.18215 18.8017L2.1618 18.6722L1.11148 11.9489C1.0882 11.8061 1.10612 11.6593 1.16302 11.5269C1.21992 11.3943 1.31335 11.2816 1.43185 11.2026C1.55035 11.1236 1.68878 11.0817 1.83018 11.0821C1.97159 11.0824 2.10981 11.1249 2.22794 11.2045L3.92517 12.3463L5.86226 13.6459C6.16283 13.8473 6.52559 13.9277 6.8806 13.8715C7.23562 13.8153 7.55773 13.6265 7.78483 13.3415L8.5117 12.426L11.2011 9.05574C11.3033 8.9275 11.4322 8.82406 11.5783 8.7531C11.7244 8.68214 11.884 8.64526 12.0457 8.64526C12.2074 8.64526 12.3671 8.68214 12.5132 8.7531C12.6592 8.82406 12.7881 8.9275 12.8903 9.05574L15.5761 12.426L16.303 13.3415C16.5301 13.6265 16.8522 13.8153 17.2072 13.8715C17.5622 13.9277 17.925 13.8473 18.2255 13.6459L20.1728 12.3404L21.8446 11.2165C21.9628 11.1352 22.1017 11.0912 22.2441 11.09C22.3865 11.0888 22.5261 11.1305 22.6455 11.2098C22.7651 11.2892 22.8591 11.4028 22.9161 11.5364C22.9731 11.67 22.9905 11.8178 22.9662 11.9615Z" fill="#FF9B00"/>
</g>
<g id="Group_4" style="mix-blend-mode:overlay">
<path id="Vector_13" d="M22.9662 11.9615L21.8809 18.6298L21.8598 18.7593L21.8497 18.8241L21.7872 19.2066L21.769 19.3197L21.7595 19.3785L21.6955 19.7709L21.6737 19.9033L21.6629 19.9696L21.6105 20.2926L21.5901 20.4191L21.58 20.4831L21.4041 21.5624L21.3859 21.6733H2.6328L2.54704 21.1225L2.45618 20.5412L2.44673 20.4787L2.4271 20.3558L2.37259 20.0097L2.36241 19.9435L2.34134 19.8095L2.28537 19.456L2.27737 19.4031L2.25701 19.2721L2.19233 18.8673L2.18215 18.8017L2.1618 18.6722L1.11148 11.9489C1.0882 11.8061 1.10612 11.6594 1.16302 11.5269C1.21992 11.3943 1.31335 11.2816 1.43185 11.2026C1.55035 11.1236 1.68878 11.0817 1.83018 11.0821C1.97159 11.0824 2.10981 11.1249 2.22794 11.2045L3.92517 12.3463L5.86226 13.6459C6.16283 13.8473 6.52559 13.9277 6.8806 13.8715C7.23561 13.8153 7.55773 13.6265 7.78483 13.3415L8.5117 12.426L11.2011 9.05574C11.3033 8.9275 11.4322 8.82406 11.5783 8.7531C11.7244 8.68214 11.884 8.64526 12.0457 8.64526C12.2074 8.64526 12.3671 8.68214 12.5132 8.7531C12.6592 8.82406 12.7881 8.9275 12.8903 9.05574L15.5761 12.426L16.303 13.3415C16.5301 13.6265 16.8522 13.8153 17.2072 13.8715C17.5622 13.9277 17.925 13.8473 18.2255 13.6459L20.1728 12.3404L21.8446 11.2165C21.9628 11.1352 22.1017 11.0912 22.2441 11.09C22.3865 11.0888 22.5261 11.1305 22.6455 11.2098C22.765 11.2892 22.8591 11.4028 22.9161 11.5364C22.973 11.6701 22.9905 11.8178 22.9662 11.9615Z" fill="url(#paint1_linear_1804_1183)"/>
</g>
<g id="Group_5" style="mix-blend-mode:overlay" opacity="0.3">
<path id="Vector_14" d="M22.9662 11.9615L21.8809 18.6298L21.8598 18.7593L21.8497 18.8241L21.7872 19.2066L21.769 19.3197L21.7595 19.3785L21.6955 19.7709L21.6737 19.9033L21.6629 19.9696L21.6105 20.2926L21.5901 20.4191L21.58 20.4831L21.4041 21.5624L21.3859 21.6733H2.6328L2.54704 21.1225L2.45618 20.5412L2.44673 20.4787L2.4271 20.3558L2.37259 20.0097L2.36241 19.9435L2.34134 19.8095L2.28537 19.456L2.27737 19.4031L2.25701 19.2721L2.19233 18.8673L2.18215 18.8017L2.1618 18.6722L1.11148 11.9489C1.0882 11.8061 1.10612 11.6594 1.16302 11.5269C1.21992 11.3943 1.31335 11.2816 1.43185 11.2026C1.55035 11.1236 1.68878 11.0817 1.83018 11.0821C1.97159 11.0824 2.10981 11.1249 2.22794 11.2045L3.92517 12.3463L5.86226 13.6459C6.16283 13.8473 6.52559 13.9277 6.8806 13.8715C7.23561 13.8153 7.55773 13.6265 7.78483 13.3415L8.5117 12.426L11.2011 9.05574C11.3033 8.9275 11.4322 8.82406 11.5783 8.7531C11.7244 8.68214 11.884 8.64526 12.0457 8.64526C12.2074 8.64526 12.3671 8.68214 12.5132 8.7531C12.6592 8.82406 12.7881 8.9275 12.8903 9.05574L15.5761 12.426L16.303 13.3415C16.5301 13.6265 16.8522 13.8153 17.2072 13.8715C17.5622 13.9277 17.925 13.8473 18.2255 13.6459L20.1728 12.3404L21.8446 11.2165C21.9628 11.1352 22.1017 11.0912 22.2441 11.09C22.3865 11.0888 22.5261 11.1305 22.6455 11.2098C22.765 11.2892 22.8591 11.4028 22.9161 11.5364C22.973 11.6701 22.9905 11.8178 22.9662 11.9615Z" fill="url(#paint2_linear_1804_1183)"/>
</g>
<g id="Group_6" style="mix-blend-mode:overlay">
<path id="Vector_15" d="M22.9662 11.962L22.9145 12.2791C22.8715 12.1806 22.8081 12.0928 22.7287 12.0219C22.6493 11.951 22.5558 11.8986 22.4546 11.8683C22.3534 11.8382 22.2471 11.8308 22.1429 11.8468C22.0387 11.8629 21.9391 11.9019 21.8511 11.9613L20.1794 13.0852L18.2284 14.3907C17.9279 14.5922 17.5651 14.6726 17.2101 14.6163C16.8551 14.5601 16.533 14.3713 16.3058 14.0862L15.4511 13.2467L12.766 9.80055C12.3299 9.25271 11.7535 9.25271 11.3174 9.80055L8.68248 13.1857L7.92076 14.1674C7.45047 14.7577 6.48519 14.8075 5.86226 14.3907L3.92517 13.0911L2.22794 11.9531C2.1396 11.8934 2.03961 11.8543 1.93495 11.8383C1.8303 11.8224 1.7235 11.83 1.62203 11.8607C1.52055 11.8914 1.42684 11.9444 1.34745 12.016C1.26805 12.0877 1.20489 12.1762 1.16236 12.2754L1.11148 11.9494C1.0882 11.8066 1.10612 11.6598 1.16302 11.5273C1.21992 11.3948 1.31335 11.2821 1.43185 11.2031C1.55035 11.1241 1.68878 11.0822 1.83018 11.0826C1.97159 11.0829 2.10981 11.1254 2.22794 11.205L3.92517 12.3468L5.86226 13.6464C6.16283 13.8478 6.52559 13.9282 6.8806 13.872C7.23561 13.8158 7.55773 13.627 7.78483 13.342L8.5117 12.4265L11.2011 9.05623C11.3033 8.92799 11.4322 8.82455 11.5783 8.75359C11.7244 8.68263 11.884 8.64575 12.0457 8.64575C12.2074 8.64575 12.3671 8.68263 12.5132 8.75359C12.6592 8.82455 12.7881 8.92799 12.8903 9.05623L15.5761 12.4265L16.303 13.342C16.5301 13.627 16.8522 13.8158 17.2072 13.872C17.5622 13.9282 17.925 13.8478 18.2255 13.6464L20.1728 12.3409L21.8446 11.217C21.9628 11.1356 22.1017 11.0917 22.2441 11.0905C22.3865 11.0893 22.5261 11.131 22.6455 11.2103C22.765 11.2897 22.8591 11.4033 22.9161 11.5369C22.973 11.6705 22.9905 11.8183 22.9662 11.962Z" fill="white"/>
</g>
<g id="Group_7" style="mix-blend-mode:soft-light" opacity="0.5">
<path id="Vector_16" fill-rule="evenodd" clip-rule="evenodd" d="M21.7882 19.2081L21.8507 18.8255C20.5103 17.6652 16.1201 17.0601 12.0424 17.0601C9.47144 17.0601 7.02192 17.2841 5.14588 17.6912C3.46465 18.0559 2.61058 18.4839 2.19336 18.868L2.25805 19.2744L2.27841 19.4053L2.2864 19.4582C2.38234 19.2334 2.86063 18.6439 5.2382 18.1281C7.08516 17.7299 9.4998 17.5066 12.0439 17.5066C17.4067 17.5066 21.2016 18.4661 21.7606 19.3801L21.77 19.3213L21.7882 19.2081ZM21.6115 20.2938L21.6638 19.9708C20.3351 18.966 16.5227 18.2983 12.0438 18.2946C7.50522 18.2946 3.65138 18.9809 2.37283 20.0065L2.42734 20.3526L2.44697 20.4754L2.45641 20.5379C2.49575 20.4903 2.53877 20.446 2.58507 20.4054C3.67755 19.4445 7.65568 18.7457 12.0438 18.7457C16.4318 18.7457 20.41 19.4423 21.5039 20.4099C21.531 20.4332 21.5567 20.4581 21.581 20.4844L21.5911 20.4203L21.6115 20.2938Z" fill="white"/>
</g>
<g id="Group_8" style="mix-blend-mode:hard-light">
<path id="Vector_17" fill-rule="evenodd" clip-rule="evenodd" d="M21.8601 18.7597L21.8812 18.6302C20.5823 17.4512 16.1521 16.8364 12.0388 16.8364C9.46784 16.8364 7.01829 17.0604 5.14225 17.4675C3.42177 17.8412 2.5677 18.2811 2.16211 18.6726L2.18246 18.8021L2.19263 18.8676L2.25733 19.2725L2.27113 19.2763C2.32274 19.0946 2.69345 18.4567 5.23747 17.9037C7.08444 17.5055 9.49909 17.2823 12.0431 17.2823C17.5062 17.2823 21.3419 18.2781 21.7875 19.207L21.85 18.8244L21.8601 18.7597ZM21.6741 19.9043L21.6959 19.7718C20.3978 18.7535 16.5592 18.0747 12.0432 18.0732C7.46826 18.0732 3.58826 18.7677 2.34168 19.8097L2.36204 19.9399L2.37221 20.0062L2.42673 20.3523C2.47278 20.2895 2.5257 20.2323 2.58445 20.1819C3.67693 19.221 7.65506 18.5213 12.0432 18.5213C16.4312 18.5213 20.4093 19.2179 21.5033 20.1856C21.5416 20.2189 21.5775 20.255 21.6109 20.2935L21.6632 19.9705L21.6741 19.9043Z" fill="#A15700"/>
</g>
<path id="Vector_18" d="M12.0407 23.8328C17.2192 23.8328 21.4172 22.8664 21.4172 21.6743C21.4172 20.4823 17.2192 19.5159 12.0407 19.5159C6.86209 19.5159 2.66406 20.4823 2.66406 21.6743C2.66406 22.8664 6.86209 23.8328 12.0407 23.8328Z" fill="#A15700"/>
<path id="Vector_19" style="mix-blend-mode:overlay" d="M12.0407 23.8328C17.2192 23.8328 21.4172 22.8664 21.4172 21.6743C21.4172 20.4823 17.2192 19.5159 12.0407 19.5159C6.86209 19.5159 2.66406 20.4823 2.66406 21.6743C2.66406 22.8664 6.86209 23.8328 12.0407 23.8328Z" fill="url(#paint3_linear_1804_1183)"/>
<path id="Vector_20" d="M12.0393 23.1243C16.5354 23.1243 20.1802 22.5245 20.1802 21.7846C20.1802 21.0447 16.5354 20.4448 12.0393 20.4448C7.54323 20.4448 3.89844 21.0447 3.89844 21.7846C3.89844 22.5245 7.54323 23.1243 12.0393 23.1243Z" fill="#A15700"/>
<path id="Vector_21" style="mix-blend-mode:soft-light" d="M12.0393 23.1243C16.5354 23.1243 20.1802 22.5245 20.1802 21.7846C20.1802 21.0447 16.5354 20.4448 12.0393 20.4448C7.54323 20.4448 3.89844 21.0447 3.89844 21.7846C3.89844 22.5245 7.54323 23.1243 12.0393 23.1243Z" fill="url(#paint4_linear_1804_1183)" fill-opacity="0.6"/>
<g id="Group_9" style="mix-blend-mode:overlay">
<g id="Vector_22" style="mix-blend-mode:soft-light">
<path fill-rule="evenodd" clip-rule="evenodd" d="M10.5545 12.165L11.5534 10.8194C11.7868 10.5049 12.2487 10.5049 12.4822 10.8194L13.4811 12.165C13.6426 12.3826 13.6393 12.6848 13.473 12.8986L12.4741 14.1831C12.2405 14.4834 11.795 14.4834 11.5614 14.1831L10.5626 12.8986C10.3962 12.6848 10.393 12.3826 10.5545 12.165ZM10.8447 12.391L11.8436 11.0453C11.9312 10.9274 12.1044 10.9274 12.192 11.0453L13.1909 12.391C13.2514 12.4726 13.2502 12.5858 13.1878 12.6661L12.1889 13.9506C12.1013 14.0632 11.9342 14.0632 11.8466 13.9506L10.8477 12.6661C10.7854 12.5858 10.7841 12.4726 10.8447 12.391Z" fill="white"/>
</g>
</g>
<path id="Vector_23" d="M11.8443 11.045L10.8454 12.3907C10.7848 12.4723 10.7861 12.5856 10.8484 12.6658L11.8473 13.9503C11.9349 14.063 12.102 14.063 12.1896 13.9503L13.1885 12.6658C13.2508 12.5856 13.2521 12.4723 13.1915 12.3907L12.1926 11.045C12.105 10.927 11.9318 10.927 11.8443 11.045Z" fill="#FF9F0A"/>
<g id="Group_10" style="mix-blend-mode:overlay">
<path id="Vector_24" d="M11.8443 11.045L10.8454 12.3907C10.7848 12.4723 10.7861 12.5856 10.8484 12.6658L11.8473 13.9503C11.9349 14.063 12.102 14.063 12.1896 13.9503L13.1885 12.6658C13.2508 12.5856 13.2521 12.4723 13.1915 12.3907L12.1926 11.045C12.105 10.927 11.9318 10.927 11.8443 11.045Z" fill="url(#paint5_linear_1804_1183)"/>
</g>
</g>
</g>
</g>
</g>
<defs>
<filter id="filter0_i_1804_1183" x="1.10156" y="7.64526" width="21.875" height="14.0281" filterUnits="userSpaceOnUse" color-interpolation-filters="sRGB">
<feFlood flood-opacity="0" result="BackgroundImageFix"/>
<feBlend mode="normal" in="SourceGraphic" in2="BackgroundImageFix" result="shape"/>
<feColorMatrix in="SourceAlpha" type="matrix" values="0 0 0 0 0 0 0 0 0 0 0 0 0 0 0 0 0 0 127 0" result="hardAlpha"/>
<feOffset dy="-1"/>
<feGaussianBlur stdDeviation="1"/>
<feComposite in2="hardAlpha" operator="arithmetic" k2="-1" k3="1"/>
<feColorMatrix type="matrix" values="0 0 0 0 1 0 0 0 0 1 0 0 0 0 1 0 0 0 1 0"/>
<feBlend mode="overlay" in2="shape" result="effect1_innerShadow_1804_1183"/>
</filter>
<linearGradient id="paint0_linear_1804_1183" x1="3.83613" y1="10.6478" x2="20.2424" y2="10.6478" gradientUnits="userSpaceOnUse">
<stop stop-color="white" stop-opacity="0"/>
<stop offset="0.182094" stop-color="white"/>
<stop offset="0.83449" stop-color="white"/>
<stop offset="1" stop-color="white" stop-opacity="0"/>
</linearGradient>
<linearGradient id="paint1_linear_1804_1183" x1="-0.720796" y1="15.1786" x2="24.8001" y2="15.1786" gradientUnits="userSpaceOnUse">
<stop stop-color="white"/>
<stop offset="0.249953" stop-color="white" stop-opacity="0"/>
<stop offset="0.494792" stop-color="white"/>
<stop offset="0.72541" stop-color="white" stop-opacity="0"/>
<stop offset="1" stop-color="white"/>
</linearGradient>
<linearGradient id="paint2_linear_1804_1183" x1="12.0396" y1="8.64526" x2="12.0396" y2="19.3786" gradientUnits="userSpaceOnUse">
<stop stop-color="white"/>
<stop offset="1" stop-color="white" stop-opacity="0"/>
</linearGradient>
<linearGradient id="paint3_linear_1804_1183" x1="2.47013" y1="22.1784" x2="21.6107" y2="22.1784" gradientUnits="userSpaceOnUse">
<stop stop-color="white"/>
<stop offset="1" stop-color="white" stop-opacity="0"/>
</linearGradient>
<linearGradient id="paint4_linear_1804_1183" x1="4.29175" y1="22.1787" x2="20.2423" y2="22.1787" gradientUnits="userSpaceOnUse">
<stop/>
<stop offset="0.203125" stop-opacity="0"/>
<stop offset="0.484375"/>
<stop offset="0.770833" stop-opacity="0"/>
<stop offset="1"/>
</linearGradient>
<linearGradient id="paint5_linear_1804_1183" x1="11.2529" y1="11.2958" x2="12.9333" y2="12.9732" gradientUnits="userSpaceOnUse">
<stop stop-color="white"/>
<stop offset="1" stop-color="white" stop-opacity="0"/>
</linearGradient>
</defs>
</svg>
