<svg width="25" height="24" viewBox="0 0 25 24" fill="none" xmlns="http://www.w3.org/2000/svg">
<g id="test 2" clip-path="url(#clip0_1804_1220)">
<path id="Vector" d="M23.1748 5.92353C23.1623 5.94426 23.1561 5.96813 23.1566 5.99239L23.1913 7.52359L21.9087 6.72733C21.8883 6.71472 21.8649 6.70832 21.8411 6.70887L20.3398 6.7443L21.1205 5.43596C21.1329 5.41523 21.1392 5.39136 21.1387 5.3671L21.1039 3.83594L22.3866 4.63219C22.407 4.6448 22.4304 4.6512 22.4541 4.65063L23.9554 4.61523L23.1748 5.92353Z" fill="white"/>
<path id="Vector_2" d="M10.5855 2.18233C10.572 2.18987 10.5609 2.20119 10.5535 2.21498L10.0867 3.08554L9.61992 2.215C9.6125 2.20121 9.60141 2.18989 9.58789 2.18234L8.73438 1.70622L9.58789 1.2301C9.60141 1.22256 9.6125 1.21123 9.61992 1.19744L10.0867 0.326904L10.5535 1.19744C10.5609 1.21123 10.572 1.22256 10.5855 1.2301L11.4391 1.70622L10.5855 2.18233Z" fill="white"/>
<path id="Vector_3" d="M21.2027 10.8707C21.5724 10.8707 21.8721 11.1764 21.8721 11.5535C21.8721 11.9306 21.5724 12.2363 21.2027 12.2363C20.8329 12.2363 20.5332 11.9306 20.5332 11.5535C20.5332 11.1764 20.8329 10.8707 21.2027 10.8707Z" fill="white"/>
<path id="Vector_4" d="M0.669456 4.1854C1.03919 4.1854 1.33891 4.49111 1.33891 4.86821C1.33891 5.24532 1.03919 5.55103 0.669456 5.55103C0.299726 5.55103 0 5.24532 0 4.86821C0 4.49111 0.299726 4.1854 0.669456 4.1854Z" fill="white"/>
<path id="Vector_5" d="M14.2776 4.15349C14.4061 4.15349 14.5103 4.25975 14.5103 4.39083C14.5103 4.52191 14.4061 4.62817 14.2776 4.62817C14.1491 4.62817 14.0449 4.52191 14.0449 4.39083C14.0449 4.25975 14.1491 4.15349 14.2776 4.15349Z" fill="white"/>
<path id="Vector_6" d="M19.7444 0.000167578C19.8729 0.000167578 19.9771 0.10643 19.9771 0.237511C19.9771 0.368591 19.8729 0.474854 19.7444 0.474854C19.6159 0.474854 19.5117 0.368591 19.5117 0.237511C19.5117 0.10643 19.6159 0.000167578 19.7444 0.000167578Z" fill="white"/>
<path id="Vector_7" d="M6.78477 8.74825C6.77124 8.75575 6.76014 8.76708 6.75274 8.78091L6.28594 9.65145L5.81914 8.78091C5.81174 8.76716 5.80064 8.75583 5.78712 8.74825L4.93359 8.27216L5.7871 7.79602C5.80062 7.78848 5.81173 7.77715 5.81913 7.76336L6.28592 6.89282L6.75273 7.76336C6.76013 7.77715 6.77123 7.78848 6.78475 7.79602L7.63827 8.27216L6.78477 8.74825Z" fill="white"/>
<g id="Clip path group">
<mask id="mask0_1804_1220" style="mask-type:luminance" maskUnits="userSpaceOnUse" x="1" y="8" width="22" height="16">
<g id="2_svg__clip0_228_1166">
<path id="Vector_8" d="M22.9766 8.44263H1.10156V23.2743H22.9766V8.44263Z" fill="white"/>
</g>
</mask>
<g mask="url(#mask0_1804_1220)">
<g id="Group">
<path id="Vector_9" fill-rule="evenodd" clip-rule="evenodd" d="M7.78875 13.162L8.51565 12.2679L5.76371 10.3926C5.67906 10.3347 5.58312 10.2954 5.48217 10.2772C5.38123 10.259 5.27757 10.2623 5.17802 10.287C5.07848 10.3117 4.98528 10.3572 4.90458 10.4205C4.82387 10.4838 4.75747 10.5635 4.70975 10.6543L3.91602 12.1749L3.92474 12.1901L5.8662 13.4593C6.16676 13.656 6.52952 13.7345 6.88453 13.6796C7.23954 13.6247 7.56166 13.4403 7.78875 13.162ZM16.3026 13.1618L15.5757 12.2677L18.3284 10.3924C18.4129 10.3349 18.5087 10.2958 18.6094 10.2778C18.7101 10.2598 18.8135 10.2633 18.9128 10.288C19.0121 10.3127 19.105 10.3581 19.1856 10.4212C19.266 10.4843 19.3324 10.5637 19.3801 10.6541L20.171 12.1747L20.1622 12.19L18.2251 13.459C17.9246 13.6558 17.5618 13.7343 17.2068 13.6794C16.8518 13.6245 16.5297 13.4401 16.3026 13.1618Z" fill="#5C5C5C"/>
<g id="Vector_10" style="mix-blend-mode:soft-light">
<path fill-rule="evenodd" clip-rule="evenodd" d="M5.76371 10.3926C5.67906 10.3347 5.58312 10.2954 5.48217 10.2772C5.38123 10.259 5.27757 10.2623 5.17802 10.287C5.07848 10.3117 4.98528 10.3572 4.90458 10.4205C4.82387 10.4838 4.75747 10.5635 4.70975 10.6543L3.91602 12.1749L3.92474 12.1901L5.8662 13.4593C6.16676 13.656 6.52952 13.7345 6.88453 13.6796C7.23954 13.6247 7.56166 13.4403 7.78875 13.162L8.51565 12.2679L5.76371 10.3926ZM8.38229 12.2874L5.71238 10.4679C5.63835 10.4173 5.55428 10.3828 5.46599 10.3669C5.37771 10.3509 5.28705 10.3539 5.19998 10.3754C5.11292 10.3971 5.03141 10.4369 4.96083 10.4922C4.89027 10.5476 4.83223 10.6172 4.79049 10.6966C4.79047 10.6966 4.79051 10.6965 4.79049 10.6966L4.03134 12.151L5.91606 13.383C6.19778 13.5674 6.53785 13.641 6.8706 13.5895C7.20335 13.5381 7.50527 13.3653 7.71813 13.1044L8.38229 12.2874ZM16.3732 13.1042L15.709 12.2872L18.3796 10.4678C18.4536 10.4175 18.5374 10.3833 18.6254 10.3676C18.7135 10.3518 18.8039 10.3548 18.8908 10.3765C18.9776 10.398 19.0589 10.4377 19.1293 10.4929C19.1997 10.548 19.2576 10.6174 19.2994 10.6964C19.2993 10.6963 19.2994 10.6965 19.2994 10.6964L20.0557 12.1508L18.1752 13.3828C17.8935 13.5672 17.5535 13.6408 17.2207 13.5894C16.888 13.5379 16.586 13.365 16.3732 13.1042ZM18.2251 13.459C17.9246 13.6558 17.5618 13.7343 17.2068 13.6794C16.8518 13.6245 16.5297 13.4401 16.3026 13.1618L15.5757 12.2677L18.3284 10.3924C18.4129 10.3349 18.5087 10.2958 18.6094 10.2778C18.7101 10.2598 18.8135 10.2633 18.9128 10.288C19.0121 10.3127 19.105 10.3581 19.1856 10.4212C19.266 10.4843 19.3324 10.5637 19.3801 10.6541L20.171 12.1747L20.1622 12.19L18.2251 13.459Z" fill="white" fill-opacity="0.5"/>
</g>
<g id="Group_2" style="mix-blend-mode:soft-light">
<path id="Vector_11" fill-rule="evenodd" clip-rule="evenodd" d="M7.78875 13.162L8.51565 12.2679L5.76371 10.3926C5.67906 10.3347 5.58312 10.2954 5.48217 10.2772C5.38123 10.259 5.27757 10.2623 5.17802 10.287C5.07848 10.3117 4.98528 10.3572 4.90458 10.4205C4.82387 10.4838 4.75747 10.5635 4.70975 10.6543L3.91602 12.1749L3.92474 12.1901L5.8662 13.4593C6.16676 13.656 6.52952 13.7345 6.88453 13.6796C7.23954 13.6247 7.56166 13.4403 7.78875 13.162ZM16.3026 13.1618L15.5757 12.2677L18.3284 10.3924C18.4129 10.3349 18.5087 10.2958 18.6094 10.2778C18.7101 10.2598 18.8135 10.2633 18.9128 10.288C19.0121 10.3127 19.105 10.3581 19.1856 10.4212C19.266 10.4843 19.3324 10.5637 19.3801 10.6541L20.171 12.1747L20.1622 12.19L18.2251 13.459C17.9246 13.6558 17.5618 13.7343 17.2068 13.6794C16.8518 13.6245 16.5297 13.4401 16.3026 13.1618Z" fill="url(#paint0_linear_1804_1220)"/>
</g>
<g id="Group_3" filter="url(#filter0_i_1804_1220)">
<path id="Vector_12" d="M22.9662 11.6811L21.8809 18.1932L21.8598 18.3197L21.8497 18.3829L21.7872 18.7565L21.769 18.8669L21.7595 18.9243L21.6956 19.3074L21.6737 19.4368L21.6629 19.5015L21.6105 19.8169L21.5901 19.9405L21.58 20.003L21.4041 21.057L21.3859 21.1653H2.6328L2.54704 20.6274L2.45618 20.0597L2.44673 19.9986L2.4271 19.8787L2.37259 19.5408L2.36241 19.4761L2.34134 19.3452L2.28537 19L2.27737 18.9483L2.25701 18.8204L2.19233 18.425L2.18215 18.3611L2.1618 18.2346L1.11148 11.6688C1.0882 11.5293 1.10612 11.3861 1.16302 11.2567C1.21992 11.1272 1.31335 11.0172 1.43185 10.94C1.55035 10.8629 1.68878 10.822 1.83018 10.8223C1.97159 10.8226 2.10981 10.8642 2.22794 10.9419L3.92517 12.0569L5.86226 13.3261C6.16283 13.5228 6.52559 13.6013 6.8806 13.5464C7.23562 13.4915 7.55773 13.3071 7.78483 13.0288L8.5117 12.1347L11.2011 8.84349C11.3033 8.71825 11.4322 8.61724 11.5783 8.54794C11.7244 8.47864 11.884 8.44263 12.0457 8.44263C12.2074 8.44263 12.3671 8.47864 12.5132 8.54794C12.6592 8.61724 12.7881 8.71825 12.8903 8.84349L15.5761 12.1347L16.303 13.0288C16.5301 13.3071 16.8522 13.4915 17.2072 13.5464C17.5622 13.6013 17.925 13.5228 18.2255 13.3261L20.1728 12.0511L21.8446 10.9536C21.9628 10.8742 22.1017 10.8312 22.2441 10.83C22.3865 10.8289 22.5261 10.8696 22.6455 10.9471C22.7651 11.0246 22.8591 11.1355 22.9161 11.266C22.9731 11.3965 22.9905 11.5408 22.9662 11.6811Z" fill="#ACACAC"/>
</g>
<g id="Group_4" style="mix-blend-mode:overlay">
<path id="Vector_13" d="M22.9662 11.6811L21.8809 18.1932L21.8598 18.3197L21.8497 18.3829L21.7872 18.7565L21.769 18.8669L21.7595 18.9243L21.6955 19.3075L21.6737 19.4368L21.6629 19.5015L21.6105 19.817L21.5901 19.9405L21.58 20.003L21.4041 21.057L21.3859 21.1653H2.6328L2.54704 20.6274L2.45618 20.0597L2.44673 19.9987L2.4271 19.8787L2.37259 19.5408L2.36241 19.4761L2.34134 19.3452L2.28537 19L2.27737 18.9483L2.25701 18.8204L2.19233 18.425L2.18215 18.3611L2.1618 18.2346L1.11148 11.6688C1.0882 11.5293 1.10612 11.3861 1.16302 11.2567C1.21992 11.1272 1.31335 11.0172 1.43185 10.94C1.55035 10.8629 1.68878 10.822 1.83018 10.8223C1.97159 10.8226 2.10981 10.8642 2.22794 10.9419L3.92517 12.0569L5.86226 13.3261C6.16283 13.5228 6.52559 13.6013 6.8806 13.5464C7.23561 13.4915 7.55773 13.3071 7.78483 13.0288L8.5117 12.1347L11.2011 8.84349C11.3033 8.71825 11.4322 8.61724 11.5783 8.54794C11.7244 8.47864 11.884 8.44263 12.0457 8.44263C12.2074 8.44263 12.3671 8.47864 12.5132 8.54794C12.6592 8.61724 12.7881 8.71825 12.8903 8.84349L15.5761 12.1347L16.303 13.0288C16.5301 13.3071 16.8522 13.4915 17.2072 13.5464C17.5622 13.6013 17.925 13.5228 18.2255 13.3261L20.1728 12.0511L21.8446 10.9536C21.9628 10.8742 22.1017 10.8312 22.2441 10.83C22.3865 10.8289 22.5261 10.8696 22.6455 10.9471C22.765 11.0246 22.8591 11.1355 22.9161 11.266C22.973 11.3965 22.9905 11.5408 22.9662 11.6811Z" fill="url(#paint1_linear_1804_1220)"/>
</g>
<g id="Group_5" style="mix-blend-mode:overlay" opacity="0.3">
<path id="Vector_14" d="M22.9662 11.6811L21.8809 18.1932L21.8598 18.3197L21.8497 18.3829L21.7872 18.7565L21.769 18.8669L21.7595 18.9243L21.6955 19.3075L21.6737 19.4368L21.6629 19.5015L21.6105 19.817L21.5901 19.9405L21.58 20.003L21.4041 21.057L21.3859 21.1653H2.6328L2.54704 20.6274L2.45618 20.0597L2.44673 19.9987L2.4271 19.8787L2.37259 19.5408L2.36241 19.4761L2.34134 19.3452L2.28537 19L2.27737 18.9483L2.25701 18.8204L2.19233 18.425L2.18215 18.3611L2.1618 18.2346L1.11148 11.6688C1.0882 11.5293 1.10612 11.3861 1.16302 11.2567C1.21992 11.1272 1.31335 11.0172 1.43185 10.94C1.55035 10.8629 1.68878 10.822 1.83018 10.8223C1.97159 10.8226 2.10981 10.8642 2.22794 10.9419L3.92517 12.0569L5.86226 13.3261C6.16283 13.5228 6.52559 13.6013 6.8806 13.5464C7.23561 13.4915 7.55773 13.3071 7.78483 13.0288L8.5117 12.1347L11.2011 8.84349C11.3033 8.71825 11.4322 8.61724 11.5783 8.54794C11.7244 8.47864 11.884 8.44263 12.0457 8.44263C12.2074 8.44263 12.3671 8.47864 12.5132 8.54794C12.6592 8.61724 12.7881 8.71825 12.8903 8.84349L15.5761 12.1347L16.303 13.0288C16.5301 13.3071 16.8522 13.4915 17.2072 13.5464C17.5622 13.6013 17.925 13.5228 18.2255 13.3261L20.1728 12.0511L21.8446 10.9536C21.9628 10.8742 22.1017 10.8312 22.2441 10.83C22.3865 10.8289 22.5261 10.8696 22.6455 10.9471C22.765 11.0246 22.8591 11.1355 22.9161 11.266C22.973 11.3965 22.9905 11.5408 22.9662 11.6811Z" fill="url(#paint2_linear_1804_1220)"/>
</g>
<g id="Group_6" style="mix-blend-mode:overlay">
<path id="Vector_15" d="M22.9662 11.6816L22.9145 11.9913C22.8715 11.8951 22.8081 11.8094 22.7287 11.7401C22.6493 11.6708 22.5558 11.6197 22.4546 11.5901C22.3534 11.5607 22.2471 11.5535 22.1429 11.5691C22.0387 11.5848 21.9391 11.623 21.8511 11.6809L20.1794 12.7785L18.2284 14.0534C17.9279 14.2501 17.5651 14.3287 17.2101 14.2737C16.8551 14.2188 16.533 14.0344 16.3058 13.7561L15.4511 12.9362L12.766 9.57085C12.3299 9.03585 11.7535 9.03585 11.3174 9.57085L8.68248 12.8766L7.92076 13.8354C7.45047 14.4118 6.48519 14.4605 5.86226 14.0534L3.92517 12.7843L2.22794 11.673C2.1396 11.6147 2.03961 11.5765 1.93495 11.5608C1.8303 11.5453 1.7235 11.5527 1.62203 11.5827C1.52055 11.6127 1.42684 11.6644 1.34745 11.7344C1.26805 11.8044 1.20489 11.8908 1.16236 11.9876L1.11148 11.6693C1.0882 11.5298 1.10612 11.3866 1.16302 11.2571C1.21992 11.1277 1.31335 11.0176 1.43185 10.9405C1.55035 10.8633 1.68878 10.8224 1.83018 10.8228C1.97159 10.8231 2.10981 10.8647 2.22794 10.9424L3.92517 12.0574L5.86226 13.3266C6.16283 13.5233 6.52559 13.6018 6.8806 13.5469C7.23561 13.492 7.55773 13.3076 7.78483 13.0293L8.5117 12.1352L11.2011 8.84397C11.3033 8.71874 11.4322 8.61772 11.5783 8.54843C11.7244 8.47913 11.884 8.44312 12.0457 8.44312C12.2074 8.44312 12.3671 8.47913 12.5132 8.54843C12.6592 8.61772 12.7881 8.71874 12.8903 8.84397L15.5761 12.1352L16.303 13.0293C16.5301 13.3076 16.8522 13.492 17.2072 13.5469C17.5622 13.6018 17.925 13.5233 18.2255 13.3266L20.1728 12.0516L21.8446 10.9541C21.9628 10.8746 22.1017 10.8317 22.2441 10.8305C22.3865 10.8294 22.5261 10.8701 22.6455 10.9476C22.765 11.0251 22.8591 11.136 22.9161 11.2665C22.973 11.3969 22.9905 11.5413 22.9662 11.6816Z" fill="white"/>
</g>
<g id="Group_7" style="mix-blend-mode:soft-light" opacity="0.5">
<path id="Vector_16" fill-rule="evenodd" clip-rule="evenodd" d="M21.7882 18.7579L21.8507 18.3842C20.5103 17.2511 16.1201 16.6602 12.0424 16.6602C9.47144 16.6602 7.02192 16.8789 5.14588 17.2765C3.46465 17.6327 2.61058 18.0506 2.19336 18.4257L2.25805 18.8226L2.27841 18.9505L2.2864 19.0021C2.38234 18.7826 2.86063 18.2069 5.2382 17.7032C7.08516 17.3143 9.4998 17.0962 12.0439 17.0962C17.4067 17.0962 21.2016 18.0332 21.7606 18.9258L21.77 18.8684L21.7882 18.7579ZM21.6115 19.8181L21.6638 19.5027C20.3351 18.5214 16.5227 17.8694 12.0438 17.8658C7.50522 17.8658 3.65138 18.5359 2.37283 19.5376L2.42734 19.8755L2.44697 19.9955L2.45641 20.0565C2.49575 20.01 2.53877 19.9667 2.58507 19.9271C3.67755 18.9887 7.65568 18.3062 12.0438 18.3062C16.4318 18.3062 20.41 18.9866 21.5039 19.9315C21.531 19.9542 21.5567 19.9785 21.581 20.0042L21.5911 19.9416L21.6115 19.8181Z" fill="white"/>
</g>
<g id="Group_8" style="mix-blend-mode:hard-light">
<path id="Vector_17" fill-rule="evenodd" clip-rule="evenodd" d="M21.8601 18.3201L21.8812 18.1936C20.5823 17.0423 16.1521 16.4419 12.0388 16.4419C9.46784 16.4419 7.01829 16.6606 5.14225 17.0582C3.42177 17.4231 2.5677 17.8527 2.16211 18.235L2.18246 18.3615L2.19263 18.4255L2.25733 18.8209L2.27113 18.8246C2.32274 18.6471 2.69345 18.0242 5.23747 17.4842C7.08444 17.0953 9.49909 16.8773 12.0431 16.8773C17.5062 16.8773 21.3419 17.8498 21.7875 18.7569L21.85 18.3833L21.8601 18.3201ZM21.6741 19.4378L21.6959 19.3085C20.3978 18.3141 16.5592 17.6512 12.0432 17.6497C7.46826 17.6497 3.58826 18.3279 2.34168 19.3455L2.36204 19.4727L2.37221 19.5374L2.42673 19.8754C2.47278 19.8141 2.5257 19.7582 2.58445 19.7089C3.67693 18.7706 7.65506 18.0873 12.0432 18.0873C16.4312 18.0873 20.4093 18.7676 21.5033 19.7126C21.5416 19.7451 21.5775 19.7803 21.6109 19.818L21.6632 19.5025L21.6741 19.4378Z" fill="#6F6F6F"/>
</g>
<path id="Vector_18" d="M12.0407 23.2741C17.2192 23.2741 21.4172 22.3304 21.4172 21.1662C21.4172 20.0021 17.2192 19.0583 12.0407 19.0583C6.86209 19.0583 2.66406 20.0021 2.66406 21.1662C2.66406 22.3304 6.86209 23.2741 12.0407 23.2741Z" fill="#838383"/>
<path id="Vector_19" style="mix-blend-mode:overlay" d="M12.0407 23.2741C17.2192 23.2741 21.4172 22.3304 21.4172 21.1662C21.4172 20.0021 17.2192 19.0583 12.0407 19.0583C6.86209 19.0583 2.66406 20.0021 2.66406 21.1662C2.66406 22.3304 6.86209 23.2741 12.0407 23.2741Z" fill="url(#paint3_linear_1804_1220)"/>
<path id="Vector_20" d="M12.0393 22.5823C16.5354 22.5823 20.1802 21.9965 20.1802 21.2739C20.1802 20.5514 16.5354 19.9656 12.0393 19.9656C7.54323 19.9656 3.89844 20.5514 3.89844 21.2739C3.89844 21.9965 7.54323 22.5823 12.0393 22.5823Z" fill="#9B9B9B"/>
<path id="Vector_21" style="mix-blend-mode:soft-light" d="M12.0393 22.5823C16.5354 22.5823 20.1802 21.9965 20.1802 21.2739C20.1802 20.5514 16.5354 19.9656 12.0393 19.9656C7.54323 19.9656 3.89844 20.5514 3.89844 21.2739C3.89844 21.9965 7.54323 22.5823 12.0393 22.5823Z" fill="url(#paint4_linear_1804_1220)" fill-opacity="0.6"/>
<g id="Group_9" style="mix-blend-mode:overlay">
<g id="Vector_22" style="mix-blend-mode:soft-light">
<path fill-rule="evenodd" clip-rule="evenodd" d="M10.5545 11.8799L11.5534 10.5658C11.7868 10.2587 12.2487 10.2587 12.4822 10.5658L13.4811 11.8799C13.6426 12.0924 13.6393 12.3875 13.473 12.5963L12.4741 13.8507C12.2405 14.144 11.795 14.144 11.5614 13.8507L10.5626 12.5963C10.3962 12.3875 10.393 12.0924 10.5545 11.8799ZM10.8447 12.1005L11.8436 10.7864C11.9312 10.6713 12.1044 10.6713 12.192 10.7864L13.1909 12.1005C13.2514 12.1802 13.2502 12.2909 13.1878 12.3692L12.1889 13.6236C12.1013 13.7336 11.9342 13.7336 11.8466 13.6236L10.8477 12.3692C10.7854 12.2909 10.7841 12.1802 10.8447 12.1005Z" fill="white"/>
</g>
</g>
<path id="Vector_23" d="M11.8443 10.7861L10.8454 12.1003C10.7848 12.18 10.7861 12.2906 10.8484 12.3689L11.8473 13.6233C11.9349 13.7333 12.102 13.7333 12.1896 13.6233L13.1885 12.3689C13.2508 12.2906 13.2521 12.18 13.1915 12.1003L12.1926 10.7861C12.105 10.6709 11.9318 10.6709 11.8443 10.7861Z" fill="#CACACA"/>
<g id="Group_10" style="mix-blend-mode:overlay">
<path id="Vector_24" d="M11.8443 10.7861L10.8454 12.1003C10.7848 12.18 10.7861 12.2906 10.8484 12.3689L11.8473 13.6233C11.9349 13.7333 12.102 13.7333 12.1896 13.6233L13.1885 12.3689C13.2508 12.2906 13.2521 12.18 13.1915 12.1003L12.1926 10.7861C12.105 10.6709 11.9318 10.6709 11.8443 10.7861Z" fill="url(#paint5_linear_1804_1220)"/>
</g>
</g>
</g>
</g>
</g>
<defs>
<filter id="filter0_i_1804_1220" x="1.10156" y="7.44263" width="21.875" height="13.7227" filterUnits="userSpaceOnUse" color-interpolation-filters="sRGB">
<feFlood flood-opacity="0" result="BackgroundImageFix"/>
<feBlend mode="normal" in="SourceGraphic" in2="BackgroundImageFix" result="shape"/>
<feColorMatrix in="SourceAlpha" type="matrix" values="0 0 0 0 0 0 0 0 0 0 0 0 0 0 0 0 0 0 127 0" result="hardAlpha"/>
<feOffset dy="-1"/>
<feGaussianBlur stdDeviation="1"/>
<feComposite in2="hardAlpha" operator="arithmetic" k2="-1" k3="1"/>
<feColorMatrix type="matrix" values="0 0 0 0 1 0 0 0 0 1 0 0 0 0 1 0 0 0 1 0"/>
<feBlend mode="overlay" in2="shape" result="effect1_innerShadow_1804_1220"/>
</filter>
<linearGradient id="paint0_linear_1804_1220" x1="3.83613" y1="10.3983" x2="20.2424" y2="10.3983" gradientUnits="userSpaceOnUse">
<stop stop-color="white" stop-opacity="0"/>
<stop offset="0.182094" stop-color="white"/>
<stop offset="0.83449" stop-color="white"/>
<stop offset="1" stop-color="white" stop-opacity="0"/>
</linearGradient>
<linearGradient id="paint1_linear_1804_1220" x1="-0.720796" y1="14.8229" x2="24.8001" y2="14.8229" gradientUnits="userSpaceOnUse">
<stop stop-color="white"/>
<stop offset="0.249953" stop-color="white" stop-opacity="0"/>
<stop offset="0.494792" stop-color="white"/>
<stop offset="0.72541" stop-color="white" stop-opacity="0"/>
<stop offset="1" stop-color="white"/>
</linearGradient>
<linearGradient id="paint2_linear_1804_1220" x1="12.0396" y1="8.44263" x2="12.0396" y2="18.9244" gradientUnits="userSpaceOnUse">
<stop stop-color="white"/>
<stop offset="1" stop-color="white" stop-opacity="0"/>
</linearGradient>
<linearGradient id="paint3_linear_1804_1220" x1="2.47013" y1="21.6585" x2="21.6107" y2="21.6585" gradientUnits="userSpaceOnUse">
<stop stop-color="white"/>
<stop offset="1" stop-color="white" stop-opacity="0"/>
</linearGradient>
<linearGradient id="paint4_linear_1804_1220" x1="4.29175" y1="21.6588" x2="20.2423" y2="21.6588" gradientUnits="userSpaceOnUse">
<stop/>
<stop offset="0.203125" stop-opacity="0"/>
<stop offset="0.484375"/>
<stop offset="0.770833" stop-opacity="0"/>
<stop offset="1"/>
</linearGradient>
<linearGradient id="paint5_linear_1804_1220" x1="11.2529" y1="11.031" x2="12.8935" y2="12.708" gradientUnits="userSpaceOnUse">
<stop stop-color="white"/>
<stop offset="1" stop-color="white" stop-opacity="0"/>
</linearGradient>
<clipPath id="clip0_1804_1220">
<rect width="25" height="23.4375" fill="white"/>
</clipPath>
</defs>
</svg>
