<svg width="169" height="38" viewBox="0 0 169 38" fill="none" xmlns="http://www.w3.org/2000/svg">
<path d="M0.521484 18.9428C0.521484 29.1061 8.84427 37.3449 19.1112 37.3449C29.3782 37.3449 37.7015 29.1061 37.7015 18.9428C37.7015 8.7794 29.3782 0.540527 19.1112 0.540527C8.84427 0.540527 0.521484 8.77938 0.521484 18.9428Z" fill="#0C0C4F" stroke="url(#paint0_linear_1804_1068)"/>
<path fill-rule="evenodd" clip-rule="evenodd" d="M10.7001 14.4946L11.1709 13.0547C11.2666 12.7619 11.5001 12.534 11.797 12.4441L13.2587 11.9992C13.461 11.938 13.4627 11.6554 13.262 11.591L11.8069 11.1249C11.5116 11.0302 11.2814 10.7991 11.1901 10.5051L10.7411 9.0582C10.6793 8.85845 10.3939 8.85627 10.3288 9.0555L9.85797 10.4954C9.76227 10.7877 9.52878 11.0156 9.23185 11.106L7.77017 11.5504C7.56785 11.6121 7.56565 11.8941 7.76688 11.9586L9.222 12.4246C9.51729 12.5194 9.74752 12.751 9.83882 13.045L10.2878 14.4914C10.3496 14.6917 10.635 14.6938 10.7001 14.4946Z" fill="#FAFAFA"/>
<path fill-rule="evenodd" clip-rule="evenodd" d="M33.8024 13.6566C33.2 12.9896 32.2594 12.614 31.3451 12.46C30.4236 12.3121 29.4572 12.3258 28.5475 12.4858C26.7066 12.794 25.0342 13.5486 23.5755 14.4794C22.8181 14.9363 22.1721 15.4649 21.5028 16.0032C21.1804 16.2755 20.8864 16.5655 20.5802 16.8512L19.7436 17.6752C18.8346 18.6159 17.9386 19.4726 17.0717 20.1827C16.2012 20.8896 15.3875 21.4264 14.5855 21.8013C13.784 22.1782 12.9264 22.3998 11.8086 22.4353C10.7007 22.474 9.38982 22.276 7.98765 21.9493C6.57795 21.624 5.0976 21.1603 3.44336 20.7613C4.02057 22.3465 4.88976 23.7473 6.00571 25.0277C7.13475 26.286 8.5446 27.433 10.3557 28.1872C12.1407 28.9582 14.3838 29.235 16.4812 28.8174C18.5841 28.4166 20.4295 27.4533 21.9212 26.3393C23.4167 25.2139 24.6267 23.9319 25.6467 22.599C25.9282 22.2308 26.0772 22.0247 26.2809 21.7368L26.8442 20.911C27.2355 20.4002 27.5919 19.8186 27.9794 19.3124C28.7389 18.2525 29.4876 17.1937 30.3577 16.2183C30.7956 15.7235 31.2575 15.2503 31.8026 14.7955C32.0747 14.5735 32.3683 14.3563 32.6938 14.1606C33.024 13.9495 33.3729 13.7843 33.8024 13.6566Z" fill="url(#paint1_linear_1804_1068)"/>
<path fill-rule="evenodd" clip-rule="evenodd" d="M33.8024 13.6567C33.1551 12.0397 31.9516 10.6785 30.3365 9.67407C28.7307 8.68067 26.5009 8.17371 24.2913 8.60586C23.1996 8.81486 22.1419 9.21723 21.2139 9.75305C20.2899 10.2868 19.462 10.9292 18.7453 11.6184C18.3875 11.9642 18.0627 12.3249 17.7401 12.6877L16.9038 13.7431L15.6122 15.4421C13.9656 17.628 12.1924 20.1898 9.28253 20.9489C6.42587 21.694 5.18688 21.0341 3.44336 20.7614C3.76217 21.5762 4.15705 22.3674 4.69241 23.0635C5.21779 23.7737 5.83833 24.4407 6.60984 25.0124C6.99972 25.287 7.41136 25.558 7.86855 25.7879C8.32365 26.0099 8.81442 26.2054 9.33827 26.3526C10.3803 26.6354 11.5534 26.7343 12.6893 26.5823C13.8256 26.4322 14.9118 26.0756 15.8613 25.6022C16.8177 25.1333 17.6509 24.5621 18.3948 23.9593C19.8737 22.7435 21.024 21.4002 21.9957 20.0424C22.4844 19.3635 22.9281 18.6718 23.3384 17.9799L23.8213 17.1562C23.969 16.9154 24.1183 16.6732 24.2701 16.4476C24.8819 15.5411 25.4804 14.8142 26.2073 14.2686C26.9241 13.709 27.9224 13.2954 29.2563 13.1994C30.5846 13.1022 32.1182 13.2817 33.8024 13.6567Z" fill="#FAFAFA"/>
<path fill-rule="evenodd" clip-rule="evenodd" d="M26.6152 27.0919C26.6152 28.2794 27.5884 29.2428 28.7881 29.2428C29.988 29.2428 30.9597 28.2794 30.9597 27.0919C30.9597 25.9043 29.988 24.9409 28.7881 24.9409C27.5884 24.9409 26.6152 25.9043 26.6152 27.0919Z" fill="url(#paint2_linear_1804_1068)"/>
<path d="M166.73 13.6632V11.4914C166.73 11.4053 166.66 11.3354 166.573 11.3354H154.071C153.985 11.3354 153.914 11.4053 153.914 11.4914V13.6632H158.995V27.7138H161.649V13.6632H166.73Z" fill="white"/>
<path d="M140.849 11.3354C140.762 11.3354 140.691 11.4052 140.691 11.4914V27.5577C140.691 27.6437 140.762 27.7138 140.849 27.7138H151.369C151.456 27.7138 151.526 27.6437 151.526 27.5577V25.4089H143.346V20.2616H150.105V18.0031H143.346V13.6402H150.944V11.4914C150.944 11.4053 150.873 11.3354 150.786 11.3354H140.849Z" fill="white"/>
<path d="M134.749 27.6184L134.806 27.7138H136.845C136.932 27.7138 137.003 27.6437 137.003 27.5577V11.4914C137.003 11.4053 136.932 11.3354 136.845 11.3354H134.395V22.6783C133.969 22.0078 133.475 21.2697 132.913 20.4642C132.196 19.416 131.426 18.3526 130.601 17.274C129.792 16.1802 128.967 15.1246 128.126 14.1075C127.3 13.0742 126.52 12.1704 125.785 11.3968L125.727 11.3354H123.808C123.721 11.3354 123.65 11.4052 123.65 11.4914V27.5577C123.65 27.6437 123.721 27.7138 123.808 27.7138H126.258V15.5625C126.593 15.9542 126.95 16.3883 127.328 16.8649C127.839 17.5088 128.366 18.1991 128.909 18.9357L128.909 18.9365L128.91 18.9373C129.452 19.6581 129.995 20.4097 130.537 21.1921L130.538 21.1932L130.539 21.1943C131.097 21.9771 131.632 22.7522 132.143 23.5194L132.144 23.5202L132.144 23.5209C132.655 24.2723 133.128 25.0005 133.561 25.7053L133.562 25.7065L133.563 25.7079C134.013 26.4141 134.408 27.051 134.749 27.6184Z" fill="white"/>
<path d="M120.443 11.6617L120.503 11.5964C120.595 11.4963 120.524 11.3354 120.387 11.3354H117.48L117.421 11.4031C117.036 11.8461 116.556 12.3666 115.983 12.9651C115.424 13.5487 114.827 14.1634 114.19 14.8087C113.554 15.4539 112.91 16.0991 112.258 16.7443C111.737 17.248 111.251 17.7124 110.799 18.1372V11.3354H108.302C108.215 11.3354 108.145 11.4052 108.145 11.4914V27.5577C108.145 27.6437 108.215 27.7138 108.302 27.7138H110.799V20.2835C111.347 20.6388 111.907 21.0544 112.48 21.531L112.481 21.5317L112.481 21.5323C113.175 22.0967 113.853 22.7148 114.517 23.3868L114.518 23.3884L114.52 23.39C115.198 24.0462 115.838 24.7404 116.439 25.473L116.44 25.4737L116.44 25.4746C117.041 26.1918 117.573 26.9081 118.034 27.6237L118.092 27.7138H120.925C121.046 27.7138 121.122 27.584 121.061 27.48L121.028 27.4217C120.602 26.6892 120.069 25.9204 119.427 25.1149C118.802 24.3107 118.131 23.5223 117.412 22.7495C116.694 21.9765 115.96 21.2497 115.21 20.569C114.531 19.9526 113.881 19.4232 113.263 18.9818C113.789 18.4733 114.347 17.9273 114.936 17.3437C115.589 16.6972 116.243 16.043 116.896 15.381C117.564 14.7037 118.202 14.0494 118.809 13.4181L118.809 13.4172L118.81 13.4164C119.417 12.7701 119.961 12.1851 120.443 11.6617Z" fill="white"/>
<path fill-rule="evenodd" clip-rule="evenodd" d="M93.0773 11.2128C92.9904 11.2128 92.9199 11.2826 92.9199 11.3687V27.5676C92.9199 27.6539 92.9904 27.7236 93.0773 27.7236H95.3267V21.7677H98.6126C98.9822 22.2059 99.3427 22.6643 99.6944 23.143L99.6956 23.1448L99.6971 23.1466C100.272 23.8931 100.804 24.6717 101.291 25.4828L101.292 25.4836L101.292 25.4845C101.734 26.2022 102.12 26.9111 102.449 27.6111L102.502 27.7236H105.164C105.278 27.7236 105.354 27.6072 105.307 27.5045C105.001 26.8406 104.669 26.1903 104.301 25.5569C103.8 24.6717 103.251 23.7951 102.653 22.9275C102.311 22.4317 101.963 21.95 101.607 21.4825C102.599 21.182 103.385 20.6386 103.953 19.85L103.953 19.8493C104.635 18.8949 104.973 17.7723 104.973 16.4902C104.973 15.6091 104.819 14.803 104.506 14.0745C104.191 13.3355 103.718 12.7226 103.088 12.2391C102.462 11.753 101.692 11.4436 100.783 11.3049C100.572 11.2663 100.353 11.2432 100.128 11.2353C99.9073 11.2203 99.7152 11.2127 99.5517 11.2127C98.8617 11.2127 98.1715 11.2126 97.4815 11.2125C96.0133 11.2124 94.5455 11.2123 93.0773 11.2128ZM102.522 16.4902C102.522 16.9157 102.45 17.3345 102.306 17.7472C102.166 18.1436 101.941 18.4911 101.631 18.7913C101.337 19.0756 100.949 19.2773 100.458 19.3901C100.302 19.4251 100.135 19.4499 99.9544 19.4642L99.9542 19.4642L99.9539 19.4642C99.777 19.4788 99.6205 19.4859 99.4839 19.4859H95.3267V13.4945H99.4839C99.6205 13.4945 99.777 13.5016 99.9539 13.5162L99.958 13.5165L99.9624 13.5167C100.137 13.5236 100.3 13.5478 100.45 13.5884L100.455 13.5897L100.46 13.5908C100.949 13.6961 101.336 13.897 101.629 14.1874L101.63 14.1883L101.631 14.189C101.941 14.4888 102.165 14.8398 102.306 15.2439V15.2444L102.306 15.2449C102.45 15.6497 102.522 16.0645 102.522 16.4902Z" fill="white"/>
<path fill-rule="evenodd" clip-rule="evenodd" d="M87.0136 25.5513L87.0139 25.5521L87.0141 25.5528C87.2476 26.2157 87.4967 26.894 87.7616 27.5876L87.8096 27.7138H90.4723C90.5817 27.7138 90.6578 27.6062 90.6203 27.5044C90.0387 25.9225 89.4516 24.3425 88.8526 22.767C88.3084 21.3202 87.772 19.95 87.243 18.6565C86.7297 17.3629 86.2162 16.1307 85.7027 14.9599C85.1875 13.7698 84.6452 12.5916 84.0805 11.4239C84.0542 11.3698 83.9992 11.3354 83.9386 11.3354H81.8147C81.7541 11.3354 81.6988 11.3698 81.6728 11.4239C81.1078 12.5916 80.5658 13.7699 80.0506 14.96C79.5371 16.1304 79.0161 17.3622 78.4874 18.6555L78.4869 18.6564L78.4866 18.6573C77.9733 19.9504 77.4446 21.3203 76.9007 22.7669C76.3015 24.3425 75.7143 25.9225 75.1327 27.5044C75.0953 27.6062 75.1713 27.7138 75.2807 27.7138H77.8297L77.8299 27.7135H77.8797L77.9381 27.6514C78.553 26.998 79.2404 26.3565 80.0004 25.7275L80.0011 25.727L80.0018 25.7263C80.7647 25.0815 81.5603 24.4835 82.3881 23.9322L82.39 23.931L82.3917 23.9295C83.2073 23.3592 84.0281 22.8473 84.8541 22.3938L84.855 22.3933L84.856 22.3928C85.1534 22.2252 85.4463 22.0691 85.7346 21.9244L86.2918 23.4999L86.2923 23.5011C86.5404 24.1924 86.7809 24.8757 87.0136 25.5513ZM84.1491 17.7824L84.1496 17.7837L84.1501 17.7851C84.3743 18.3471 84.5986 18.9185 84.8229 19.4994C84.8063 19.5067 84.7891 19.5143 84.7717 19.5222C83.9825 19.878 83.1341 20.3381 82.2271 20.9012C81.3587 21.4404 80.497 22.0262 79.6423 22.6586L80.0042 21.6355C80.483 20.3058 80.9618 19.0219 81.4405 17.7837C81.8806 16.667 82.3391 15.593 82.8157 14.5615C83.2783 15.5926 83.7227 16.6662 84.1491 17.7824Z" fill="white"/>
<path d="M75.7828 13.6632V11.4914C75.7828 11.4053 75.7123 11.3354 75.6251 11.3354H63.1242C63.0373 11.3354 62.9668 11.4053 62.9668 11.4914V13.6632H68.0474V27.5577C68.0474 27.6437 68.1179 27.7138 68.2051 27.7138H70.5445C70.6314 27.7138 70.7019 27.6437 70.7019 27.5577V13.6632H75.7828Z" fill="white"/>
<path d="M51.4954 27.5148L51.4946 27.5145C50.5318 27.1082 49.731 26.5282 49.0961 25.7739L49.0953 25.773L49.0946 25.7723C48.4662 25.0084 48.0579 24.1079 47.8684 23.0754C47.859 23.0238 47.8708 22.9705 47.9015 22.9277C47.9321 22.8849 47.979 22.8562 48.0314 22.848L50.1489 22.5177C50.2491 22.502 50.345 22.5643 50.3701 22.6616C50.6274 23.6514 51.1571 24.4196 51.9601 24.9764C52.7752 25.5285 53.7363 25.8074 54.8517 25.8074C55.5753 25.8074 56.2218 25.6967 56.7942 25.479C57.3732 25.2539 57.8227 24.9382 58.1508 24.5357C58.4736 24.1399 58.6366 23.6712 58.6366 23.1203C58.6366 22.7783 58.5753 22.4983 58.4616 22.2733C58.4606 22.2713 58.4596 22.2693 58.4587 22.2672C58.3481 22.0275 58.1936 21.8273 57.9944 21.6642C57.9925 21.6626 57.9905 21.6611 57.9888 21.6594C57.7889 21.4828 57.5593 21.3334 57.2993 21.2118C57.0333 21.0874 56.7559 20.9849 56.4669 20.9042L56.4642 20.9035L52.2404 19.6616C51.7701 19.522 51.3155 19.3474 50.8766 19.1379L50.8754 19.1373L50.8739 19.1366C50.4283 18.916 50.0289 18.6435 49.6769 18.3189L49.676 18.3178L49.6752 18.3173C49.3184 17.9801 49.0355 17.5793 48.8261 17.1168L48.8257 17.1157C48.6127 16.6377 48.5096 16.0819 48.5096 15.4536C48.5096 14.4464 48.7725 13.5767 49.3073 12.855L49.3075 12.8547C49.8445 12.1327 50.5685 11.584 51.4724 11.2072C52.3754 10.8309 53.3882 10.6487 54.5079 10.6565C55.6426 10.6642 56.6634 10.8657 57.5663 11.2654C58.4763 11.6572 59.231 12.2228 59.8268 12.962C60.4319 13.7029 60.8353 14.587 61.0402 15.6094C61.0506 15.6608 61.0395 15.7142 61.0096 15.7575C60.9797 15.8008 60.9333 15.8303 60.8811 15.8393L58.7061 16.2152C58.6545 16.2241 58.6016 16.2123 58.5588 16.1825C58.5159 16.1526 58.4869 16.1071 58.4782 16.056C58.3684 15.418 58.1245 14.8769 57.7493 14.4271L57.7472 14.4245C57.3763 13.9638 56.9113 13.6109 56.3488 13.365L56.3469 13.3641C55.7831 13.1105 55.1622 12.9788 54.4814 12.9715H54.4811C53.8285 12.9641 53.2452 13.0669 52.7281 13.276C52.2095 13.4856 51.8049 13.775 51.5065 14.1408L51.5053 14.1422C51.2124 14.4941 51.0668 14.8982 51.0668 15.3625C51.0668 15.8236 51.1996 16.1792 51.451 16.4481C51.7221 16.7305 52.0555 16.9585 52.4543 17.131C52.8771 17.3028 53.2873 17.4443 53.6854 17.5559L53.6863 17.5561L56.8384 18.4558C57.2059 18.5564 57.6255 18.695 58.0968 18.8709C58.59 19.052 59.0656 19.3073 59.5234 19.6354C59.9946 19.9654 60.3816 20.406 60.6856 20.9524C60.998 21.5059 61.1477 22.1942 61.1477 23.0064C61.1477 23.8227 60.9811 24.5565 60.6426 25.2027C60.3143 25.8449 59.8531 26.3843 59.2616 26.8195L59.2602 26.8205C58.6721 27.2454 57.991 27.5662 57.2199 27.7844C56.4483 28.0102 55.624 28.1225 54.7481 28.1225C53.5519 28.1225 52.4664 27.9213 51.4954 27.5148Z" fill="white"/>
<defs>
<linearGradient id="paint0_linear_1804_1068" x1="36.1322" y1="9.74178" x2="1.53692" y2="16.2265" gradientUnits="userSpaceOnUse">
<stop stop-color="#EC796B"/>
<stop offset="1" stop-color="#E175B1"/>
</linearGradient>
<linearGradient id="paint1_linear_1804_1068" x1="33.6402" y1="13.0892" x2="7.04831" y2="28.0151" gradientUnits="userSpaceOnUse">
<stop stop-color="#EC796B"/>
<stop offset="1" stop-color="#E175B1"/>
</linearGradient>
<linearGradient id="paint2_linear_1804_1068" x1="30.9583" y1="25.5829" x2="26.6133" y2="26.0474" gradientUnits="userSpaceOnUse">
<stop stop-color="#EC796B"/>
<stop offset="1" stop-color="#E175B1"/>
</linearGradient>
</defs>
</svg>
