<svg width="25" height="25" viewBox="0 0 25 25" fill="none" xmlns="http://www.w3.org/2000/svg">
<g id="SN-Symbol-Gradient - On dark bg 3" clip-path="url(#clip0_1804_1134)">
<path id="Vector" d="M0.316406 12.4998C0.316406 19.2286 5.77101 24.6832 12.4998 24.6832C19.2286 24.6832 24.6835 19.2284 24.6835 12.4998C24.6835 5.77103 19.2286 0.316406 12.4998 0.316406C5.77101 0.316406 0.316406 5.77101 0.316406 12.4998Z" fill="#0C0C4F" stroke="url(#paint0_linear_1804_1134)"/>
<path id="Vector_2" fill-rule="evenodd" clip-rule="evenodd" d="M6.9863 9.55489L7.29486 8.6016C7.35758 8.40771 7.51061 8.25684 7.70521 8.19734L8.66317 7.90276C8.79576 7.86225 8.79684 7.67518 8.66532 7.63253L7.71167 7.32396C7.51814 7.26125 7.36725 7.10821 7.30741 6.91361L7.01317 5.95567C6.97268 5.82342 6.78561 5.82198 6.74295 5.95386L6.43439 6.90717C6.37167 7.10068 6.21864 7.25157 6.02404 7.31143L5.06608 7.60565C4.93349 7.64651 4.93205 7.83323 5.06393 7.87587L6.01758 8.18443C6.21111 8.24715 6.362 8.40054 6.42184 8.59514L6.71608 9.55274C6.75657 9.68533 6.94364 9.68677 6.9863 9.55489Z" fill="#FAFAFA"/>
<path id="Vector_3" fill-rule="evenodd" clip-rule="evenodd" d="M22.1282 9.00008C21.7333 8.55847 21.117 8.30983 20.5178 8.20787C19.9138 8.10994 19.2804 8.11902 18.6842 8.22496C17.4777 8.42904 16.3817 8.92859 15.4257 9.54488C14.9293 9.84733 14.5059 10.1973 14.0673 10.5537C13.856 10.734 13.6633 10.9259 13.4626 11.1151L12.9143 11.6607C12.3186 12.2834 11.7314 12.8506 11.1632 13.3208C10.5927 13.7888 10.0594 14.1442 9.53379 14.3924C9.00852 14.6419 8.44648 14.7886 7.7139 14.8121C6.98776 14.8377 6.12865 14.7066 5.20969 14.4903C4.2858 14.275 3.31561 13.968 2.23145 13.7038C2.60974 14.7533 3.17939 15.6807 3.91076 16.5286C4.65072 17.3616 5.57469 18.1208 6.76167 18.6202C7.93149 19.1306 9.40159 19.3138 10.7762 19.0374C12.1544 18.7721 13.3639 18.1344 14.3415 17.3968C15.3216 16.6517 16.1146 15.8029 16.7831 14.9205C16.9676 14.6767 17.0652 14.5403 17.1988 14.3497L17.5679 13.8029C17.8244 13.4647 18.058 13.0797 18.3118 12.7446C18.8095 12.0428 19.3004 11.3419 19.8706 10.6961C20.1576 10.3685 20.4603 10.0552 20.8176 9.75413C20.9958 9.60717 21.1883 9.46334 21.4016 9.33378C21.6181 9.19404 21.8467 9.08465 22.1282 9.00008Z" fill="url(#paint1_linear_1804_1134)"/>
<path id="Vector_4" fill-rule="evenodd" clip-rule="evenodd" d="M22.1282 9.00014C21.704 7.92957 20.9152 7.0284 19.8565 6.36342C18.8043 5.70573 17.3429 5.3701 15.8947 5.6562C15.1793 5.79457 14.4861 6.06097 13.8779 6.41571C13.2724 6.76905 12.7298 7.1944 12.2601 7.65071C12.0256 7.87964 11.8127 8.11843 11.6013 8.35859L11.0532 9.05734L10.2067 10.1822C9.12752 11.6294 7.96542 13.3254 6.05833 13.828C4.18613 14.3213 3.37412 13.8844 2.23145 13.7039C2.44039 14.2433 2.69918 14.7672 3.05004 15.228C3.39436 15.6982 3.80107 16.1397 4.3067 16.5184C4.56222 16.7002 4.832 16.8796 5.13162 17.0318C5.4299 17.1788 5.75154 17.3082 6.09486 17.4056C6.77777 17.5927 7.54662 17.6584 8.29103 17.5576C9.0358 17.4582 9.74766 17.2223 10.3699 16.9089C10.9967 16.5983 11.5428 16.2201 12.0304 15.8211C12.9996 15.0162 13.7535 14.1268 14.3903 13.2279C14.7106 12.7784 15.0014 12.3205 15.2703 11.8624L15.5868 11.317C15.6836 11.1576 15.7814 10.9972 15.8807 10.8479C16.2819 10.2477 16.6741 9.76649 17.1505 9.40529C17.6203 9.03475 18.2746 8.76098 19.1488 8.69739C20.0194 8.63302 21.0244 8.75191 22.1282 9.00014Z" fill="#FAFAFA"/>
<path id="Vector_5" fill-rule="evenodd" clip-rule="evenodd" d="M17.418 17.895C17.418 18.6814 18.0558 19.319 18.842 19.319C19.6284 19.319 20.2653 18.6814 20.2653 17.895C20.2653 17.1088 19.6284 16.4709 18.842 16.4709C18.0558 16.4709 17.418 17.1088 17.418 17.895Z" fill="url(#paint2_linear_1804_1134)"/>
</g>
<defs>
<linearGradient id="paint0_linear_1804_1134" x1="23.655" y1="6.40818" x2="0.966451" y2="10.6181" gradientUnits="userSpaceOnUse">
<stop stop-color="#EC796B"/>
<stop offset="1" stop-color="#E175B1"/>
</linearGradient>
<linearGradient id="paint1_linear_1804_1134" x1="22.0219" y1="8.62445" x2="4.50986" y2="18.3547" gradientUnits="userSpaceOnUse">
<stop stop-color="#EC796B"/>
<stop offset="1" stop-color="#E175B1"/>
</linearGradient>
<linearGradient id="paint2_linear_1804_1134" x1="20.2643" y1="16.8961" x2="17.4161" y2="17.1974" gradientUnits="userSpaceOnUse">
<stop stop-color="#EC796B"/>
<stop offset="1" stop-color="#E175B1"/>
</linearGradient>
<clipPath id="clip0_1804_1134">
<rect width="25" height="25" fill="white"/>
</clipPath>
</defs>
</svg>
